<?xml version="1.0" encoding="UTF-8" standalone="no"?>
<!-- This is a Stata 18.0 generated SVG file (http://www.stata.com) -->

<svg version="1.1" width="7.500in" height="4.500in" viewBox="0 0 5400 3240" xmlns="http://www.w3.org/2000/svg" xmlns:xlink="http://www.w3.org/1999/xlink">
	<desc>Stata Graph - Graph</desc>
	<rect x="0" y="0" width="5400" height="3240" style="fill:#FFFFFF;stroke:none"/>
	<rect x="0.00" y="0.00" width="5400.00" height="3240.00" style="fill:#FFFFFF"/>
	<rect x="3.24" y="3.24" width="5393.52" height="3233.52" style="fill:none;stroke:#FFFFFF;stroke-width:6.48"/>
	<rect x="71.21" y="71.21" width="1752.47" height="1548.79" style="fill:#FFFFFF"/>
	<rect x="73.37" y="73.37" width="1748.15" height="1544.47" style="fill:none;stroke:#FFFFFF;stroke-width:4.32"/>
	<rect x="486.84" y="146.81" width="1261.24" height="1071.73" style="fill:#FFFFFF"/>
	<rect x="489.00" y="148.97" width="1256.92" height="1067.41" style="fill:none;stroke:#FFFFFF;stroke-width:4.32"/>
	<circle cx="620.66" cy="656.78" r="14.55" style="fill:#1A85FF"/>
	<circle cx="620.66" cy="656.78" r="11.31" style="fill:none;stroke:#1A85FF;stroke-width:6.48"/>
	<circle cx="1513.35" cy="790.26" r="14.55" style="fill:#1A85FF"/>
	<circle cx="1513.35" cy="790.26" r="11.31" style="fill:none;stroke:#1A85FF;stroke-width:6.48"/>
	<circle cx="1340.55" cy="759.21" r="14.55" style="fill:#1A85FF"/>
	<circle cx="1340.55" cy="759.21" r="11.31" style="fill:none;stroke:#1A85FF;stroke-width:6.48"/>
	<circle cx="1139.06" cy="752.79" r="14.55" style="fill:#1A85FF"/>
	<circle cx="1139.06" cy="752.79" r="11.31" style="fill:none;stroke:#1A85FF;stroke-width:6.48"/>
	<circle cx="1484.66" cy="780.47" r="14.55" style="fill:#1A85FF"/>
	<circle cx="1484.66" cy="780.47" r="11.31" style="fill:none;stroke:#1A85FF;stroke-width:6.48"/>
	<circle cx="1052.66" cy="800.04" r="14.55" style="fill:#1A85FF"/>
	<circle cx="1052.66" cy="800.04" r="11.31" style="fill:none;stroke:#1A85FF;stroke-width:6.48"/>
	<circle cx="1441.46" cy="760.89" r="14.55" style="fill:#1A85FF"/>
	<circle cx="1441.46" cy="760.89" r="11.31" style="fill:none;stroke:#1A85FF;stroke-width:6.48"/>
	<circle cx="923.06" cy="672.97" r="14.55" style="fill:#1A85FF"/>
	<circle cx="923.06" cy="672.97" r="11.31" style="fill:none;stroke:#1A85FF;stroke-width:6.48"/>
	<circle cx="1210.95" cy="448.37" r="14.55" style="fill:#1A85FF"/>
	<circle cx="1210.95" cy="448.37" r="11.31" style="fill:none;stroke:#1A85FF;stroke-width:6.48"/>
	<circle cx="1182.26" cy="589.95" r="14.55" style="fill:#1A85FF"/>
	<circle cx="1182.26" cy="589.95" r="11.31" style="fill:none;stroke:#1A85FF;stroke-width:6.48"/>
	<circle cx="1470.15" cy="970.82" r="14.55" style="fill:#1A85FF"/>
	<circle cx="1470.15" cy="970.82" r="11.31" style="fill:none;stroke:#1A85FF;stroke-width:6.48"/>
	<circle cx="1657.29" cy="983.81" r="14.55" style="fill:#1A85FF"/>
	<circle cx="1657.29" cy="983.81" r="11.31" style="fill:none;stroke:#1A85FF;stroke-width:6.48"/>
	<circle cx="1067.01" cy="814.56" r="14.55" style="fill:#1A85FF"/>
	<circle cx="1067.01" cy="814.56" r="11.31" style="fill:none;stroke:#1A85FF;stroke-width:6.48"/>
	<circle cx="534.26" cy="492.41" r="14.55" style="fill:#1A85FF"/>
	<circle cx="534.26" cy="492.41" r="11.31" style="fill:none;stroke:#1A85FF;stroke-width:6.48"/>
	<circle cx="1009.46" cy="627.41" r="14.55" style="fill:#1A85FF"/>
	<circle cx="1009.46" cy="627.41" r="11.31" style="fill:none;stroke:#1A85FF;stroke-width:6.48"/>
	<circle cx="1412.61" cy="804.77" r="14.55" style="fill:#1A85FF"/>
	<circle cx="1412.61" cy="804.77" r="11.31" style="fill:none;stroke:#1A85FF;stroke-width:6.48"/>
	<line x1="486.84" y1="1218.54" x2="486.84" y2="146.81" style="stroke:#000000;stroke-width:4.32"/>
	<line x1="486.84" y1="1170.96" x2="456.81" y2="1170.96" style="stroke:#000000;stroke-width:4.32"/>
	<text x="441.96" y="1197.22" style="font-family:'Helvetica';font-size:74.93px;fill:#000000" text-anchor="end">0,00</text>
	<line x1="486.84" y1="1008.28" x2="456.81" y2="1008.28" style="stroke:#000000;stroke-width:4.32"/>
	<text x="441.96" y="1034.55" style="font-family:'Helvetica';font-size:74.93px;fill:#000000" text-anchor="end">1,00</text>
	<line x1="486.84" y1="845.44" x2="456.81" y2="845.44" style="stroke:#000000;stroke-width:4.32"/>
	<text x="441.96" y="871.70" style="font-family:'Helvetica';font-size:74.93px;fill:#000000" text-anchor="end">2,00</text>
	<line x1="486.84" y1="682.76" x2="456.81" y2="682.76" style="stroke:#000000;stroke-width:4.32"/>
	<text x="441.96" y="709.03" style="font-family:'Helvetica';font-size:74.93px;fill:#000000" text-anchor="end">3,00</text>
	<line x1="486.84" y1="519.92" x2="456.81" y2="519.92" style="stroke:#000000;stroke-width:4.32"/>
	<text x="441.96" y="546.18" style="font-family:'Helvetica';font-size:74.93px;fill:#000000" text-anchor="end">4,00</text>
	<line x1="486.84" y1="357.24" x2="456.81" y2="357.24" style="stroke:#000000;stroke-width:4.32"/>
	<text x="441.96" y="383.51" style="font-family:'Helvetica';font-size:74.93px;fill:#000000" text-anchor="end">5,00</text>
	<line x1="486.84" y1="194.40" x2="456.81" y2="194.40" style="stroke:#000000;stroke-width:4.32"/>
	<text x="441.96" y="220.67" style="font-family:'Helvetica';font-size:74.93px;fill:#000000" text-anchor="end">6,00</text>
	<text x="214.36" y="682.76" style="font-family:'Helvetica';font-size:74.93px;fill:#000000" transform="rotate(-90 214.36,682.76)" text-anchor="middle">CVF(L)</text>
	<line x1="486.84" y1="1218.54" x2="1748.08" y2="1218.54" style="stroke:#000000;stroke-width:4.32"/>
	<line x1="548.78" y1="1218.54" x2="548.78" y2="1248.58" style="stroke:#000000;stroke-width:4.32"/>
	<text x="548.78" y="1315.79" style="font-family:'Helvetica';font-size:74.93px;fill:#000000" text-anchor="middle">20</text>
	<line x1="836.83" y1="1218.54" x2="836.83" y2="1248.58" style="stroke:#000000;stroke-width:4.32"/>
	<text x="836.83" y="1315.79" style="font-family:'Helvetica';font-size:74.93px;fill:#000000" text-anchor="middle">40</text>
	<line x1="1124.72" y1="1218.54" x2="1124.72" y2="1248.58" style="stroke:#000000;stroke-width:4.32"/>
	<text x="1124.72" y="1315.79" style="font-family:'Helvetica';font-size:74.93px;fill:#000000" text-anchor="middle">60</text>
	<line x1="1412.61" y1="1218.54" x2="1412.61" y2="1248.58" style="stroke:#000000;stroke-width:4.32"/>
	<text x="1412.61" y="1315.79" style="font-family:'Helvetica';font-size:74.93px;fill:#000000" text-anchor="middle">80</text>
	<line x1="1700.66" y1="1218.54" x2="1700.66" y2="1248.58" style="stroke:#000000;stroke-width:4.32"/>
	<text x="1700.66" y="1315.79" style="font-family:'Helvetica';font-size:74.93px;fill:#000000" text-anchor="middle">100</text>
	<text x="1117.46" y="1420.93" style="font-family:'Helvetica';font-size:74.93px;fill:#000000" text-anchor="middle">ICARS</text>
	<text x="499.84" y="1513.35" style="font-family:'Helvetica';font-size:59.91px;fill:#000000">Spearman's rho = -0,33; p=0,41</text>
	<rect x="1823.68" y="71.21" width="1752.64" height="1548.79" style="fill:#FFFFFF"/>
	<rect x="1825.84" y="73.37" width="1748.32" height="1544.47" style="fill:none;stroke:#FFFFFF;stroke-width:4.32"/>
	<rect x="2129.96" y="146.81" width="1370.76" height="1071.73" style="fill:#FFFFFF"/>
	<rect x="2132.12" y="148.97" width="1366.44" height="1067.41" style="fill:none;stroke:#FFFFFF;stroke-width:4.32"/>
	<circle cx="2271.88" cy="712.13" r="14.55" style="fill:#1A85FF"/>
	<circle cx="2271.88" cy="712.13" r="11.31" style="fill:none;stroke:#1A85FF;stroke-width:6.48"/>
	<circle cx="3248.27" cy="808.14" r="14.55" style="fill:#1A85FF"/>
	<circle cx="3248.27" cy="808.14" r="11.31" style="fill:none;stroke:#1A85FF;stroke-width:6.48"/>
	<circle cx="3059.27" cy="840.71" r="14.55" style="fill:#1A85FF"/>
	<circle cx="3059.27" cy="840.71" r="11.31" style="fill:none;stroke:#1A85FF;stroke-width:6.48"/>
	<circle cx="2838.88" cy="811.35" r="14.55" style="fill:#1A85FF"/>
	<circle cx="2838.88" cy="811.35" r="11.31" style="fill:none;stroke:#1A85FF;stroke-width:6.48"/>
	<circle cx="3216.88" cy="871.59" r="14.55" style="fill:#1A85FF"/>
	<circle cx="3216.88" cy="871.59" r="11.31" style="fill:none;stroke:#1A85FF;stroke-width:6.48"/>
	<circle cx="2744.38" cy="822.82" r="14.55" style="fill:#1A85FF"/>
	<circle cx="2744.38" cy="822.82" r="11.31" style="fill:none;stroke:#1A85FF;stroke-width:6.48"/>
	<circle cx="3169.63" cy="842.23" r="14.55" style="fill:#1A85FF"/>
	<circle cx="3169.63" cy="842.23" r="11.31" style="fill:none;stroke:#1A85FF;stroke-width:6.48"/>
	<circle cx="2602.63" cy="791.78" r="14.55" style="fill:#1A85FF"/>
	<circle cx="2602.63" cy="791.78" r="11.31" style="fill:none;stroke:#1A85FF;stroke-width:6.48"/>
	<circle cx="2917.52" cy="568.86" r="14.55" style="fill:#1A85FF"/>
	<circle cx="2917.52" cy="568.86" r="11.31" style="fill:none;stroke:#1A85FF;stroke-width:6.48"/>
	<circle cx="2886.13" cy="717.02" r="14.55" style="fill:#1A85FF"/>
	<circle cx="2886.13" cy="717.02" r="11.31" style="fill:none;stroke:#1A85FF;stroke-width:6.48"/>
	<circle cx="3201.02" cy="990.39" r="14.55" style="fill:#1A85FF"/>
	<circle cx="3201.02" cy="990.39" r="11.31" style="fill:none;stroke:#1A85FF;stroke-width:6.48"/>
	<circle cx="3405.71" cy="996.97" r="14.55" style="fill:#1A85FF"/>
	<circle cx="3405.71" cy="996.97" r="11.31" style="fill:none;stroke:#1A85FF;stroke-width:6.48"/>
	<circle cx="2760.08" cy="868.39" r="14.55" style="fill:#1A85FF"/>
	<circle cx="2760.08" cy="868.39" r="11.31" style="fill:none;stroke:#1A85FF;stroke-width:6.48"/>
	<circle cx="2177.38" cy="659.98" r="14.55" style="fill:#1A85FF"/>
	<circle cx="2177.38" cy="659.98" r="11.31" style="fill:none;stroke:#1A85FF;stroke-width:6.48"/>
	<circle cx="2697.13" cy="702.34" r="14.55" style="fill:#1A85FF"/>
	<circle cx="2697.13" cy="702.34" r="11.31" style="fill:none;stroke:#1A85FF;stroke-width:6.48"/>
	<circle cx="3138.08" cy="863.49" r="14.55" style="fill:#1A85FF"/>
	<circle cx="3138.08" cy="863.49" r="11.31" style="fill:none;stroke:#1A85FF;stroke-width:6.48"/>
	<line x1="2129.96" y1="1218.54" x2="2129.96" y2="146.81" style="stroke:#000000;stroke-width:4.32"/>
	<line x1="2129.96" y1="1170.96" x2="2099.93" y2="1170.96" style="stroke:#000000;stroke-width:4.32"/>
	<text x="2084.91" y="1197.22" style="font-family:'Helvetica';font-size:74.93px;fill:#000000" text-anchor="end">0</text>
	<line x1="2129.96" y1="1008.28" x2="2099.93" y2="1008.28" style="stroke:#000000;stroke-width:4.32"/>
	<text x="2084.91" y="1034.55" style="font-family:'Helvetica';font-size:74.93px;fill:#000000" text-anchor="end">1</text>
	<line x1="2129.96" y1="845.44" x2="2099.93" y2="845.44" style="stroke:#000000;stroke-width:4.32"/>
	<text x="2084.91" y="871.70" style="font-family:'Helvetica';font-size:74.93px;fill:#000000" text-anchor="end">2</text>
	<line x1="2129.96" y1="682.76" x2="2099.93" y2="682.76" style="stroke:#000000;stroke-width:4.32"/>
	<text x="2084.91" y="709.03" style="font-family:'Helvetica';font-size:74.93px;fill:#000000" text-anchor="end">3</text>
	<line x1="2129.96" y1="519.92" x2="2099.93" y2="519.92" style="stroke:#000000;stroke-width:4.32"/>
	<text x="2084.91" y="546.18" style="font-family:'Helvetica';font-size:74.93px;fill:#000000" text-anchor="end">4</text>
	<line x1="2129.96" y1="357.24" x2="2099.93" y2="357.24" style="stroke:#000000;stroke-width:4.32"/>
	<text x="2084.91" y="383.51" style="font-family:'Helvetica';font-size:74.93px;fill:#000000" text-anchor="end">5</text>
	<line x1="2129.96" y1="194.40" x2="2099.93" y2="194.40" style="stroke:#000000;stroke-width:4.32"/>
	<text x="2084.91" y="220.67" style="font-family:'Helvetica';font-size:74.93px;fill:#000000" text-anchor="end">6</text>
	<text x="1966.83" y="682.76" style="font-family:'Helvetica';font-size:74.93px;fill:#000000" transform="rotate(-90 1966.83,682.76)" text-anchor="middle">VEF1 (L)</text>
	<line x1="2129.96" y1="1218.54" x2="3500.72" y2="1218.54" style="stroke:#000000;stroke-width:4.32"/>
	<line x1="2193.24" y1="1218.54" x2="2193.24" y2="1248.58" style="stroke:#000000;stroke-width:4.32"/>
	<text x="2193.24" y="1315.79" style="font-family:'Helvetica';font-size:74.93px;fill:#000000" text-anchor="middle">20</text>
	<line x1="2508.13" y1="1218.54" x2="2508.13" y2="1248.58" style="stroke:#000000;stroke-width:4.32"/>
	<text x="2508.13" y="1315.79" style="font-family:'Helvetica';font-size:74.93px;fill:#000000" text-anchor="middle">40</text>
	<line x1="2823.19" y1="1218.54" x2="2823.19" y2="1248.58" style="stroke:#000000;stroke-width:4.32"/>
	<text x="2823.19" y="1315.79" style="font-family:'Helvetica';font-size:74.93px;fill:#000000" text-anchor="middle">60</text>
	<line x1="3138.08" y1="1218.54" x2="3138.08" y2="1248.58" style="stroke:#000000;stroke-width:4.32"/>
	<text x="3138.08" y="1315.79" style="font-family:'Helvetica';font-size:74.93px;fill:#000000" text-anchor="middle">80</text>
	<line x1="3453.13" y1="1218.54" x2="3453.13" y2="1248.58" style="stroke:#000000;stroke-width:4.32"/>
	<text x="3453.13" y="1315.79" style="font-family:'Helvetica';font-size:74.93px;fill:#000000" text-anchor="middle">100</text>
	<text x="2815.26" y="1420.93" style="font-family:'Helvetica';font-size:74.93px;fill:#000000" text-anchor="middle">ICARS</text>
	<text x="2142.96" y="1513.35" style="font-family:'Helvetica';font-size:59.91px;fill:#000000">Spearman's rho = -0,50; p=0,20</text>
	<rect x="3576.32" y="71.21" width="1752.47" height="1548.79" style="fill:#FFFFFF"/>
	<rect x="3578.48" y="73.37" width="1748.15" height="1544.47" style="fill:none;stroke:#FFFFFF;stroke-width:4.32"/>
	<rect x="3970.01" y="146.81" width="1283.18" height="1071.73" style="fill:#FFFFFF"/>
	<rect x="3972.17" y="148.97" width="1278.86" height="1067.41" style="fill:none;stroke:#FFFFFF;stroke-width:4.32"/>
	<circle cx="4105.35" cy="300.04" r="14.55" style="fill:#1A85FF"/>
	<circle cx="4105.35" cy="300.04" r="11.31" style="fill:none;stroke:#1A85FF;stroke-width:6.48"/>
	<circle cx="5014.91" cy="243.34" r="14.55" style="fill:#1A85FF"/>
	<circle cx="5014.91" cy="243.34" r="11.31" style="fill:none;stroke:#1A85FF;stroke-width:6.48"/>
	<circle cx="4838.74" cy="376.14" r="14.55" style="fill:#1A85FF"/>
	<circle cx="4838.74" cy="376.14" r="11.31" style="fill:none;stroke:#1A85FF;stroke-width:6.48"/>
	<circle cx="4633.54" cy="332.10" r="14.55" style="fill:#1A85FF"/>
	<circle cx="4633.54" cy="332.10" r="11.31" style="fill:none;stroke:#1A85FF;stroke-width:6.48"/>
	<circle cx="4985.55" cy="421.03" r="14.55" style="fill:#1A85FF"/>
	<circle cx="4985.55" cy="421.03" r="11.31" style="fill:none;stroke:#1A85FF;stroke-width:6.48"/>
	<circle cx="4545.45" cy="251.10" r="14.55" style="fill:#1A85FF"/>
	<circle cx="4545.45" cy="251.10" r="11.31" style="fill:none;stroke:#1A85FF;stroke-width:6.48"/>
	<circle cx="4941.51" cy="389.81" r="14.55" style="fill:#1A85FF"/>
	<circle cx="4941.51" cy="389.81" r="11.31" style="fill:none;stroke:#1A85FF;stroke-width:6.48"/>
	<circle cx="4413.49" cy="429.81" r="14.55" style="fill:#1A85FF"/>
	<circle cx="4413.49" cy="429.81" r="11.31" style="fill:none;stroke:#1A85FF;stroke-width:6.48"/>
	<circle cx="4706.77" cy="357.58" r="14.55" style="fill:#1A85FF"/>
	<circle cx="4706.77" cy="357.58" r="11.31" style="fill:none;stroke:#1A85FF;stroke-width:6.48"/>
	<circle cx="4677.41" cy="407.36" r="14.55" style="fill:#1A85FF"/>
	<circle cx="4677.41" cy="407.36" r="11.31" style="fill:none;stroke:#1A85FF;stroke-width:6.48"/>
	<circle cx="4970.87" cy="291.09" r="14.55" style="fill:#1A85FF"/>
	<circle cx="4970.87" cy="291.09" r="11.31" style="fill:none;stroke:#1A85FF;stroke-width:6.48"/>
	<circle cx="5161.56" cy="267.81" r="14.55" style="fill:#1A85FF"/>
	<circle cx="5161.56" cy="267.81" r="11.31" style="fill:none;stroke:#1A85FF;stroke-width:6.48"/>
	<circle cx="4560.13" cy="343.91" r="14.55" style="fill:#1A85FF"/>
	<circle cx="4560.13" cy="343.91" r="11.31" style="fill:none;stroke:#1A85FF;stroke-width:6.48"/>
	<circle cx="4017.43" cy="436.72" r="14.55" style="fill:#1A85FF"/>
	<circle cx="4017.43" cy="436.72" r="11.31" style="fill:none;stroke:#1A85FF;stroke-width:6.48"/>
	<circle cx="4501.41" cy="329.23" r="14.55" style="fill:#1A85FF"/>
	<circle cx="4501.41" cy="329.23" r="11.31" style="fill:none;stroke:#1A85FF;stroke-width:6.48"/>
	<circle cx="4912.14" cy="349.82" r="14.55" style="fill:#1A85FF"/>
	<circle cx="4912.14" cy="349.82" r="11.31" style="fill:none;stroke:#1A85FF;stroke-width:6.48"/>
	<line x1="3970.01" y1="1218.54" x2="3970.01" y2="146.81" style="stroke:#000000;stroke-width:4.32"/>
	<line x1="3970.01" y1="1170.96" x2="3939.98" y2="1170.96" style="stroke:#000000;stroke-width:4.32"/>
	<text x="3924.96" y="1197.22" style="font-family:'Helvetica';font-size:74.93px;fill:#000000" text-anchor="end">0</text>
	<line x1="3970.01" y1="1073.25" x2="3939.98" y2="1073.25" style="stroke:#000000;stroke-width:4.32"/>
	<text x="3924.96" y="1099.52" style="font-family:'Helvetica';font-size:74.93px;fill:#000000" text-anchor="end">10</text>
	<line x1="3970.01" y1="975.71" x2="3939.98" y2="975.71" style="stroke:#000000;stroke-width:4.32"/>
	<text x="3924.96" y="1001.98" style="font-family:'Helvetica';font-size:74.93px;fill:#000000" text-anchor="end">20</text>
	<line x1="3970.01" y1="878.01" x2="3939.98" y2="878.01" style="stroke:#000000;stroke-width:4.32"/>
	<text x="3924.96" y="904.27" style="font-family:'Helvetica';font-size:74.93px;fill:#000000" text-anchor="end">30</text>
	<line x1="3970.01" y1="780.30" x2="3939.98" y2="780.30" style="stroke:#000000;stroke-width:4.32"/>
	<text x="3924.96" y="806.57" style="font-family:'Helvetica';font-size:74.93px;fill:#000000" text-anchor="end">40</text>
	<line x1="3970.01" y1="682.76" x2="3939.98" y2="682.76" style="stroke:#000000;stroke-width:4.32"/>
	<text x="3924.96" y="709.03" style="font-family:'Helvetica';font-size:74.93px;fill:#000000" text-anchor="end">50</text>
	<line x1="3970.01" y1="585.06" x2="3939.98" y2="585.06" style="stroke:#000000;stroke-width:4.32"/>
	<text x="3924.96" y="611.32" style="font-family:'Helvetica';font-size:74.93px;fill:#000000" text-anchor="end">60</text>
	<line x1="3970.01" y1="487.35" x2="3939.98" y2="487.35" style="stroke:#000000;stroke-width:4.32"/>
	<text x="3924.96" y="513.62" style="font-family:'Helvetica';font-size:74.93px;fill:#000000" text-anchor="end">70</text>
	<line x1="3970.01" y1="389.64" x2="3939.98" y2="389.64" style="stroke:#000000;stroke-width:4.32"/>
	<text x="3924.96" y="415.91" style="font-family:'Helvetica';font-size:74.93px;fill:#000000" text-anchor="end">80</text>
	<line x1="3970.01" y1="292.11" x2="3939.98" y2="292.11" style="stroke:#000000;stroke-width:4.32"/>
	<text x="3924.96" y="318.37" style="font-family:'Helvetica';font-size:74.93px;fill:#000000" text-anchor="end">90</text>
	<line x1="3970.01" y1="194.40" x2="3939.98" y2="194.40" style="stroke:#000000;stroke-width:4.32"/>
	<text x="3924.96" y="220.67" style="font-family:'Helvetica';font-size:74.93px;fill:#000000" text-anchor="end">100</text>
	<text x="3719.30" y="682.76" style="font-family:'Helvetica';font-size:74.93px;fill:#000000" transform="rotate(-90 3719.30,682.76)" text-anchor="middle">VEF1/CVF (L)</text>
	<line x1="3970.01" y1="1218.54" x2="5253.19" y2="1218.54" style="stroke:#000000;stroke-width:4.32"/>
	<line x1="4032.11" y1="1218.54" x2="4032.11" y2="1248.58" style="stroke:#000000;stroke-width:4.32"/>
	<text x="4032.11" y="1315.79" style="font-family:'Helvetica';font-size:74.93px;fill:#000000" text-anchor="middle">20</text>
	<line x1="4325.57" y1="1218.54" x2="4325.57" y2="1248.58" style="stroke:#000000;stroke-width:4.32"/>
	<text x="4325.57" y="1315.79" style="font-family:'Helvetica';font-size:74.93px;fill:#000000" text-anchor="middle">40</text>
	<line x1="4618.86" y1="1218.54" x2="4618.86" y2="1248.58" style="stroke:#000000;stroke-width:4.32"/>
	<text x="4618.86" y="1315.79" style="font-family:'Helvetica';font-size:74.93px;fill:#000000" text-anchor="middle">60</text>
	<line x1="4912.31" y1="1218.54" x2="4912.31" y2="1248.58" style="stroke:#000000;stroke-width:4.32"/>
	<text x="4912.31" y="1315.79" style="font-family:'Helvetica';font-size:74.93px;fill:#000000" text-anchor="middle">80</text>
	<line x1="5205.60" y1="1218.54" x2="5205.60" y2="1248.58" style="stroke:#000000;stroke-width:4.32"/>
	<text x="5205.60" y="1315.79" style="font-family:'Helvetica';font-size:74.93px;fill:#000000" text-anchor="middle">100</text>
	<text x="4611.60" y="1420.93" style="font-family:'Helvetica';font-size:74.93px;fill:#000000" text-anchor="middle">ICARS</text>
	<text x="3982.84" y="1513.35" style="font-family:'Helvetica';font-size:59.91px;fill:#000000">Spearman's rho = 0,14; p=0,73</text>
	<rect x="71.21" y="1620.00" width="1752.47" height="1548.79" style="fill:#FFFFFF"/>
	<rect x="73.37" y="1622.16" width="1748.15" height="1544.47" style="fill:none;stroke:#FFFFFF;stroke-width:4.32"/>
	<rect x="421.20" y="1695.60" width="1326.88" height="1071.56" style="fill:#FFFFFF"/>
	<rect x="423.36" y="1697.76" width="1322.56" height="1067.24" style="fill:none;stroke:#FFFFFF;stroke-width:4.32"/>
	<circle cx="559.91" cy="2147.51" r="14.55" style="fill:#1A85FF"/>
	<circle cx="559.91" cy="2147.51" r="11.31" style="fill:none;stroke:#1A85FF;stroke-width:6.48"/>
	<circle cx="1502.89" cy="2271.54" r="14.55" style="fill:#1A85FF"/>
	<circle cx="1502.89" cy="2271.54" r="11.31" style="fill:none;stroke:#1A85FF;stroke-width:6.48"/>
	<circle cx="1320.30" cy="2431.69" r="14.55" style="fill:#1A85FF"/>
	<circle cx="1320.30" cy="2431.69" r="11.31" style="fill:none;stroke:#1A85FF;stroke-width:6.48"/>
	<circle cx="1107.51" cy="2315.42" r="14.55" style="fill:#1A85FF"/>
	<circle cx="1107.51" cy="2315.42" r="11.31" style="fill:none;stroke:#1A85FF;stroke-width:6.48"/>
	<circle cx="1472.51" cy="2318.46" r="14.55" style="fill:#1A85FF"/>
	<circle cx="1472.51" cy="2318.46" r="11.31" style="fill:none;stroke:#1A85FF;stroke-width:6.48"/>
	<circle cx="1016.21" cy="2351.70" r="14.55" style="fill:#1A85FF"/>
	<circle cx="1016.21" cy="2351.70" r="11.31" style="fill:none;stroke:#1A85FF;stroke-width:6.48"/>
	<circle cx="1426.78" cy="2383.76" r="14.55" style="fill:#1A85FF"/>
	<circle cx="1426.78" cy="2383.76" r="11.31" style="fill:none;stroke:#1A85FF;stroke-width:6.48"/>
	<circle cx="879.36" cy="2397.43" r="14.55" style="fill:#1A85FF"/>
	<circle cx="879.36" cy="2397.43" r="11.31" style="fill:none;stroke:#1A85FF;stroke-width:6.48"/>
	<circle cx="1183.44" cy="2128.95" r="14.55" style="fill:#1A85FF"/>
	<circle cx="1183.44" cy="2128.95" r="11.31" style="fill:none;stroke:#1A85FF;stroke-width:6.48"/>
	<circle cx="1153.07" cy="2279.31" r="14.55" style="fill:#1A85FF"/>
	<circle cx="1153.07" cy="2279.31" r="11.31" style="fill:none;stroke:#1A85FF;stroke-width:6.48"/>
	<circle cx="1457.16" cy="2435.57" r="14.55" style="fill:#1A85FF"/>
	<circle cx="1457.16" cy="2435.57" r="11.31" style="fill:none;stroke:#1A85FF;stroke-width:6.48"/>
	<circle cx="1654.93" cy="2545.93" r="14.55" style="fill:#1A85FF"/>
	<circle cx="1654.93" cy="2545.93" r="11.31" style="fill:none;stroke:#1A85FF;stroke-width:6.48"/>
	<circle cx="1031.40" cy="2366.21" r="14.55" style="fill:#1A85FF"/>
	<circle cx="1031.40" cy="2366.21" r="11.31" style="fill:none;stroke:#1A85FF;stroke-width:6.48"/>
	<circle cx="468.62" cy="2048.79" r="14.55" style="fill:#1A85FF"/>
	<circle cx="468.62" cy="2048.79" r="11.31" style="fill:none;stroke:#1A85FF;stroke-width:6.48"/>
	<circle cx="970.48" cy="2165.06" r="14.55" style="fill:#1A85FF"/>
	<circle cx="970.48" cy="2165.06" r="11.31" style="fill:none;stroke:#1A85FF;stroke-width:6.48"/>
	<circle cx="1396.41" cy="2388.66" r="14.55" style="fill:#1A85FF"/>
	<circle cx="1396.41" cy="2388.66" r="11.31" style="fill:none;stroke:#1A85FF;stroke-width:6.48"/>
	<line x1="421.20" y1="2767.16" x2="421.20" y2="1695.60" style="stroke:#000000;stroke-width:4.32"/>
	<line x1="421.20" y1="2719.74" x2="391.33" y2="2719.74" style="stroke:#000000;stroke-width:4.32"/>
	<text x="376.31" y="2746.01" style="font-family:'Helvetica';font-size:74.93px;fill:#000000" text-anchor="end">0</text>
	<line x1="421.20" y1="2622.04" x2="391.33" y2="2622.04" style="stroke:#000000;stroke-width:4.32"/>
	<text x="376.31" y="2648.30" style="font-family:'Helvetica';font-size:74.93px;fill:#000000" text-anchor="end">1</text>
	<line x1="421.20" y1="2524.33" x2="391.33" y2="2524.33" style="stroke:#000000;stroke-width:4.32"/>
	<text x="376.31" y="2550.60" style="font-family:'Helvetica';font-size:74.93px;fill:#000000" text-anchor="end">2</text>
	<line x1="421.20" y1="2426.79" x2="391.33" y2="2426.79" style="stroke:#000000;stroke-width:4.32"/>
	<text x="376.31" y="2453.06" style="font-family:'Helvetica';font-size:74.93px;fill:#000000" text-anchor="end">3</text>
	<line x1="421.20" y1="2329.09" x2="391.33" y2="2329.09" style="stroke:#000000;stroke-width:4.32"/>
	<text x="376.31" y="2355.35" style="font-family:'Helvetica';font-size:74.93px;fill:#000000" text-anchor="end">4</text>
	<line x1="421.20" y1="2231.38" x2="391.33" y2="2231.38" style="stroke:#000000;stroke-width:4.32"/>
	<text x="376.31" y="2257.65" style="font-family:'Helvetica';font-size:74.93px;fill:#000000" text-anchor="end">5</text>
	<line x1="421.20" y1="2133.68" x2="391.33" y2="2133.68" style="stroke:#000000;stroke-width:4.32"/>
	<text x="376.31" y="2159.94" style="font-family:'Helvetica';font-size:74.93px;fill:#000000" text-anchor="end">6</text>
	<line x1="421.20" y1="2036.14" x2="391.33" y2="2036.14" style="stroke:#000000;stroke-width:4.32"/>
	<text x="376.31" y="2062.40" style="font-family:'Helvetica';font-size:74.93px;fill:#000000" text-anchor="end">7</text>
	<line x1="421.20" y1="1938.43" x2="391.33" y2="1938.43" style="stroke:#000000;stroke-width:4.32"/>
	<text x="376.31" y="1964.70" style="font-family:'Helvetica';font-size:74.93px;fill:#000000" text-anchor="end">8</text>
	<line x1="421.20" y1="1840.73" x2="391.33" y2="1840.73" style="stroke:#000000;stroke-width:4.32"/>
	<text x="376.31" y="1866.99" style="font-family:'Helvetica';font-size:74.93px;fill:#000000" text-anchor="end">9</text>
	<line x1="421.20" y1="1743.19" x2="391.33" y2="1743.19" style="stroke:#000000;stroke-width:4.32"/>
	<text x="376.31" y="1769.45" style="font-family:'Helvetica';font-size:74.93px;fill:#000000" text-anchor="end">10</text>
	<text x="214.36" y="2231.38" style="font-family:'Helvetica';font-size:74.93px;fill:#000000" transform="rotate(-90 214.36,2231.38)" text-anchor="middle">PFE (L)</text>
	<line x1="421.20" y1="2767.16" x2="1748.08" y2="2767.16" style="stroke:#000000;stroke-width:4.32"/>
	<line x1="483.98" y1="2767.16" x2="483.98" y2="2797.20" style="stroke:#000000;stroke-width:4.32"/>
	<text x="483.98" y="2864.58" style="font-family:'Helvetica';font-size:74.93px;fill:#000000" text-anchor="middle">20</text>
	<line x1="788.06" y1="2767.16" x2="788.06" y2="2797.20" style="stroke:#000000;stroke-width:4.32"/>
	<text x="788.06" y="2864.58" style="font-family:'Helvetica';font-size:74.93px;fill:#000000" text-anchor="middle">40</text>
	<line x1="1092.32" y1="2767.16" x2="1092.32" y2="2797.20" style="stroke:#000000;stroke-width:4.32"/>
	<text x="1092.32" y="2864.58" style="font-family:'Helvetica';font-size:74.93px;fill:#000000" text-anchor="middle">60</text>
	<line x1="1396.41" y1="2767.16" x2="1396.41" y2="2797.20" style="stroke:#000000;stroke-width:4.32"/>
	<text x="1396.41" y="2864.58" style="font-family:'Helvetica';font-size:74.93px;fill:#000000" text-anchor="middle">80</text>
	<line x1="1700.66" y1="2767.16" x2="1700.66" y2="2797.20" style="stroke:#000000;stroke-width:4.32"/>
	<text x="1700.66" y="2864.58" style="font-family:'Helvetica';font-size:74.93px;fill:#000000" text-anchor="middle">100</text>
	<text x="1084.72" y="2969.71" style="font-family:'Helvetica';font-size:74.93px;fill:#000000" text-anchor="middle">ICARS</text>
	<text x="434.19" y="3062.14" style="font-family:'Helvetica';font-size:59.91px;fill:#000000">Spearman's rho = 0,01; p=0,81</text>
	<rect x="1823.68" y="1620.00" width="1752.64" height="1548.79" style="fill:#FFFFFF"/>
	<rect x="1825.84" y="1622.16" width="1748.32" height="1544.47" style="fill:none;stroke:#FFFFFF;stroke-width:4.32"/>
	<rect x="2217.54" y="1695.60" width="1283.18" height="1071.56" style="fill:#FFFFFF"/>
	<rect x="2219.70" y="1697.76" width="1278.86" height="1067.24" style="fill:none;stroke:#FFFFFF;stroke-width:4.32"/>
	<circle cx="2352.88" cy="2112.07" r="14.55" style="fill:#1A85FF"/>
	<circle cx="2352.88" cy="2112.07" r="11.31" style="fill:none;stroke:#1A85FF;stroke-width:6.48"/>
	<circle cx="3262.28" cy="2159.83" r="14.55" style="fill:#1A85FF"/>
	<circle cx="3262.28" cy="2159.83" r="11.31" style="fill:none;stroke:#1A85FF;stroke-width:6.48"/>
	<circle cx="3086.27" cy="2191.73" r="14.55" style="fill:#1A85FF"/>
	<circle cx="3086.27" cy="2191.73" r="11.31" style="fill:none;stroke:#1A85FF;stroke-width:6.48"/>
	<circle cx="2880.90" cy="2075.96" r="14.55" style="fill:#1A85FF"/>
	<circle cx="2880.90" cy="2075.96" r="11.31" style="fill:none;stroke:#1A85FF;stroke-width:6.48"/>
	<circle cx="3233.08" cy="2137.56" r="14.55" style="fill:#1A85FF"/>
	<circle cx="3233.08" cy="2137.56" r="11.31" style="fill:none;stroke:#1A85FF;stroke-width:6.48"/>
	<circle cx="2792.98" cy="2143.97" r="14.55" style="fill:#1A85FF"/>
	<circle cx="2792.98" cy="2143.97" r="11.31" style="fill:none;stroke:#1A85FF;stroke-width:6.48"/>
	<circle cx="3189.04" cy="2099.25" r="14.55" style="fill:#1A85FF"/>
	<circle cx="3189.04" cy="2099.25" r="11.31" style="fill:none;stroke:#1A85FF;stroke-width:6.48"/>
	<circle cx="2661.02" cy="2060.94" r="14.55" style="fill:#1A85FF"/>
	<circle cx="2661.02" cy="2060.94" r="11.31" style="fill:none;stroke:#1A85FF;stroke-width:6.48"/>
	<circle cx="2954.31" cy="1874.81" r="14.55" style="fill:#1A85FF"/>
	<circle cx="2954.31" cy="1874.81" r="11.31" style="fill:none;stroke:#1A85FF;stroke-width:6.48"/>
	<circle cx="2924.94" cy="2102.46" r="14.55" style="fill:#1A85FF"/>
	<circle cx="2924.94" cy="2102.46" r="11.31" style="fill:none;stroke:#1A85FF;stroke-width:6.48"/>
	<circle cx="3218.40" cy="2172.66" r="14.55" style="fill:#1A85FF"/>
	<circle cx="3218.40" cy="2172.66" r="11.31" style="fill:none;stroke:#1A85FF;stroke-width:6.48"/>
	<circle cx="3409.09" cy="2153.42" r="14.55" style="fill:#1A85FF"/>
	<circle cx="3409.09" cy="2153.42" r="11.31" style="fill:none;stroke:#1A85FF;stroke-width:6.48"/>
	<circle cx="2807.66" cy="2131.14" r="14.55" style="fill:#1A85FF"/>
	<circle cx="2807.66" cy="2131.14" r="11.31" style="fill:none;stroke:#1A85FF;stroke-width:6.48"/>
	<circle cx="2264.96" cy="1884.26" r="14.55" style="fill:#1A85FF"/>
	<circle cx="2264.96" cy="1884.26" r="11.31" style="fill:none;stroke:#1A85FF;stroke-width:6.48"/>
	<circle cx="2748.94" cy="1894.56" r="14.55" style="fill:#1A85FF"/>
	<circle cx="2748.94" cy="1894.56" r="11.31" style="fill:none;stroke:#1A85FF;stroke-width:6.48"/>
	<circle cx="3159.68" cy="2108.87" r="14.55" style="fill:#1A85FF"/>
	<circle cx="3159.68" cy="2108.87" r="11.31" style="fill:none;stroke:#1A85FF;stroke-width:6.48"/>
	<line x1="2217.54" y1="2767.16" x2="2217.54" y2="1695.60" style="stroke:#000000;stroke-width:4.32"/>
	<line x1="2217.54" y1="2719.74" x2="2187.51" y2="2719.74" style="stroke:#000000;stroke-width:4.32"/>
	<text x="2172.49" y="2746.01" style="font-family:'Helvetica';font-size:74.93px;fill:#000000" text-anchor="end">0</text>
	<line x1="2217.54" y1="2556.90" x2="2187.51" y2="2556.90" style="stroke:#000000;stroke-width:4.32"/>
	<text x="2172.49" y="2583.17" style="font-family:'Helvetica';font-size:74.93px;fill:#000000" text-anchor="end">25</text>
	<line x1="2217.54" y1="2394.23" x2="2187.51" y2="2394.23" style="stroke:#000000;stroke-width:4.32"/>
	<text x="2172.49" y="2420.49" style="font-family:'Helvetica';font-size:74.93px;fill:#000000" text-anchor="end">50</text>
	<line x1="2217.54" y1="2231.38" x2="2187.51" y2="2231.38" style="stroke:#000000;stroke-width:4.32"/>
	<text x="2172.49" y="2257.65" style="font-family:'Helvetica';font-size:74.93px;fill:#000000" text-anchor="end">75</text>
	<line x1="2217.54" y1="2068.71" x2="2187.51" y2="2068.71" style="stroke:#000000;stroke-width:4.32"/>
	<text x="2172.49" y="2094.97" style="font-family:'Helvetica';font-size:74.93px;fill:#000000" text-anchor="end">100</text>
	<line x1="2217.54" y1="1905.86" x2="2187.51" y2="1905.86" style="stroke:#000000;stroke-width:4.32"/>
	<text x="2172.49" y="1932.13" style="font-family:'Helvetica';font-size:74.93px;fill:#000000" text-anchor="end">125</text>
	<line x1="2217.54" y1="1743.19" x2="2187.51" y2="1743.19" style="stroke:#000000;stroke-width:4.32"/>
	<text x="2172.49" y="1769.45" style="font-family:'Helvetica';font-size:74.93px;fill:#000000" text-anchor="end">150</text>
	<text x="1966.83" y="2231.38" style="font-family:'Helvetica';font-size:74.93px;fill:#000000" transform="rotate(-90 1966.83,2231.38)" text-anchor="middle">Pi máx.</text>
	<line x1="2217.54" y1="2767.16" x2="3500.72" y2="2767.16" style="stroke:#000000;stroke-width:4.32"/>
	<line x1="2279.64" y1="2767.16" x2="2279.64" y2="2797.20" style="stroke:#000000;stroke-width:4.32"/>
	<text x="2279.64" y="2864.58" style="font-family:'Helvetica';font-size:74.93px;fill:#000000" text-anchor="middle">20</text>
	<line x1="2573.10" y1="2767.16" x2="2573.10" y2="2797.20" style="stroke:#000000;stroke-width:4.32"/>
	<text x="2573.10" y="2864.58" style="font-family:'Helvetica';font-size:74.93px;fill:#000000" text-anchor="middle">40</text>
	<line x1="2866.39" y1="2767.16" x2="2866.39" y2="2797.20" style="stroke:#000000;stroke-width:4.32"/>
	<text x="2866.39" y="2864.58" style="font-family:'Helvetica';font-size:74.93px;fill:#000000" text-anchor="middle">60</text>
	<line x1="3159.68" y1="2767.16" x2="3159.68" y2="2797.20" style="stroke:#000000;stroke-width:4.32"/>
	<text x="3159.68" y="2864.58" style="font-family:'Helvetica';font-size:74.93px;fill:#000000" text-anchor="middle">80</text>
	<line x1="3453.13" y1="2767.16" x2="3453.13" y2="2797.20" style="stroke:#000000;stroke-width:4.32"/>
	<text x="3453.13" y="2864.58" style="font-family:'Helvetica';font-size:74.93px;fill:#000000" text-anchor="middle">100</text>
	<text x="2859.13" y="2969.71" style="font-family:'Helvetica';font-size:74.93px;fill:#000000" text-anchor="middle">ICARS</text>
	<text x="2230.37" y="3062.14" style="font-family:'Helvetica';font-size:59.91px;fill:#000000">Spearman's rho = -0,30; p=0,44</text>
	<rect x="3576.32" y="1620.00" width="1752.47" height="1548.79" style="fill:#FFFFFF"/>
	<rect x="3578.48" y="1622.16" width="1748.15" height="1544.47" style="fill:none;stroke:#FFFFFF;stroke-width:4.32"/>
	<rect x="3970.01" y="1695.60" width="1283.18" height="1071.56" style="fill:#FFFFFF"/>
	<rect x="3972.17" y="1697.76" width="1278.86" height="1067.24" style="fill:none;stroke:#FFFFFF;stroke-width:4.32"/>
	<circle cx="4105.35" cy="2309.68" r="14.55" style="fill:#1A85FF"/>
	<circle cx="4105.35" cy="2309.68" r="11.31" style="fill:none;stroke:#1A85FF;stroke-width:6.48"/>
	<circle cx="5014.91" cy="2407.22" r="14.55" style="fill:#1A85FF"/>
	<circle cx="5014.91" cy="2407.22" r="11.31" style="fill:none;stroke:#1A85FF;stroke-width:6.48"/>
	<circle cx="4838.74" cy="2491.93" r="14.55" style="fill:#1A85FF"/>
	<circle cx="4838.74" cy="2491.93" r="11.31" style="fill:none;stroke:#1A85FF;stroke-width:6.48"/>
	<circle cx="4633.54" cy="2368.24" r="14.55" style="fill:#1A85FF"/>
	<circle cx="4633.54" cy="2368.24" r="11.31" style="fill:none;stroke:#1A85FF;stroke-width:6.48"/>
	<circle cx="4985.55" cy="2010.15" r="14.55" style="fill:#1A85FF"/>
	<circle cx="4985.55" cy="2010.15" r="11.31" style="fill:none;stroke:#1A85FF;stroke-width:6.48"/>
	<circle cx="4545.45" cy="2283.53" r="14.55" style="fill:#1A85FF"/>
	<circle cx="4545.45" cy="2283.53" r="11.31" style="fill:none;stroke:#1A85FF;stroke-width:6.48"/>
	<circle cx="4941.51" cy="2264.12" r="14.55" style="fill:#1A85FF"/>
	<circle cx="4941.51" cy="2264.12" r="11.31" style="fill:none;stroke:#1A85FF;stroke-width:6.48"/>
	<circle cx="4413.49" cy="2348.66" r="14.55" style="fill:#1A85FF"/>
	<circle cx="4413.49" cy="2348.66" r="11.31" style="fill:none;stroke:#1A85FF;stroke-width:6.48"/>
	<circle cx="4706.77" cy="2394.23" r="14.55" style="fill:#1A85FF"/>
	<circle cx="4706.77" cy="2394.23" r="11.31" style="fill:none;stroke:#1A85FF;stroke-width:6.48"/>
	<circle cx="4677.41" cy="2068.71" r="14.55" style="fill:#1A85FF"/>
	<circle cx="4677.41" cy="2068.71" r="11.31" style="fill:none;stroke:#1A85FF;stroke-width:6.48"/>
	<circle cx="4970.87" cy="2264.12" r="14.55" style="fill:#1A85FF"/>
	<circle cx="4970.87" cy="2264.12" r="11.31" style="fill:none;stroke:#1A85FF;stroke-width:6.48"/>
	<circle cx="5161.56" cy="2439.79" r="14.55" style="fill:#1A85FF"/>
	<circle cx="5161.56" cy="2439.79" r="11.31" style="fill:none;stroke:#1A85FF;stroke-width:6.48"/>
	<circle cx="4560.13" cy="2264.12" r="14.55" style="fill:#1A85FF"/>
	<circle cx="4560.13" cy="2264.12" r="11.31" style="fill:none;stroke:#1A85FF;stroke-width:6.48"/>
	<circle cx="4017.43" cy="2042.72" r="14.55" style="fill:#1A85FF"/>
	<circle cx="4017.43" cy="2042.72" r="11.31" style="fill:none;stroke:#1A85FF;stroke-width:6.48"/>
	<circle cx="4501.41" cy="2198.98" r="14.55" style="fill:#1A85FF"/>
	<circle cx="4501.41" cy="2198.98" r="11.31" style="fill:none;stroke:#1A85FF;stroke-width:6.48"/>
	<circle cx="4912.14" cy="2439.79" r="14.55" style="fill:#1A85FF"/>
	<circle cx="4912.14" cy="2439.79" r="11.31" style="fill:none;stroke:#1A85FF;stroke-width:6.48"/>
	<line x1="3970.01" y1="2767.16" x2="3970.01" y2="1695.60" style="stroke:#000000;stroke-width:4.32"/>
	<line x1="3970.01" y1="2719.74" x2="3939.98" y2="2719.74" style="stroke:#000000;stroke-width:4.32"/>
	<text x="3924.96" y="2746.01" style="font-family:'Helvetica';font-size:74.93px;fill:#000000" text-anchor="end">0</text>
	<line x1="3970.01" y1="2556.90" x2="3939.98" y2="2556.90" style="stroke:#000000;stroke-width:4.32"/>
	<text x="3924.96" y="2583.17" style="font-family:'Helvetica';font-size:74.93px;fill:#000000" text-anchor="end">25</text>
	<line x1="3970.01" y1="2394.23" x2="3939.98" y2="2394.23" style="stroke:#000000;stroke-width:4.32"/>
	<text x="3924.96" y="2420.49" style="font-family:'Helvetica';font-size:74.93px;fill:#000000" text-anchor="end">50</text>
	<line x1="3970.01" y1="2231.38" x2="3939.98" y2="2231.38" style="stroke:#000000;stroke-width:4.32"/>
	<text x="3924.96" y="2257.65" style="font-family:'Helvetica';font-size:74.93px;fill:#000000" text-anchor="end">75</text>
	<line x1="3970.01" y1="2068.71" x2="3939.98" y2="2068.71" style="stroke:#000000;stroke-width:4.32"/>
	<text x="3924.96" y="2094.97" style="font-family:'Helvetica';font-size:74.93px;fill:#000000" text-anchor="end">100</text>
	<line x1="3970.01" y1="1905.86" x2="3939.98" y2="1905.86" style="stroke:#000000;stroke-width:4.32"/>
	<text x="3924.96" y="1932.13" style="font-family:'Helvetica';font-size:74.93px;fill:#000000" text-anchor="end">125</text>
	<line x1="3970.01" y1="1743.19" x2="3939.98" y2="1743.19" style="stroke:#000000;stroke-width:4.32"/>
	<text x="3924.96" y="1769.45" style="font-family:'Helvetica';font-size:74.93px;fill:#000000" text-anchor="end">150</text>
	<text x="3719.30" y="2231.38" style="font-family:'Helvetica';font-size:74.93px;fill:#000000" transform="rotate(-90 3719.30,2231.38)" text-anchor="middle">SNIP</text>
	<line x1="3970.01" y1="2767.16" x2="5253.19" y2="2767.16" style="stroke:#000000;stroke-width:4.32"/>
	<line x1="4032.11" y1="2767.16" x2="4032.11" y2="2797.20" style="stroke:#000000;stroke-width:4.32"/>
	<text x="4032.11" y="2864.58" style="font-family:'Helvetica';font-size:74.93px;fill:#000000" text-anchor="middle">20</text>
	<line x1="4325.57" y1="2767.16" x2="4325.57" y2="2797.20" style="stroke:#000000;stroke-width:4.32"/>
	<text x="4325.57" y="2864.58" style="font-family:'Helvetica';font-size:74.93px;fill:#000000" text-anchor="middle">40</text>
	<line x1="4618.86" y1="2767.16" x2="4618.86" y2="2797.20" style="stroke:#000000;stroke-width:4.32"/>
	<text x="4618.86" y="2864.58" style="font-family:'Helvetica';font-size:74.93px;fill:#000000" text-anchor="middle">60</text>
	<line x1="4912.31" y1="2767.16" x2="4912.31" y2="2797.20" style="stroke:#000000;stroke-width:4.32"/>
	<text x="4912.31" y="2864.58" style="font-family:'Helvetica';font-size:74.93px;fill:#000000" text-anchor="middle">80</text>
	<line x1="5205.60" y1="2767.16" x2="5205.60" y2="2797.20" style="stroke:#000000;stroke-width:4.32"/>
	<text x="5205.60" y="2864.58" style="font-family:'Helvetica';font-size:74.93px;fill:#000000" text-anchor="middle">100</text>
	<text x="4611.60" y="2969.71" style="font-family:'Helvetica';font-size:74.93px;fill:#000000" text-anchor="middle">ICARS</text>
	<text x="3982.84" y="3062.14" style="font-family:'Helvetica';font-size:59.91px;fill:#000000">Spearman's rho = 0,02; p=0,95</text>
</svg>
