<?xml version="1.0" encoding="UTF-8" standalone="no"?>
<!-- This is a Stata 18.0 generated SVG file (http://www.stata.com) -->

<svg version="1.1" width="7.500in" height="4.500in" viewBox="0 0 5400 3240" xmlns="http://www.w3.org/2000/svg" xmlns:xlink="http://www.w3.org/1999/xlink">
	<desc>Stata Graph - Graph</desc>
	<rect x="0" y="0" width="5400" height="3240" style="fill:#FFFFFF;stroke:none"/>
	<rect x="0.00" y="0.00" width="5400.00" height="3240.00" style="fill:#FFFFFF"/>
	<rect x="3.24" y="3.24" width="5393.52" height="3233.52" style="fill:none;stroke:#FFFFFF;stroke-width:6.48"/>
	<rect x="590.63" y="113.40" width="4695.98" height="2524.33" style="fill:#FFFFFF"/>
	<rect x="593.87" y="116.64" width="4689.50" height="2517.85" style="fill:none;stroke:#FFFFFF;stroke-width:6.48"/>
	<circle cx="1686.32" cy="1971.17" r="21.74" style="fill:#1A85FF"/>
	<circle cx="1686.32" cy="1971.17" r="16.88" style="fill:none;stroke:#1A85FF;stroke-width:9.72"/>
	<circle cx="4532.29" cy="494.44" r="21.74" style="fill:#1A85FF"/>
	<circle cx="4532.29" cy="494.44" r="16.88" style="fill:none;stroke:#1A85FF;stroke-width:9.72"/>
	<circle cx="3906.06" cy="780.13" r="21.74" style="fill:#1A85FF"/>
	<circle cx="3906.06" cy="780.13" r="16.88" style="fill:none;stroke:#1A85FF;stroke-width:9.72"/>
	<circle cx="3166.26" cy="1113.58" r="21.74" style="fill:#1A85FF"/>
	<circle cx="3166.26" cy="1113.58" r="16.88" style="fill:none;stroke:#1A85FF;stroke-width:9.72"/>
	<circle cx="4532.29" cy="542.03" r="21.74" style="fill:#1A85FF"/>
	<circle cx="4532.29" cy="542.03" r="16.88" style="fill:none;stroke:#1A85FF;stroke-width:9.72"/>
	<circle cx="4190.74" cy="1256.51" r="21.74" style="fill:#1A85FF"/>
	<circle cx="4190.74" cy="1256.51" r="16.88" style="fill:none;stroke:#1A85FF;stroke-width:9.72"/>
	<circle cx="4532.29" cy="613.41" r="21.74" style="fill:#1A85FF"/>
	<circle cx="4532.29" cy="613.41" r="16.88" style="fill:none;stroke:#1A85FF;stroke-width:9.72"/>
	<circle cx="2995.48" cy="1470.99" r="21.74" style="fill:#1A85FF"/>
	<circle cx="2995.48" cy="1470.99" r="16.88" style="fill:none;stroke:#1A85FF;stroke-width:9.72"/>
	<circle cx="3223.13" cy="994.61" r="21.74" style="fill:#1A85FF"/>
	<circle cx="3223.13" cy="994.61" r="16.88" style="fill:none;stroke:#1A85FF;stroke-width:9.72"/>
	<circle cx="3564.68" cy="1042.20" r="21.74" style="fill:#1A85FF"/>
	<circle cx="3564.68" cy="1042.20" r="16.88" style="fill:none;stroke:#1A85FF;stroke-width:9.72"/>
	<circle cx="4987.58" cy="565.82" r="21.74" style="fill:#1A85FF"/>
	<circle cx="4987.58" cy="565.82" r="16.88" style="fill:none;stroke:#1A85FF;stroke-width:9.72"/>
	<circle cx="4987.58" cy="256.16" r="21.74" style="fill:#1A85FF"/>
	<circle cx="4987.58" cy="256.16" r="16.88" style="fill:none;stroke:#1A85FF;stroke-width:9.72"/>
	<circle cx="3849.19" cy="1232.72" r="21.74" style="fill:#1A85FF"/>
	<circle cx="3849.19" cy="1232.72" r="16.88" style="fill:none;stroke:#1A85FF;stroke-width:9.72"/>
	<circle cx="1344.77" cy="2114.10" r="21.74" style="fill:#1A85FF"/>
	<circle cx="1344.77" cy="2114.10" r="16.88" style="fill:none;stroke:#1A85FF;stroke-width:9.72"/>
	<circle cx="3052.35" cy="1328.06" r="21.74" style="fill:#1A85FF"/>
	<circle cx="3052.35" cy="1328.06" r="16.88" style="fill:none;stroke:#1A85FF;stroke-width:9.72"/>
	<circle cx="4418.38" cy="661.16" r="21.74" style="fill:#1A85FF"/>
	<circle cx="4418.38" cy="661.16" r="16.88" style="fill:none;stroke:#1A85FF;stroke-width:9.72"/>
	<line x1="590.63" y1="2637.73" x2="590.63" y2="113.40" style="stroke:#000000;stroke-width:6.48"/>
	<line x1="590.63" y1="2566.52" x2="545.57" y2="2566.52" style="stroke:#000000;stroke-width:6.48"/>
	<text x="523.13" y="2605.96" style="font-family:'Helvetica';font-size:112.56px;fill:#000000" text-anchor="end">0</text>
	<line x1="590.63" y1="2328.24" x2="545.57" y2="2328.24" style="stroke:#000000;stroke-width:6.48"/>
	<text x="523.13" y="2367.68" style="font-family:'Helvetica';font-size:112.56px;fill:#000000" text-anchor="end">10</text>
	<line x1="590.63" y1="2090.14" x2="545.57" y2="2090.14" style="stroke:#000000;stroke-width:6.48"/>
	<text x="523.13" y="2129.57" style="font-family:'Helvetica';font-size:112.56px;fill:#000000" text-anchor="end">20</text>
	<line x1="590.63" y1="1851.86" x2="545.57" y2="1851.86" style="stroke:#000000;stroke-width:6.48"/>
	<text x="523.13" y="1891.30" style="font-family:'Helvetica';font-size:112.56px;fill:#000000" text-anchor="end">30</text>
	<line x1="590.63" y1="1613.76" x2="545.57" y2="1613.76" style="stroke:#000000;stroke-width:6.48"/>
	<text x="523.13" y="1653.19" style="font-family:'Helvetica';font-size:112.56px;fill:#000000" text-anchor="end">40</text>
	<line x1="590.63" y1="1375.65" x2="545.57" y2="1375.65" style="stroke:#000000;stroke-width:6.48"/>
	<text x="523.13" y="1415.09" style="font-family:'Helvetica';font-size:112.56px;fill:#000000" text-anchor="end">50</text>
	<line x1="590.63" y1="1137.38" x2="545.57" y2="1137.38" style="stroke:#000000;stroke-width:6.48"/>
	<text x="523.13" y="1176.81" style="font-family:'Helvetica';font-size:112.56px;fill:#000000" text-anchor="end">60</text>
	<line x1="590.63" y1="899.27" x2="545.57" y2="899.27" style="stroke:#000000;stroke-width:6.48"/>
	<text x="523.13" y="938.71" style="font-family:'Helvetica';font-size:112.56px;fill:#000000" text-anchor="end">70</text>
	<line x1="590.63" y1="660.99" x2="545.57" y2="660.99" style="stroke:#000000;stroke-width:6.48"/>
	<text x="523.13" y="700.43" style="font-family:'Helvetica';font-size:112.56px;fill:#000000" text-anchor="end">80</text>
	<line x1="590.63" y1="422.89" x2="545.57" y2="422.89" style="stroke:#000000;stroke-width:6.48"/>
	<text x="523.13" y="462.32" style="font-family:'Helvetica';font-size:112.56px;fill:#000000" text-anchor="end">90</text>
	<line x1="590.63" y1="184.61" x2="545.57" y2="184.61" style="stroke:#000000;stroke-width:6.48"/>
	<text x="523.13" y="224.05" style="font-family:'Helvetica';font-size:112.56px;fill:#000000" text-anchor="end">100</text>
	<text x="214.55" y="1375.65" style="font-family:'Helvetica';font-size:112.56px;fill:#000000" transform="rotate(-90 214.55,1375.65)" text-anchor="middle">ICARS</text>
	<line x1="590.63" y1="2637.73" x2="5286.60" y2="2637.73" style="stroke:#000000;stroke-width:6.48"/>
	<line x1="661.84" y1="2637.73" x2="661.84" y2="2682.79" style="stroke:#000000;stroke-width:6.48"/>
	<text x="661.84" y="2783.94" style="font-family:'Helvetica';font-size:112.56px;fill:#000000" text-anchor="middle">0</text>
	<line x1="1800.23" y1="2637.73" x2="1800.23" y2="2682.79" style="stroke:#000000;stroke-width:6.48"/>
	<text x="1800.23" y="2783.94" style="font-family:'Helvetica';font-size:112.56px;fill:#000000" text-anchor="middle">10</text>
	<line x1="2938.61" y1="2637.73" x2="2938.61" y2="2682.79" style="stroke:#000000;stroke-width:6.48"/>
	<text x="2938.61" y="2783.94" style="font-family:'Helvetica';font-size:112.56px;fill:#000000" text-anchor="middle">20</text>
	<line x1="4077.00" y1="2637.73" x2="4077.00" y2="2682.79" style="stroke:#000000;stroke-width:6.48"/>
	<text x="4077.00" y="2783.94" style="font-family:'Helvetica';font-size:112.56px;fill:#000000" text-anchor="middle">30</text>
	<line x1="5215.39" y1="2637.73" x2="5215.39" y2="2682.79" style="stroke:#000000;stroke-width:6.48"/>
	<text x="5215.39" y="2783.94" style="font-family:'Helvetica';font-size:112.56px;fill:#000000" text-anchor="middle">40</text>
	<text x="2938.61" y="2941.38" style="font-family:'Helvetica';font-size:112.56px;fill:#000000" text-anchor="middle">SARA</text>
	<text x="610.03" y="3080.13" style="font-family:'Helvetica';font-size:89.94px;fill:#000000">Spearman's rho = 0,92; p&lt;0,01</text>
</svg>
