<?xml version="1.0" encoding="UTF-8" standalone="no"?>
<!-- This is a Stata 18.0 generated SVG file (http://www.stata.com) -->

<svg version="1.1" width="7.500in" height="4.500in" viewBox="0 0 5400 3240" xmlns="http://www.w3.org/2000/svg" xmlns:xlink="http://www.w3.org/1999/xlink">
	<desc>Stata Graph - Graph</desc>
	<rect x="0" y="0" width="5400" height="3240" style="fill:#FFFFFF;stroke:none"/>
	<rect x="0.00" y="0.00" width="5400.00" height="3240.00" style="fill:#FFFFFF"/>
	<rect x="3.24" y="3.24" width="5393.52" height="3233.52" style="fill:none;stroke:#FFFFFF;stroke-width:6.48"/>
	<rect x="71.21" y="71.21" width="1752.47" height="1548.79" style="fill:#FFFFFF"/>
	<rect x="73.37" y="73.37" width="1748.15" height="1544.47" style="fill:none;stroke:#FFFFFF;stroke-width:4.32"/>
	<rect x="486.84" y="146.81" width="1261.24" height="1071.73" style="fill:#FFFFFF"/>
	<rect x="489.00" y="148.97" width="1256.92" height="1067.41" style="fill:none;stroke:#FFFFFF;stroke-width:4.32"/>
	<circle cx="796.67" cy="656.78" r="14.55" style="fill:#1A85FF"/>
	<circle cx="796.67" cy="656.78" r="11.31" style="fill:none;stroke:#1A85FF;stroke-width:6.48"/>
	<circle cx="1525.67" cy="790.26" r="14.55" style="fill:#1A85FF"/>
	<circle cx="1525.67" cy="790.26" r="11.31" style="fill:none;stroke:#1A85FF;stroke-width:6.48"/>
	<circle cx="1365.19" cy="759.21" r="14.55" style="fill:#1A85FF"/>
	<circle cx="1365.19" cy="759.21" r="11.31" style="fill:none;stroke:#1A85FF;stroke-width:6.48"/>
	<circle cx="1175.68" cy="752.79" r="14.55" style="fill:#1A85FF"/>
	<circle cx="1175.68" cy="752.79" r="11.31" style="fill:none;stroke:#1A85FF;stroke-width:6.48"/>
	<circle cx="1525.67" cy="780.47" r="14.55" style="fill:#1A85FF"/>
	<circle cx="1525.67" cy="780.47" r="11.31" style="fill:none;stroke:#1A85FF;stroke-width:6.48"/>
	<circle cx="1438.09" cy="800.04" r="14.55" style="fill:#1A85FF"/>
	<circle cx="1438.09" cy="800.04" r="11.31" style="fill:none;stroke:#1A85FF;stroke-width:6.48"/>
	<circle cx="1525.67" cy="760.89" r="14.55" style="fill:#1A85FF"/>
	<circle cx="1525.67" cy="760.89" r="11.31" style="fill:none;stroke:#1A85FF;stroke-width:6.48"/>
	<circle cx="1131.97" cy="672.97" r="14.55" style="fill:#1A85FF"/>
	<circle cx="1131.97" cy="672.97" r="11.31" style="fill:none;stroke:#1A85FF;stroke-width:6.48"/>
	<circle cx="1190.36" cy="448.37" r="14.55" style="fill:#1A85FF"/>
	<circle cx="1190.36" cy="448.37" r="11.31" style="fill:none;stroke:#1A85FF;stroke-width:6.48"/>
	<circle cx="1277.78" cy="589.95" r="14.55" style="fill:#1A85FF"/>
	<circle cx="1277.78" cy="589.95" r="11.31" style="fill:none;stroke:#1A85FF;stroke-width:6.48"/>
	<circle cx="1642.28" cy="970.82" r="14.55" style="fill:#1A85FF"/>
	<circle cx="1642.28" cy="970.82" r="11.31" style="fill:none;stroke:#1A85FF;stroke-width:6.48"/>
	<circle cx="1642.28" cy="983.81" r="14.55" style="fill:#1A85FF"/>
	<circle cx="1642.28" cy="983.81" r="11.31" style="fill:none;stroke:#1A85FF;stroke-width:6.48"/>
	<circle cx="1350.68" cy="814.56" r="14.55" style="fill:#1A85FF"/>
	<circle cx="1350.68" cy="814.56" r="11.31" style="fill:none;stroke:#1A85FF;stroke-width:6.48"/>
	<circle cx="709.26" cy="492.41" r="14.55" style="fill:#1A85FF"/>
	<circle cx="709.26" cy="492.41" r="11.31" style="fill:none;stroke:#1A85FF;stroke-width:6.48"/>
	<circle cx="1146.66" cy="627.41" r="14.55" style="fill:#1A85FF"/>
	<circle cx="1146.66" cy="627.41" r="11.31" style="fill:none;stroke:#1A85FF;stroke-width:6.48"/>
	<circle cx="1496.48" cy="804.77" r="14.55" style="fill:#1A85FF"/>
	<circle cx="1496.48" cy="804.77" r="11.31" style="fill:none;stroke:#1A85FF;stroke-width:6.48"/>
	<line x1="486.84" y1="1218.54" x2="486.84" y2="146.81" style="stroke:#000000;stroke-width:4.32"/>
	<line x1="486.84" y1="1170.96" x2="456.81" y2="1170.96" style="stroke:#000000;stroke-width:4.32"/>
	<text x="441.96" y="1197.22" style="font-family:'Helvetica';font-size:74.93px;fill:#000000" text-anchor="end">0,00</text>
	<line x1="486.84" y1="1008.28" x2="456.81" y2="1008.28" style="stroke:#000000;stroke-width:4.32"/>
	<text x="441.96" y="1034.55" style="font-family:'Helvetica';font-size:74.93px;fill:#000000" text-anchor="end">1,00</text>
	<line x1="486.84" y1="845.44" x2="456.81" y2="845.44" style="stroke:#000000;stroke-width:4.32"/>
	<text x="441.96" y="871.70" style="font-family:'Helvetica';font-size:74.93px;fill:#000000" text-anchor="end">2,00</text>
	<line x1="486.84" y1="682.76" x2="456.81" y2="682.76" style="stroke:#000000;stroke-width:4.32"/>
	<text x="441.96" y="709.03" style="font-family:'Helvetica';font-size:74.93px;fill:#000000" text-anchor="end">3,00</text>
	<line x1="486.84" y1="519.92" x2="456.81" y2="519.92" style="stroke:#000000;stroke-width:4.32"/>
	<text x="441.96" y="546.18" style="font-family:'Helvetica';font-size:74.93px;fill:#000000" text-anchor="end">4,00</text>
	<line x1="486.84" y1="357.24" x2="456.81" y2="357.24" style="stroke:#000000;stroke-width:4.32"/>
	<text x="441.96" y="383.51" style="font-family:'Helvetica';font-size:74.93px;fill:#000000" text-anchor="end">5,00</text>
	<line x1="486.84" y1="194.40" x2="456.81" y2="194.40" style="stroke:#000000;stroke-width:4.32"/>
	<text x="441.96" y="220.67" style="font-family:'Helvetica';font-size:74.93px;fill:#000000" text-anchor="end">6,00</text>
	<text x="214.36" y="682.76" style="font-family:'Helvetica';font-size:74.93px;fill:#000000" transform="rotate(-90 214.36,682.76)" text-anchor="middle">CVF(L)</text>
	<line x1="486.84" y1="1218.54" x2="1748.08" y2="1218.54" style="stroke:#000000;stroke-width:4.32"/>
	<line x1="534.43" y1="1218.54" x2="534.43" y2="1248.58" style="stroke:#000000;stroke-width:4.32"/>
	<text x="534.43" y="1315.79" style="font-family:'Helvetica';font-size:74.93px;fill:#000000" text-anchor="middle">0</text>
	<line x1="826.03" y1="1218.54" x2="826.03" y2="1248.58" style="stroke:#000000;stroke-width:4.32"/>
	<text x="826.03" y="1315.79" style="font-family:'Helvetica';font-size:74.93px;fill:#000000" text-anchor="middle">10</text>
	<line x1="1117.46" y1="1218.54" x2="1117.46" y2="1248.58" style="stroke:#000000;stroke-width:4.32"/>
	<text x="1117.46" y="1315.79" style="font-family:'Helvetica';font-size:74.93px;fill:#000000" text-anchor="middle">20</text>
	<line x1="1409.06" y1="1218.54" x2="1409.06" y2="1248.58" style="stroke:#000000;stroke-width:4.32"/>
	<text x="1409.06" y="1315.79" style="font-family:'Helvetica';font-size:74.93px;fill:#000000" text-anchor="middle">30</text>
	<line x1="1700.66" y1="1218.54" x2="1700.66" y2="1248.58" style="stroke:#000000;stroke-width:4.32"/>
	<text x="1700.66" y="1315.79" style="font-family:'Helvetica';font-size:74.93px;fill:#000000" text-anchor="middle">40</text>
	<text x="1117.46" y="1420.93" style="font-family:'Helvetica';font-size:74.93px;fill:#000000" text-anchor="middle">SARA</text>
	<text x="499.84" y="1513.35" style="font-family:'Helvetica';font-size:59.91px;fill:#000000">Spearman's rho = -0,63; p=0,09</text>
	<rect x="1823.68" y="71.21" width="1752.64" height="1548.79" style="fill:#FFFFFF"/>
	<rect x="1825.84" y="73.37" width="1748.32" height="1544.47" style="fill:none;stroke:#FFFFFF;stroke-width:4.32"/>
	<rect x="2129.96" y="146.81" width="1370.76" height="1071.73" style="fill:#FFFFFF"/>
	<rect x="2132.12" y="148.97" width="1366.44" height="1067.41" style="fill:none;stroke:#FFFFFF;stroke-width:4.32"/>
	<circle cx="2464.43" cy="712.13" r="14.55" style="fill:#1A85FF"/>
	<circle cx="2464.43" cy="712.13" r="11.31" style="fill:none;stroke:#1A85FF;stroke-width:6.48"/>
	<circle cx="3261.77" cy="808.14" r="14.55" style="fill:#1A85FF"/>
	<circle cx="3261.77" cy="808.14" r="11.31" style="fill:none;stroke:#1A85FF;stroke-width:6.48"/>
	<circle cx="3086.27" cy="840.71" r="14.55" style="fill:#1A85FF"/>
	<circle cx="3086.27" cy="840.71" r="11.31" style="fill:none;stroke:#1A85FF;stroke-width:6.48"/>
	<circle cx="2879.04" cy="811.35" r="14.55" style="fill:#1A85FF"/>
	<circle cx="2879.04" cy="811.35" r="11.31" style="fill:none;stroke:#1A85FF;stroke-width:6.48"/>
	<circle cx="3261.77" cy="871.59" r="14.55" style="fill:#1A85FF"/>
	<circle cx="3261.77" cy="871.59" r="11.31" style="fill:none;stroke:#1A85FF;stroke-width:6.48"/>
	<circle cx="3166.09" cy="822.82" r="14.55" style="fill:#1A85FF"/>
	<circle cx="3166.09" cy="822.82" r="11.31" style="fill:none;stroke:#1A85FF;stroke-width:6.48"/>
	<circle cx="3261.77" cy="842.23" r="14.55" style="fill:#1A85FF"/>
	<circle cx="3261.77" cy="842.23" r="11.31" style="fill:none;stroke:#1A85FF;stroke-width:6.48"/>
	<circle cx="2831.12" cy="791.78" r="14.55" style="fill:#1A85FF"/>
	<circle cx="2831.12" cy="791.78" r="11.31" style="fill:none;stroke:#1A85FF;stroke-width:6.48"/>
	<circle cx="2894.91" cy="568.86" r="14.55" style="fill:#1A85FF"/>
	<circle cx="2894.91" cy="568.86" r="11.31" style="fill:none;stroke:#1A85FF;stroke-width:6.48"/>
	<circle cx="2990.59" cy="717.02" r="14.55" style="fill:#1A85FF"/>
	<circle cx="2990.59" cy="717.02" r="11.31" style="fill:none;stroke:#1A85FF;stroke-width:6.48"/>
	<circle cx="3389.18" cy="990.39" r="14.55" style="fill:#1A85FF"/>
	<circle cx="3389.18" cy="990.39" r="11.31" style="fill:none;stroke:#1A85FF;stroke-width:6.48"/>
	<circle cx="3389.18" cy="996.97" r="14.55" style="fill:#1A85FF"/>
	<circle cx="3389.18" cy="996.97" r="11.31" style="fill:none;stroke:#1A85FF;stroke-width:6.48"/>
	<circle cx="3070.41" cy="868.39" r="14.55" style="fill:#1A85FF"/>
	<circle cx="3070.41" cy="868.39" r="11.31" style="fill:none;stroke:#1A85FF;stroke-width:6.48"/>
	<circle cx="2368.74" cy="659.98" r="14.55" style="fill:#1A85FF"/>
	<circle cx="2368.74" cy="659.98" r="11.31" style="fill:none;stroke:#1A85FF;stroke-width:6.48"/>
	<circle cx="2847.15" cy="702.34" r="14.55" style="fill:#1A85FF"/>
	<circle cx="2847.15" cy="702.34" r="11.31" style="fill:none;stroke:#1A85FF;stroke-width:6.48"/>
	<circle cx="3229.88" cy="863.49" r="14.55" style="fill:#1A85FF"/>
	<circle cx="3229.88" cy="863.49" r="11.31" style="fill:none;stroke:#1A85FF;stroke-width:6.48"/>
	<line x1="2129.96" y1="1218.54" x2="2129.96" y2="146.81" style="stroke:#000000;stroke-width:4.32"/>
	<line x1="2129.96" y1="1170.96" x2="2099.93" y2="1170.96" style="stroke:#000000;stroke-width:4.32"/>
	<text x="2084.91" y="1197.22" style="font-family:'Helvetica';font-size:74.93px;fill:#000000" text-anchor="end">0</text>
	<line x1="2129.96" y1="1008.28" x2="2099.93" y2="1008.28" style="stroke:#000000;stroke-width:4.32"/>
	<text x="2084.91" y="1034.55" style="font-family:'Helvetica';font-size:74.93px;fill:#000000" text-anchor="end">1</text>
	<line x1="2129.96" y1="845.44" x2="2099.93" y2="845.44" style="stroke:#000000;stroke-width:4.32"/>
	<text x="2084.91" y="871.70" style="font-family:'Helvetica';font-size:74.93px;fill:#000000" text-anchor="end">2</text>
	<line x1="2129.96" y1="682.76" x2="2099.93" y2="682.76" style="stroke:#000000;stroke-width:4.32"/>
	<text x="2084.91" y="709.03" style="font-family:'Helvetica';font-size:74.93px;fill:#000000" text-anchor="end">3</text>
	<line x1="2129.96" y1="519.92" x2="2099.93" y2="519.92" style="stroke:#000000;stroke-width:4.32"/>
	<text x="2084.91" y="546.18" style="font-family:'Helvetica';font-size:74.93px;fill:#000000" text-anchor="end">4</text>
	<line x1="2129.96" y1="357.24" x2="2099.93" y2="357.24" style="stroke:#000000;stroke-width:4.32"/>
	<text x="2084.91" y="383.51" style="font-family:'Helvetica';font-size:74.93px;fill:#000000" text-anchor="end">5</text>
	<line x1="2129.96" y1="194.40" x2="2099.93" y2="194.40" style="stroke:#000000;stroke-width:4.32"/>
	<text x="2084.91" y="220.67" style="font-family:'Helvetica';font-size:74.93px;fill:#000000" text-anchor="end">6</text>
	<text x="1966.83" y="682.76" style="font-family:'Helvetica';font-size:74.93px;fill:#000000" transform="rotate(-90 1966.83,682.76)" text-anchor="middle">VEF1 (L)</text>
	<line x1="2129.96" y1="1218.54" x2="3500.72" y2="1218.54" style="stroke:#000000;stroke-width:4.32"/>
	<line x1="2177.55" y1="1218.54" x2="2177.55" y2="1248.58" style="stroke:#000000;stroke-width:4.32"/>
	<text x="2177.55" y="1315.79" style="font-family:'Helvetica';font-size:74.93px;fill:#000000" text-anchor="middle">0</text>
	<line x1="2496.49" y1="1218.54" x2="2496.49" y2="1248.58" style="stroke:#000000;stroke-width:4.32"/>
	<text x="2496.49" y="1315.79" style="font-family:'Helvetica';font-size:74.93px;fill:#000000" text-anchor="middle">10</text>
	<line x1="2815.26" y1="1218.54" x2="2815.26" y2="1248.58" style="stroke:#000000;stroke-width:4.32"/>
	<text x="2815.26" y="1315.79" style="font-family:'Helvetica';font-size:74.93px;fill:#000000" text-anchor="middle">20</text>
	<line x1="3134.19" y1="1218.54" x2="3134.19" y2="1248.58" style="stroke:#000000;stroke-width:4.32"/>
	<text x="3134.19" y="1315.79" style="font-family:'Helvetica';font-size:74.93px;fill:#000000" text-anchor="middle">30</text>
	<line x1="3453.13" y1="1218.54" x2="3453.13" y2="1248.58" style="stroke:#000000;stroke-width:4.32"/>
	<text x="3453.13" y="1315.79" style="font-family:'Helvetica';font-size:74.93px;fill:#000000" text-anchor="middle">40</text>
	<text x="2815.26" y="1420.93" style="font-family:'Helvetica';font-size:74.93px;fill:#000000" text-anchor="middle">SARA</text>
	<text x="2142.96" y="1513.35" style="font-family:'Helvetica';font-size:59.91px;fill:#000000">Spearman's rho = -0,80; p=0,02</text>
	<rect x="3576.32" y="71.21" width="1752.47" height="1548.79" style="fill:#FFFFFF"/>
	<rect x="3578.48" y="73.37" width="1748.15" height="1544.47" style="fill:none;stroke:#FFFFFF;stroke-width:4.32"/>
	<rect x="3970.01" y="146.81" width="1283.18" height="1071.73" style="fill:#FFFFFF"/>
	<rect x="3972.17" y="148.97" width="1278.86" height="1067.41" style="fill:none;stroke:#FFFFFF;stroke-width:4.32"/>
	<circle cx="4284.73" cy="300.04" r="14.55" style="fill:#1A85FF"/>
	<circle cx="4284.73" cy="300.04" r="11.31" style="fill:none;stroke:#1A85FF;stroke-width:6.48"/>
	<circle cx="5027.23" cy="243.34" r="14.55" style="fill:#1A85FF"/>
	<circle cx="5027.23" cy="243.34" r="11.31" style="fill:none;stroke:#1A85FF;stroke-width:6.48"/>
	<circle cx="4863.88" cy="376.14" r="14.55" style="fill:#1A85FF"/>
	<circle cx="4863.88" cy="376.14" r="11.31" style="fill:none;stroke:#1A85FF;stroke-width:6.48"/>
	<circle cx="4670.83" cy="332.10" r="14.55" style="fill:#1A85FF"/>
	<circle cx="4670.83" cy="332.10" r="11.31" style="fill:none;stroke:#1A85FF;stroke-width:6.48"/>
	<circle cx="5027.23" cy="421.03" r="14.55" style="fill:#1A85FF"/>
	<circle cx="5027.23" cy="421.03" r="11.31" style="fill:none;stroke:#1A85FF;stroke-width:6.48"/>
	<circle cx="4938.13" cy="251.10" r="14.55" style="fill:#1A85FF"/>
	<circle cx="4938.13" cy="251.10" r="11.31" style="fill:none;stroke:#1A85FF;stroke-width:6.48"/>
	<circle cx="5027.23" cy="389.81" r="14.55" style="fill:#1A85FF"/>
	<circle cx="5027.23" cy="389.81" r="11.31" style="fill:none;stroke:#1A85FF;stroke-width:6.48"/>
	<circle cx="4626.28" cy="429.81" r="14.55" style="fill:#1A85FF"/>
	<circle cx="4626.28" cy="429.81" r="11.31" style="fill:none;stroke:#1A85FF;stroke-width:6.48"/>
	<circle cx="4685.68" cy="357.58" r="14.55" style="fill:#1A85FF"/>
	<circle cx="4685.68" cy="357.58" r="11.31" style="fill:none;stroke:#1A85FF;stroke-width:6.48"/>
	<circle cx="4774.78" cy="407.36" r="14.55" style="fill:#1A85FF"/>
	<circle cx="4774.78" cy="407.36" r="11.31" style="fill:none;stroke:#1A85FF;stroke-width:6.48"/>
	<circle cx="5146.03" cy="291.09" r="14.55" style="fill:#1A85FF"/>
	<circle cx="5146.03" cy="291.09" r="11.31" style="fill:none;stroke:#1A85FF;stroke-width:6.48"/>
	<circle cx="5146.03" cy="267.81" r="14.55" style="fill:#1A85FF"/>
	<circle cx="5146.03" cy="267.81" r="11.31" style="fill:none;stroke:#1A85FF;stroke-width:6.48"/>
	<circle cx="4849.03" cy="343.91" r="14.55" style="fill:#1A85FF"/>
	<circle cx="4849.03" cy="343.91" r="11.31" style="fill:none;stroke:#1A85FF;stroke-width:6.48"/>
	<circle cx="4195.63" cy="436.72" r="14.55" style="fill:#1A85FF"/>
	<circle cx="4195.63" cy="436.72" r="11.31" style="fill:none;stroke:#1A85FF;stroke-width:6.48"/>
	<circle cx="4641.13" cy="329.23" r="14.55" style="fill:#1A85FF"/>
	<circle cx="4641.13" cy="329.23" r="11.31" style="fill:none;stroke:#1A85FF;stroke-width:6.48"/>
	<circle cx="4997.53" cy="349.82" r="14.55" style="fill:#1A85FF"/>
	<circle cx="4997.53" cy="349.82" r="11.31" style="fill:none;stroke:#1A85FF;stroke-width:6.48"/>
	<line x1="3970.01" y1="1218.54" x2="3970.01" y2="146.81" style="stroke:#000000;stroke-width:4.32"/>
	<line x1="3970.01" y1="1170.96" x2="3939.98" y2="1170.96" style="stroke:#000000;stroke-width:4.32"/>
	<text x="3924.96" y="1197.22" style="font-family:'Helvetica';font-size:74.93px;fill:#000000" text-anchor="end">0</text>
	<line x1="3970.01" y1="1073.25" x2="3939.98" y2="1073.25" style="stroke:#000000;stroke-width:4.32"/>
	<text x="3924.96" y="1099.52" style="font-family:'Helvetica';font-size:74.93px;fill:#000000" text-anchor="end">10</text>
	<line x1="3970.01" y1="975.71" x2="3939.98" y2="975.71" style="stroke:#000000;stroke-width:4.32"/>
	<text x="3924.96" y="1001.98" style="font-family:'Helvetica';font-size:74.93px;fill:#000000" text-anchor="end">20</text>
	<line x1="3970.01" y1="878.01" x2="3939.98" y2="878.01" style="stroke:#000000;stroke-width:4.32"/>
	<text x="3924.96" y="904.27" style="font-family:'Helvetica';font-size:74.93px;fill:#000000" text-anchor="end">30</text>
	<line x1="3970.01" y1="780.30" x2="3939.98" y2="780.30" style="stroke:#000000;stroke-width:4.32"/>
	<text x="3924.96" y="806.57" style="font-family:'Helvetica';font-size:74.93px;fill:#000000" text-anchor="end">40</text>
	<line x1="3970.01" y1="682.76" x2="3939.98" y2="682.76" style="stroke:#000000;stroke-width:4.32"/>
	<text x="3924.96" y="709.03" style="font-family:'Helvetica';font-size:74.93px;fill:#000000" text-anchor="end">50</text>
	<line x1="3970.01" y1="585.06" x2="3939.98" y2="585.06" style="stroke:#000000;stroke-width:4.32"/>
	<text x="3924.96" y="611.32" style="font-family:'Helvetica';font-size:74.93px;fill:#000000" text-anchor="end">60</text>
	<line x1="3970.01" y1="487.35" x2="3939.98" y2="487.35" style="stroke:#000000;stroke-width:4.32"/>
	<text x="3924.96" y="513.62" style="font-family:'Helvetica';font-size:74.93px;fill:#000000" text-anchor="end">70</text>
	<line x1="3970.01" y1="389.64" x2="3939.98" y2="389.64" style="stroke:#000000;stroke-width:4.32"/>
	<text x="3924.96" y="415.91" style="font-family:'Helvetica';font-size:74.93px;fill:#000000" text-anchor="end">80</text>
	<line x1="3970.01" y1="292.11" x2="3939.98" y2="292.11" style="stroke:#000000;stroke-width:4.32"/>
	<text x="3924.96" y="318.37" style="font-family:'Helvetica';font-size:74.93px;fill:#000000" text-anchor="end">90</text>
	<line x1="3970.01" y1="194.40" x2="3939.98" y2="194.40" style="stroke:#000000;stroke-width:4.32"/>
	<text x="3924.96" y="220.67" style="font-family:'Helvetica';font-size:74.93px;fill:#000000" text-anchor="end">100</text>
	<text x="3719.30" y="682.76" style="font-family:'Helvetica';font-size:74.93px;fill:#000000" transform="rotate(-90 3719.30,682.76)" text-anchor="middle">VEF1/CVF (L)</text>
	<line x1="3970.01" y1="1218.54" x2="5253.19" y2="1218.54" style="stroke:#000000;stroke-width:4.32"/>
	<line x1="4017.43" y1="1218.54" x2="4017.43" y2="1248.58" style="stroke:#000000;stroke-width:4.32"/>
	<text x="4017.43" y="1315.79" style="font-family:'Helvetica';font-size:74.93px;fill:#000000" text-anchor="middle">0</text>
	<line x1="4314.43" y1="1218.54" x2="4314.43" y2="1248.58" style="stroke:#000000;stroke-width:4.32"/>
	<text x="4314.43" y="1315.79" style="font-family:'Helvetica';font-size:74.93px;fill:#000000" text-anchor="middle">10</text>
	<line x1="4611.60" y1="1218.54" x2="4611.60" y2="1248.58" style="stroke:#000000;stroke-width:4.32"/>
	<text x="4611.60" y="1315.79" style="font-family:'Helvetica';font-size:74.93px;fill:#000000" text-anchor="middle">20</text>
	<line x1="4908.60" y1="1218.54" x2="4908.60" y2="1248.58" style="stroke:#000000;stroke-width:4.32"/>
	<text x="4908.60" y="1315.79" style="font-family:'Helvetica';font-size:74.93px;fill:#000000" text-anchor="middle">30</text>
	<line x1="5205.60" y1="1218.54" x2="5205.60" y2="1248.58" style="stroke:#000000;stroke-width:4.32"/>
	<text x="5205.60" y="1315.79" style="font-family:'Helvetica';font-size:74.93px;fill:#000000" text-anchor="middle">40</text>
	<text x="4611.60" y="1420.93" style="font-family:'Helvetica';font-size:74.93px;fill:#000000" text-anchor="middle">SARA</text>
	<text x="3982.84" y="1513.35" style="font-family:'Helvetica';font-size:59.91px;fill:#000000">Spearman's rho = 0,15; p=0,72</text>
	<rect x="71.21" y="1620.00" width="1752.47" height="1548.79" style="fill:#FFFFFF"/>
	<rect x="73.37" y="1622.16" width="1748.15" height="1544.47" style="fill:none;stroke:#FFFFFF;stroke-width:4.32"/>
	<rect x="421.20" y="1695.60" width="1326.88" height="1071.56" style="fill:#FFFFFF"/>
	<rect x="423.36" y="1697.76" width="1322.56" height="1067.24" style="fill:none;stroke:#FFFFFF;stroke-width:4.32"/>
	<circle cx="745.88" cy="2147.51" r="14.55" style="fill:#1A85FF"/>
	<circle cx="745.88" cy="2147.51" r="11.31" style="fill:none;stroke:#1A85FF;stroke-width:6.48"/>
	<circle cx="1515.71" cy="2271.54" r="14.55" style="fill:#1A85FF"/>
	<circle cx="1515.71" cy="2271.54" r="11.31" style="fill:none;stroke:#1A85FF;stroke-width:6.48"/>
	<circle cx="1346.46" cy="2431.69" r="14.55" style="fill:#1A85FF"/>
	<circle cx="1346.46" cy="2431.69" r="11.31" style="fill:none;stroke:#1A85FF;stroke-width:6.48"/>
	<circle cx="1146.15" cy="2315.42" r="14.55" style="fill:#1A85FF"/>
	<circle cx="1146.15" cy="2315.42" r="11.31" style="fill:none;stroke:#1A85FF;stroke-width:6.48"/>
	<circle cx="1515.71" cy="2318.46" r="14.55" style="fill:#1A85FF"/>
	<circle cx="1515.71" cy="2318.46" r="11.31" style="fill:none;stroke:#1A85FF;stroke-width:6.48"/>
	<circle cx="1423.41" cy="2351.70" r="14.55" style="fill:#1A85FF"/>
	<circle cx="1423.41" cy="2351.70" r="11.31" style="fill:none;stroke:#1A85FF;stroke-width:6.48"/>
	<circle cx="1515.71" cy="2383.76" r="14.55" style="fill:#1A85FF"/>
	<circle cx="1515.71" cy="2383.76" r="11.31" style="fill:none;stroke:#1A85FF;stroke-width:6.48"/>
	<circle cx="1100.08" cy="2397.43" r="14.55" style="fill:#1A85FF"/>
	<circle cx="1100.08" cy="2397.43" r="11.31" style="fill:none;stroke:#1A85FF;stroke-width:6.48"/>
	<circle cx="1161.68" cy="2128.95" r="14.55" style="fill:#1A85FF"/>
	<circle cx="1161.68" cy="2128.95" r="11.31" style="fill:none;stroke:#1A85FF;stroke-width:6.48"/>
	<circle cx="1253.98" cy="2279.31" r="14.55" style="fill:#1A85FF"/>
	<circle cx="1253.98" cy="2279.31" r="11.31" style="fill:none;stroke:#1A85FF;stroke-width:6.48"/>
	<circle cx="1638.90" cy="2435.57" r="14.55" style="fill:#1A85FF"/>
	<circle cx="1638.90" cy="2435.57" r="11.31" style="fill:none;stroke:#1A85FF;stroke-width:6.48"/>
	<circle cx="1638.90" cy="2545.93" r="14.55" style="fill:#1A85FF"/>
	<circle cx="1638.90" cy="2545.93" r="11.31" style="fill:none;stroke:#1A85FF;stroke-width:6.48"/>
	<circle cx="1330.93" cy="2366.21" r="14.55" style="fill:#1A85FF"/>
	<circle cx="1330.93" cy="2366.21" r="11.31" style="fill:none;stroke:#1A85FF;stroke-width:6.48"/>
	<circle cx="653.40" cy="2048.79" r="14.55" style="fill:#1A85FF"/>
	<circle cx="653.40" cy="2048.79" r="11.31" style="fill:none;stroke:#1A85FF;stroke-width:6.48"/>
	<circle cx="1115.44" cy="2165.06" r="14.55" style="fill:#1A85FF"/>
	<circle cx="1115.44" cy="2165.06" r="11.31" style="fill:none;stroke:#1A85FF;stroke-width:6.48"/>
	<circle cx="1485.00" cy="2388.66" r="14.55" style="fill:#1A85FF"/>
	<circle cx="1485.00" cy="2388.66" r="11.31" style="fill:none;stroke:#1A85FF;stroke-width:6.48"/>
	<line x1="421.20" y1="2767.16" x2="421.20" y2="1695.60" style="stroke:#000000;stroke-width:4.32"/>
	<line x1="421.20" y1="2719.74" x2="391.33" y2="2719.74" style="stroke:#000000;stroke-width:4.32"/>
	<text x="376.31" y="2746.01" style="font-family:'Helvetica';font-size:74.93px;fill:#000000" text-anchor="end">0</text>
	<line x1="421.20" y1="2622.04" x2="391.33" y2="2622.04" style="stroke:#000000;stroke-width:4.32"/>
	<text x="376.31" y="2648.30" style="font-family:'Helvetica';font-size:74.93px;fill:#000000" text-anchor="end">1</text>
	<line x1="421.20" y1="2524.33" x2="391.33" y2="2524.33" style="stroke:#000000;stroke-width:4.32"/>
	<text x="376.31" y="2550.60" style="font-family:'Helvetica';font-size:74.93px;fill:#000000" text-anchor="end">2</text>
	<line x1="421.20" y1="2426.79" x2="391.33" y2="2426.79" style="stroke:#000000;stroke-width:4.32"/>
	<text x="376.31" y="2453.06" style="font-family:'Helvetica';font-size:74.93px;fill:#000000" text-anchor="end">3</text>
	<line x1="421.20" y1="2329.09" x2="391.33" y2="2329.09" style="stroke:#000000;stroke-width:4.32"/>
	<text x="376.31" y="2355.35" style="font-family:'Helvetica';font-size:74.93px;fill:#000000" text-anchor="end">4</text>
	<line x1="421.20" y1="2231.38" x2="391.33" y2="2231.38" style="stroke:#000000;stroke-width:4.32"/>
	<text x="376.31" y="2257.65" style="font-family:'Helvetica';font-size:74.93px;fill:#000000" text-anchor="end">5</text>
	<line x1="421.20" y1="2133.68" x2="391.33" y2="2133.68" style="stroke:#000000;stroke-width:4.32"/>
	<text x="376.31" y="2159.94" style="font-family:'Helvetica';font-size:74.93px;fill:#000000" text-anchor="end">6</text>
	<line x1="421.20" y1="2036.14" x2="391.33" y2="2036.14" style="stroke:#000000;stroke-width:4.32"/>
	<text x="376.31" y="2062.40" style="font-family:'Helvetica';font-size:74.93px;fill:#000000" text-anchor="end">7</text>
	<line x1="421.20" y1="1938.43" x2="391.33" y2="1938.43" style="stroke:#000000;stroke-width:4.32"/>
	<text x="376.31" y="1964.70" style="font-family:'Helvetica';font-size:74.93px;fill:#000000" text-anchor="end">8</text>
	<line x1="421.20" y1="1840.73" x2="391.33" y2="1840.73" style="stroke:#000000;stroke-width:4.32"/>
	<text x="376.31" y="1866.99" style="font-family:'Helvetica';font-size:74.93px;fill:#000000" text-anchor="end">9</text>
	<line x1="421.20" y1="1743.19" x2="391.33" y2="1743.19" style="stroke:#000000;stroke-width:4.32"/>
	<text x="376.31" y="1769.45" style="font-family:'Helvetica';font-size:74.93px;fill:#000000" text-anchor="end">10</text>
	<text x="214.36" y="2231.38" style="font-family:'Helvetica';font-size:74.93px;fill:#000000" transform="rotate(-90 214.36,2231.38)" text-anchor="middle">PFE (L)</text>
	<line x1="421.20" y1="2767.16" x2="1748.08" y2="2767.16" style="stroke:#000000;stroke-width:4.32"/>
	<line x1="468.79" y1="2767.16" x2="468.79" y2="2797.20" style="stroke:#000000;stroke-width:4.32"/>
	<text x="468.79" y="2864.58" style="font-family:'Helvetica';font-size:74.93px;fill:#000000" text-anchor="middle">0</text>
	<line x1="776.76" y1="2767.16" x2="776.76" y2="2797.20" style="stroke:#000000;stroke-width:4.32"/>
	<text x="776.76" y="2864.58" style="font-family:'Helvetica';font-size:74.93px;fill:#000000" text-anchor="middle">10</text>
	<line x1="1084.72" y1="2767.16" x2="1084.72" y2="2797.20" style="stroke:#000000;stroke-width:4.32"/>
	<text x="1084.72" y="2864.58" style="font-family:'Helvetica';font-size:74.93px;fill:#000000" text-anchor="middle">20</text>
	<line x1="1392.69" y1="2767.16" x2="1392.69" y2="2797.20" style="stroke:#000000;stroke-width:4.32"/>
	<text x="1392.69" y="2864.58" style="font-family:'Helvetica';font-size:74.93px;fill:#000000" text-anchor="middle">30</text>
	<line x1="1700.66" y1="2767.16" x2="1700.66" y2="2797.20" style="stroke:#000000;stroke-width:4.32"/>
	<text x="1700.66" y="2864.58" style="font-family:'Helvetica';font-size:74.93px;fill:#000000" text-anchor="middle">40</text>
	<text x="1084.72" y="2969.71" style="font-family:'Helvetica';font-size:74.93px;fill:#000000" text-anchor="middle">SARA</text>
	<text x="434.19" y="3062.14" style="font-family:'Helvetica';font-size:59.91px;fill:#000000">Spearman's rho = -0,17; p=0,67</text>
	<rect x="1823.68" y="1620.00" width="1752.64" height="1548.79" style="fill:#FFFFFF"/>
	<rect x="1825.84" y="1622.16" width="1748.32" height="1544.47" style="fill:none;stroke:#FFFFFF;stroke-width:4.32"/>
	<rect x="2217.54" y="1695.60" width="1283.18" height="1071.56" style="fill:#FFFFFF"/>
	<rect x="2219.70" y="1697.76" width="1278.86" height="1067.24" style="fill:none;stroke:#FFFFFF;stroke-width:4.32"/>
	<circle cx="2532.26" cy="2112.07" r="14.55" style="fill:#1A85FF"/>
	<circle cx="2532.26" cy="2112.07" r="11.31" style="fill:none;stroke:#1A85FF;stroke-width:6.48"/>
	<circle cx="3274.76" cy="2159.83" r="14.55" style="fill:#1A85FF"/>
	<circle cx="3274.76" cy="2159.83" r="11.31" style="fill:none;stroke:#1A85FF;stroke-width:6.48"/>
	<circle cx="3111.41" cy="2191.73" r="14.55" style="fill:#1A85FF"/>
	<circle cx="3111.41" cy="2191.73" r="11.31" style="fill:none;stroke:#1A85FF;stroke-width:6.48"/>
	<circle cx="2918.36" cy="2075.96" r="14.55" style="fill:#1A85FF"/>
	<circle cx="2918.36" cy="2075.96" r="11.31" style="fill:none;stroke:#1A85FF;stroke-width:6.48"/>
	<circle cx="3274.76" cy="2137.56" r="14.55" style="fill:#1A85FF"/>
	<circle cx="3274.76" cy="2137.56" r="11.31" style="fill:none;stroke:#1A85FF;stroke-width:6.48"/>
	<circle cx="3185.66" cy="2143.97" r="14.55" style="fill:#1A85FF"/>
	<circle cx="3185.66" cy="2143.97" r="11.31" style="fill:none;stroke:#1A85FF;stroke-width:6.48"/>
	<circle cx="3274.76" cy="2099.25" r="14.55" style="fill:#1A85FF"/>
	<circle cx="3274.76" cy="2099.25" r="11.31" style="fill:none;stroke:#1A85FF;stroke-width:6.48"/>
	<circle cx="2873.81" cy="2060.94" r="14.55" style="fill:#1A85FF"/>
	<circle cx="2873.81" cy="2060.94" r="11.31" style="fill:none;stroke:#1A85FF;stroke-width:6.48"/>
	<circle cx="2933.21" cy="1874.81" r="14.55" style="fill:#1A85FF"/>
	<circle cx="2933.21" cy="1874.81" r="11.31" style="fill:none;stroke:#1A85FF;stroke-width:6.48"/>
	<circle cx="3022.31" cy="2102.46" r="14.55" style="fill:#1A85FF"/>
	<circle cx="3022.31" cy="2102.46" r="11.31" style="fill:none;stroke:#1A85FF;stroke-width:6.48"/>
	<circle cx="3393.56" cy="2172.66" r="14.55" style="fill:#1A85FF"/>
	<circle cx="3393.56" cy="2172.66" r="11.31" style="fill:none;stroke:#1A85FF;stroke-width:6.48"/>
	<circle cx="3393.56" cy="2153.42" r="14.55" style="fill:#1A85FF"/>
	<circle cx="3393.56" cy="2153.42" r="11.31" style="fill:none;stroke:#1A85FF;stroke-width:6.48"/>
	<circle cx="3096.56" cy="2131.14" r="14.55" style="fill:#1A85FF"/>
	<circle cx="3096.56" cy="2131.14" r="11.31" style="fill:none;stroke:#1A85FF;stroke-width:6.48"/>
	<circle cx="2443.16" cy="1884.26" r="14.55" style="fill:#1A85FF"/>
	<circle cx="2443.16" cy="1884.26" r="11.31" style="fill:none;stroke:#1A85FF;stroke-width:6.48"/>
	<circle cx="2888.66" cy="1894.56" r="14.55" style="fill:#1A85FF"/>
	<circle cx="2888.66" cy="1894.56" r="11.31" style="fill:none;stroke:#1A85FF;stroke-width:6.48"/>
	<circle cx="3245.06" cy="2108.87" r="14.55" style="fill:#1A85FF"/>
	<circle cx="3245.06" cy="2108.87" r="11.31" style="fill:none;stroke:#1A85FF;stroke-width:6.48"/>
	<line x1="2217.54" y1="2767.16" x2="2217.54" y2="1695.60" style="stroke:#000000;stroke-width:4.32"/>
	<line x1="2217.54" y1="2719.74" x2="2187.51" y2="2719.74" style="stroke:#000000;stroke-width:4.32"/>
	<text x="2172.49" y="2746.01" style="font-family:'Helvetica';font-size:74.93px;fill:#000000" text-anchor="end">0</text>
	<line x1="2217.54" y1="2556.90" x2="2187.51" y2="2556.90" style="stroke:#000000;stroke-width:4.32"/>
	<text x="2172.49" y="2583.17" style="font-family:'Helvetica';font-size:74.93px;fill:#000000" text-anchor="end">25</text>
	<line x1="2217.54" y1="2394.23" x2="2187.51" y2="2394.23" style="stroke:#000000;stroke-width:4.32"/>
	<text x="2172.49" y="2420.49" style="font-family:'Helvetica';font-size:74.93px;fill:#000000" text-anchor="end">50</text>
	<line x1="2217.54" y1="2231.38" x2="2187.51" y2="2231.38" style="stroke:#000000;stroke-width:4.32"/>
	<text x="2172.49" y="2257.65" style="font-family:'Helvetica';font-size:74.93px;fill:#000000" text-anchor="end">75</text>
	<line x1="2217.54" y1="2068.71" x2="2187.51" y2="2068.71" style="stroke:#000000;stroke-width:4.32"/>
	<text x="2172.49" y="2094.97" style="font-family:'Helvetica';font-size:74.93px;fill:#000000" text-anchor="end">100</text>
	<line x1="2217.54" y1="1905.86" x2="2187.51" y2="1905.86" style="stroke:#000000;stroke-width:4.32"/>
	<text x="2172.49" y="1932.13" style="font-family:'Helvetica';font-size:74.93px;fill:#000000" text-anchor="end">125</text>
	<line x1="2217.54" y1="1743.19" x2="2187.51" y2="1743.19" style="stroke:#000000;stroke-width:4.32"/>
	<text x="2172.49" y="1769.45" style="font-family:'Helvetica';font-size:74.93px;fill:#000000" text-anchor="end">150</text>
	<text x="1966.83" y="2231.38" style="font-family:'Helvetica';font-size:74.93px;fill:#000000" transform="rotate(-90 1966.83,2231.38)" text-anchor="middle">Pi máx.</text>
	<line x1="2217.54" y1="2767.16" x2="3500.72" y2="2767.16" style="stroke:#000000;stroke-width:4.32"/>
	<line x1="2264.96" y1="2767.16" x2="2264.96" y2="2797.20" style="stroke:#000000;stroke-width:4.32"/>
	<text x="2264.96" y="2864.58" style="font-family:'Helvetica';font-size:74.93px;fill:#000000" text-anchor="middle">0</text>
	<line x1="2561.96" y1="2767.16" x2="2561.96" y2="2797.20" style="stroke:#000000;stroke-width:4.32"/>
	<text x="2561.96" y="2864.58" style="font-family:'Helvetica';font-size:74.93px;fill:#000000" text-anchor="middle">10</text>
	<line x1="2859.13" y1="2767.16" x2="2859.13" y2="2797.20" style="stroke:#000000;stroke-width:4.32"/>
	<text x="2859.13" y="2864.58" style="font-family:'Helvetica';font-size:74.93px;fill:#000000" text-anchor="middle">20</text>
	<line x1="3156.13" y1="2767.16" x2="3156.13" y2="2797.20" style="stroke:#000000;stroke-width:4.32"/>
	<text x="3156.13" y="2864.58" style="font-family:'Helvetica';font-size:74.93px;fill:#000000" text-anchor="middle">30</text>
	<line x1="3453.13" y1="2767.16" x2="3453.13" y2="2797.20" style="stroke:#000000;stroke-width:4.32"/>
	<text x="3453.13" y="2864.58" style="font-family:'Helvetica';font-size:74.93px;fill:#000000" text-anchor="middle">40</text>
	<text x="2859.13" y="2969.71" style="font-family:'Helvetica';font-size:74.93px;fill:#000000" text-anchor="middle">SARA</text>
	<text x="2230.37" y="3062.14" style="font-family:'Helvetica';font-size:59.91px;fill:#000000">Spearman's rho = -0,48; p=0,21</text>
	<rect x="3576.32" y="1620.00" width="1752.47" height="1548.79" style="fill:#FFFFFF"/>
	<rect x="3578.48" y="1622.16" width="1748.15" height="1544.47" style="fill:none;stroke:#FFFFFF;stroke-width:4.32"/>
	<rect x="3970.01" y="1695.60" width="1283.18" height="1071.56" style="fill:#FFFFFF"/>
	<rect x="3972.17" y="1697.76" width="1278.86" height="1067.24" style="fill:none;stroke:#FFFFFF;stroke-width:4.32"/>
	<circle cx="4284.73" cy="2309.68" r="14.55" style="fill:#1A85FF"/>
	<circle cx="4284.73" cy="2309.68" r="11.31" style="fill:none;stroke:#1A85FF;stroke-width:6.48"/>
	<circle cx="5027.23" cy="2407.22" r="14.55" style="fill:#1A85FF"/>
	<circle cx="5027.23" cy="2407.22" r="11.31" style="fill:none;stroke:#1A85FF;stroke-width:6.48"/>
	<circle cx="4863.88" cy="2491.93" r="14.55" style="fill:#1A85FF"/>
	<circle cx="4863.88" cy="2491.93" r="11.31" style="fill:none;stroke:#1A85FF;stroke-width:6.48"/>
	<circle cx="4670.83" cy="2368.24" r="14.55" style="fill:#1A85FF"/>
	<circle cx="4670.83" cy="2368.24" r="11.31" style="fill:none;stroke:#1A85FF;stroke-width:6.48"/>
	<circle cx="5027.23" cy="2010.15" r="14.55" style="fill:#1A85FF"/>
	<circle cx="5027.23" cy="2010.15" r="11.31" style="fill:none;stroke:#1A85FF;stroke-width:6.48"/>
	<circle cx="4938.13" cy="2283.53" r="14.55" style="fill:#1A85FF"/>
	<circle cx="4938.13" cy="2283.53" r="11.31" style="fill:none;stroke:#1A85FF;stroke-width:6.48"/>
	<circle cx="5027.23" cy="2264.12" r="14.55" style="fill:#1A85FF"/>
	<circle cx="5027.23" cy="2264.12" r="11.31" style="fill:none;stroke:#1A85FF;stroke-width:6.48"/>
	<circle cx="4626.28" cy="2348.66" r="14.55" style="fill:#1A85FF"/>
	<circle cx="4626.28" cy="2348.66" r="11.31" style="fill:none;stroke:#1A85FF;stroke-width:6.48"/>
	<circle cx="4685.68" cy="2394.23" r="14.55" style="fill:#1A85FF"/>
	<circle cx="4685.68" cy="2394.23" r="11.31" style="fill:none;stroke:#1A85FF;stroke-width:6.48"/>
	<circle cx="4774.78" cy="2068.71" r="14.55" style="fill:#1A85FF"/>
	<circle cx="4774.78" cy="2068.71" r="11.31" style="fill:none;stroke:#1A85FF;stroke-width:6.48"/>
	<circle cx="5146.03" cy="2264.12" r="14.55" style="fill:#1A85FF"/>
	<circle cx="5146.03" cy="2264.12" r="11.31" style="fill:none;stroke:#1A85FF;stroke-width:6.48"/>
	<circle cx="5146.03" cy="2439.79" r="14.55" style="fill:#1A85FF"/>
	<circle cx="5146.03" cy="2439.79" r="11.31" style="fill:none;stroke:#1A85FF;stroke-width:6.48"/>
	<circle cx="4849.03" cy="2264.12" r="14.55" style="fill:#1A85FF"/>
	<circle cx="4849.03" cy="2264.12" r="11.31" style="fill:none;stroke:#1A85FF;stroke-width:6.48"/>
	<circle cx="4195.63" cy="2042.72" r="14.55" style="fill:#1A85FF"/>
	<circle cx="4195.63" cy="2042.72" r="11.31" style="fill:none;stroke:#1A85FF;stroke-width:6.48"/>
	<circle cx="4641.13" cy="2198.98" r="14.55" style="fill:#1A85FF"/>
	<circle cx="4641.13" cy="2198.98" r="11.31" style="fill:none;stroke:#1A85FF;stroke-width:6.48"/>
	<circle cx="4997.53" cy="2439.79" r="14.55" style="fill:#1A85FF"/>
	<circle cx="4997.53" cy="2439.79" r="11.31" style="fill:none;stroke:#1A85FF;stroke-width:6.48"/>
	<line x1="3970.01" y1="2767.16" x2="3970.01" y2="1695.60" style="stroke:#000000;stroke-width:4.32"/>
	<line x1="3970.01" y1="2719.74" x2="3939.98" y2="2719.74" style="stroke:#000000;stroke-width:4.32"/>
	<text x="3924.96" y="2746.01" style="font-family:'Helvetica';font-size:74.93px;fill:#000000" text-anchor="end">0</text>
	<line x1="3970.01" y1="2556.90" x2="3939.98" y2="2556.90" style="stroke:#000000;stroke-width:4.32"/>
	<text x="3924.96" y="2583.17" style="font-family:'Helvetica';font-size:74.93px;fill:#000000" text-anchor="end">25</text>
	<line x1="3970.01" y1="2394.23" x2="3939.98" y2="2394.23" style="stroke:#000000;stroke-width:4.32"/>
	<text x="3924.96" y="2420.49" style="font-family:'Helvetica';font-size:74.93px;fill:#000000" text-anchor="end">50</text>
	<line x1="3970.01" y1="2231.38" x2="3939.98" y2="2231.38" style="stroke:#000000;stroke-width:4.32"/>
	<text x="3924.96" y="2257.65" style="font-family:'Helvetica';font-size:74.93px;fill:#000000" text-anchor="end">75</text>
	<line x1="3970.01" y1="2068.71" x2="3939.98" y2="2068.71" style="stroke:#000000;stroke-width:4.32"/>
	<text x="3924.96" y="2094.97" style="font-family:'Helvetica';font-size:74.93px;fill:#000000" text-anchor="end">100</text>
	<line x1="3970.01" y1="1905.86" x2="3939.98" y2="1905.86" style="stroke:#000000;stroke-width:4.32"/>
	<text x="3924.96" y="1932.13" style="font-family:'Helvetica';font-size:74.93px;fill:#000000" text-anchor="end">125</text>
	<line x1="3970.01" y1="1743.19" x2="3939.98" y2="1743.19" style="stroke:#000000;stroke-width:4.32"/>
	<text x="3924.96" y="1769.45" style="font-family:'Helvetica';font-size:74.93px;fill:#000000" text-anchor="end">150</text>
	<text x="3719.30" y="2231.38" style="font-family:'Helvetica';font-size:74.93px;fill:#000000" transform="rotate(-90 3719.30,2231.38)" text-anchor="middle">SNIP</text>
	<line x1="3970.01" y1="2767.16" x2="5253.19" y2="2767.16" style="stroke:#000000;stroke-width:4.32"/>
	<line x1="4017.43" y1="2767.16" x2="4017.43" y2="2797.20" style="stroke:#000000;stroke-width:4.32"/>
	<text x="4017.43" y="2864.58" style="font-family:'Helvetica';font-size:74.93px;fill:#000000" text-anchor="middle">0</text>
	<line x1="4314.43" y1="2767.16" x2="4314.43" y2="2797.20" style="stroke:#000000;stroke-width:4.32"/>
	<text x="4314.43" y="2864.58" style="font-family:'Helvetica';font-size:74.93px;fill:#000000" text-anchor="middle">10</text>
	<line x1="4611.60" y1="2767.16" x2="4611.60" y2="2797.20" style="stroke:#000000;stroke-width:4.32"/>
	<text x="4611.60" y="2864.58" style="font-family:'Helvetica';font-size:74.93px;fill:#000000" text-anchor="middle">20</text>
	<line x1="4908.60" y1="2767.16" x2="4908.60" y2="2797.20" style="stroke:#000000;stroke-width:4.32"/>
	<text x="4908.60" y="2864.58" style="font-family:'Helvetica';font-size:74.93px;fill:#000000" text-anchor="middle">30</text>
	<line x1="5205.60" y1="2767.16" x2="5205.60" y2="2797.20" style="stroke:#000000;stroke-width:4.32"/>
	<text x="5205.60" y="2864.58" style="font-family:'Helvetica';font-size:74.93px;fill:#000000" text-anchor="middle">40</text>
	<text x="4611.60" y="2969.71" style="font-family:'Helvetica';font-size:74.93px;fill:#000000" text-anchor="middle">SARA</text>
	<text x="3982.84" y="3062.14" style="font-family:'Helvetica';font-size:59.91px;fill:#000000">Spearman's rho = 0,29; p=0,47</text>
</svg>
