<?xml version="1.0" encoding="UTF-8" standalone="no"?>
<!-- This is a Stata 18.0 generated SVG file (http://www.stata.com) -->

<svg version="1.1" width="7.500in" height="4.500in" viewBox="0 0 5400 3240" xmlns="http://www.w3.org/2000/svg" xmlns:xlink="http://www.w3.org/1999/xlink">
	<desc>Stata Graph - Graph</desc>
	<rect x="0" y="0" width="5400" height="3240" style="fill:#FFFFFF;stroke:none"/>
	<rect x="0.00" y="0.00" width="5400.00" height="3240.00" style="fill:#FFFFFF"/>
	<rect x="3.24" y="3.24" width="5393.52" height="3233.52" style="fill:none;stroke:#FFFFFF;stroke-width:6.48"/>
	<rect x="71.21" y="71.21" width="1752.47" height="1548.79" style="fill:#FFFFFF"/>
	<rect x="73.37" y="73.37" width="1748.15" height="1544.47" style="fill:none;stroke:#FFFFFF;stroke-width:4.32"/>
	<rect x="486.84" y="146.81" width="1261.24" height="1071.73" style="fill:#FFFFFF"/>
	<rect x="489.00" y="148.97" width="1256.92" height="1067.41" style="fill:none;stroke:#FFFFFF;stroke-width:4.32"/>
	<circle cx="1204.88" cy="643.78" r="14.55" style="fill:#1A85FF"/>
	<circle cx="1204.88" cy="643.78" r="11.31" style="fill:none;stroke:#1A85FF;stroke-width:6.48"/>
	<circle cx="1117.46" cy="726.81" r="14.55" style="fill:#1A85FF"/>
	<circle cx="1117.46" cy="726.81" r="11.31" style="fill:none;stroke:#1A85FF;stroke-width:6.48"/>
	<circle cx="1700.49" cy="650.19" r="14.55" style="fill:#1A85FF"/>
	<circle cx="1700.49" cy="650.19" r="11.31" style="fill:none;stroke:#1A85FF;stroke-width:6.48"/>
	<circle cx="1379.87" cy="894.38" r="14.55" style="fill:#1A85FF"/>
	<circle cx="1379.87" cy="894.38" r="11.31" style="fill:none;stroke:#1A85FF;stroke-width:6.48"/>
	<circle cx="1204.88" cy="856.91" r="14.55" style="fill:#1A85FF"/>
	<circle cx="1204.88" cy="856.91" r="11.31" style="fill:none;stroke:#1A85FF;stroke-width:6.48"/>
	<circle cx="1277.78" cy="692.55" r="14.55" style="fill:#1A85FF"/>
	<circle cx="1277.78" cy="692.55" r="11.31" style="fill:none;stroke:#1A85FF;stroke-width:6.48"/>
	<circle cx="1496.48" cy="715.33" r="14.55" style="fill:#1A85FF"/>
	<circle cx="1496.48" cy="715.33" r="11.31" style="fill:none;stroke:#1A85FF;stroke-width:6.48"/>
	<circle cx="1131.97" cy="555.86" r="14.55" style="fill:#1A85FF"/>
	<circle cx="1131.97" cy="555.86" r="11.31" style="fill:none;stroke:#1A85FF;stroke-width:6.48"/>
	<circle cx="1190.36" cy="635.51" r="14.55" style="fill:#1A85FF"/>
	<circle cx="1190.36" cy="635.51" r="11.31" style="fill:none;stroke:#1A85FF;stroke-width:6.48"/>
	<circle cx="534.26" cy="502.03" r="14.55" style="fill:#1A85FF"/>
	<circle cx="534.26" cy="502.03" r="11.31" style="fill:none;stroke:#1A85FF;stroke-width:6.48"/>
	<circle cx="1015.37" cy="650.19" r="14.55" style="fill:#1A85FF"/>
	<circle cx="1015.37" cy="650.19" r="11.31" style="fill:none;stroke:#1A85FF;stroke-width:6.48"/>
	<circle cx="1321.48" cy="798.36" r="14.55" style="fill:#1A85FF"/>
	<circle cx="1321.48" cy="798.36" r="11.31" style="fill:none;stroke:#1A85FF;stroke-width:6.48"/>
	<circle cx="913.28" cy="765.79" r="14.55" style="fill:#1A85FF"/>
	<circle cx="913.28" cy="765.79" r="11.31" style="fill:none;stroke:#1A85FF;stroke-width:6.48"/>
	<line x1="486.84" y1="1218.54" x2="486.84" y2="146.81" style="stroke:#000000;stroke-width:4.32"/>
	<line x1="486.84" y1="1170.96" x2="456.81" y2="1170.96" style="stroke:#000000;stroke-width:4.32"/>
	<text x="441.96" y="1197.22" style="font-family:'Helvetica';font-size:74.93px;fill:#000000" text-anchor="end">0,00</text>
	<line x1="486.84" y1="1008.28" x2="456.81" y2="1008.28" style="stroke:#000000;stroke-width:4.32"/>
	<text x="441.96" y="1034.55" style="font-family:'Helvetica';font-size:74.93px;fill:#000000" text-anchor="end">1,00</text>
	<line x1="486.84" y1="845.44" x2="456.81" y2="845.44" style="stroke:#000000;stroke-width:4.32"/>
	<text x="441.96" y="871.70" style="font-family:'Helvetica';font-size:74.93px;fill:#000000" text-anchor="end">2,00</text>
	<line x1="486.84" y1="682.76" x2="456.81" y2="682.76" style="stroke:#000000;stroke-width:4.32"/>
	<text x="441.96" y="709.03" style="font-family:'Helvetica';font-size:74.93px;fill:#000000" text-anchor="end">3,00</text>
	<line x1="486.84" y1="519.92" x2="456.81" y2="519.92" style="stroke:#000000;stroke-width:4.32"/>
	<text x="441.96" y="546.18" style="font-family:'Helvetica';font-size:74.93px;fill:#000000" text-anchor="end">4,00</text>
	<line x1="486.84" y1="357.24" x2="456.81" y2="357.24" style="stroke:#000000;stroke-width:4.32"/>
	<text x="441.96" y="383.51" style="font-family:'Helvetica';font-size:74.93px;fill:#000000" text-anchor="end">5,00</text>
	<line x1="486.84" y1="194.40" x2="456.81" y2="194.40" style="stroke:#000000;stroke-width:4.32"/>
	<text x="441.96" y="220.67" style="font-family:'Helvetica';font-size:74.93px;fill:#000000" text-anchor="end">6,00</text>
	<text x="214.36" y="682.76" style="font-family:'Helvetica';font-size:74.93px;fill:#000000" transform="rotate(-90 214.36,682.76)" text-anchor="middle">CVF(L)</text>
	<line x1="486.84" y1="1218.54" x2="1748.08" y2="1218.54" style="stroke:#000000;stroke-width:4.32"/>
	<line x1="534.43" y1="1218.54" x2="534.43" y2="1248.58" style="stroke:#000000;stroke-width:4.32"/>
	<text x="534.43" y="1315.79" style="font-family:'Helvetica';font-size:74.93px;fill:#000000" text-anchor="middle">0</text>
	<line x1="826.03" y1="1218.54" x2="826.03" y2="1248.58" style="stroke:#000000;stroke-width:4.32"/>
	<text x="826.03" y="1315.79" style="font-family:'Helvetica';font-size:74.93px;fill:#000000" text-anchor="middle">20</text>
	<line x1="1117.46" y1="1218.54" x2="1117.46" y2="1248.58" style="stroke:#000000;stroke-width:4.32"/>
	<text x="1117.46" y="1315.79" style="font-family:'Helvetica';font-size:74.93px;fill:#000000" text-anchor="middle">40</text>
	<line x1="1409.06" y1="1218.54" x2="1409.06" y2="1248.58" style="stroke:#000000;stroke-width:4.32"/>
	<text x="1409.06" y="1315.79" style="font-family:'Helvetica';font-size:74.93px;fill:#000000" text-anchor="middle">60</text>
	<line x1="1700.66" y1="1218.54" x2="1700.66" y2="1248.58" style="stroke:#000000;stroke-width:4.32"/>
	<text x="1700.66" y="1315.79" style="font-family:'Helvetica';font-size:74.93px;fill:#000000" text-anchor="middle">80</text>
	<text x="1117.46" y="1420.93" style="font-family:'Helvetica';font-size:74.93px;fill:#000000" text-anchor="middle">ICARS</text>
	<text x="499.84" y="1513.35" style="font-family:'Helvetica';font-size:59.91px;fill:#000000">Spearman's rho = -0,46; p=0,28</text>
	<rect x="1823.68" y="71.21" width="1752.64" height="1548.79" style="fill:#FFFFFF"/>
	<rect x="1825.84" y="73.37" width="1748.32" height="1544.47" style="fill:none;stroke:#FFFFFF;stroke-width:4.32"/>
	<rect x="2129.96" y="146.81" width="1370.76" height="1071.73" style="fill:#FFFFFF"/>
	<rect x="2132.12" y="148.97" width="1366.44" height="1067.41" style="fill:none;stroke:#FFFFFF;stroke-width:4.32"/>
	<circle cx="2910.94" cy="726.81" r="14.55" style="fill:#1A85FF"/>
	<circle cx="2910.94" cy="726.81" r="11.31" style="fill:none;stroke:#1A85FF;stroke-width:6.48"/>
	<circle cx="2815.26" cy="837.34" r="14.55" style="fill:#1A85FF"/>
	<circle cx="2815.26" cy="837.34" r="11.31" style="fill:none;stroke:#1A85FF;stroke-width:6.48"/>
	<circle cx="3452.96" cy="747.90" r="14.55" style="fill:#1A85FF"/>
	<circle cx="3452.96" cy="747.90" r="11.31" style="fill:none;stroke:#1A85FF;stroke-width:6.48"/>
	<circle cx="3102.30" cy="1008.28" r="14.55" style="fill:#1A85FF"/>
	<circle cx="3102.30" cy="1008.28" r="11.31" style="fill:none;stroke:#1A85FF;stroke-width:6.48"/>
	<circle cx="2910.94" cy="866.70" r="14.55" style="fill:#1A85FF"/>
	<circle cx="2910.94" cy="866.70" r="11.31" style="fill:none;stroke:#1A85FF;stroke-width:6.48"/>
	<circle cx="2990.59" cy="751.11" r="14.55" style="fill:#1A85FF"/>
	<circle cx="2990.59" cy="751.11" r="11.31" style="fill:none;stroke:#1A85FF;stroke-width:6.48"/>
	<circle cx="3229.88" cy="744.69" r="14.55" style="fill:#1A85FF"/>
	<circle cx="3229.88" cy="744.69" r="11.31" style="fill:none;stroke:#1A85FF;stroke-width:6.48"/>
	<circle cx="2831.12" cy="632.31" r="14.55" style="fill:#1A85FF"/>
	<circle cx="2831.12" cy="632.31" r="11.31" style="fill:none;stroke:#1A85FF;stroke-width:6.48"/>
	<circle cx="2894.91" cy="733.22" r="14.55" style="fill:#1A85FF"/>
	<circle cx="2894.91" cy="733.22" r="11.31" style="fill:none;stroke:#1A85FF;stroke-width:6.48"/>
	<circle cx="2177.38" cy="747.90" r="14.55" style="fill:#1A85FF"/>
	<circle cx="2177.38" cy="747.90" r="11.31" style="fill:none;stroke:#1A85FF;stroke-width:6.48"/>
	<circle cx="2703.54" cy="708.75" r="14.55" style="fill:#1A85FF"/>
	<circle cx="2703.54" cy="708.75" r="11.31" style="fill:none;stroke:#1A85FF;stroke-width:6.48"/>
	<circle cx="3038.51" cy="843.92" r="14.55" style="fill:#1A85FF"/>
	<circle cx="3038.51" cy="843.92" r="11.31" style="fill:none;stroke:#1A85FF;stroke-width:6.48"/>
	<circle cx="2592.00" cy="764.10" r="14.55" style="fill:#1A85FF"/>
	<circle cx="2592.00" cy="764.10" r="11.31" style="fill:none;stroke:#1A85FF;stroke-width:6.48"/>
	<line x1="2129.96" y1="1218.54" x2="2129.96" y2="146.81" style="stroke:#000000;stroke-width:4.32"/>
	<line x1="2129.96" y1="1170.96" x2="2099.93" y2="1170.96" style="stroke:#000000;stroke-width:4.32"/>
	<text x="2084.91" y="1197.22" style="font-family:'Helvetica';font-size:74.93px;fill:#000000" text-anchor="end">0</text>
	<line x1="2129.96" y1="1008.28" x2="2099.93" y2="1008.28" style="stroke:#000000;stroke-width:4.32"/>
	<text x="2084.91" y="1034.55" style="font-family:'Helvetica';font-size:74.93px;fill:#000000" text-anchor="end">1</text>
	<line x1="2129.96" y1="845.44" x2="2099.93" y2="845.44" style="stroke:#000000;stroke-width:4.32"/>
	<text x="2084.91" y="871.70" style="font-family:'Helvetica';font-size:74.93px;fill:#000000" text-anchor="end">2</text>
	<line x1="2129.96" y1="682.76" x2="2099.93" y2="682.76" style="stroke:#000000;stroke-width:4.32"/>
	<text x="2084.91" y="709.03" style="font-family:'Helvetica';font-size:74.93px;fill:#000000" text-anchor="end">3</text>
	<line x1="2129.96" y1="519.92" x2="2099.93" y2="519.92" style="stroke:#000000;stroke-width:4.32"/>
	<text x="2084.91" y="546.18" style="font-family:'Helvetica';font-size:74.93px;fill:#000000" text-anchor="end">4</text>
	<line x1="2129.96" y1="357.24" x2="2099.93" y2="357.24" style="stroke:#000000;stroke-width:4.32"/>
	<text x="2084.91" y="383.51" style="font-family:'Helvetica';font-size:74.93px;fill:#000000" text-anchor="end">5</text>
	<line x1="2129.96" y1="194.40" x2="2099.93" y2="194.40" style="stroke:#000000;stroke-width:4.32"/>
	<text x="2084.91" y="220.67" style="font-family:'Helvetica';font-size:74.93px;fill:#000000" text-anchor="end">6</text>
	<text x="1966.83" y="682.76" style="font-family:'Helvetica';font-size:74.93px;fill:#000000" transform="rotate(-90 1966.83,682.76)" text-anchor="middle">VEF1 (L)</text>
	<line x1="2129.96" y1="1218.54" x2="3500.72" y2="1218.54" style="stroke:#000000;stroke-width:4.32"/>
	<line x1="2177.55" y1="1218.54" x2="2177.55" y2="1248.58" style="stroke:#000000;stroke-width:4.32"/>
	<text x="2177.55" y="1315.79" style="font-family:'Helvetica';font-size:74.93px;fill:#000000" text-anchor="middle">0</text>
	<line x1="2496.49" y1="1218.54" x2="2496.49" y2="1248.58" style="stroke:#000000;stroke-width:4.32"/>
	<text x="2496.49" y="1315.79" style="font-family:'Helvetica';font-size:74.93px;fill:#000000" text-anchor="middle">20</text>
	<line x1="2815.26" y1="1218.54" x2="2815.26" y2="1248.58" style="stroke:#000000;stroke-width:4.32"/>
	<text x="2815.26" y="1315.79" style="font-family:'Helvetica';font-size:74.93px;fill:#000000" text-anchor="middle">40</text>
	<line x1="3134.19" y1="1218.54" x2="3134.19" y2="1248.58" style="stroke:#000000;stroke-width:4.32"/>
	<text x="3134.19" y="1315.79" style="font-family:'Helvetica';font-size:74.93px;fill:#000000" text-anchor="middle">60</text>
	<line x1="3453.13" y1="1218.54" x2="3453.13" y2="1248.58" style="stroke:#000000;stroke-width:4.32"/>
	<text x="3453.13" y="1315.79" style="font-family:'Helvetica';font-size:74.93px;fill:#000000" text-anchor="middle">80</text>
	<text x="2815.26" y="1420.93" style="font-family:'Helvetica';font-size:74.93px;fill:#000000" text-anchor="middle">ICARS</text>
	<text x="2142.96" y="1513.35" style="font-family:'Helvetica';font-size:59.91px;fill:#000000">Spearman's rho = 0,01; p=0,99</text>
	<rect x="3576.32" y="71.21" width="1752.47" height="1548.79" style="fill:#FFFFFF"/>
	<rect x="3578.48" y="73.37" width="1748.15" height="1544.47" style="fill:none;stroke:#FFFFFF;stroke-width:4.32"/>
	<rect x="3970.01" y="146.81" width="1283.18" height="1071.73" style="fill:#FFFFFF"/>
	<rect x="3972.17" y="148.97" width="1278.86" height="1067.41" style="fill:none;stroke:#FFFFFF;stroke-width:4.32"/>
	<circle cx="4700.53" cy="347.79" r="14.55" style="fill:#1A85FF"/>
	<circle cx="4700.53" cy="347.79" r="11.31" style="fill:none;stroke:#1A85FF;stroke-width:6.48"/>
	<circle cx="4611.43" cy="437.74" r="14.55" style="fill:#1A85FF"/>
	<circle cx="4611.43" cy="437.74" r="11.31" style="fill:none;stroke:#1A85FF;stroke-width:6.48"/>
	<circle cx="5205.60" cy="1085.06" r="14.55" style="fill:#1A85FF"/>
	<circle cx="5205.60" cy="1085.06" r="11.31" style="fill:none;stroke:#1A85FF;stroke-width:6.48"/>
	<circle cx="4878.73" cy="594.84" r="14.55" style="fill:#1A85FF"/>
	<circle cx="4878.73" cy="594.84" r="11.31" style="fill:none;stroke:#1A85FF;stroke-width:6.48"/>
	<circle cx="4700.53" cy="223.76" r="14.55" style="fill:#1A85FF"/>
	<circle cx="4700.53" cy="223.76" r="11.31" style="fill:none;stroke:#1A85FF;stroke-width:6.48"/>
	<circle cx="4774.78" cy="312.69" r="14.55" style="fill:#1A85FF"/>
	<circle cx="4774.78" cy="312.69" r="11.31" style="fill:none;stroke:#1A85FF;stroke-width:6.48"/>
	<circle cx="4997.53" cy="258.86" r="14.55" style="fill:#1A85FF"/>
	<circle cx="4997.53" cy="258.86" r="11.31" style="fill:none;stroke:#1A85FF;stroke-width:6.48"/>
	<circle cx="4626.28" cy="315.56" r="14.55" style="fill:#1A85FF"/>
	<circle cx="4626.28" cy="315.56" r="11.31" style="fill:none;stroke:#1A85FF;stroke-width:6.48"/>
	<circle cx="4685.68" cy="370.24" r="14.55" style="fill:#1A85FF"/>
	<circle cx="4685.68" cy="370.24" r="11.31" style="fill:none;stroke:#1A85FF;stroke-width:6.48"/>
	<circle cx="4017.43" cy="553.84" r="14.55" style="fill:#1A85FF"/>
	<circle cx="4017.43" cy="553.84" r="11.31" style="fill:none;stroke:#1A85FF;stroke-width:6.48"/>
	<circle cx="4507.48" cy="303.92" r="14.55" style="fill:#1A85FF"/>
	<circle cx="4507.48" cy="303.92" r="11.31" style="fill:none;stroke:#1A85FF;stroke-width:6.48"/>
	<circle cx="4819.33" cy="312.69" r="14.55" style="fill:#1A85FF"/>
	<circle cx="4819.33" cy="312.69" r="11.31" style="fill:none;stroke:#1A85FF;stroke-width:6.48"/>
	<circle cx="4403.53" cy="374.12" r="14.55" style="fill:#1A85FF"/>
	<circle cx="4403.53" cy="374.12" r="11.31" style="fill:none;stroke:#1A85FF;stroke-width:6.48"/>
	<line x1="3970.01" y1="1218.54" x2="3970.01" y2="146.81" style="stroke:#000000;stroke-width:4.32"/>
	<line x1="3970.01" y1="1170.96" x2="3939.98" y2="1170.96" style="stroke:#000000;stroke-width:4.32"/>
	<text x="3924.96" y="1197.22" style="font-family:'Helvetica';font-size:74.93px;fill:#000000" text-anchor="end">0</text>
	<line x1="3970.01" y1="1073.25" x2="3939.98" y2="1073.25" style="stroke:#000000;stroke-width:4.32"/>
	<text x="3924.96" y="1099.52" style="font-family:'Helvetica';font-size:74.93px;fill:#000000" text-anchor="end">10</text>
	<line x1="3970.01" y1="975.71" x2="3939.98" y2="975.71" style="stroke:#000000;stroke-width:4.32"/>
	<text x="3924.96" y="1001.98" style="font-family:'Helvetica';font-size:74.93px;fill:#000000" text-anchor="end">20</text>
	<line x1="3970.01" y1="878.01" x2="3939.98" y2="878.01" style="stroke:#000000;stroke-width:4.32"/>
	<text x="3924.96" y="904.27" style="font-family:'Helvetica';font-size:74.93px;fill:#000000" text-anchor="end">30</text>
	<line x1="3970.01" y1="780.30" x2="3939.98" y2="780.30" style="stroke:#000000;stroke-width:4.32"/>
	<text x="3924.96" y="806.57" style="font-family:'Helvetica';font-size:74.93px;fill:#000000" text-anchor="end">40</text>
	<line x1="3970.01" y1="682.76" x2="3939.98" y2="682.76" style="stroke:#000000;stroke-width:4.32"/>
	<text x="3924.96" y="709.03" style="font-family:'Helvetica';font-size:74.93px;fill:#000000" text-anchor="end">50</text>
	<line x1="3970.01" y1="585.06" x2="3939.98" y2="585.06" style="stroke:#000000;stroke-width:4.32"/>
	<text x="3924.96" y="611.32" style="font-family:'Helvetica';font-size:74.93px;fill:#000000" text-anchor="end">60</text>
	<line x1="3970.01" y1="487.35" x2="3939.98" y2="487.35" style="stroke:#000000;stroke-width:4.32"/>
	<text x="3924.96" y="513.62" style="font-family:'Helvetica';font-size:74.93px;fill:#000000" text-anchor="end">70</text>
	<line x1="3970.01" y1="389.64" x2="3939.98" y2="389.64" style="stroke:#000000;stroke-width:4.32"/>
	<text x="3924.96" y="415.91" style="font-family:'Helvetica';font-size:74.93px;fill:#000000" text-anchor="end">80</text>
	<line x1="3970.01" y1="292.11" x2="3939.98" y2="292.11" style="stroke:#000000;stroke-width:4.32"/>
	<text x="3924.96" y="318.37" style="font-family:'Helvetica';font-size:74.93px;fill:#000000" text-anchor="end">90</text>
	<line x1="3970.01" y1="194.40" x2="3939.98" y2="194.40" style="stroke:#000000;stroke-width:4.32"/>
	<text x="3924.96" y="220.67" style="font-family:'Helvetica';font-size:74.93px;fill:#000000" text-anchor="end">100</text>
	<text x="3719.30" y="682.76" style="font-family:'Helvetica';font-size:74.93px;fill:#000000" transform="rotate(-90 3719.30,682.76)" text-anchor="middle">VEF1/CVF (L)</text>
	<line x1="3970.01" y1="1218.54" x2="5253.19" y2="1218.54" style="stroke:#000000;stroke-width:4.32"/>
	<line x1="4017.43" y1="1218.54" x2="4017.43" y2="1248.58" style="stroke:#000000;stroke-width:4.32"/>
	<text x="4017.43" y="1315.79" style="font-family:'Helvetica';font-size:74.93px;fill:#000000" text-anchor="middle">0</text>
	<line x1="4314.43" y1="1218.54" x2="4314.43" y2="1248.58" style="stroke:#000000;stroke-width:4.32"/>
	<text x="4314.43" y="1315.79" style="font-family:'Helvetica';font-size:74.93px;fill:#000000" text-anchor="middle">20</text>
	<line x1="4611.60" y1="1218.54" x2="4611.60" y2="1248.58" style="stroke:#000000;stroke-width:4.32"/>
	<text x="4611.60" y="1315.79" style="font-family:'Helvetica';font-size:74.93px;fill:#000000" text-anchor="middle">40</text>
	<line x1="4908.60" y1="1218.54" x2="4908.60" y2="1248.58" style="stroke:#000000;stroke-width:4.32"/>
	<text x="4908.60" y="1315.79" style="font-family:'Helvetica';font-size:74.93px;fill:#000000" text-anchor="middle">60</text>
	<line x1="5205.60" y1="1218.54" x2="5205.60" y2="1248.58" style="stroke:#000000;stroke-width:4.32"/>
	<text x="5205.60" y="1315.79" style="font-family:'Helvetica';font-size:74.93px;fill:#000000" text-anchor="middle">80</text>
	<text x="4611.60" y="1420.93" style="font-family:'Helvetica';font-size:74.93px;fill:#000000" text-anchor="middle">ICARS</text>
	<text x="3982.84" y="1513.35" style="font-family:'Helvetica';font-size:59.91px;fill:#000000">Spearman's rho = 0,19; p=0,69</text>
	<rect x="71.21" y="1620.00" width="1752.47" height="1548.79" style="fill:#FFFFFF"/>
	<rect x="73.37" y="1622.16" width="1748.15" height="1544.47" style="fill:none;stroke:#FFFFFF;stroke-width:4.32"/>
	<rect x="421.20" y="1695.60" width="1326.88" height="1071.56" style="fill:#FFFFFF"/>
	<rect x="423.36" y="1697.76" width="1322.56" height="1067.24" style="fill:none;stroke:#FFFFFF;stroke-width:4.32"/>
	<circle cx="1177.03" cy="2269.52" r="14.55" style="fill:#1A85FF"/>
	<circle cx="1177.03" cy="2269.52" r="11.31" style="fill:none;stroke:#1A85FF;stroke-width:6.48"/>
	<circle cx="1084.56" cy="2187.51" r="14.55" style="fill:#1A85FF"/>
	<circle cx="1084.56" cy="2187.51" r="11.31" style="fill:none;stroke:#1A85FF;stroke-width:6.48"/>
	<circle cx="1700.49" cy="2329.09" r="14.55" style="fill:#1A85FF"/>
	<circle cx="1700.49" cy="2329.09" r="11.31" style="fill:none;stroke:#1A85FF;stroke-width:6.48"/>
	<circle cx="1361.81" cy="2291.12" r="14.55" style="fill:#1A85FF"/>
	<circle cx="1361.81" cy="2291.12" r="11.31" style="fill:none;stroke:#1A85FF;stroke-width:6.48"/>
	<circle cx="1177.03" cy="2434.56" r="14.55" style="fill:#1A85FF"/>
	<circle cx="1177.03" cy="2434.56" r="11.31" style="fill:none;stroke:#1A85FF;stroke-width:6.48"/>
	<circle cx="1253.98" cy="2092.84" r="14.55" style="fill:#1A85FF"/>
	<circle cx="1253.98" cy="2092.84" r="11.31" style="fill:none;stroke:#1A85FF;stroke-width:6.48"/>
	<circle cx="1485.00" cy="2221.76" r="14.55" style="fill:#1A85FF"/>
	<circle cx="1485.00" cy="2221.76" r="11.31" style="fill:none;stroke:#1A85FF;stroke-width:6.48"/>
	<circle cx="1100.08" cy="2103.64" r="14.55" style="fill:#1A85FF"/>
	<circle cx="1100.08" cy="2103.64" r="11.31" style="fill:none;stroke:#1A85FF;stroke-width:6.48"/>
	<circle cx="1161.68" cy="2135.87" r="14.55" style="fill:#1A85FF"/>
	<circle cx="1161.68" cy="2135.87" r="11.31" style="fill:none;stroke:#1A85FF;stroke-width:6.48"/>
	<circle cx="468.62" cy="1880.89" r="14.55" style="fill:#1A85FF"/>
	<circle cx="468.62" cy="1880.89" r="11.31" style="fill:none;stroke:#1A85FF;stroke-width:6.48"/>
	<circle cx="976.89" cy="2133.84" r="14.55" style="fill:#1A85FF"/>
	<circle cx="976.89" cy="2133.84" r="11.31" style="fill:none;stroke:#1A85FF;stroke-width:6.48"/>
	<circle cx="1300.22" cy="2242.18" r="14.55" style="fill:#1A85FF"/>
	<circle cx="1300.22" cy="2242.18" r="11.31" style="fill:none;stroke:#1A85FF;stroke-width:6.48"/>
	<circle cx="869.06" cy="2256.86" r="14.55" style="fill:#1A85FF"/>
	<circle cx="869.06" cy="2256.86" r="11.31" style="fill:none;stroke:#1A85FF;stroke-width:6.48"/>
	<line x1="421.20" y1="2767.16" x2="421.20" y2="1695.60" style="stroke:#000000;stroke-width:4.32"/>
	<line x1="421.20" y1="2719.74" x2="391.33" y2="2719.74" style="stroke:#000000;stroke-width:4.32"/>
	<text x="376.31" y="2746.01" style="font-family:'Helvetica';font-size:74.93px;fill:#000000" text-anchor="end">0</text>
	<line x1="421.20" y1="2622.04" x2="391.33" y2="2622.04" style="stroke:#000000;stroke-width:4.32"/>
	<text x="376.31" y="2648.30" style="font-family:'Helvetica';font-size:74.93px;fill:#000000" text-anchor="end">1</text>
	<line x1="421.20" y1="2524.33" x2="391.33" y2="2524.33" style="stroke:#000000;stroke-width:4.32"/>
	<text x="376.31" y="2550.60" style="font-family:'Helvetica';font-size:74.93px;fill:#000000" text-anchor="end">2</text>
	<line x1="421.20" y1="2426.79" x2="391.33" y2="2426.79" style="stroke:#000000;stroke-width:4.32"/>
	<text x="376.31" y="2453.06" style="font-family:'Helvetica';font-size:74.93px;fill:#000000" text-anchor="end">3</text>
	<line x1="421.20" y1="2329.09" x2="391.33" y2="2329.09" style="stroke:#000000;stroke-width:4.32"/>
	<text x="376.31" y="2355.35" style="font-family:'Helvetica';font-size:74.93px;fill:#000000" text-anchor="end">4</text>
	<line x1="421.20" y1="2231.38" x2="391.33" y2="2231.38" style="stroke:#000000;stroke-width:4.32"/>
	<text x="376.31" y="2257.65" style="font-family:'Helvetica';font-size:74.93px;fill:#000000" text-anchor="end">5</text>
	<line x1="421.20" y1="2133.68" x2="391.33" y2="2133.68" style="stroke:#000000;stroke-width:4.32"/>
	<text x="376.31" y="2159.94" style="font-family:'Helvetica';font-size:74.93px;fill:#000000" text-anchor="end">6</text>
	<line x1="421.20" y1="2036.14" x2="391.33" y2="2036.14" style="stroke:#000000;stroke-width:4.32"/>
	<text x="376.31" y="2062.40" style="font-family:'Helvetica';font-size:74.93px;fill:#000000" text-anchor="end">7</text>
	<line x1="421.20" y1="1938.43" x2="391.33" y2="1938.43" style="stroke:#000000;stroke-width:4.32"/>
	<text x="376.31" y="1964.70" style="font-family:'Helvetica';font-size:74.93px;fill:#000000" text-anchor="end">8</text>
	<line x1="421.20" y1="1840.73" x2="391.33" y2="1840.73" style="stroke:#000000;stroke-width:4.32"/>
	<text x="376.31" y="1866.99" style="font-family:'Helvetica';font-size:74.93px;fill:#000000" text-anchor="end">9</text>
	<line x1="421.20" y1="1743.19" x2="391.33" y2="1743.19" style="stroke:#000000;stroke-width:4.32"/>
	<text x="376.31" y="1769.45" style="font-family:'Helvetica';font-size:74.93px;fill:#000000" text-anchor="end">10</text>
	<text x="214.36" y="2231.38" style="font-family:'Helvetica';font-size:74.93px;fill:#000000" transform="rotate(-90 214.36,2231.38)" text-anchor="middle">PFE (L)</text>
	<line x1="421.20" y1="2767.16" x2="1748.08" y2="2767.16" style="stroke:#000000;stroke-width:4.32"/>
	<line x1="468.79" y1="2767.16" x2="468.79" y2="2797.20" style="stroke:#000000;stroke-width:4.32"/>
	<text x="468.79" y="2864.58" style="font-family:'Helvetica';font-size:74.93px;fill:#000000" text-anchor="middle">0</text>
	<line x1="776.76" y1="2767.16" x2="776.76" y2="2797.20" style="stroke:#000000;stroke-width:4.32"/>
	<text x="776.76" y="2864.58" style="font-family:'Helvetica';font-size:74.93px;fill:#000000" text-anchor="middle">20</text>
	<line x1="1084.72" y1="2767.16" x2="1084.72" y2="2797.20" style="stroke:#000000;stroke-width:4.32"/>
	<text x="1084.72" y="2864.58" style="font-family:'Helvetica';font-size:74.93px;fill:#000000" text-anchor="middle">40</text>
	<line x1="1392.69" y1="2767.16" x2="1392.69" y2="2797.20" style="stroke:#000000;stroke-width:4.32"/>
	<text x="1392.69" y="2864.58" style="font-family:'Helvetica';font-size:74.93px;fill:#000000" text-anchor="middle">60</text>
	<line x1="1700.66" y1="2767.16" x2="1700.66" y2="2797.20" style="stroke:#000000;stroke-width:4.32"/>
	<text x="1700.66" y="2864.58" style="font-family:'Helvetica';font-size:74.93px;fill:#000000" text-anchor="middle">80</text>
	<text x="1084.72" y="2969.71" style="font-family:'Helvetica';font-size:74.93px;fill:#000000" text-anchor="middle">ICARS</text>
	<text x="434.19" y="3062.14" style="font-family:'Helvetica';font-size:59.91px;fill:#000000">Spearman's rho = -0,53; p=0,21</text>
	<rect x="1823.68" y="1620.00" width="1752.64" height="1548.79" style="fill:#FFFFFF"/>
	<rect x="1825.84" y="1622.16" width="1748.32" height="1544.47" style="fill:none;stroke:#FFFFFF;stroke-width:4.32"/>
	<rect x="2217.54" y="1695.60" width="1283.18" height="1071.56" style="fill:#FFFFFF"/>
	<rect x="2219.70" y="1697.76" width="1278.86" height="1067.24" style="fill:none;stroke:#FFFFFF;stroke-width:4.32"/>
	<circle cx="2948.06" cy="2118.49" r="14.55" style="fill:#1A85FF"/>
	<circle cx="2948.06" cy="2118.49" r="11.31" style="fill:none;stroke:#1A85FF;stroke-width:6.48"/>
	<circle cx="2858.96" cy="2159.83" r="14.55" style="fill:#1A85FF"/>
	<circle cx="2858.96" cy="2159.83" r="11.31" style="fill:none;stroke:#1A85FF;stroke-width:6.48"/>
	<circle cx="3452.96" cy="2159.83" r="14.55" style="fill:#1A85FF"/>
	<circle cx="3452.96" cy="2159.83" r="11.31" style="fill:none;stroke:#1A85FF;stroke-width:6.48"/>
	<circle cx="3126.26" cy="2217.38" r="14.55" style="fill:#1A85FF"/>
	<circle cx="3126.26" cy="2217.38" r="11.31" style="fill:none;stroke:#1A85FF;stroke-width:6.48"/>
	<circle cx="2948.06" cy="2057.74" r="14.55" style="fill:#1A85FF"/>
	<circle cx="2948.06" cy="2057.74" r="11.31" style="fill:none;stroke:#1A85FF;stroke-width:6.48"/>
	<circle cx="3022.31" cy="2166.24" r="14.55" style="fill:#1A85FF"/>
	<circle cx="3022.31" cy="2166.24" r="11.31" style="fill:none;stroke:#1A85FF;stroke-width:6.48"/>
	<circle cx="3245.06" cy="2089.63" r="14.55" style="fill:#1A85FF"/>
	<circle cx="3245.06" cy="2089.63" r="11.31" style="fill:none;stroke:#1A85FF;stroke-width:6.48"/>
	<circle cx="2873.81" cy="2127.94" r="14.55" style="fill:#1A85FF"/>
	<circle cx="2873.81" cy="2127.94" r="11.31" style="fill:none;stroke:#1A85FF;stroke-width:6.48"/>
	<circle cx="2933.21" cy="1892.53" r="14.55" style="fill:#1A85FF"/>
	<circle cx="2933.21" cy="1892.53" r="11.31" style="fill:none;stroke:#1A85FF;stroke-width:6.48"/>
	<circle cx="2264.96" cy="1900.97" r="14.55" style="fill:#1A85FF"/>
	<circle cx="2264.96" cy="1900.97" r="11.31" style="fill:none;stroke:#1A85FF;stroke-width:6.48"/>
	<circle cx="2755.01" cy="2067.36" r="14.55" style="fill:#1A85FF"/>
	<circle cx="2755.01" cy="2067.36" r="11.31" style="fill:none;stroke:#1A85FF;stroke-width:6.48"/>
	<circle cx="3066.86" cy="2163.04" r="14.55" style="fill:#1A85FF"/>
	<circle cx="3066.86" cy="2163.04" r="11.31" style="fill:none;stroke:#1A85FF;stroke-width:6.48"/>
	<circle cx="2651.06" cy="1986.36" r="14.55" style="fill:#1A85FF"/>
	<circle cx="2651.06" cy="1986.36" r="11.31" style="fill:none;stroke:#1A85FF;stroke-width:6.48"/>
	<line x1="2217.54" y1="2767.16" x2="2217.54" y2="1695.60" style="stroke:#000000;stroke-width:4.32"/>
	<line x1="2217.54" y1="2719.74" x2="2187.51" y2="2719.74" style="stroke:#000000;stroke-width:4.32"/>
	<text x="2172.49" y="2746.01" style="font-family:'Helvetica';font-size:74.93px;fill:#000000" text-anchor="end">0</text>
	<line x1="2217.54" y1="2556.90" x2="2187.51" y2="2556.90" style="stroke:#000000;stroke-width:4.32"/>
	<text x="2172.49" y="2583.17" style="font-family:'Helvetica';font-size:74.93px;fill:#000000" text-anchor="end">25</text>
	<line x1="2217.54" y1="2394.23" x2="2187.51" y2="2394.23" style="stroke:#000000;stroke-width:4.32"/>
	<text x="2172.49" y="2420.49" style="font-family:'Helvetica';font-size:74.93px;fill:#000000" text-anchor="end">50</text>
	<line x1="2217.54" y1="2231.38" x2="2187.51" y2="2231.38" style="stroke:#000000;stroke-width:4.32"/>
	<text x="2172.49" y="2257.65" style="font-family:'Helvetica';font-size:74.93px;fill:#000000" text-anchor="end">75</text>
	<line x1="2217.54" y1="2068.71" x2="2187.51" y2="2068.71" style="stroke:#000000;stroke-width:4.32"/>
	<text x="2172.49" y="2094.97" style="font-family:'Helvetica';font-size:74.93px;fill:#000000" text-anchor="end">100</text>
	<line x1="2217.54" y1="1905.86" x2="2187.51" y2="1905.86" style="stroke:#000000;stroke-width:4.32"/>
	<text x="2172.49" y="1932.13" style="font-family:'Helvetica';font-size:74.93px;fill:#000000" text-anchor="end">125</text>
	<line x1="2217.54" y1="1743.19" x2="2187.51" y2="1743.19" style="stroke:#000000;stroke-width:4.32"/>
	<text x="2172.49" y="1769.45" style="font-family:'Helvetica';font-size:74.93px;fill:#000000" text-anchor="end">150</text>
	<text x="1966.83" y="2231.38" style="font-family:'Helvetica';font-size:74.93px;fill:#000000" transform="rotate(-90 1966.83,2231.38)" text-anchor="middle">Pi máx.</text>
	<line x1="2217.54" y1="2767.16" x2="3500.72" y2="2767.16" style="stroke:#000000;stroke-width:4.32"/>
	<line x1="2264.96" y1="2767.16" x2="2264.96" y2="2797.20" style="stroke:#000000;stroke-width:4.32"/>
	<text x="2264.96" y="2864.58" style="font-family:'Helvetica';font-size:74.93px;fill:#000000" text-anchor="middle">0</text>
	<line x1="2561.96" y1="2767.16" x2="2561.96" y2="2797.20" style="stroke:#000000;stroke-width:4.32"/>
	<text x="2561.96" y="2864.58" style="font-family:'Helvetica';font-size:74.93px;fill:#000000" text-anchor="middle">20</text>
	<line x1="2859.13" y1="2767.16" x2="2859.13" y2="2797.20" style="stroke:#000000;stroke-width:4.32"/>
	<text x="2859.13" y="2864.58" style="font-family:'Helvetica';font-size:74.93px;fill:#000000" text-anchor="middle">40</text>
	<line x1="3156.13" y1="2767.16" x2="3156.13" y2="2797.20" style="stroke:#000000;stroke-width:4.32"/>
	<text x="3156.13" y="2864.58" style="font-family:'Helvetica';font-size:74.93px;fill:#000000" text-anchor="middle">60</text>
	<line x1="3453.13" y1="2767.16" x2="3453.13" y2="2797.20" style="stroke:#000000;stroke-width:4.32"/>
	<text x="3453.13" y="2864.58" style="font-family:'Helvetica';font-size:74.93px;fill:#000000" text-anchor="middle">80</text>
	<text x="2859.13" y="2969.71" style="font-family:'Helvetica';font-size:74.93px;fill:#000000" text-anchor="middle">ICARS</text>
	<text x="2230.37" y="3062.14" style="font-family:'Helvetica';font-size:59.91px;fill:#000000">Spearman's rho = -0,35; p=0,42</text>
	<rect x="3576.32" y="1620.00" width="1752.47" height="1548.79" style="fill:#FFFFFF"/>
	<rect x="3578.48" y="1622.16" width="1748.15" height="1544.47" style="fill:none;stroke:#FFFFFF;stroke-width:4.32"/>
	<rect x="3970.01" y="1695.60" width="1283.18" height="1071.56" style="fill:#FFFFFF"/>
	<rect x="3972.17" y="1697.76" width="1278.86" height="1067.24" style="fill:none;stroke:#FFFFFF;stroke-width:4.32"/>
	<circle cx="4700.53" cy="2400.81" r="14.55" style="fill:#1A85FF"/>
	<circle cx="4700.53" cy="2400.81" r="11.31" style="fill:none;stroke:#1A85FF;stroke-width:6.48"/>
	<circle cx="4611.43" cy="2198.98" r="14.55" style="fill:#1A85FF"/>
	<circle cx="4611.43" cy="2198.98" r="11.31" style="fill:none;stroke:#1A85FF;stroke-width:6.48"/>
	<circle cx="5205.60" cy="2361.66" r="14.55" style="fill:#1A85FF"/>
	<circle cx="5205.60" cy="2361.66" r="11.31" style="fill:none;stroke:#1A85FF;stroke-width:6.48"/>
	<circle cx="4878.73" cy="2433.38" r="14.55" style="fill:#1A85FF"/>
	<circle cx="4878.73" cy="2433.38" r="11.31" style="fill:none;stroke:#1A85FF;stroke-width:6.48"/>
	<circle cx="4700.53" cy="2524.50" r="14.55" style="fill:#1A85FF"/>
	<circle cx="4700.53" cy="2524.50" r="11.31" style="fill:none;stroke:#1A85FF;stroke-width:6.48"/>
	<circle cx="4774.78" cy="2042.72" r="14.55" style="fill:#1A85FF"/>
	<circle cx="4774.78" cy="2042.72" r="11.31" style="fill:none;stroke:#1A85FF;stroke-width:6.48"/>
	<circle cx="4997.53" cy="2342.25" r="14.55" style="fill:#1A85FF"/>
	<circle cx="4997.53" cy="2342.25" r="11.31" style="fill:none;stroke:#1A85FF;stroke-width:6.48"/>
	<circle cx="4626.28" cy="2504.93" r="14.55" style="fill:#1A85FF"/>
	<circle cx="4626.28" cy="2504.93" r="11.31" style="fill:none;stroke:#1A85FF;stroke-width:6.48"/>
	<circle cx="4685.68" cy="2237.96" r="14.55" style="fill:#1A85FF"/>
	<circle cx="4685.68" cy="2237.96" r="11.31" style="fill:none;stroke:#1A85FF;stroke-width:6.48"/>
	<circle cx="4017.43" cy="1834.31" r="14.55" style="fill:#1A85FF"/>
	<circle cx="4017.43" cy="1834.31" r="11.31" style="fill:none;stroke:#1A85FF;stroke-width:6.48"/>
	<circle cx="4507.48" cy="2511.51" r="14.55" style="fill:#1A85FF"/>
	<circle cx="4507.48" cy="2511.51" r="11.31" style="fill:none;stroke:#1A85FF;stroke-width:6.48"/>
	<circle cx="4819.33" cy="2348.66" r="14.55" style="fill:#1A85FF"/>
	<circle cx="4819.33" cy="2348.66" r="11.31" style="fill:none;stroke:#1A85FF;stroke-width:6.48"/>
	<circle cx="4403.53" cy="1873.46" r="14.55" style="fill:#1A85FF"/>
	<circle cx="4403.53" cy="1873.46" r="11.31" style="fill:none;stroke:#1A85FF;stroke-width:6.48"/>
	<line x1="3970.01" y1="2767.16" x2="3970.01" y2="1695.60" style="stroke:#000000;stroke-width:4.32"/>
	<line x1="3970.01" y1="2719.74" x2="3939.98" y2="2719.74" style="stroke:#000000;stroke-width:4.32"/>
	<text x="3924.96" y="2746.01" style="font-family:'Helvetica';font-size:74.93px;fill:#000000" text-anchor="end">0</text>
	<line x1="3970.01" y1="2556.90" x2="3939.98" y2="2556.90" style="stroke:#000000;stroke-width:4.32"/>
	<text x="3924.96" y="2583.17" style="font-family:'Helvetica';font-size:74.93px;fill:#000000" text-anchor="end">25</text>
	<line x1="3970.01" y1="2394.23" x2="3939.98" y2="2394.23" style="stroke:#000000;stroke-width:4.32"/>
	<text x="3924.96" y="2420.49" style="font-family:'Helvetica';font-size:74.93px;fill:#000000" text-anchor="end">50</text>
	<line x1="3970.01" y1="2231.38" x2="3939.98" y2="2231.38" style="stroke:#000000;stroke-width:4.32"/>
	<text x="3924.96" y="2257.65" style="font-family:'Helvetica';font-size:74.93px;fill:#000000" text-anchor="end">75</text>
	<line x1="3970.01" y1="2068.71" x2="3939.98" y2="2068.71" style="stroke:#000000;stroke-width:4.32"/>
	<text x="3924.96" y="2094.97" style="font-family:'Helvetica';font-size:74.93px;fill:#000000" text-anchor="end">100</text>
	<line x1="3970.01" y1="1905.86" x2="3939.98" y2="1905.86" style="stroke:#000000;stroke-width:4.32"/>
	<text x="3924.96" y="1932.13" style="font-family:'Helvetica';font-size:74.93px;fill:#000000" text-anchor="end">125</text>
	<line x1="3970.01" y1="1743.19" x2="3939.98" y2="1743.19" style="stroke:#000000;stroke-width:4.32"/>
	<text x="3924.96" y="1769.45" style="font-family:'Helvetica';font-size:74.93px;fill:#000000" text-anchor="end">150</text>
	<text x="3719.30" y="2231.38" style="font-family:'Helvetica';font-size:74.93px;fill:#000000" transform="rotate(-90 3719.30,2231.38)" text-anchor="middle">SNIP</text>
	<line x1="3970.01" y1="2767.16" x2="5253.19" y2="2767.16" style="stroke:#000000;stroke-width:4.32"/>
	<line x1="4017.43" y1="2767.16" x2="4017.43" y2="2797.20" style="stroke:#000000;stroke-width:4.32"/>
	<text x="4017.43" y="2864.58" style="font-family:'Helvetica';font-size:74.93px;fill:#000000" text-anchor="middle">0</text>
	<line x1="4314.43" y1="2767.16" x2="4314.43" y2="2797.20" style="stroke:#000000;stroke-width:4.32"/>
	<text x="4314.43" y="2864.58" style="font-family:'Helvetica';font-size:74.93px;fill:#000000" text-anchor="middle">20</text>
	<line x1="4611.60" y1="2767.16" x2="4611.60" y2="2797.20" style="stroke:#000000;stroke-width:4.32"/>
	<text x="4611.60" y="2864.58" style="font-family:'Helvetica';font-size:74.93px;fill:#000000" text-anchor="middle">40</text>
	<line x1="4908.60" y1="2767.16" x2="4908.60" y2="2797.20" style="stroke:#000000;stroke-width:4.32"/>
	<text x="4908.60" y="2864.58" style="font-family:'Helvetica';font-size:74.93px;fill:#000000" text-anchor="middle">60</text>
	<line x1="5205.60" y1="2767.16" x2="5205.60" y2="2797.20" style="stroke:#000000;stroke-width:4.32"/>
	<text x="5205.60" y="2864.58" style="font-family:'Helvetica';font-size:74.93px;fill:#000000" text-anchor="middle">80</text>
	<text x="4611.60" y="2969.71" style="font-family:'Helvetica';font-size:74.93px;fill:#000000" text-anchor="middle">ICARS</text>
	<text x="3982.84" y="3062.14" style="font-family:'Helvetica';font-size:59.91px;fill:#000000">Spearman's rho = -0,57; p=0,17</text>
</svg>
