<?xml version="1.0" encoding="UTF-8" standalone="no"?>
<!-- This is a Stata 18.0 generated SVG file (http://www.stata.com) -->

<svg version="1.1" width="7.500in" height="4.500in" viewBox="0 0 5400 3240" xmlns="http://www.w3.org/2000/svg" xmlns:xlink="http://www.w3.org/1999/xlink">
	<desc>Stata Graph - Graph</desc>
	<rect x="0" y="0" width="5400" height="3240" style="fill:#FFFFFF;stroke:none"/>
	<rect x="0.00" y="0.00" width="5400.00" height="3240.00" style="fill:#FFFFFF"/>
	<rect x="3.24" y="3.24" width="5393.52" height="3233.52" style="fill:none;stroke:#FFFFFF;stroke-width:6.48"/>
	<rect x="71.21" y="71.21" width="1752.47" height="1548.79" style="fill:#FFFFFF"/>
	<rect x="73.37" y="73.37" width="1748.15" height="1544.47" style="fill:none;stroke:#FFFFFF;stroke-width:4.32"/>
	<rect x="486.84" y="146.81" width="1261.24" height="1071.73" style="fill:#FFFFFF"/>
	<rect x="489.00" y="148.97" width="1256.92" height="1067.41" style="fill:none;stroke:#FFFFFF;stroke-width:4.32"/>
	<circle cx="1108.52" cy="643.78" r="14.55" style="fill:#1A85FF"/>
	<circle cx="1108.52" cy="643.78" r="11.31" style="fill:none;stroke:#1A85FF;stroke-width:6.48"/>
	<circle cx="964.91" cy="726.81" r="14.55" style="fill:#1A85FF"/>
	<circle cx="964.91" cy="726.81" r="11.31" style="fill:none;stroke:#1A85FF;stroke-width:6.48"/>
	<circle cx="1700.49" cy="650.19" r="14.55" style="fill:#1A85FF"/>
	<circle cx="1700.49" cy="650.19" r="11.31" style="fill:none;stroke:#1A85FF;stroke-width:6.48"/>
	<circle cx="1359.62" cy="894.38" r="14.55" style="fill:#1A85FF"/>
	<circle cx="1359.62" cy="894.38" r="11.31" style="fill:none;stroke:#1A85FF;stroke-width:6.48"/>
	<circle cx="1234.07" cy="856.91" r="14.55" style="fill:#1A85FF"/>
	<circle cx="1234.07" cy="856.91" r="11.31" style="fill:none;stroke:#1A85FF;stroke-width:6.48"/>
	<circle cx="1018.74" cy="692.55" r="14.55" style="fill:#1A85FF"/>
	<circle cx="1018.74" cy="692.55" r="11.31" style="fill:none;stroke:#1A85FF;stroke-width:6.48"/>
	<circle cx="1413.45" cy="715.33" r="14.55" style="fill:#1A85FF"/>
	<circle cx="1413.45" cy="715.33" r="11.31" style="fill:none;stroke:#1A85FF;stroke-width:6.48"/>
	<circle cx="1054.69" cy="555.86" r="14.55" style="fill:#1A85FF"/>
	<circle cx="1054.69" cy="555.86" r="11.31" style="fill:none;stroke:#1A85FF;stroke-width:6.48"/>
	<circle cx="1251.96" cy="635.51" r="14.55" style="fill:#1A85FF"/>
	<circle cx="1251.96" cy="635.51" r="11.31" style="fill:none;stroke:#1A85FF;stroke-width:6.48"/>
	<circle cx="552.32" cy="502.03" r="14.55" style="fill:#1A85FF"/>
	<circle cx="552.32" cy="502.03" r="11.31" style="fill:none;stroke:#1A85FF;stroke-width:6.48"/>
	<circle cx="1108.52" cy="650.19" r="14.55" style="fill:#1A85FF"/>
	<circle cx="1108.52" cy="650.19" r="11.31" style="fill:none;stroke:#1A85FF;stroke-width:6.48"/>
	<circle cx="1431.34" cy="798.36" r="14.55" style="fill:#1A85FF"/>
	<circle cx="1431.34" cy="798.36" r="11.31" style="fill:none;stroke:#1A85FF;stroke-width:6.48"/>
	<circle cx="982.80" cy="765.79" r="14.55" style="fill:#1A85FF"/>
	<circle cx="982.80" cy="765.79" r="11.31" style="fill:none;stroke:#1A85FF;stroke-width:6.48"/>
	<line x1="486.84" y1="1218.54" x2="486.84" y2="146.81" style="stroke:#000000;stroke-width:4.32"/>
	<line x1="486.84" y1="1170.96" x2="456.81" y2="1170.96" style="stroke:#000000;stroke-width:4.32"/>
	<text x="441.96" y="1197.22" style="font-family:'Helvetica';font-size:74.93px;fill:#000000" text-anchor="end">0,00</text>
	<line x1="486.84" y1="1008.28" x2="456.81" y2="1008.28" style="stroke:#000000;stroke-width:4.32"/>
	<text x="441.96" y="1034.55" style="font-family:'Helvetica';font-size:74.93px;fill:#000000" text-anchor="end">1,00</text>
	<line x1="486.84" y1="845.44" x2="456.81" y2="845.44" style="stroke:#000000;stroke-width:4.32"/>
	<text x="441.96" y="871.70" style="font-family:'Helvetica';font-size:74.93px;fill:#000000" text-anchor="end">2,00</text>
	<line x1="486.84" y1="682.76" x2="456.81" y2="682.76" style="stroke:#000000;stroke-width:4.32"/>
	<text x="441.96" y="709.03" style="font-family:'Helvetica';font-size:74.93px;fill:#000000" text-anchor="end">3,00</text>
	<line x1="486.84" y1="519.92" x2="456.81" y2="519.92" style="stroke:#000000;stroke-width:4.32"/>
	<text x="441.96" y="546.18" style="font-family:'Helvetica';font-size:74.93px;fill:#000000" text-anchor="end">4,00</text>
	<line x1="486.84" y1="357.24" x2="456.81" y2="357.24" style="stroke:#000000;stroke-width:4.32"/>
	<text x="441.96" y="383.51" style="font-family:'Helvetica';font-size:74.93px;fill:#000000" text-anchor="end">5,00</text>
	<line x1="486.84" y1="194.40" x2="456.81" y2="194.40" style="stroke:#000000;stroke-width:4.32"/>
	<text x="441.96" y="220.67" style="font-family:'Helvetica';font-size:74.93px;fill:#000000" text-anchor="end">6,00</text>
	<text x="214.36" y="682.76" style="font-family:'Helvetica';font-size:74.93px;fill:#000000" transform="rotate(-90 214.36,682.76)" text-anchor="middle">CVF(L)</text>
	<line x1="486.84" y1="1218.54" x2="1748.08" y2="1218.54" style="stroke:#000000;stroke-width:4.32"/>
	<line x1="534.43" y1="1218.54" x2="534.43" y2="1248.58" style="stroke:#000000;stroke-width:4.32"/>
	<text x="534.43" y="1315.79" style="font-family:'Helvetica';font-size:74.93px;fill:#000000" text-anchor="middle">0</text>
	<line x1="893.19" y1="1218.54" x2="893.19" y2="1248.58" style="stroke:#000000;stroke-width:4.32"/>
	<text x="893.19" y="1315.79" style="font-family:'Helvetica';font-size:74.93px;fill:#000000" text-anchor="middle">10</text>
	<line x1="1252.13" y1="1218.54" x2="1252.13" y2="1248.58" style="stroke:#000000;stroke-width:4.32"/>
	<text x="1252.13" y="1315.79" style="font-family:'Helvetica';font-size:74.93px;fill:#000000" text-anchor="middle">20</text>
	<line x1="1610.89" y1="1218.54" x2="1610.89" y2="1248.58" style="stroke:#000000;stroke-width:4.32"/>
	<text x="1610.89" y="1315.79" style="font-family:'Helvetica';font-size:74.93px;fill:#000000" text-anchor="middle">30</text>
	<text x="1117.46" y="1420.93" style="font-family:'Helvetica';font-size:74.93px;fill:#000000" text-anchor="middle">SARA</text>
	<text x="499.84" y="1513.35" style="font-family:'Helvetica';font-size:59.91px;fill:#000000">Spearman's rho = -0,39; p=0,37</text>
	<rect x="1823.68" y="71.21" width="1752.64" height="1548.79" style="fill:#FFFFFF"/>
	<rect x="1825.84" y="73.37" width="1748.32" height="1544.47" style="fill:none;stroke:#FFFFFF;stroke-width:4.32"/>
	<rect x="2129.96" y="146.81" width="1370.76" height="1071.73" style="fill:#FFFFFF"/>
	<rect x="2132.12" y="148.97" width="1366.44" height="1067.41" style="fill:none;stroke:#FFFFFF;stroke-width:4.32"/>
	<circle cx="2805.47" cy="726.81" r="14.55" style="fill:#1A85FF"/>
	<circle cx="2805.47" cy="726.81" r="11.31" style="fill:none;stroke:#1A85FF;stroke-width:6.48"/>
	<circle cx="2648.36" cy="837.34" r="14.55" style="fill:#1A85FF"/>
	<circle cx="2648.36" cy="837.34" r="11.31" style="fill:none;stroke:#1A85FF;stroke-width:6.48"/>
	<circle cx="3452.96" cy="747.90" r="14.55" style="fill:#1A85FF"/>
	<circle cx="3452.96" cy="747.90" r="11.31" style="fill:none;stroke:#1A85FF;stroke-width:6.48"/>
	<circle cx="3080.19" cy="1008.28" r="14.55" style="fill:#1A85FF"/>
	<circle cx="3080.19" cy="1008.28" r="11.31" style="fill:none;stroke:#1A85FF;stroke-width:6.48"/>
	<circle cx="2942.83" cy="866.70" r="14.55" style="fill:#1A85FF"/>
	<circle cx="2942.83" cy="866.70" r="11.31" style="fill:none;stroke:#1A85FF;stroke-width:6.48"/>
	<circle cx="2707.26" cy="751.11" r="14.55" style="fill:#1A85FF"/>
	<circle cx="2707.26" cy="751.11" r="11.31" style="fill:none;stroke:#1A85FF;stroke-width:6.48"/>
	<circle cx="3139.09" cy="744.69" r="14.55" style="fill:#1A85FF"/>
	<circle cx="3139.09" cy="744.69" r="11.31" style="fill:none;stroke:#1A85FF;stroke-width:6.48"/>
	<circle cx="2746.58" cy="632.31" r="14.55" style="fill:#1A85FF"/>
	<circle cx="2746.58" cy="632.31" r="11.31" style="fill:none;stroke:#1A85FF;stroke-width:6.48"/>
	<circle cx="2962.41" cy="733.22" r="14.55" style="fill:#1A85FF"/>
	<circle cx="2962.41" cy="733.22" r="11.31" style="fill:none;stroke:#1A85FF;stroke-width:6.48"/>
	<circle cx="2196.96" cy="747.90" r="14.55" style="fill:#1A85FF"/>
	<circle cx="2196.96" cy="747.90" r="11.31" style="fill:none;stroke:#1A85FF;stroke-width:6.48"/>
	<circle cx="2805.47" cy="708.75" r="14.55" style="fill:#1A85FF"/>
	<circle cx="2805.47" cy="708.75" r="11.31" style="fill:none;stroke:#1A85FF;stroke-width:6.48"/>
	<circle cx="3158.66" cy="843.92" r="14.55" style="fill:#1A85FF"/>
	<circle cx="3158.66" cy="843.92" r="11.31" style="fill:none;stroke:#1A85FF;stroke-width:6.48"/>
	<circle cx="2668.11" cy="764.10" r="14.55" style="fill:#1A85FF"/>
	<circle cx="2668.11" cy="764.10" r="11.31" style="fill:none;stroke:#1A85FF;stroke-width:6.48"/>
	<line x1="2129.96" y1="1218.54" x2="2129.96" y2="146.81" style="stroke:#000000;stroke-width:4.32"/>
	<line x1="2129.96" y1="1170.96" x2="2099.93" y2="1170.96" style="stroke:#000000;stroke-width:4.32"/>
	<text x="2084.91" y="1197.22" style="font-family:'Helvetica';font-size:74.93px;fill:#000000" text-anchor="end">0</text>
	<line x1="2129.96" y1="1008.28" x2="2099.93" y2="1008.28" style="stroke:#000000;stroke-width:4.32"/>
	<text x="2084.91" y="1034.55" style="font-family:'Helvetica';font-size:74.93px;fill:#000000" text-anchor="end">1</text>
	<line x1="2129.96" y1="845.44" x2="2099.93" y2="845.44" style="stroke:#000000;stroke-width:4.32"/>
	<text x="2084.91" y="871.70" style="font-family:'Helvetica';font-size:74.93px;fill:#000000" text-anchor="end">2</text>
	<line x1="2129.96" y1="682.76" x2="2099.93" y2="682.76" style="stroke:#000000;stroke-width:4.32"/>
	<text x="2084.91" y="709.03" style="font-family:'Helvetica';font-size:74.93px;fill:#000000" text-anchor="end">3</text>
	<line x1="2129.96" y1="519.92" x2="2099.93" y2="519.92" style="stroke:#000000;stroke-width:4.32"/>
	<text x="2084.91" y="546.18" style="font-family:'Helvetica';font-size:74.93px;fill:#000000" text-anchor="end">4</text>
	<line x1="2129.96" y1="357.24" x2="2099.93" y2="357.24" style="stroke:#000000;stroke-width:4.32"/>
	<text x="2084.91" y="383.51" style="font-family:'Helvetica';font-size:74.93px;fill:#000000" text-anchor="end">5</text>
	<line x1="2129.96" y1="194.40" x2="2099.93" y2="194.40" style="stroke:#000000;stroke-width:4.32"/>
	<text x="2084.91" y="220.67" style="font-family:'Helvetica';font-size:74.93px;fill:#000000" text-anchor="end">6</text>
	<text x="1966.83" y="682.76" style="font-family:'Helvetica';font-size:74.93px;fill:#000000" transform="rotate(-90 1966.83,682.76)" text-anchor="middle">VEF1 (L)</text>
	<line x1="2129.96" y1="1218.54" x2="3500.72" y2="1218.54" style="stroke:#000000;stroke-width:4.32"/>
	<line x1="2177.55" y1="1218.54" x2="2177.55" y2="1248.58" style="stroke:#000000;stroke-width:4.32"/>
	<text x="2177.55" y="1315.79" style="font-family:'Helvetica';font-size:74.93px;fill:#000000" text-anchor="middle">0</text>
	<line x1="2570.06" y1="1218.54" x2="2570.06" y2="1248.58" style="stroke:#000000;stroke-width:4.32"/>
	<text x="2570.06" y="1315.79" style="font-family:'Helvetica';font-size:74.93px;fill:#000000" text-anchor="middle">10</text>
	<line x1="2962.58" y1="1218.54" x2="2962.58" y2="1248.58" style="stroke:#000000;stroke-width:4.32"/>
	<text x="2962.58" y="1315.79" style="font-family:'Helvetica';font-size:74.93px;fill:#000000" text-anchor="middle">20</text>
	<line x1="3354.92" y1="1218.54" x2="3354.92" y2="1248.58" style="stroke:#000000;stroke-width:4.32"/>
	<text x="3354.92" y="1315.79" style="font-family:'Helvetica';font-size:74.93px;fill:#000000" text-anchor="middle">30</text>
	<text x="2815.26" y="1420.93" style="font-family:'Helvetica';font-size:74.93px;fill:#000000" text-anchor="middle">SARA</text>
	<text x="2142.96" y="1513.35" style="font-family:'Helvetica';font-size:59.91px;fill:#000000">Spearman's rho = 0,11; p=0,81</text>
	<rect x="3576.32" y="71.21" width="1752.47" height="1548.79" style="fill:#FFFFFF"/>
	<rect x="3578.48" y="73.37" width="1748.15" height="1544.47" style="fill:none;stroke:#FFFFFF;stroke-width:4.32"/>
	<rect x="3970.01" y="146.81" width="1283.18" height="1071.73" style="fill:#FFFFFF"/>
	<rect x="3972.17" y="148.97" width="1278.86" height="1067.41" style="fill:none;stroke:#FFFFFF;stroke-width:4.32"/>
	<circle cx="4602.32" cy="347.79" r="14.55" style="fill:#1A85FF"/>
	<circle cx="4602.32" cy="347.79" r="11.31" style="fill:none;stroke:#1A85FF;stroke-width:6.48"/>
	<circle cx="4456.01" cy="437.74" r="14.55" style="fill:#1A85FF"/>
	<circle cx="4456.01" cy="437.74" r="11.31" style="fill:none;stroke:#1A85FF;stroke-width:6.48"/>
	<circle cx="5205.60" cy="1085.06" r="14.55" style="fill:#1A85FF"/>
	<circle cx="5205.60" cy="1085.06" r="11.31" style="fill:none;stroke:#1A85FF;stroke-width:6.48"/>
	<circle cx="4858.14" cy="594.84" r="14.55" style="fill:#1A85FF"/>
	<circle cx="4858.14" cy="594.84" r="11.31" style="fill:none;stroke:#1A85FF;stroke-width:6.48"/>
	<circle cx="4730.23" cy="223.76" r="14.55" style="fill:#1A85FF"/>
	<circle cx="4730.23" cy="223.76" r="11.31" style="fill:none;stroke:#1A85FF;stroke-width:6.48"/>
	<circle cx="4510.86" cy="312.69" r="14.55" style="fill:#1A85FF"/>
	<circle cx="4510.86" cy="312.69" r="11.31" style="fill:none;stroke:#1A85FF;stroke-width:6.48"/>
	<circle cx="4912.99" cy="258.86" r="14.55" style="fill:#1A85FF"/>
	<circle cx="4912.99" cy="258.86" r="11.31" style="fill:none;stroke:#1A85FF;stroke-width:6.48"/>
	<circle cx="4547.48" cy="315.56" r="14.55" style="fill:#1A85FF"/>
	<circle cx="4547.48" cy="315.56" r="11.31" style="fill:none;stroke:#1A85FF;stroke-width:6.48"/>
	<circle cx="4748.63" cy="370.24" r="14.55" style="fill:#1A85FF"/>
	<circle cx="4748.63" cy="370.24" r="11.31" style="fill:none;stroke:#1A85FF;stroke-width:6.48"/>
	<circle cx="4035.66" cy="553.84" r="14.55" style="fill:#1A85FF"/>
	<circle cx="4035.66" cy="553.84" r="11.31" style="fill:none;stroke:#1A85FF;stroke-width:6.48"/>
	<circle cx="4602.32" cy="303.92" r="14.55" style="fill:#1A85FF"/>
	<circle cx="4602.32" cy="303.92" r="11.31" style="fill:none;stroke:#1A85FF;stroke-width:6.48"/>
	<circle cx="4931.38" cy="312.69" r="14.55" style="fill:#1A85FF"/>
	<circle cx="4931.38" cy="312.69" r="11.31" style="fill:none;stroke:#1A85FF;stroke-width:6.48"/>
	<circle cx="4474.41" cy="374.12" r="14.55" style="fill:#1A85FF"/>
	<circle cx="4474.41" cy="374.12" r="11.31" style="fill:none;stroke:#1A85FF;stroke-width:6.48"/>
	<line x1="3970.01" y1="1218.54" x2="3970.01" y2="146.81" style="stroke:#000000;stroke-width:4.32"/>
	<line x1="3970.01" y1="1170.96" x2="3939.98" y2="1170.96" style="stroke:#000000;stroke-width:4.32"/>
	<text x="3924.96" y="1197.22" style="font-family:'Helvetica';font-size:74.93px;fill:#000000" text-anchor="end">0</text>
	<line x1="3970.01" y1="1073.25" x2="3939.98" y2="1073.25" style="stroke:#000000;stroke-width:4.32"/>
	<text x="3924.96" y="1099.52" style="font-family:'Helvetica';font-size:74.93px;fill:#000000" text-anchor="end">10</text>
	<line x1="3970.01" y1="975.71" x2="3939.98" y2="975.71" style="stroke:#000000;stroke-width:4.32"/>
	<text x="3924.96" y="1001.98" style="font-family:'Helvetica';font-size:74.93px;fill:#000000" text-anchor="end">20</text>
	<line x1="3970.01" y1="878.01" x2="3939.98" y2="878.01" style="stroke:#000000;stroke-width:4.32"/>
	<text x="3924.96" y="904.27" style="font-family:'Helvetica';font-size:74.93px;fill:#000000" text-anchor="end">30</text>
	<line x1="3970.01" y1="780.30" x2="3939.98" y2="780.30" style="stroke:#000000;stroke-width:4.32"/>
	<text x="3924.96" y="806.57" style="font-family:'Helvetica';font-size:74.93px;fill:#000000" text-anchor="end">40</text>
	<line x1="3970.01" y1="682.76" x2="3939.98" y2="682.76" style="stroke:#000000;stroke-width:4.32"/>
	<text x="3924.96" y="709.03" style="font-family:'Helvetica';font-size:74.93px;fill:#000000" text-anchor="end">50</text>
	<line x1="3970.01" y1="585.06" x2="3939.98" y2="585.06" style="stroke:#000000;stroke-width:4.32"/>
	<text x="3924.96" y="611.32" style="font-family:'Helvetica';font-size:74.93px;fill:#000000" text-anchor="end">60</text>
	<line x1="3970.01" y1="487.35" x2="3939.98" y2="487.35" style="stroke:#000000;stroke-width:4.32"/>
	<text x="3924.96" y="513.62" style="font-family:'Helvetica';font-size:74.93px;fill:#000000" text-anchor="end">70</text>
	<line x1="3970.01" y1="389.64" x2="3939.98" y2="389.64" style="stroke:#000000;stroke-width:4.32"/>
	<text x="3924.96" y="415.91" style="font-family:'Helvetica';font-size:74.93px;fill:#000000" text-anchor="end">80</text>
	<line x1="3970.01" y1="292.11" x2="3939.98" y2="292.11" style="stroke:#000000;stroke-width:4.32"/>
	<text x="3924.96" y="318.37" style="font-family:'Helvetica';font-size:74.93px;fill:#000000" text-anchor="end">90</text>
	<line x1="3970.01" y1="194.40" x2="3939.98" y2="194.40" style="stroke:#000000;stroke-width:4.32"/>
	<text x="3924.96" y="220.67" style="font-family:'Helvetica';font-size:74.93px;fill:#000000" text-anchor="end">100</text>
	<text x="3719.30" y="682.76" style="font-family:'Helvetica';font-size:74.93px;fill:#000000" transform="rotate(-90 3719.30,682.76)" text-anchor="middle">VEF1/CVF (L)</text>
	<line x1="3970.01" y1="1218.54" x2="5253.19" y2="1218.54" style="stroke:#000000;stroke-width:4.32"/>
	<line x1="4017.43" y1="1218.54" x2="4017.43" y2="1248.58" style="stroke:#000000;stroke-width:4.32"/>
	<text x="4017.43" y="1315.79" style="font-family:'Helvetica';font-size:74.93px;fill:#000000" text-anchor="middle">0</text>
	<line x1="4383.11" y1="1218.54" x2="4383.11" y2="1248.58" style="stroke:#000000;stroke-width:4.32"/>
	<text x="4383.11" y="1315.79" style="font-family:'Helvetica';font-size:74.93px;fill:#000000" text-anchor="middle">10</text>
	<line x1="4748.63" y1="1218.54" x2="4748.63" y2="1248.58" style="stroke:#000000;stroke-width:4.32"/>
	<text x="4748.63" y="1315.79" style="font-family:'Helvetica';font-size:74.93px;fill:#000000" text-anchor="middle">20</text>
	<line x1="5114.14" y1="1218.54" x2="5114.14" y2="1248.58" style="stroke:#000000;stroke-width:4.32"/>
	<text x="5114.14" y="1315.79" style="font-family:'Helvetica';font-size:74.93px;fill:#000000" text-anchor="middle">30</text>
	<text x="4611.60" y="1420.93" style="font-family:'Helvetica';font-size:74.93px;fill:#000000" text-anchor="middle">SARA</text>
	<text x="3982.84" y="1513.35" style="font-family:'Helvetica';font-size:59.91px;fill:#000000">Spearman's rho = 0,71; p=0,07</text>
	<rect x="71.21" y="1620.00" width="1752.47" height="1548.79" style="fill:#FFFFFF"/>
	<rect x="73.37" y="1622.16" width="1748.15" height="1544.47" style="fill:none;stroke:#FFFFFF;stroke-width:4.32"/>
	<rect x="421.20" y="1695.60" width="1326.88" height="1071.56" style="fill:#FFFFFF"/>
	<rect x="423.36" y="1697.76" width="1322.56" height="1067.24" style="fill:none;stroke:#FFFFFF;stroke-width:4.32"/>
	<circle cx="1075.11" cy="2269.52" r="14.55" style="fill:#1A85FF"/>
	<circle cx="1075.11" cy="2269.52" r="11.31" style="fill:none;stroke:#1A85FF;stroke-width:6.48"/>
	<circle cx="923.57" cy="2187.51" r="14.55" style="fill:#1A85FF"/>
	<circle cx="923.57" cy="2187.51" r="11.31" style="fill:none;stroke:#1A85FF;stroke-width:6.48"/>
	<circle cx="1700.49" cy="2329.09" r="14.55" style="fill:#1A85FF"/>
	<circle cx="1700.49" cy="2329.09" r="11.31" style="fill:none;stroke:#1A85FF;stroke-width:6.48"/>
	<circle cx="1340.55" cy="2291.12" r="14.55" style="fill:#1A85FF"/>
	<circle cx="1340.55" cy="2291.12" r="11.31" style="fill:none;stroke:#1A85FF;stroke-width:6.48"/>
	<circle cx="1207.74" cy="2434.56" r="14.55" style="fill:#1A85FF"/>
	<circle cx="1207.74" cy="2434.56" r="11.31" style="fill:none;stroke:#1A85FF;stroke-width:6.48"/>
	<circle cx="980.44" cy="2092.84" r="14.55" style="fill:#1A85FF"/>
	<circle cx="980.44" cy="2092.84" r="11.31" style="fill:none;stroke:#1A85FF;stroke-width:6.48"/>
	<circle cx="1397.25" cy="2221.76" r="14.55" style="fill:#1A85FF"/>
	<circle cx="1397.25" cy="2221.76" r="11.31" style="fill:none;stroke:#1A85FF;stroke-width:6.48"/>
	<circle cx="1018.24" cy="2103.64" r="14.55" style="fill:#1A85FF"/>
	<circle cx="1018.24" cy="2103.64" r="11.31" style="fill:none;stroke:#1A85FF;stroke-width:6.48"/>
	<circle cx="1226.81" cy="2135.87" r="14.55" style="fill:#1A85FF"/>
	<circle cx="1226.81" cy="2135.87" r="11.31" style="fill:none;stroke:#1A85FF;stroke-width:6.48"/>
	<circle cx="487.69" cy="1880.89" r="14.55" style="fill:#1A85FF"/>
	<circle cx="487.69" cy="1880.89" r="11.31" style="fill:none;stroke:#1A85FF;stroke-width:6.48"/>
	<circle cx="1075.11" cy="2133.84" r="14.55" style="fill:#1A85FF"/>
	<circle cx="1075.11" cy="2133.84" r="11.31" style="fill:none;stroke:#1A85FF;stroke-width:6.48"/>
	<circle cx="1416.32" cy="2242.18" r="14.55" style="fill:#1A85FF"/>
	<circle cx="1416.32" cy="2242.18" r="11.31" style="fill:none;stroke:#1A85FF;stroke-width:6.48"/>
	<circle cx="942.47" cy="2256.86" r="14.55" style="fill:#1A85FF"/>
	<circle cx="942.47" cy="2256.86" r="11.31" style="fill:none;stroke:#1A85FF;stroke-width:6.48"/>
	<line x1="421.20" y1="2767.16" x2="421.20" y2="1695.60" style="stroke:#000000;stroke-width:4.32"/>
	<line x1="421.20" y1="2719.74" x2="391.33" y2="2719.74" style="stroke:#000000;stroke-width:4.32"/>
	<text x="376.31" y="2746.01" style="font-family:'Helvetica';font-size:74.93px;fill:#000000" text-anchor="end">0</text>
	<line x1="421.20" y1="2622.04" x2="391.33" y2="2622.04" style="stroke:#000000;stroke-width:4.32"/>
	<text x="376.31" y="2648.30" style="font-family:'Helvetica';font-size:74.93px;fill:#000000" text-anchor="end">1</text>
	<line x1="421.20" y1="2524.33" x2="391.33" y2="2524.33" style="stroke:#000000;stroke-width:4.32"/>
	<text x="376.31" y="2550.60" style="font-family:'Helvetica';font-size:74.93px;fill:#000000" text-anchor="end">2</text>
	<line x1="421.20" y1="2426.79" x2="391.33" y2="2426.79" style="stroke:#000000;stroke-width:4.32"/>
	<text x="376.31" y="2453.06" style="font-family:'Helvetica';font-size:74.93px;fill:#000000" text-anchor="end">3</text>
	<line x1="421.20" y1="2329.09" x2="391.33" y2="2329.09" style="stroke:#000000;stroke-width:4.32"/>
	<text x="376.31" y="2355.35" style="font-family:'Helvetica';font-size:74.93px;fill:#000000" text-anchor="end">4</text>
	<line x1="421.20" y1="2231.38" x2="391.33" y2="2231.38" style="stroke:#000000;stroke-width:4.32"/>
	<text x="376.31" y="2257.65" style="font-family:'Helvetica';font-size:74.93px;fill:#000000" text-anchor="end">5</text>
	<line x1="421.20" y1="2133.68" x2="391.33" y2="2133.68" style="stroke:#000000;stroke-width:4.32"/>
	<text x="376.31" y="2159.94" style="font-family:'Helvetica';font-size:74.93px;fill:#000000" text-anchor="end">6</text>
	<line x1="421.20" y1="2036.14" x2="391.33" y2="2036.14" style="stroke:#000000;stroke-width:4.32"/>
	<text x="376.31" y="2062.40" style="font-family:'Helvetica';font-size:74.93px;fill:#000000" text-anchor="end">7</text>
	<line x1="421.20" y1="1938.43" x2="391.33" y2="1938.43" style="stroke:#000000;stroke-width:4.32"/>
	<text x="376.31" y="1964.70" style="font-family:'Helvetica';font-size:74.93px;fill:#000000" text-anchor="end">8</text>
	<line x1="421.20" y1="1840.73" x2="391.33" y2="1840.73" style="stroke:#000000;stroke-width:4.32"/>
	<text x="376.31" y="1866.99" style="font-family:'Helvetica';font-size:74.93px;fill:#000000" text-anchor="end">9</text>
	<line x1="421.20" y1="1743.19" x2="391.33" y2="1743.19" style="stroke:#000000;stroke-width:4.32"/>
	<text x="376.31" y="1769.45" style="font-family:'Helvetica';font-size:74.93px;fill:#000000" text-anchor="end">10</text>
	<text x="214.36" y="2231.38" style="font-family:'Helvetica';font-size:74.93px;fill:#000000" transform="rotate(-90 214.36,2231.38)" text-anchor="middle">PFE (L)</text>
	<line x1="421.20" y1="2767.16" x2="1748.08" y2="2767.16" style="stroke:#000000;stroke-width:4.32"/>
	<line x1="468.79" y1="2767.16" x2="468.79" y2="2797.20" style="stroke:#000000;stroke-width:4.32"/>
	<text x="468.79" y="2864.58" style="font-family:'Helvetica';font-size:74.93px;fill:#000000" text-anchor="middle">0</text>
	<line x1="847.80" y1="2767.16" x2="847.80" y2="2797.20" style="stroke:#000000;stroke-width:4.32"/>
	<text x="847.80" y="2864.58" style="font-family:'Helvetica';font-size:74.93px;fill:#000000" text-anchor="middle">10</text>
	<line x1="1226.81" y1="2767.16" x2="1226.81" y2="2797.20" style="stroke:#000000;stroke-width:4.32"/>
	<text x="1226.81" y="2864.58" style="font-family:'Helvetica';font-size:74.93px;fill:#000000" text-anchor="middle">20</text>
	<line x1="1605.83" y1="2767.16" x2="1605.83" y2="2797.20" style="stroke:#000000;stroke-width:4.32"/>
	<text x="1605.83" y="2864.58" style="font-family:'Helvetica';font-size:74.93px;fill:#000000" text-anchor="middle">30</text>
	<text x="1084.72" y="2969.71" style="font-family:'Helvetica';font-size:74.93px;fill:#000000" text-anchor="middle">SARA</text>
	<text x="434.19" y="3062.14" style="font-family:'Helvetica';font-size:59.91px;fill:#000000">Spearman's rho = -0,14; p=0,75</text>
	<rect x="1823.68" y="1620.00" width="1752.64" height="1548.79" style="fill:#FFFFFF"/>
	<rect x="1825.84" y="1622.16" width="1748.32" height="1544.47" style="fill:none;stroke:#FFFFFF;stroke-width:4.32"/>
	<rect x="2217.54" y="1695.60" width="1283.18" height="1071.56" style="fill:#FFFFFF"/>
	<rect x="2219.70" y="1697.76" width="1278.86" height="1067.24" style="fill:none;stroke:#FFFFFF;stroke-width:4.32"/>
	<circle cx="2849.85" cy="2118.49" r="14.55" style="fill:#1A85FF"/>
	<circle cx="2849.85" cy="2118.49" r="11.31" style="fill:none;stroke:#1A85FF;stroke-width:6.48"/>
	<circle cx="2703.54" cy="2159.83" r="14.55" style="fill:#1A85FF"/>
	<circle cx="2703.54" cy="2159.83" r="11.31" style="fill:none;stroke:#1A85FF;stroke-width:6.48"/>
	<circle cx="3452.96" cy="2159.83" r="14.55" style="fill:#1A85FF"/>
	<circle cx="3452.96" cy="2159.83" r="11.31" style="fill:none;stroke:#1A85FF;stroke-width:6.48"/>
	<circle cx="3105.68" cy="2217.38" r="14.55" style="fill:#1A85FF"/>
	<circle cx="3105.68" cy="2217.38" r="11.31" style="fill:none;stroke:#1A85FF;stroke-width:6.48"/>
	<circle cx="2977.76" cy="2057.74" r="14.55" style="fill:#1A85FF"/>
	<circle cx="2977.76" cy="2057.74" r="11.31" style="fill:none;stroke:#1A85FF;stroke-width:6.48"/>
	<circle cx="2758.39" cy="2166.24" r="14.55" style="fill:#1A85FF"/>
	<circle cx="2758.39" cy="2166.24" r="11.31" style="fill:none;stroke:#1A85FF;stroke-width:6.48"/>
	<circle cx="3160.52" cy="2089.63" r="14.55" style="fill:#1A85FF"/>
	<circle cx="3160.52" cy="2089.63" r="11.31" style="fill:none;stroke:#1A85FF;stroke-width:6.48"/>
	<circle cx="2795.01" cy="2127.94" r="14.55" style="fill:#1A85FF"/>
	<circle cx="2795.01" cy="2127.94" r="11.31" style="fill:none;stroke:#1A85FF;stroke-width:6.48"/>
	<circle cx="2995.99" cy="1892.53" r="14.55" style="fill:#1A85FF"/>
	<circle cx="2995.99" cy="1892.53" r="11.31" style="fill:none;stroke:#1A85FF;stroke-width:6.48"/>
	<circle cx="2283.19" cy="1900.97" r="14.55" style="fill:#1A85FF"/>
	<circle cx="2283.19" cy="1900.97" r="11.31" style="fill:none;stroke:#1A85FF;stroke-width:6.48"/>
	<circle cx="2849.85" cy="2067.36" r="14.55" style="fill:#1A85FF"/>
	<circle cx="2849.85" cy="2067.36" r="11.31" style="fill:none;stroke:#1A85FF;stroke-width:6.48"/>
	<circle cx="3178.91" cy="2163.04" r="14.55" style="fill:#1A85FF"/>
	<circle cx="3178.91" cy="2163.04" r="11.31" style="fill:none;stroke:#1A85FF;stroke-width:6.48"/>
	<circle cx="2721.94" cy="1986.36" r="14.55" style="fill:#1A85FF"/>
	<circle cx="2721.94" cy="1986.36" r="11.31" style="fill:none;stroke:#1A85FF;stroke-width:6.48"/>
	<line x1="2217.54" y1="2767.16" x2="2217.54" y2="1695.60" style="stroke:#000000;stroke-width:4.32"/>
	<line x1="2217.54" y1="2719.74" x2="2187.51" y2="2719.74" style="stroke:#000000;stroke-width:4.32"/>
	<text x="2172.49" y="2746.01" style="font-family:'Helvetica';font-size:74.93px;fill:#000000" text-anchor="end">0</text>
	<line x1="2217.54" y1="2556.90" x2="2187.51" y2="2556.90" style="stroke:#000000;stroke-width:4.32"/>
	<text x="2172.49" y="2583.17" style="font-family:'Helvetica';font-size:74.93px;fill:#000000" text-anchor="end">25</text>
	<line x1="2217.54" y1="2394.23" x2="2187.51" y2="2394.23" style="stroke:#000000;stroke-width:4.32"/>
	<text x="2172.49" y="2420.49" style="font-family:'Helvetica';font-size:74.93px;fill:#000000" text-anchor="end">50</text>
	<line x1="2217.54" y1="2231.38" x2="2187.51" y2="2231.38" style="stroke:#000000;stroke-width:4.32"/>
	<text x="2172.49" y="2257.65" style="font-family:'Helvetica';font-size:74.93px;fill:#000000" text-anchor="end">75</text>
	<line x1="2217.54" y1="2068.71" x2="2187.51" y2="2068.71" style="stroke:#000000;stroke-width:4.32"/>
	<text x="2172.49" y="2094.97" style="font-family:'Helvetica';font-size:74.93px;fill:#000000" text-anchor="end">100</text>
	<line x1="2217.54" y1="1905.86" x2="2187.51" y2="1905.86" style="stroke:#000000;stroke-width:4.32"/>
	<text x="2172.49" y="1932.13" style="font-family:'Helvetica';font-size:74.93px;fill:#000000" text-anchor="end">125</text>
	<line x1="2217.54" y1="1743.19" x2="2187.51" y2="1743.19" style="stroke:#000000;stroke-width:4.32"/>
	<text x="2172.49" y="1769.45" style="font-family:'Helvetica';font-size:74.93px;fill:#000000" text-anchor="end">150</text>
	<text x="1966.83" y="2231.38" style="font-family:'Helvetica';font-size:74.93px;fill:#000000" transform="rotate(-90 1966.83,2231.38)" text-anchor="middle">Pi máx.</text>
	<line x1="2217.54" y1="2767.16" x2="3500.72" y2="2767.16" style="stroke:#000000;stroke-width:4.32"/>
	<line x1="2264.96" y1="2767.16" x2="2264.96" y2="2797.20" style="stroke:#000000;stroke-width:4.32"/>
	<text x="2264.96" y="2864.58" style="font-family:'Helvetica';font-size:74.93px;fill:#000000" text-anchor="middle">0</text>
	<line x1="2630.64" y1="2767.16" x2="2630.64" y2="2797.20" style="stroke:#000000;stroke-width:4.32"/>
	<text x="2630.64" y="2864.58" style="font-family:'Helvetica';font-size:74.93px;fill:#000000" text-anchor="middle">10</text>
	<line x1="2996.16" y1="2767.16" x2="2996.16" y2="2797.20" style="stroke:#000000;stroke-width:4.32"/>
	<text x="2996.16" y="2864.58" style="font-family:'Helvetica';font-size:74.93px;fill:#000000" text-anchor="middle">20</text>
	<line x1="3361.67" y1="2767.16" x2="3361.67" y2="2797.20" style="stroke:#000000;stroke-width:4.32"/>
	<text x="3361.67" y="2864.58" style="font-family:'Helvetica';font-size:74.93px;fill:#000000" text-anchor="middle">30</text>
	<text x="2859.13" y="2969.71" style="font-family:'Helvetica';font-size:74.93px;fill:#000000" text-anchor="middle">SARA</text>
	<text x="2230.37" y="3062.14" style="font-family:'Helvetica';font-size:59.91px;fill:#000000">Spearman's rho = -0,17; p=0,69</text>
	<rect x="3576.32" y="1620.00" width="1752.47" height="1548.79" style="fill:#FFFFFF"/>
	<rect x="3578.48" y="1622.16" width="1748.15" height="1544.47" style="fill:none;stroke:#FFFFFF;stroke-width:4.32"/>
	<rect x="3970.01" y="1695.60" width="1283.18" height="1071.56" style="fill:#FFFFFF"/>
	<rect x="3972.17" y="1697.76" width="1278.86" height="1067.24" style="fill:none;stroke:#FFFFFF;stroke-width:4.32"/>
	<circle cx="4602.32" cy="2400.81" r="14.55" style="fill:#1A85FF"/>
	<circle cx="4602.32" cy="2400.81" r="11.31" style="fill:none;stroke:#1A85FF;stroke-width:6.48"/>
	<circle cx="4456.01" cy="2198.98" r="14.55" style="fill:#1A85FF"/>
	<circle cx="4456.01" cy="2198.98" r="11.31" style="fill:none;stroke:#1A85FF;stroke-width:6.48"/>
	<circle cx="5205.60" cy="2361.66" r="14.55" style="fill:#1A85FF"/>
	<circle cx="5205.60" cy="2361.66" r="11.31" style="fill:none;stroke:#1A85FF;stroke-width:6.48"/>
	<circle cx="4858.14" cy="2433.38" r="14.55" style="fill:#1A85FF"/>
	<circle cx="4858.14" cy="2433.38" r="11.31" style="fill:none;stroke:#1A85FF;stroke-width:6.48"/>
	<circle cx="4730.23" cy="2524.50" r="14.55" style="fill:#1A85FF"/>
	<circle cx="4730.23" cy="2524.50" r="11.31" style="fill:none;stroke:#1A85FF;stroke-width:6.48"/>
	<circle cx="4510.86" cy="2042.72" r="14.55" style="fill:#1A85FF"/>
	<circle cx="4510.86" cy="2042.72" r="11.31" style="fill:none;stroke:#1A85FF;stroke-width:6.48"/>
	<circle cx="4912.99" cy="2342.25" r="14.55" style="fill:#1A85FF"/>
	<circle cx="4912.99" cy="2342.25" r="11.31" style="fill:none;stroke:#1A85FF;stroke-width:6.48"/>
	<circle cx="4547.48" cy="2504.93" r="14.55" style="fill:#1A85FF"/>
	<circle cx="4547.48" cy="2504.93" r="11.31" style="fill:none;stroke:#1A85FF;stroke-width:6.48"/>
	<circle cx="4748.63" cy="2237.96" r="14.55" style="fill:#1A85FF"/>
	<circle cx="4748.63" cy="2237.96" r="11.31" style="fill:none;stroke:#1A85FF;stroke-width:6.48"/>
	<circle cx="4035.66" cy="1834.31" r="14.55" style="fill:#1A85FF"/>
	<circle cx="4035.66" cy="1834.31" r="11.31" style="fill:none;stroke:#1A85FF;stroke-width:6.48"/>
	<circle cx="4602.32" cy="2511.51" r="14.55" style="fill:#1A85FF"/>
	<circle cx="4602.32" cy="2511.51" r="11.31" style="fill:none;stroke:#1A85FF;stroke-width:6.48"/>
	<circle cx="4931.38" cy="2348.66" r="14.55" style="fill:#1A85FF"/>
	<circle cx="4931.38" cy="2348.66" r="11.31" style="fill:none;stroke:#1A85FF;stroke-width:6.48"/>
	<circle cx="4474.41" cy="1873.46" r="14.55" style="fill:#1A85FF"/>
	<circle cx="4474.41" cy="1873.46" r="11.31" style="fill:none;stroke:#1A85FF;stroke-width:6.48"/>
	<line x1="3970.01" y1="2767.16" x2="3970.01" y2="1695.60" style="stroke:#000000;stroke-width:4.32"/>
	<line x1="3970.01" y1="2719.74" x2="3939.98" y2="2719.74" style="stroke:#000000;stroke-width:4.32"/>
	<text x="3924.96" y="2746.01" style="font-family:'Helvetica';font-size:74.93px;fill:#000000" text-anchor="end">0</text>
	<line x1="3970.01" y1="2556.90" x2="3939.98" y2="2556.90" style="stroke:#000000;stroke-width:4.32"/>
	<text x="3924.96" y="2583.17" style="font-family:'Helvetica';font-size:74.93px;fill:#000000" text-anchor="end">25</text>
	<line x1="3970.01" y1="2394.23" x2="3939.98" y2="2394.23" style="stroke:#000000;stroke-width:4.32"/>
	<text x="3924.96" y="2420.49" style="font-family:'Helvetica';font-size:74.93px;fill:#000000" text-anchor="end">50</text>
	<line x1="3970.01" y1="2231.38" x2="3939.98" y2="2231.38" style="stroke:#000000;stroke-width:4.32"/>
	<text x="3924.96" y="2257.65" style="font-family:'Helvetica';font-size:74.93px;fill:#000000" text-anchor="end">75</text>
	<line x1="3970.01" y1="2068.71" x2="3939.98" y2="2068.71" style="stroke:#000000;stroke-width:4.32"/>
	<text x="3924.96" y="2094.97" style="font-family:'Helvetica';font-size:74.93px;fill:#000000" text-anchor="end">100</text>
	<line x1="3970.01" y1="1905.86" x2="3939.98" y2="1905.86" style="stroke:#000000;stroke-width:4.32"/>
	<text x="3924.96" y="1932.13" style="font-family:'Helvetica';font-size:74.93px;fill:#000000" text-anchor="end">125</text>
	<line x1="3970.01" y1="1743.19" x2="3939.98" y2="1743.19" style="stroke:#000000;stroke-width:4.32"/>
	<text x="3924.96" y="1769.45" style="font-family:'Helvetica';font-size:74.93px;fill:#000000" text-anchor="end">150</text>
	<text x="3719.30" y="2231.38" style="font-family:'Helvetica';font-size:74.93px;fill:#000000" transform="rotate(-90 3719.30,2231.38)" text-anchor="middle">SNIP</text>
	<line x1="3970.01" y1="2767.16" x2="5253.19" y2="2767.16" style="stroke:#000000;stroke-width:4.32"/>
	<line x1="4017.43" y1="2767.16" x2="4017.43" y2="2797.20" style="stroke:#000000;stroke-width:4.32"/>
	<text x="4017.43" y="2864.58" style="font-family:'Helvetica';font-size:74.93px;fill:#000000" text-anchor="middle">0</text>
	<line x1="4383.11" y1="2767.16" x2="4383.11" y2="2797.20" style="stroke:#000000;stroke-width:4.32"/>
	<text x="4383.11" y="2864.58" style="font-family:'Helvetica';font-size:74.93px;fill:#000000" text-anchor="middle">10</text>
	<line x1="4748.63" y1="2767.16" x2="4748.63" y2="2797.20" style="stroke:#000000;stroke-width:4.32"/>
	<text x="4748.63" y="2864.58" style="font-family:'Helvetica';font-size:74.93px;fill:#000000" text-anchor="middle">20</text>
	<line x1="5114.14" y1="2767.16" x2="5114.14" y2="2797.20" style="stroke:#000000;stroke-width:4.32"/>
	<text x="5114.14" y="2864.58" style="font-family:'Helvetica';font-size:74.93px;fill:#000000" text-anchor="middle">30</text>
	<text x="4611.60" y="2969.71" style="font-family:'Helvetica';font-size:74.93px;fill:#000000" text-anchor="middle">SARA</text>
	<text x="3982.84" y="3062.14" style="font-family:'Helvetica';font-size:59.91px;fill:#000000">Spearman's rho = -0,46; p=0,28</text>
</svg>
