<?xml version="1.0" encoding="UTF-8" standalone="no"?>
<!-- This is a Stata 18.0 generated SVG file (http://www.stata.com) -->

<svg version="1.1" width="7.500in" height="4.500in" viewBox="0 0 5400 3240" xmlns="http://www.w3.org/2000/svg" xmlns:xlink="http://www.w3.org/1999/xlink">
	<desc>Stata Graph - Graph</desc>
	<rect x="0" y="0" width="5400" height="3240" style="fill:#FFFFFF;stroke:none"/>
	<rect x="0.00" y="0.00" width="5400.00" height="3240.00" style="fill:#FFFFFF"/>
	<rect x="3.24" y="3.24" width="5393.52" height="3233.52" style="fill:none;stroke:#FFFFFF;stroke-width:6.48"/>
	<rect x="71.21" y="71.21" width="1752.47" height="1548.79" style="fill:#FFFFFF"/>
	<rect x="73.37" y="73.37" width="1748.15" height="1544.47" style="fill:none;stroke:#FFFFFF;stroke-width:4.32"/>
	<rect x="486.84" y="146.81" width="1261.24" height="1071.73" style="fill:#FFFFFF"/>
	<rect x="489.00" y="148.97" width="1256.92" height="1067.41" style="fill:none;stroke:#FFFFFF;stroke-width:4.32"/>
	<circle cx="1375.48" cy="616.11" r="14.55" style="fill:#1A85FF"/>
	<circle cx="1375.48" cy="616.11" r="11.31" style="fill:none;stroke:#1A85FF;stroke-width:6.48"/>
	<circle cx="1585.91" cy="699.13" r="14.55" style="fill:#1A85FF"/>
	<circle cx="1585.91" cy="699.13" r="11.31" style="fill:none;stroke:#1A85FF;stroke-width:6.48"/>
	<circle cx="725.46" cy="730.01" r="14.55" style="fill:#1A85FF"/>
	<circle cx="725.46" cy="730.01" r="11.31" style="fill:none;stroke:#1A85FF;stroke-width:6.48"/>
	<circle cx="1126.91" cy="633.99" r="14.55" style="fill:#1A85FF"/>
	<circle cx="1126.91" cy="633.99" r="11.31" style="fill:none;stroke:#1A85FF;stroke-width:6.48"/>
	<circle cx="1069.71" cy="842.23" r="14.55" style="fill:#1A85FF"/>
	<circle cx="1069.71" cy="842.23" r="11.31" style="fill:none;stroke:#1A85FF;stroke-width:6.48"/>
	<circle cx="687.32" cy="466.26" r="14.55" style="fill:#1A85FF"/>
	<circle cx="687.32" cy="466.26" r="11.31" style="fill:none;stroke:#1A85FF;stroke-width:6.48"/>
	<circle cx="649.01" cy="549.28" r="14.55" style="fill:#1A85FF"/>
	<circle cx="649.01" cy="549.28" r="11.31" style="fill:none;stroke:#1A85FF;stroke-width:6.48"/>
	<circle cx="1604.98" cy="992.08" r="14.55" style="fill:#1A85FF"/>
	<circle cx="1604.98" cy="992.08" r="11.31" style="fill:none;stroke:#1A85FF;stroke-width:6.48"/>
	<circle cx="801.90" cy="602.94" r="14.55" style="fill:#1A85FF"/>
	<circle cx="801.90" cy="602.94" r="11.31" style="fill:none;stroke:#1A85FF;stroke-width:6.48"/>
	<circle cx="1260.90" cy="822.82" r="14.55" style="fill:#1A85FF"/>
	<circle cx="1260.90" cy="822.82" r="11.31" style="fill:none;stroke:#1A85FF;stroke-width:6.48"/>
	<circle cx="1184.29" cy="489.04" r="14.55" style="fill:#1A85FF"/>
	<circle cx="1184.29" cy="489.04" r="11.31" style="fill:none;stroke:#1A85FF;stroke-width:6.48"/>
	<circle cx="1031.40" cy="402.81" r="14.55" style="fill:#1A85FF"/>
	<circle cx="1031.40" cy="402.81" r="11.31" style="fill:none;stroke:#1A85FF;stroke-width:6.48"/>
	<circle cx="1681.43" cy="961.03" r="14.55" style="fill:#1A85FF"/>
	<circle cx="1681.43" cy="961.03" r="11.31" style="fill:none;stroke:#1A85FF;stroke-width:6.48"/>
	<circle cx="1624.05" cy="695.76" r="14.55" style="fill:#1A85FF"/>
	<circle cx="1624.05" cy="695.76" r="11.31" style="fill:none;stroke:#1A85FF;stroke-width:6.48"/>
	<circle cx="668.08" cy="397.91" r="14.55" style="fill:#1A85FF"/>
	<circle cx="668.08" cy="397.91" r="11.31" style="fill:none;stroke:#1A85FF;stroke-width:6.48"/>
	<circle cx="1585.91" cy="959.51" r="14.55" style="fill:#1A85FF"/>
	<circle cx="1585.91" cy="959.51" r="11.31" style="fill:none;stroke:#1A85FF;stroke-width:6.48"/>
	<circle cx="1337.34" cy="533.08" r="14.55" style="fill:#1A85FF"/>
	<circle cx="1337.34" cy="533.08" r="11.31" style="fill:none;stroke:#1A85FF;stroke-width:6.48"/>
	<circle cx="1088.78" cy="550.97" r="14.55" style="fill:#1A85FF"/>
	<circle cx="1088.78" cy="550.97" r="11.31" style="fill:none;stroke:#1A85FF;stroke-width:6.48"/>
	<circle cx="1375.48" cy="622.52" r="14.55" style="fill:#1A85FF"/>
	<circle cx="1375.48" cy="622.52" r="11.31" style="fill:none;stroke:#1A85FF;stroke-width:6.48"/>
	<circle cx="534.26" cy="653.40" r="14.55" style="fill:#1A85FF"/>
	<circle cx="534.26" cy="653.40" r="11.31" style="fill:none;stroke:#1A85FF;stroke-width:6.48"/>
	<circle cx="1662.36" cy="956.14" r="14.55" style="fill:#1A85FF"/>
	<circle cx="1662.36" cy="956.14" r="11.31" style="fill:none;stroke:#1A85FF;stroke-width:6.48"/>
	<circle cx="1107.84" cy="881.38" r="14.55" style="fill:#1A85FF"/>
	<circle cx="1107.84" cy="881.38" r="11.31" style="fill:none;stroke:#1A85FF;stroke-width:6.48"/>
	<circle cx="974.03" cy="422.38" r="14.55" style="fill:#1A85FF"/>
	<circle cx="974.03" cy="422.38" r="11.31" style="fill:none;stroke:#1A85FF;stroke-width:6.48"/>
	<circle cx="1126.91" cy="858.60" r="14.55" style="fill:#1A85FF"/>
	<circle cx="1126.91" cy="858.60" r="11.31" style="fill:none;stroke:#1A85FF;stroke-width:6.48"/>
	<circle cx="1279.97" cy="738.11" r="14.55" style="fill:#1A85FF"/>
	<circle cx="1279.97" cy="738.11" r="11.31" style="fill:none;stroke:#1A85FF;stroke-width:6.48"/>
	<circle cx="1624.05" cy="907.37" r="14.55" style="fill:#1A85FF"/>
	<circle cx="1624.05" cy="907.37" r="11.31" style="fill:none;stroke:#1A85FF;stroke-width:6.48"/>
	<line x1="486.84" y1="1218.54" x2="486.84" y2="146.81" style="stroke:#000000;stroke-width:4.32"/>
	<line x1="486.84" y1="1170.96" x2="456.81" y2="1170.96" style="stroke:#000000;stroke-width:4.32"/>
	<text x="441.96" y="1197.22" style="font-family:'Helvetica';font-size:74.93px;fill:#000000" text-anchor="end">0,00</text>
	<line x1="486.84" y1="1008.28" x2="456.81" y2="1008.28" style="stroke:#000000;stroke-width:4.32"/>
	<text x="441.96" y="1034.55" style="font-family:'Helvetica';font-size:74.93px;fill:#000000" text-anchor="end">1,00</text>
	<line x1="486.84" y1="845.44" x2="456.81" y2="845.44" style="stroke:#000000;stroke-width:4.32"/>
	<text x="441.96" y="871.70" style="font-family:'Helvetica';font-size:74.93px;fill:#000000" text-anchor="end">2,00</text>
	<line x1="486.84" y1="682.76" x2="456.81" y2="682.76" style="stroke:#000000;stroke-width:4.32"/>
	<text x="441.96" y="709.03" style="font-family:'Helvetica';font-size:74.93px;fill:#000000" text-anchor="end">3,00</text>
	<line x1="486.84" y1="519.92" x2="456.81" y2="519.92" style="stroke:#000000;stroke-width:4.32"/>
	<text x="441.96" y="546.18" style="font-family:'Helvetica';font-size:74.93px;fill:#000000" text-anchor="end">4,00</text>
	<line x1="486.84" y1="357.24" x2="456.81" y2="357.24" style="stroke:#000000;stroke-width:4.32"/>
	<text x="441.96" y="383.51" style="font-family:'Helvetica';font-size:74.93px;fill:#000000" text-anchor="end">5,00</text>
	<line x1="486.84" y1="194.40" x2="456.81" y2="194.40" style="stroke:#000000;stroke-width:4.32"/>
	<text x="441.96" y="220.67" style="font-family:'Helvetica';font-size:74.93px;fill:#000000" text-anchor="end">6,00</text>
	<text x="214.36" y="682.76" style="font-family:'Helvetica';font-size:74.93px;fill:#000000" transform="rotate(-90 214.36,682.76)" text-anchor="middle">CVF(L)</text>
	<line x1="486.84" y1="1218.54" x2="1748.08" y2="1218.54" style="stroke:#000000;stroke-width:4.32"/>
	<line x1="553.50" y1="1218.54" x2="553.50" y2="1248.58" style="stroke:#000000;stroke-width:4.32"/>
	<text x="553.50" y="1315.79" style="font-family:'Helvetica';font-size:74.93px;fill:#000000" text-anchor="middle">20</text>
	<line x1="935.89" y1="1218.54" x2="935.89" y2="1248.58" style="stroke:#000000;stroke-width:4.32"/>
	<text x="935.89" y="1315.79" style="font-family:'Helvetica';font-size:74.93px;fill:#000000" text-anchor="middle">40</text>
	<line x1="1318.28" y1="1218.54" x2="1318.28" y2="1248.58" style="stroke:#000000;stroke-width:4.32"/>
	<text x="1318.28" y="1315.79" style="font-family:'Helvetica';font-size:74.93px;fill:#000000" text-anchor="middle">60</text>
	<line x1="1700.66" y1="1218.54" x2="1700.66" y2="1248.58" style="stroke:#000000;stroke-width:4.32"/>
	<text x="1700.66" y="1315.79" style="font-family:'Helvetica';font-size:74.93px;fill:#000000" text-anchor="middle">80</text>
	<text x="1117.46" y="1420.93" style="font-family:'Helvetica';font-size:74.93px;fill:#000000" text-anchor="middle">ICARS</text>
	<text x="499.84" y="1513.35" style="font-family:'Helvetica';font-size:59.91px;fill:#000000">Spearman's rho = -0,72; p=0,02</text>
	<rect x="1823.68" y="71.21" width="1752.64" height="1548.79" style="fill:#FFFFFF"/>
	<rect x="1825.84" y="73.37" width="1748.32" height="1544.47" style="fill:none;stroke:#FFFFFF;stroke-width:4.32"/>
	<rect x="2129.96" y="146.81" width="1370.76" height="1071.73" style="fill:#FFFFFF"/>
	<rect x="2132.12" y="148.97" width="1366.44" height="1067.41" style="fill:none;stroke:#FFFFFF;stroke-width:4.32"/>
	<circle cx="3097.58" cy="695.76" r="14.55" style="fill:#1A85FF"/>
	<circle cx="3097.58" cy="695.76" r="11.31" style="fill:none;stroke:#1A85FF;stroke-width:6.48"/>
	<circle cx="3327.58" cy="777.26" r="14.55" style="fill:#1A85FF"/>
	<circle cx="3327.58" cy="777.26" r="11.31" style="fill:none;stroke:#1A85FF;stroke-width:6.48"/>
	<circle cx="2386.46" cy="783.68" r="14.55" style="fill:#1A85FF"/>
	<circle cx="2386.46" cy="783.68" r="11.31" style="fill:none;stroke:#1A85FF;stroke-width:6.48"/>
	<circle cx="2825.72" cy="803.25" r="14.55" style="fill:#1A85FF"/>
	<circle cx="2825.72" cy="803.25" r="11.31" style="fill:none;stroke:#1A85FF;stroke-width:6.48"/>
	<circle cx="2762.94" cy="909.06" r="14.55" style="fill:#1A85FF"/>
	<circle cx="2762.94" cy="909.06" r="11.31" style="fill:none;stroke:#1A85FF;stroke-width:6.48"/>
	<circle cx="2344.78" cy="798.36" r="14.55" style="fill:#1A85FF"/>
	<circle cx="2344.78" cy="798.36" r="11.31" style="fill:none;stroke:#1A85FF;stroke-width:6.48"/>
	<circle cx="2302.93" cy="651.88" r="14.55" style="fill:#1A85FF"/>
	<circle cx="2302.93" cy="651.88" r="11.31" style="fill:none;stroke:#1A85FF;stroke-width:6.48"/>
	<circle cx="3348.51" cy="1016.38" r="14.55" style="fill:#1A85FF"/>
	<circle cx="3348.51" cy="1016.38" r="11.31" style="fill:none;stroke:#1A85FF;stroke-width:6.48"/>
	<circle cx="2470.16" cy="692.55" r="14.55" style="fill:#1A85FF"/>
	<circle cx="2470.16" cy="692.55" r="11.31" style="fill:none;stroke:#1A85FF;stroke-width:6.48"/>
	<circle cx="2972.03" cy="863.49" r="14.55" style="fill:#1A85FF"/>
	<circle cx="2972.03" cy="863.49" r="11.31" style="fill:none;stroke:#1A85FF;stroke-width:6.48"/>
	<circle cx="2888.49" cy="609.53" r="14.55" style="fill:#1A85FF"/>
	<circle cx="2888.49" cy="609.53" r="11.31" style="fill:none;stroke:#1A85FF;stroke-width:6.48"/>
	<circle cx="2721.09" cy="515.19" r="14.55" style="fill:#1A85FF"/>
	<circle cx="2721.09" cy="515.19" r="11.31" style="fill:none;stroke:#1A85FF;stroke-width:6.48"/>
	<circle cx="3432.21" cy="1011.49" r="14.55" style="fill:#1A85FF"/>
	<circle cx="3432.21" cy="1011.49" r="11.31" style="fill:none;stroke:#1A85FF;stroke-width:6.48"/>
	<circle cx="3369.43" cy="739.80" r="14.55" style="fill:#1A85FF"/>
	<circle cx="3369.43" cy="739.80" r="11.31" style="fill:none;stroke:#1A85FF;stroke-width:6.48"/>
	<circle cx="2323.86" cy="537.97" r="14.55" style="fill:#1A85FF"/>
	<circle cx="2323.86" cy="537.97" r="11.31" style="fill:none;stroke:#1A85FF;stroke-width:6.48"/>
	<circle cx="3327.58" cy="985.50" r="14.55" style="fill:#1A85FF"/>
	<circle cx="3327.58" cy="985.50" r="11.31" style="fill:none;stroke:#1A85FF;stroke-width:6.48"/>
	<circle cx="3055.73" cy="642.09" r="14.55" style="fill:#1A85FF"/>
	<circle cx="3055.73" cy="642.09" r="11.31" style="fill:none;stroke:#1A85FF;stroke-width:6.48"/>
	<circle cx="2783.87" cy="632.31" r="14.55" style="fill:#1A85FF"/>
	<circle cx="2783.87" cy="632.31" r="11.31" style="fill:none;stroke:#1A85FF;stroke-width:6.48"/>
	<circle cx="3097.58" cy="710.44" r="14.55" style="fill:#1A85FF"/>
	<circle cx="3097.58" cy="710.44" r="11.31" style="fill:none;stroke:#1A85FF;stroke-width:6.48"/>
	<circle cx="2177.38" cy="743.01" r="14.55" style="fill:#1A85FF"/>
	<circle cx="2177.38" cy="743.01" r="11.31" style="fill:none;stroke:#1A85FF;stroke-width:6.48"/>
	<circle cx="3411.28" cy="965.93" r="14.55" style="fill:#1A85FF"/>
	<circle cx="3411.28" cy="965.93" r="11.31" style="fill:none;stroke:#1A85FF;stroke-width:6.48"/>
	<circle cx="2804.79" cy="964.41" r="14.55" style="fill:#1A85FF"/>
	<circle cx="2804.79" cy="964.41" r="11.31" style="fill:none;stroke:#1A85FF;stroke-width:6.48"/>
	<circle cx="2658.32" cy="575.27" r="14.55" style="fill:#1A85FF"/>
	<circle cx="2658.32" cy="575.27" r="11.31" style="fill:none;stroke:#1A85FF;stroke-width:6.48"/>
	<circle cx="2825.72" cy="886.28" r="14.55" style="fill:#1A85FF"/>
	<circle cx="2825.72" cy="886.28" r="11.31" style="fill:none;stroke:#1A85FF;stroke-width:6.48"/>
	<circle cx="2992.95" cy="848.81" r="14.55" style="fill:#1A85FF"/>
	<circle cx="2992.95" cy="848.81" r="11.31" style="fill:none;stroke:#1A85FF;stroke-width:6.48"/>
	<circle cx="3369.43" cy="962.72" r="14.55" style="fill:#1A85FF"/>
	<circle cx="3369.43" cy="962.72" r="11.31" style="fill:none;stroke:#1A85FF;stroke-width:6.48"/>
	<line x1="2129.96" y1="1218.54" x2="2129.96" y2="146.81" style="stroke:#000000;stroke-width:4.32"/>
	<line x1="2129.96" y1="1170.96" x2="2099.93" y2="1170.96" style="stroke:#000000;stroke-width:4.32"/>
	<text x="2084.91" y="1197.22" style="font-family:'Helvetica';font-size:74.93px;fill:#000000" text-anchor="end">0</text>
	<line x1="2129.96" y1="1008.28" x2="2099.93" y2="1008.28" style="stroke:#000000;stroke-width:4.32"/>
	<text x="2084.91" y="1034.55" style="font-family:'Helvetica';font-size:74.93px;fill:#000000" text-anchor="end">1</text>
	<line x1="2129.96" y1="845.44" x2="2099.93" y2="845.44" style="stroke:#000000;stroke-width:4.32"/>
	<text x="2084.91" y="871.70" style="font-family:'Helvetica';font-size:74.93px;fill:#000000" text-anchor="end">2</text>
	<line x1="2129.96" y1="682.76" x2="2099.93" y2="682.76" style="stroke:#000000;stroke-width:4.32"/>
	<text x="2084.91" y="709.03" style="font-family:'Helvetica';font-size:74.93px;fill:#000000" text-anchor="end">3</text>
	<line x1="2129.96" y1="519.92" x2="2099.93" y2="519.92" style="stroke:#000000;stroke-width:4.32"/>
	<text x="2084.91" y="546.18" style="font-family:'Helvetica';font-size:74.93px;fill:#000000" text-anchor="end">4</text>
	<line x1="2129.96" y1="357.24" x2="2099.93" y2="357.24" style="stroke:#000000;stroke-width:4.32"/>
	<text x="2084.91" y="383.51" style="font-family:'Helvetica';font-size:74.93px;fill:#000000" text-anchor="end">5</text>
	<line x1="2129.96" y1="194.40" x2="2099.93" y2="194.40" style="stroke:#000000;stroke-width:4.32"/>
	<text x="2084.91" y="220.67" style="font-family:'Helvetica';font-size:74.93px;fill:#000000" text-anchor="end">6</text>
	<text x="1966.83" y="682.76" style="font-family:'Helvetica';font-size:74.93px;fill:#000000" transform="rotate(-90 1966.83,682.76)" text-anchor="middle">VEF1 (L)</text>
	<line x1="2129.96" y1="1218.54" x2="3500.72" y2="1218.54" style="stroke:#000000;stroke-width:4.32"/>
	<line x1="2198.48" y1="1218.54" x2="2198.48" y2="1248.58" style="stroke:#000000;stroke-width:4.32"/>
	<text x="2198.48" y="1315.79" style="font-family:'Helvetica';font-size:74.93px;fill:#000000" text-anchor="middle">20</text>
	<line x1="2616.64" y1="1218.54" x2="2616.64" y2="1248.58" style="stroke:#000000;stroke-width:4.32"/>
	<text x="2616.64" y="1315.79" style="font-family:'Helvetica';font-size:74.93px;fill:#000000" text-anchor="middle">40</text>
	<line x1="3034.80" y1="1218.54" x2="3034.80" y2="1248.58" style="stroke:#000000;stroke-width:4.32"/>
	<text x="3034.80" y="1315.79" style="font-family:'Helvetica';font-size:74.93px;fill:#000000" text-anchor="middle">60</text>
	<line x1="3453.13" y1="1218.54" x2="3453.13" y2="1248.58" style="stroke:#000000;stroke-width:4.32"/>
	<text x="3453.13" y="1315.79" style="font-family:'Helvetica';font-size:74.93px;fill:#000000" text-anchor="middle">80</text>
	<text x="2815.26" y="1420.93" style="font-family:'Helvetica';font-size:74.93px;fill:#000000" text-anchor="middle">ICARS</text>
	<text x="2142.96" y="1513.35" style="font-family:'Helvetica';font-size:59.91px;fill:#000000">Spearman's rho = -0,72; p=0,02</text>
	<rect x="3576.32" y="71.21" width="1752.47" height="1548.79" style="fill:#FFFFFF"/>
	<rect x="3578.48" y="73.37" width="1748.15" height="1544.47" style="fill:none;stroke:#FFFFFF;stroke-width:4.32"/>
	<rect x="3970.01" y="146.81" width="1283.18" height="1071.73" style="fill:#FFFFFF"/>
	<rect x="3972.17" y="148.97" width="1278.86" height="1067.41" style="fill:none;stroke:#FFFFFF;stroke-width:4.32"/>
	<circle cx="4874.34" cy="334.13" r="14.55" style="fill:#1A85FF"/>
	<circle cx="4874.34" cy="334.13" r="11.31" style="fill:none;stroke:#1A85FF;stroke-width:6.48"/>
	<circle cx="5088.66" cy="354.71" r="14.55" style="fill:#1A85FF"/>
	<circle cx="5088.66" cy="354.71" r="11.31" style="fill:none;stroke:#1A85FF;stroke-width:6.48"/>
	<circle cx="4212.17" cy="312.69" r="14.55" style="fill:#1A85FF"/>
	<circle cx="4212.17" cy="312.69" r="11.31" style="fill:none;stroke:#1A85FF;stroke-width:6.48"/>
	<circle cx="4621.22" cy="503.04" r="14.55" style="fill:#1A85FF"/>
	<circle cx="4621.22" cy="503.04" r="11.31" style="fill:none;stroke:#1A85FF;stroke-width:6.48"/>
	<circle cx="4562.83" cy="394.71" r="14.55" style="fill:#1A85FF"/>
	<circle cx="4562.83" cy="394.71" r="11.31" style="fill:none;stroke:#1A85FF;stroke-width:6.48"/>
	<circle cx="4173.19" cy="655.43" r="14.55" style="fill:#1A85FF"/>
	<circle cx="4173.19" cy="655.43" r="11.31" style="fill:none;stroke:#1A85FF;stroke-width:6.48"/>
	<circle cx="4134.21" cy="357.58" r="14.55" style="fill:#1A85FF"/>
	<circle cx="4134.21" cy="357.58" r="11.31" style="fill:none;stroke:#1A85FF;stroke-width:6.48"/>
	<circle cx="5108.06" cy="331.26" r="14.55" style="fill:#1A85FF"/>
	<circle cx="5108.06" cy="331.26" r="11.31" style="fill:none;stroke:#1A85FF;stroke-width:6.48"/>
	<circle cx="4290.13" cy="348.81" r="14.55" style="fill:#1A85FF"/>
	<circle cx="4290.13" cy="348.81" r="11.31" style="fill:none;stroke:#1A85FF;stroke-width:6.48"/>
	<circle cx="4757.57" cy="308.81" r="14.55" style="fill:#1A85FF"/>
	<circle cx="4757.57" cy="308.81" r="11.31" style="fill:none;stroke:#1A85FF;stroke-width:6.48"/>
	<circle cx="4679.61" cy="366.36" r="14.55" style="fill:#1A85FF"/>
	<circle cx="4679.61" cy="366.36" r="11.31" style="fill:none;stroke:#1A85FF;stroke-width:6.48"/>
	<circle cx="4523.85" cy="338.01" r="14.55" style="fill:#1A85FF"/>
	<circle cx="4523.85" cy="338.01" r="11.31" style="fill:none;stroke:#1A85FF;stroke-width:6.48"/>
	<circle cx="5186.02" cy="429.81" r="14.55" style="fill:#1A85FF"/>
	<circle cx="5186.02" cy="429.81" r="11.31" style="fill:none;stroke:#1A85FF;stroke-width:6.48"/>
	<circle cx="5127.64" cy="285.36" r="14.55" style="fill:#1A85FF"/>
	<circle cx="5127.64" cy="285.36" r="11.31" style="fill:none;stroke:#1A85FF;stroke-width:6.48"/>
	<circle cx="4153.78" cy="371.25" r="14.55" style="fill:#1A85FF"/>
	<circle cx="4153.78" cy="371.25" r="11.31" style="fill:none;stroke:#1A85FF;stroke-width:6.48"/>
	<circle cx="5088.66" cy="313.71" r="14.55" style="fill:#1A85FF"/>
	<circle cx="5088.66" cy="313.71" r="11.31" style="fill:none;stroke:#1A85FF;stroke-width:6.48"/>
	<circle cx="4835.36" cy="361.46" r="14.55" style="fill:#1A85FF"/>
	<circle cx="4835.36" cy="361.46" r="11.31" style="fill:none;stroke:#1A85FF;stroke-width:6.48"/>
	<circle cx="4582.24" cy="321.47" r="14.55" style="fill:#1A85FF"/>
	<circle cx="4582.24" cy="321.47" r="11.31" style="fill:none;stroke:#1A85FF;stroke-width:6.48"/>
	<circle cx="4874.34" cy="350.66" r="14.55" style="fill:#1A85FF"/>
	<circle cx="4874.34" cy="350.66" r="11.31" style="fill:none;stroke:#1A85FF;stroke-width:6.48"/>
	<circle cx="4017.43" cy="364.33" r="14.55" style="fill:#1A85FF"/>
	<circle cx="4017.43" cy="364.33" r="11.31" style="fill:none;stroke:#1A85FF;stroke-width:6.48"/>
	<circle cx="5166.62" cy="236.42" r="14.55" style="fill:#1A85FF"/>
	<circle cx="5166.62" cy="236.42" r="11.31" style="fill:none;stroke:#1A85FF;stroke-width:6.48"/>
	<circle cx="4601.64" cy="470.81" r="14.55" style="fill:#1A85FF"/>
	<circle cx="4601.64" cy="470.81" r="11.31" style="fill:none;stroke:#1A85FF;stroke-width:6.48"/>
	<circle cx="4465.29" cy="393.69" r="14.55" style="fill:#1A85FF"/>
	<circle cx="4465.29" cy="393.69" r="11.31" style="fill:none;stroke:#1A85FF;stroke-width:6.48"/>
	<circle cx="4621.22" cy="283.33" r="14.55" style="fill:#1A85FF"/>
	<circle cx="4621.22" cy="283.33" r="11.31" style="fill:none;stroke:#1A85FF;stroke-width:6.48"/>
	<circle cx="4776.98" cy="444.49" r="14.55" style="fill:#1A85FF"/>
	<circle cx="4776.98" cy="444.49" r="11.31" style="fill:none;stroke:#1A85FF;stroke-width:6.48"/>
	<circle cx="5127.64" cy="396.56" r="14.55" style="fill:#1A85FF"/>
	<circle cx="5127.64" cy="396.56" r="11.31" style="fill:none;stroke:#1A85FF;stroke-width:6.48"/>
	<line x1="3970.01" y1="1218.54" x2="3970.01" y2="146.81" style="stroke:#000000;stroke-width:4.32"/>
	<line x1="3970.01" y1="1170.96" x2="3939.98" y2="1170.96" style="stroke:#000000;stroke-width:4.32"/>
	<text x="3924.96" y="1197.22" style="font-family:'Helvetica';font-size:74.93px;fill:#000000" text-anchor="end">0</text>
	<line x1="3970.01" y1="1073.25" x2="3939.98" y2="1073.25" style="stroke:#000000;stroke-width:4.32"/>
	<text x="3924.96" y="1099.52" style="font-family:'Helvetica';font-size:74.93px;fill:#000000" text-anchor="end">10</text>
	<line x1="3970.01" y1="975.71" x2="3939.98" y2="975.71" style="stroke:#000000;stroke-width:4.32"/>
	<text x="3924.96" y="1001.98" style="font-family:'Helvetica';font-size:74.93px;fill:#000000" text-anchor="end">20</text>
	<line x1="3970.01" y1="878.01" x2="3939.98" y2="878.01" style="stroke:#000000;stroke-width:4.32"/>
	<text x="3924.96" y="904.27" style="font-family:'Helvetica';font-size:74.93px;fill:#000000" text-anchor="end">30</text>
	<line x1="3970.01" y1="780.30" x2="3939.98" y2="780.30" style="stroke:#000000;stroke-width:4.32"/>
	<text x="3924.96" y="806.57" style="font-family:'Helvetica';font-size:74.93px;fill:#000000" text-anchor="end">40</text>
	<line x1="3970.01" y1="682.76" x2="3939.98" y2="682.76" style="stroke:#000000;stroke-width:4.32"/>
	<text x="3924.96" y="709.03" style="font-family:'Helvetica';font-size:74.93px;fill:#000000" text-anchor="end">50</text>
	<line x1="3970.01" y1="585.06" x2="3939.98" y2="585.06" style="stroke:#000000;stroke-width:4.32"/>
	<text x="3924.96" y="611.32" style="font-family:'Helvetica';font-size:74.93px;fill:#000000" text-anchor="end">60</text>
	<line x1="3970.01" y1="487.35" x2="3939.98" y2="487.35" style="stroke:#000000;stroke-width:4.32"/>
	<text x="3924.96" y="513.62" style="font-family:'Helvetica';font-size:74.93px;fill:#000000" text-anchor="end">70</text>
	<line x1="3970.01" y1="389.64" x2="3939.98" y2="389.64" style="stroke:#000000;stroke-width:4.32"/>
	<text x="3924.96" y="415.91" style="font-family:'Helvetica';font-size:74.93px;fill:#000000" text-anchor="end">80</text>
	<line x1="3970.01" y1="292.11" x2="3939.98" y2="292.11" style="stroke:#000000;stroke-width:4.32"/>
	<text x="3924.96" y="318.37" style="font-family:'Helvetica';font-size:74.93px;fill:#000000" text-anchor="end">90</text>
	<line x1="3970.01" y1="194.40" x2="3939.98" y2="194.40" style="stroke:#000000;stroke-width:4.32"/>
	<text x="3924.96" y="220.67" style="font-family:'Helvetica';font-size:74.93px;fill:#000000" text-anchor="end">100</text>
	<text x="3719.30" y="682.76" style="font-family:'Helvetica';font-size:74.93px;fill:#000000" transform="rotate(-90 3719.30,682.76)" text-anchor="middle">VEF1/CVF (L)</text>
	<line x1="3970.01" y1="1218.54" x2="5253.19" y2="1218.54" style="stroke:#000000;stroke-width:4.32"/>
	<line x1="4037.01" y1="1218.54" x2="4037.01" y2="1248.58" style="stroke:#000000;stroke-width:4.32"/>
	<text x="4037.01" y="1315.79" style="font-family:'Helvetica';font-size:74.93px;fill:#000000" text-anchor="middle">20</text>
	<line x1="4426.48" y1="1218.54" x2="4426.48" y2="1248.58" style="stroke:#000000;stroke-width:4.32"/>
	<text x="4426.48" y="1315.79" style="font-family:'Helvetica';font-size:74.93px;fill:#000000" text-anchor="middle">40</text>
	<line x1="4816.13" y1="1218.54" x2="4816.13" y2="1248.58" style="stroke:#000000;stroke-width:4.32"/>
	<text x="4816.13" y="1315.79" style="font-family:'Helvetica';font-size:74.93px;fill:#000000" text-anchor="middle">60</text>
	<line x1="5205.60" y1="1218.54" x2="5205.60" y2="1248.58" style="stroke:#000000;stroke-width:4.32"/>
	<text x="5205.60" y="1315.79" style="font-family:'Helvetica';font-size:74.93px;fill:#000000" text-anchor="middle">80</text>
	<text x="4611.60" y="1420.93" style="font-family:'Helvetica';font-size:74.93px;fill:#000000" text-anchor="middle">ICARS</text>
	<text x="3982.84" y="1513.35" style="font-family:'Helvetica';font-size:59.91px;fill:#000000">Spearman's rho = -0,35; p=0,30</text>
	<rect x="71.21" y="1620.00" width="1752.47" height="1548.79" style="fill:#FFFFFF"/>
	<rect x="73.37" y="1622.16" width="1748.15" height="1544.47" style="fill:none;stroke:#FFFFFF;stroke-width:4.32"/>
	<rect x="421.20" y="1695.60" width="1326.88" height="1071.56" style="fill:#FFFFFF"/>
	<rect x="423.36" y="1697.76" width="1322.56" height="1067.24" style="fill:none;stroke:#FFFFFF;stroke-width:4.32"/>
	<circle cx="1357.26" cy="1961.21" r="14.55" style="fill:#1A85FF"/>
	<circle cx="1357.26" cy="1961.21" r="11.31" style="fill:none;stroke:#1A85FF;stroke-width:6.48"/>
	<circle cx="1579.33" cy="2399.46" r="14.55" style="fill:#1A85FF"/>
	<circle cx="1579.33" cy="2399.46" r="11.31" style="fill:none;stroke:#1A85FF;stroke-width:6.48"/>
	<circle cx="670.61" cy="2242.18" r="14.55" style="fill:#1A85FF"/>
	<circle cx="670.61" cy="2242.18" r="11.31" style="fill:none;stroke:#1A85FF;stroke-width:6.48"/>
	<circle cx="1094.68" cy="2448.56" r="14.55" style="fill:#1A85FF"/>
	<circle cx="1094.68" cy="2448.56" r="11.31" style="fill:none;stroke:#1A85FF;stroke-width:6.48"/>
	<circle cx="1034.10" cy="2475.56" r="14.55" style="fill:#1A85FF"/>
	<circle cx="1034.10" cy="2475.56" r="11.31" style="fill:none;stroke:#1A85FF;stroke-width:6.48"/>
	<circle cx="630.28" cy="2480.46" r="14.55" style="fill:#1A85FF"/>
	<circle cx="630.28" cy="2480.46" r="11.31" style="fill:none;stroke:#1A85FF;stroke-width:6.48"/>
	<circle cx="589.78" cy="2253.66" r="14.55" style="fill:#1A85FF"/>
	<circle cx="589.78" cy="2253.66" r="11.31" style="fill:none;stroke:#1A85FF;stroke-width:6.48"/>
	<circle cx="1599.58" cy="2516.23" r="14.55" style="fill:#1A85FF"/>
	<circle cx="1599.58" cy="2516.23" r="11.31" style="fill:none;stroke:#1A85FF;stroke-width:6.48"/>
	<circle cx="751.44" cy="2257.54" r="14.55" style="fill:#1A85FF"/>
	<circle cx="751.44" cy="2257.54" r="11.31" style="fill:none;stroke:#1A85FF;stroke-width:6.48"/>
	<circle cx="1236.09" cy="2281.67" r="14.55" style="fill:#1A85FF"/>
	<circle cx="1236.09" cy="2281.67" r="11.31" style="fill:none;stroke:#1A85FF;stroke-width:6.48"/>
	<circle cx="1155.26" cy="2266.31" r="14.55" style="fill:#1A85FF"/>
	<circle cx="1155.26" cy="2266.31" r="11.31" style="fill:none;stroke:#1A85FF;stroke-width:6.48"/>
	<circle cx="993.77" cy="1999.01" r="14.55" style="fill:#1A85FF"/>
	<circle cx="993.77" cy="1999.01" r="11.31" style="fill:none;stroke:#1A85FF;stroke-width:6.48"/>
	<circle cx="1680.41" cy="2546.10" r="14.55" style="fill:#1A85FF"/>
	<circle cx="1680.41" cy="2546.10" r="11.31" style="fill:none;stroke:#1A85FF;stroke-width:6.48"/>
	<circle cx="1619.83" cy="2302.93" r="14.55" style="fill:#1A85FF"/>
	<circle cx="1619.83" cy="2302.93" r="11.31" style="fill:none;stroke:#1A85FF;stroke-width:6.48"/>
	<circle cx="610.03" cy="1985.34" r="14.55" style="fill:#1A85FF"/>
	<circle cx="610.03" cy="1985.34" r="11.31" style="fill:none;stroke:#1A85FF;stroke-width:6.48"/>
	<circle cx="1579.33" cy="2475.56" r="14.55" style="fill:#1A85FF"/>
	<circle cx="1579.33" cy="2475.56" r="11.31" style="fill:none;stroke:#1A85FF;stroke-width:6.48"/>
	<circle cx="1316.93" cy="2105.16" r="14.55" style="fill:#1A85FF"/>
	<circle cx="1316.93" cy="2105.16" r="11.31" style="fill:none;stroke:#1A85FF;stroke-width:6.48"/>
	<circle cx="1054.35" cy="2032.76" r="14.55" style="fill:#1A85FF"/>
	<circle cx="1054.35" cy="2032.76" r="11.31" style="fill:none;stroke:#1A85FF;stroke-width:6.48"/>
	<circle cx="1357.26" cy="2212.14" r="14.55" style="fill:#1A85FF"/>
	<circle cx="1357.26" cy="2212.14" r="11.31" style="fill:none;stroke:#1A85FF;stroke-width:6.48"/>
	<circle cx="468.62" cy="2276.78" r="14.55" style="fill:#1A85FF"/>
	<circle cx="468.62" cy="2276.78" r="11.31" style="fill:none;stroke:#1A85FF;stroke-width:6.48"/>
	<circle cx="1660.16" cy="2459.19" r="14.55" style="fill:#1A85FF"/>
	<circle cx="1660.16" cy="2459.19" r="11.31" style="fill:none;stroke:#1A85FF;stroke-width:6.48"/>
	<circle cx="1074.60" cy="2457.34" r="14.55" style="fill:#1A85FF"/>
	<circle cx="1074.60" cy="2457.34" r="11.31" style="fill:none;stroke:#1A85FF;stroke-width:6.48"/>
	<circle cx="933.19" cy="1743.19" r="14.55" style="fill:#1A85FF"/>
	<circle cx="933.19" cy="1743.19" r="11.31" style="fill:none;stroke:#1A85FF;stroke-width:6.48"/>
	<circle cx="1094.68" cy="2490.07" r="14.55" style="fill:#1A85FF"/>
	<circle cx="1094.68" cy="2490.07" r="11.31" style="fill:none;stroke:#1A85FF;stroke-width:6.48"/>
	<circle cx="1256.34" cy="2422.57" r="14.55" style="fill:#1A85FF"/>
	<circle cx="1256.34" cy="2422.57" r="11.31" style="fill:none;stroke:#1A85FF;stroke-width:6.48"/>
	<circle cx="1619.83" cy="2515.22" r="14.55" style="fill:#1A85FF"/>
	<circle cx="1619.83" cy="2515.22" r="11.31" style="fill:none;stroke:#1A85FF;stroke-width:6.48"/>
	<line x1="421.20" y1="2767.16" x2="421.20" y2="1695.60" style="stroke:#000000;stroke-width:4.32"/>
	<line x1="421.20" y1="2719.74" x2="391.33" y2="2719.74" style="stroke:#000000;stroke-width:4.32"/>
	<text x="376.31" y="2746.01" style="font-family:'Helvetica';font-size:74.93px;fill:#000000" text-anchor="end">0</text>
	<line x1="421.20" y1="2623.22" x2="391.33" y2="2623.22" style="stroke:#000000;stroke-width:4.32"/>
	<text x="376.31" y="2649.48" style="font-family:'Helvetica';font-size:74.93px;fill:#000000" text-anchor="end">1</text>
	<line x1="421.20" y1="2526.69" x2="391.33" y2="2526.69" style="stroke:#000000;stroke-width:4.32"/>
	<text x="376.31" y="2552.96" style="font-family:'Helvetica';font-size:74.93px;fill:#000000" text-anchor="end">2</text>
	<line x1="421.20" y1="2430.17" x2="391.33" y2="2430.17" style="stroke:#000000;stroke-width:4.32"/>
	<text x="376.31" y="2456.43" style="font-family:'Helvetica';font-size:74.93px;fill:#000000" text-anchor="end">3</text>
	<line x1="421.20" y1="2333.64" x2="391.33" y2="2333.64" style="stroke:#000000;stroke-width:4.32"/>
	<text x="376.31" y="2359.91" style="font-family:'Helvetica';font-size:74.93px;fill:#000000" text-anchor="end">4</text>
	<line x1="421.20" y1="2237.12" x2="391.33" y2="2237.12" style="stroke:#000000;stroke-width:4.32"/>
	<text x="376.31" y="2263.38" style="font-family:'Helvetica';font-size:74.93px;fill:#000000" text-anchor="end">5</text>
	<line x1="421.20" y1="2140.76" x2="391.33" y2="2140.76" style="stroke:#000000;stroke-width:4.32"/>
	<text x="376.31" y="2167.03" style="font-family:'Helvetica';font-size:74.93px;fill:#000000" text-anchor="end">6</text>
	<line x1="421.20" y1="2044.24" x2="391.33" y2="2044.24" style="stroke:#000000;stroke-width:4.32"/>
	<text x="376.31" y="2070.50" style="font-family:'Helvetica';font-size:74.93px;fill:#000000" text-anchor="end">7</text>
	<line x1="421.20" y1="1947.71" x2="391.33" y2="1947.71" style="stroke:#000000;stroke-width:4.32"/>
	<text x="376.31" y="1973.98" style="font-family:'Helvetica';font-size:74.93px;fill:#000000" text-anchor="end">8</text>
	<line x1="421.20" y1="1851.19" x2="391.33" y2="1851.19" style="stroke:#000000;stroke-width:4.32"/>
	<text x="376.31" y="1877.45" style="font-family:'Helvetica';font-size:74.93px;fill:#000000" text-anchor="end">9</text>
	<line x1="421.20" y1="1754.66" x2="391.33" y2="1754.66" style="stroke:#000000;stroke-width:4.32"/>
	<text x="376.31" y="1780.93" style="font-family:'Helvetica';font-size:74.93px;fill:#000000" text-anchor="end">10</text>
	<text x="214.36" y="2231.38" style="font-family:'Helvetica';font-size:74.93px;fill:#000000" transform="rotate(-90 214.36,2231.38)" text-anchor="middle">PFE (L)</text>
	<line x1="421.20" y1="2767.16" x2="1748.08" y2="2767.16" style="stroke:#000000;stroke-width:4.32"/>
	<line x1="489.04" y1="2767.16" x2="489.04" y2="2797.20" style="stroke:#000000;stroke-width:4.32"/>
	<text x="489.04" y="2864.58" style="font-family:'Helvetica';font-size:74.93px;fill:#000000" text-anchor="middle">20</text>
	<line x1="892.86" y1="2767.16" x2="892.86" y2="2797.20" style="stroke:#000000;stroke-width:4.32"/>
	<text x="892.86" y="2864.58" style="font-family:'Helvetica';font-size:74.93px;fill:#000000" text-anchor="middle">40</text>
	<line x1="1296.68" y1="2767.16" x2="1296.68" y2="2797.20" style="stroke:#000000;stroke-width:4.32"/>
	<text x="1296.68" y="2864.58" style="font-family:'Helvetica';font-size:74.93px;fill:#000000" text-anchor="middle">60</text>
	<line x1="1700.66" y1="2767.16" x2="1700.66" y2="2797.20" style="stroke:#000000;stroke-width:4.32"/>
	<text x="1700.66" y="2864.58" style="font-family:'Helvetica';font-size:74.93px;fill:#000000" text-anchor="middle">80</text>
	<text x="1084.72" y="2969.71" style="font-family:'Helvetica';font-size:74.93px;fill:#000000" text-anchor="middle">ICARS</text>
	<text x="434.19" y="3062.14" style="font-family:'Helvetica';font-size:59.91px;fill:#000000">Spearman's rho = -0,56; p=0,09</text>
	<rect x="1823.68" y="1620.00" width="1752.64" height="1548.79" style="fill:#FFFFFF"/>
	<rect x="1825.84" y="1622.16" width="1748.32" height="1544.47" style="fill:none;stroke:#FFFFFF;stroke-width:4.32"/>
	<rect x="2217.54" y="1695.60" width="1283.18" height="1071.56" style="fill:#FFFFFF"/>
	<rect x="2219.70" y="1697.76" width="1278.86" height="1067.24" style="fill:none;stroke:#FFFFFF;stroke-width:4.32"/>
	<circle cx="3121.88" cy="2159.16" r="14.55" style="fill:#1A85FF"/>
	<circle cx="3121.88" cy="2159.16" r="11.31" style="fill:none;stroke:#1A85FF;stroke-width:6.48"/>
	<circle cx="3336.19" cy="2182.28" r="14.55" style="fill:#1A85FF"/>
	<circle cx="3336.19" cy="2182.28" r="11.31" style="fill:none;stroke:#1A85FF;stroke-width:6.48"/>
	<circle cx="2459.70" cy="2102.46" r="14.55" style="fill:#1A85FF"/>
	<circle cx="2459.70" cy="2102.46" r="11.31" style="fill:none;stroke:#1A85FF;stroke-width:6.48"/>
	<circle cx="2868.75" cy="2188.52" r="14.55" style="fill:#1A85FF"/>
	<circle cx="2868.75" cy="2188.52" r="11.31" style="fill:none;stroke:#1A85FF;stroke-width:6.48"/>
	<circle cx="2810.36" cy="2143.97" r="14.55" style="fill:#1A85FF"/>
	<circle cx="2810.36" cy="2143.97" r="11.31" style="fill:none;stroke:#1A85FF;stroke-width:6.48"/>
	<circle cx="2420.72" cy="1957.84" r="14.55" style="fill:#1A85FF"/>
	<circle cx="2420.72" cy="1957.84" r="11.31" style="fill:none;stroke:#1A85FF;stroke-width:6.48"/>
	<circle cx="2381.74" cy="2096.04" r="14.55" style="fill:#1A85FF"/>
	<circle cx="2381.74" cy="2096.04" r="11.31" style="fill:none;stroke:#1A85FF;stroke-width:6.48"/>
	<circle cx="3355.59" cy="2236.44" r="14.55" style="fill:#1A85FF"/>
	<circle cx="3355.59" cy="2236.44" r="11.31" style="fill:none;stroke:#1A85FF;stroke-width:6.48"/>
	<circle cx="2537.66" cy="2035.29" r="14.55" style="fill:#1A85FF"/>
	<circle cx="2537.66" cy="2035.29" r="11.31" style="fill:none;stroke:#1A85FF;stroke-width:6.48"/>
	<circle cx="3005.10" cy="2175.86" r="14.55" style="fill:#1A85FF"/>
	<circle cx="3005.10" cy="2175.86" r="11.31" style="fill:none;stroke:#1A85FF;stroke-width:6.48"/>
	<circle cx="2927.14" cy="1866.54" r="14.55" style="fill:#1A85FF"/>
	<circle cx="2927.14" cy="1866.54" r="11.31" style="fill:none;stroke:#1A85FF;stroke-width:6.48"/>
	<circle cx="2771.38" cy="2102.46" r="14.55" style="fill:#1A85FF"/>
	<circle cx="2771.38" cy="2102.46" r="11.31" style="fill:none;stroke:#1A85FF;stroke-width:6.48"/>
	<circle cx="3433.56" cy="2105.66" r="14.55" style="fill:#1A85FF"/>
	<circle cx="3433.56" cy="2105.66" r="11.31" style="fill:none;stroke:#1A85FF;stroke-width:6.48"/>
	<circle cx="3375.17" cy="2100.26" r="14.55" style="fill:#1A85FF"/>
	<circle cx="3375.17" cy="2100.26" r="11.31" style="fill:none;stroke:#1A85FF;stroke-width:6.48"/>
	<circle cx="2401.31" cy="1913.46" r="14.55" style="fill:#1A85FF"/>
	<circle cx="2401.31" cy="1913.46" r="11.31" style="fill:none;stroke:#1A85FF;stroke-width:6.48"/>
	<circle cx="3336.19" cy="2220.41" r="14.55" style="fill:#1A85FF"/>
	<circle cx="3336.19" cy="2220.41" r="11.31" style="fill:none;stroke:#1A85FF;stroke-width:6.48"/>
	<circle cx="3082.89" cy="2079.51" r="14.55" style="fill:#1A85FF"/>
	<circle cx="3082.89" cy="2079.51" r="11.31" style="fill:none;stroke:#1A85FF;stroke-width:6.48"/>
	<circle cx="2829.77" cy="1960.20" r="14.55" style="fill:#1A85FF"/>
	<circle cx="2829.77" cy="1960.20" r="11.31" style="fill:none;stroke:#1A85FF;stroke-width:6.48"/>
	<circle cx="3121.88" cy="1913.96" r="14.55" style="fill:#1A85FF"/>
	<circle cx="3121.88" cy="1913.96" r="11.31" style="fill:none;stroke:#1A85FF;stroke-width:6.48"/>
	<circle cx="2264.96" cy="2121.53" r="14.55" style="fill:#1A85FF"/>
	<circle cx="2264.96" cy="2121.53" r="11.31" style="fill:none;stroke:#1A85FF;stroke-width:6.48"/>
	<circle cx="3414.15" cy="2191.73" r="14.55" style="fill:#1A85FF"/>
	<circle cx="3414.15" cy="2191.73" r="11.31" style="fill:none;stroke:#1A85FF;stroke-width:6.48"/>
	<circle cx="2849.18" cy="2220.41" r="14.55" style="fill:#1A85FF"/>
	<circle cx="2849.18" cy="2220.41" r="11.31" style="fill:none;stroke:#1A85FF;stroke-width:6.48"/>
	<circle cx="2712.83" cy="1969.65" r="14.55" style="fill:#1A85FF"/>
	<circle cx="2712.83" cy="1969.65" r="11.31" style="fill:none;stroke:#1A85FF;stroke-width:6.48"/>
	<circle cx="2868.75" cy="2198.14" r="14.55" style="fill:#1A85FF"/>
	<circle cx="2868.75" cy="2198.14" r="11.31" style="fill:none;stroke:#1A85FF;stroke-width:6.48"/>
	<circle cx="3024.51" cy="1967.63" r="14.55" style="fill:#1A85FF"/>
	<circle cx="3024.51" cy="1967.63" r="11.31" style="fill:none;stroke:#1A85FF;stroke-width:6.48"/>
	<circle cx="3375.17" cy="2175.86" r="14.55" style="fill:#1A85FF"/>
	<circle cx="3375.17" cy="2175.86" r="11.31" style="fill:none;stroke:#1A85FF;stroke-width:6.48"/>
	<line x1="2217.54" y1="2767.16" x2="2217.54" y2="1695.60" style="stroke:#000000;stroke-width:4.32"/>
	<line x1="2217.54" y1="2719.74" x2="2187.51" y2="2719.74" style="stroke:#000000;stroke-width:4.32"/>
	<text x="2172.49" y="2746.01" style="font-family:'Helvetica';font-size:74.93px;fill:#000000" text-anchor="end">0</text>
	<line x1="2217.54" y1="2556.90" x2="2187.51" y2="2556.90" style="stroke:#000000;stroke-width:4.32"/>
	<text x="2172.49" y="2583.17" style="font-family:'Helvetica';font-size:74.93px;fill:#000000" text-anchor="end">25</text>
	<line x1="2217.54" y1="2394.23" x2="2187.51" y2="2394.23" style="stroke:#000000;stroke-width:4.32"/>
	<text x="2172.49" y="2420.49" style="font-family:'Helvetica';font-size:74.93px;fill:#000000" text-anchor="end">50</text>
	<line x1="2217.54" y1="2231.38" x2="2187.51" y2="2231.38" style="stroke:#000000;stroke-width:4.32"/>
	<text x="2172.49" y="2257.65" style="font-family:'Helvetica';font-size:74.93px;fill:#000000" text-anchor="end">75</text>
	<line x1="2217.54" y1="2068.71" x2="2187.51" y2="2068.71" style="stroke:#000000;stroke-width:4.32"/>
	<text x="2172.49" y="2094.97" style="font-family:'Helvetica';font-size:74.93px;fill:#000000" text-anchor="end">100</text>
	<line x1="2217.54" y1="1905.86" x2="2187.51" y2="1905.86" style="stroke:#000000;stroke-width:4.32"/>
	<text x="2172.49" y="1932.13" style="font-family:'Helvetica';font-size:74.93px;fill:#000000" text-anchor="end">125</text>
	<line x1="2217.54" y1="1743.19" x2="2187.51" y2="1743.19" style="stroke:#000000;stroke-width:4.32"/>
	<text x="2172.49" y="1769.45" style="font-family:'Helvetica';font-size:74.93px;fill:#000000" text-anchor="end">150</text>
	<text x="1966.83" y="2231.38" style="font-family:'Helvetica';font-size:74.93px;fill:#000000" transform="rotate(-90 1966.83,2231.38)" text-anchor="middle">Pi máx.</text>
	<line x1="2217.54" y1="2767.16" x2="3500.72" y2="2767.16" style="stroke:#000000;stroke-width:4.32"/>
	<line x1="2284.54" y1="2767.16" x2="2284.54" y2="2797.20" style="stroke:#000000;stroke-width:4.32"/>
	<text x="2284.54" y="2864.58" style="font-family:'Helvetica';font-size:74.93px;fill:#000000" text-anchor="middle">20</text>
	<line x1="2674.01" y1="2767.16" x2="2674.01" y2="2797.20" style="stroke:#000000;stroke-width:4.32"/>
	<text x="2674.01" y="2864.58" style="font-family:'Helvetica';font-size:74.93px;fill:#000000" text-anchor="middle">40</text>
	<line x1="3063.66" y1="2767.16" x2="3063.66" y2="2797.20" style="stroke:#000000;stroke-width:4.32"/>
	<text x="3063.66" y="2864.58" style="font-family:'Helvetica';font-size:74.93px;fill:#000000" text-anchor="middle">60</text>
	<line x1="3453.13" y1="2767.16" x2="3453.13" y2="2797.20" style="stroke:#000000;stroke-width:4.32"/>
	<text x="3453.13" y="2864.58" style="font-family:'Helvetica';font-size:74.93px;fill:#000000" text-anchor="middle">80</text>
	<text x="2859.13" y="2969.71" style="font-family:'Helvetica';font-size:74.93px;fill:#000000" text-anchor="middle">ICARS</text>
	<text x="2230.37" y="3062.14" style="font-family:'Helvetica';font-size:59.91px;fill:#000000">Spearman's rho = -0,32; p=0,35</text>
	<rect x="3576.32" y="1620.00" width="1752.47" height="1548.79" style="fill:#FFFFFF"/>
	<rect x="3578.48" y="1622.16" width="1748.15" height="1544.47" style="fill:none;stroke:#FFFFFF;stroke-width:4.32"/>
	<rect x="3970.01" y="1695.60" width="1283.18" height="1071.56" style="fill:#FFFFFF"/>
	<rect x="3972.17" y="1697.76" width="1278.86" height="1067.24" style="fill:none;stroke:#FFFFFF;stroke-width:4.32"/>
	<circle cx="4874.34" cy="2426.79" r="14.55" style="fill:#1A85FF"/>
	<circle cx="4874.34" cy="2426.79" r="11.31" style="fill:none;stroke:#1A85FF;stroke-width:6.48"/>
	<circle cx="5088.66" cy="2537.49" r="14.55" style="fill:#1A85FF"/>
	<circle cx="5088.66" cy="2537.49" r="11.31" style="fill:none;stroke:#1A85FF;stroke-width:6.48"/>
	<circle cx="4212.17" cy="2185.99" r="14.55" style="fill:#1A85FF"/>
	<circle cx="4212.17" cy="2185.99" r="11.31" style="fill:none;stroke:#1A85FF;stroke-width:6.48"/>
	<circle cx="4621.22" cy="2465.94" r="14.55" style="fill:#1A85FF"/>
	<circle cx="4621.22" cy="2465.94" r="11.31" style="fill:none;stroke:#1A85FF;stroke-width:6.48"/>
	<circle cx="4562.83" cy="2524.50" r="14.55" style="fill:#1A85FF"/>
	<circle cx="4562.83" cy="2524.50" r="11.31" style="fill:none;stroke:#1A85FF;stroke-width:6.48"/>
	<circle cx="4134.21" cy="2433.38" r="14.55" style="fill:#1A85FF"/>
	<circle cx="4134.21" cy="2433.38" r="11.31" style="fill:none;stroke:#1A85FF;stroke-width:6.48"/>
	<circle cx="4290.13" cy="2394.23" r="14.55" style="fill:#1A85FF"/>
	<circle cx="4290.13" cy="2394.23" r="11.31" style="fill:none;stroke:#1A85FF;stroke-width:6.48"/>
	<circle cx="4757.57" cy="2342.25" r="14.55" style="fill:#1A85FF"/>
	<circle cx="4757.57" cy="2342.25" r="11.31" style="fill:none;stroke:#1A85FF;stroke-width:6.48"/>
	<circle cx="4679.61" cy="2133.84" r="14.55" style="fill:#1A85FF"/>
	<circle cx="4679.61" cy="2133.84" r="11.31" style="fill:none;stroke:#1A85FF;stroke-width:6.48"/>
	<circle cx="4523.85" cy="2264.12" r="14.55" style="fill:#1A85FF"/>
	<circle cx="4523.85" cy="2264.12" r="11.31" style="fill:none;stroke:#1A85FF;stroke-width:6.48"/>
	<circle cx="5186.02" cy="2635.20" r="14.55" style="fill:#1A85FF"/>
	<circle cx="5186.02" cy="2635.20" r="11.31" style="fill:none;stroke:#1A85FF;stroke-width:6.48"/>
	<circle cx="4153.78" cy="2426.79" r="14.55" style="fill:#1A85FF"/>
	<circle cx="4153.78" cy="2426.79" r="11.31" style="fill:none;stroke:#1A85FF;stroke-width:6.48"/>
	<circle cx="5088.66" cy="2433.38" r="14.55" style="fill:#1A85FF"/>
	<circle cx="5088.66" cy="2433.38" r="11.31" style="fill:none;stroke:#1A85FF;stroke-width:6.48"/>
	<circle cx="4835.36" cy="2296.52" r="14.55" style="fill:#1A85FF"/>
	<circle cx="4835.36" cy="2296.52" r="11.31" style="fill:none;stroke:#1A85FF;stroke-width:6.48"/>
	<circle cx="4582.24" cy="2439.79" r="14.55" style="fill:#1A85FF"/>
	<circle cx="4582.24" cy="2439.79" r="11.31" style="fill:none;stroke:#1A85FF;stroke-width:6.48"/>
	<circle cx="4874.34" cy="2517.92" r="14.55" style="fill:#1A85FF"/>
	<circle cx="4874.34" cy="2517.92" r="11.31" style="fill:none;stroke:#1A85FF;stroke-width:6.48"/>
	<circle cx="4017.43" cy="2303.10" r="14.55" style="fill:#1A85FF"/>
	<circle cx="4017.43" cy="2303.10" r="11.31" style="fill:none;stroke:#1A85FF;stroke-width:6.48"/>
	<circle cx="4601.64" cy="2426.79" r="14.55" style="fill:#1A85FF"/>
	<circle cx="4601.64" cy="2426.79" r="11.31" style="fill:none;stroke:#1A85FF;stroke-width:6.48"/>
	<circle cx="4465.29" cy="2342.25" r="14.55" style="fill:#1A85FF"/>
	<circle cx="4465.29" cy="2342.25" r="11.31" style="fill:none;stroke:#1A85FF;stroke-width:6.48"/>
	<circle cx="4621.22" cy="2211.98" r="14.55" style="fill:#1A85FF"/>
	<circle cx="4621.22" cy="2211.98" r="11.31" style="fill:none;stroke:#1A85FF;stroke-width:6.48"/>
	<circle cx="4776.98" cy="2524.50" r="14.55" style="fill:#1A85FF"/>
	<circle cx="4776.98" cy="2524.50" r="11.31" style="fill:none;stroke:#1A85FF;stroke-width:6.48"/>
	<circle cx="5127.64" cy="2465.94" r="14.55" style="fill:#1A85FF"/>
	<circle cx="5127.64" cy="2465.94" r="11.31" style="fill:none;stroke:#1A85FF;stroke-width:6.48"/>
	<line x1="3970.01" y1="2767.16" x2="3970.01" y2="1695.60" style="stroke:#000000;stroke-width:4.32"/>
	<line x1="3970.01" y1="2719.74" x2="3939.98" y2="2719.74" style="stroke:#000000;stroke-width:4.32"/>
	<text x="3924.96" y="2746.01" style="font-family:'Helvetica';font-size:74.93px;fill:#000000" text-anchor="end">0</text>
	<line x1="3970.01" y1="2556.90" x2="3939.98" y2="2556.90" style="stroke:#000000;stroke-width:4.32"/>
	<text x="3924.96" y="2583.17" style="font-family:'Helvetica';font-size:74.93px;fill:#000000" text-anchor="end">25</text>
	<line x1="3970.01" y1="2394.23" x2="3939.98" y2="2394.23" style="stroke:#000000;stroke-width:4.32"/>
	<text x="3924.96" y="2420.49" style="font-family:'Helvetica';font-size:74.93px;fill:#000000" text-anchor="end">50</text>
	<line x1="3970.01" y1="2231.38" x2="3939.98" y2="2231.38" style="stroke:#000000;stroke-width:4.32"/>
	<text x="3924.96" y="2257.65" style="font-family:'Helvetica';font-size:74.93px;fill:#000000" text-anchor="end">75</text>
	<line x1="3970.01" y1="2068.71" x2="3939.98" y2="2068.71" style="stroke:#000000;stroke-width:4.32"/>
	<text x="3924.96" y="2094.97" style="font-family:'Helvetica';font-size:74.93px;fill:#000000" text-anchor="end">100</text>
	<line x1="3970.01" y1="1905.86" x2="3939.98" y2="1905.86" style="stroke:#000000;stroke-width:4.32"/>
	<text x="3924.96" y="1932.13" style="font-family:'Helvetica';font-size:74.93px;fill:#000000" text-anchor="end">125</text>
	<line x1="3970.01" y1="1743.19" x2="3939.98" y2="1743.19" style="stroke:#000000;stroke-width:4.32"/>
	<text x="3924.96" y="1769.45" style="font-family:'Helvetica';font-size:74.93px;fill:#000000" text-anchor="end">150</text>
	<text x="3719.30" y="2231.38" style="font-family:'Helvetica';font-size:74.93px;fill:#000000" transform="rotate(-90 3719.30,2231.38)" text-anchor="middle">SNIP</text>
	<line x1="3970.01" y1="2767.16" x2="5253.19" y2="2767.16" style="stroke:#000000;stroke-width:4.32"/>
	<line x1="4037.01" y1="2767.16" x2="4037.01" y2="2797.20" style="stroke:#000000;stroke-width:4.32"/>
	<text x="4037.01" y="2864.58" style="font-family:'Helvetica';font-size:74.93px;fill:#000000" text-anchor="middle">20</text>
	<line x1="4426.48" y1="2767.16" x2="4426.48" y2="2797.20" style="stroke:#000000;stroke-width:4.32"/>
	<text x="4426.48" y="2864.58" style="font-family:'Helvetica';font-size:74.93px;fill:#000000" text-anchor="middle">40</text>
	<line x1="4816.13" y1="2767.16" x2="4816.13" y2="2797.20" style="stroke:#000000;stroke-width:4.32"/>
	<text x="4816.13" y="2864.58" style="font-family:'Helvetica';font-size:74.93px;fill:#000000" text-anchor="middle">60</text>
	<line x1="5205.60" y1="2767.16" x2="5205.60" y2="2797.20" style="stroke:#000000;stroke-width:4.32"/>
	<text x="5205.60" y="2864.58" style="font-family:'Helvetica';font-size:74.93px;fill:#000000" text-anchor="middle">80</text>
	<text x="4611.60" y="2969.71" style="font-family:'Helvetica';font-size:74.93px;fill:#000000" text-anchor="middle">ICARS</text>
	<text x="3982.84" y="3062.14" style="font-family:'Helvetica';font-size:59.91px;fill:#000000">Spearman's rho = -0,60; p=0,06</text>
</svg>
