<?xml version="1.0" encoding="UTF-8" standalone="no"?>
<!-- This is a Stata 18.0 generated SVG file (http://www.stata.com) -->

<svg version="1.1" width="7.500in" height="4.500in" viewBox="0 0 5400 3240" xmlns="http://www.w3.org/2000/svg" xmlns:xlink="http://www.w3.org/1999/xlink">
	<desc>Stata Graph - Graph</desc>
	<rect x="0" y="0" width="5400" height="3240" style="fill:#FFFFFF;stroke:none"/>
	<rect x="0.00" y="0.00" width="5400.00" height="3240.00" style="fill:#FFFFFF"/>
	<rect x="3.24" y="3.24" width="5393.52" height="3233.52" style="fill:none;stroke:#FFFFFF;stroke-width:6.48"/>
	<rect x="556.88" y="113.40" width="4729.73" height="2558.08" style="fill:#FFFFFF"/>
	<rect x="560.12" y="116.64" width="4723.25" height="2551.60" style="fill:none;stroke:#FFFFFF;stroke-width:6.48"/>
	<circle cx="3013.37" cy="2093.01" r="21.74" style="fill:#1A476F;fill-opacity:0.20"/>
	<circle cx="3013.37" cy="2093.01" r="16.88" style="fill:none;stroke:#1A476F;stroke-opacity:0.20;stroke-width:9.72"/>
	<circle cx="5077.69" cy="1682.44" r="21.74" style="fill:#1A476F;fill-opacity:0.20"/>
	<circle cx="5077.69" cy="1682.44" r="16.88" style="fill:none;stroke:#1A476F;stroke-opacity:0.20;stroke-width:9.72"/>
	<circle cx="4297.73" cy="1803.26" r="21.74" style="fill:#1A476F;fill-opacity:0.20"/>
	<circle cx="4297.73" cy="1803.26" r="16.88" style="fill:none;stroke:#1A476F;stroke-opacity:0.20;stroke-width:9.72"/>
	<circle cx="3151.07" cy="1851.53" r="21.74" style="fill:#1A476F;fill-opacity:0.20"/>
	<circle cx="3151.07" cy="1851.53" r="16.88" style="fill:none;stroke:#1A476F;stroke-opacity:0.20;stroke-width:9.72"/>
	<circle cx="3655.63" cy="2056.89" r="21.74" style="fill:#1A476F;fill-opacity:0.20"/>
	<circle cx="3655.63" cy="2056.89" r="16.88" style="fill:none;stroke:#1A476F;stroke-opacity:0.20;stroke-width:9.72"/>
	<circle cx="2738.14" cy="2105.16" r="21.74" style="fill:#1A476F;fill-opacity:0.20"/>
	<circle cx="2738.14" cy="2105.16" r="16.88" style="fill:none;stroke:#1A476F;stroke-opacity:0.20;stroke-width:9.72"/>
	<circle cx="4481.33" cy="1682.44" r="21.74" style="fill:#1A476F;fill-opacity:0.20"/>
	<circle cx="4481.33" cy="1682.44" r="16.88" style="fill:none;stroke:#1A476F;stroke-opacity:0.20;stroke-width:9.72"/>
	<circle cx="4527.23" cy="1778.96" r="21.74" style="fill:#1A476F;fill-opacity:0.20"/>
	<circle cx="4527.23" cy="1778.96" r="16.88" style="fill:none;stroke:#1A476F;stroke-opacity:0.20;stroke-width:9.72"/>
	<circle cx="4389.52" cy="1778.96" r="21.74" style="fill:#1A476F;fill-opacity:0.20"/>
	<circle cx="4389.52" cy="1778.96" r="16.88" style="fill:none;stroke:#1A476F;stroke-opacity:0.20;stroke-width:9.72"/>
	<circle cx="3196.80" cy="1923.92" r="21.74" style="fill:#1A476F;fill-opacity:0.20"/>
	<circle cx="3196.80" cy="1923.92" r="16.88" style="fill:none;stroke:#1A476F;stroke-opacity:0.20;stroke-width:9.72"/>
	<circle cx="1774.74" cy="2382.92" r="21.74" style="fill:#1A476F;fill-opacity:0.20"/>
	<circle cx="1774.74" cy="2382.92" r="16.88" style="fill:none;stroke:#1A476F;stroke-opacity:0.20;stroke-width:9.72"/>
	<circle cx="4068.39" cy="1911.94" r="21.74" style="fill:#1A476F;fill-opacity:0.20"/>
	<circle cx="4068.39" cy="1911.94" r="16.88" style="fill:none;stroke:#1A476F;stroke-opacity:0.20;stroke-width:9.72"/>
	<circle cx="4618.86" cy="1778.96" r="21.74" style="fill:#1A476F;fill-opacity:0.20"/>
	<circle cx="4618.86" cy="1778.96" r="16.88" style="fill:none;stroke:#1A476F;stroke-opacity:0.20;stroke-width:9.72"/>
	<circle cx="1499.51" cy="2455.31" r="21.74" style="fill:#1A476F;fill-opacity:0.20"/>
	<circle cx="1499.51" cy="2455.31" r="16.88" style="fill:none;stroke:#1A476F;stroke-opacity:0.20;stroke-width:9.72"/>
	<circle cx="3426.30" cy="2068.88" r="21.74" style="fill:#1A476F;fill-opacity:0.20"/>
	<circle cx="3426.30" cy="2068.88" r="16.88" style="fill:none;stroke:#1A476F;stroke-opacity:0.20;stroke-width:9.72"/>
	<circle cx="3563.83" cy="1984.33" r="21.74" style="fill:#1A476F;fill-opacity:0.20"/>
	<circle cx="3563.83" cy="1984.33" r="16.88" style="fill:none;stroke:#1A476F;stroke-opacity:0.20;stroke-width:9.72"/>
	<line x1="556.88" y1="2671.48" x2="556.88" y2="113.40" style="stroke:#000000;stroke-width:6.48"/>
	<line x1="556.88" y1="2600.27" x2="511.82" y2="2600.27" style="stroke:#000000;stroke-width:6.48"/>
	<text x="489.38" y="2639.71" style="font-family:'Helvetica';font-size:112.56px;fill:#000000" text-anchor="end">0</text>
	<line x1="556.88" y1="2358.62" x2="511.82" y2="2358.62" style="stroke:#000000;stroke-width:6.48"/>
	<text x="489.38" y="2398.06" style="font-family:'Helvetica';font-size:112.56px;fill:#000000" text-anchor="end">10</text>
	<line x1="556.88" y1="2117.14" x2="511.82" y2="2117.14" style="stroke:#000000;stroke-width:6.48"/>
	<text x="489.38" y="2156.57" style="font-family:'Helvetica';font-size:112.56px;fill:#000000" text-anchor="end">20</text>
	<line x1="556.88" y1="1875.49" x2="511.82" y2="1875.49" style="stroke:#000000;stroke-width:6.48"/>
	<text x="489.38" y="1914.92" style="font-family:'Helvetica';font-size:112.56px;fill:#000000" text-anchor="end">30</text>
	<line x1="556.88" y1="1634.01" x2="511.82" y2="1634.01" style="stroke:#000000;stroke-width:6.48"/>
	<text x="489.38" y="1673.44" style="font-family:'Helvetica';font-size:112.56px;fill:#000000" text-anchor="end">40</text>
	<line x1="556.88" y1="1392.53" x2="511.82" y2="1392.53" style="stroke:#000000;stroke-width:6.48"/>
	<text x="489.38" y="1431.96" style="font-family:'Helvetica';font-size:112.56px;fill:#000000" text-anchor="end">50</text>
	<line x1="556.88" y1="1150.88" x2="511.82" y2="1150.88" style="stroke:#000000;stroke-width:6.48"/>
	<text x="489.38" y="1190.31" style="font-family:'Helvetica';font-size:112.56px;fill:#000000" text-anchor="end">60</text>
	<line x1="556.88" y1="909.39" x2="511.82" y2="909.39" style="stroke:#000000;stroke-width:6.48"/>
	<text x="489.38" y="948.83" style="font-family:'Helvetica';font-size:112.56px;fill:#000000" text-anchor="end">70</text>
	<line x1="556.88" y1="667.74" x2="511.82" y2="667.74" style="stroke:#000000;stroke-width:6.48"/>
	<text x="489.38" y="707.18" style="font-family:'Helvetica';font-size:112.56px;fill:#000000" text-anchor="end">80</text>
	<line x1="556.88" y1="426.26" x2="511.82" y2="426.26" style="stroke:#000000;stroke-width:6.48"/>
	<text x="489.38" y="465.70" style="font-family:'Helvetica';font-size:112.56px;fill:#000000" text-anchor="end">90</text>
	<line x1="556.88" y1="184.61" x2="511.82" y2="184.61" style="stroke:#000000;stroke-width:6.48"/>
	<text x="489.38" y="224.05" style="font-family:'Helvetica';font-size:112.56px;fill:#000000" text-anchor="end">100</text>
	<text x="214.55" y="1392.53" style="font-family:'Helvetica';font-size:112.56px;fill:#000000" transform="rotate(-90 214.55,1392.53)" text-anchor="middle">SARA</text>
	<line x1="556.88" y1="2671.48" x2="5286.60" y2="2671.48" style="stroke:#000000;stroke-width:6.48"/>
	<line x1="628.09" y1="2671.48" x2="628.09" y2="2716.54" style="stroke:#000000;stroke-width:6.48"/>
	<text x="628.09" y="2817.69" style="font-family:'Helvetica';font-size:112.56px;fill:#000000" text-anchor="middle">0</text>
	<line x1="1086.75" y1="2671.48" x2="1086.75" y2="2716.54" style="stroke:#000000;stroke-width:6.48"/>
	<text x="1086.75" y="2817.69" style="font-family:'Helvetica';font-size:112.56px;fill:#000000" text-anchor="middle">10</text>
	<line x1="1545.58" y1="2671.48" x2="1545.58" y2="2716.54" style="stroke:#000000;stroke-width:6.48"/>
	<text x="1545.58" y="2817.69" style="font-family:'Helvetica';font-size:112.56px;fill:#000000" text-anchor="middle">20</text>
	<line x1="2004.24" y1="2671.48" x2="2004.24" y2="2716.54" style="stroke:#000000;stroke-width:6.48"/>
	<text x="2004.24" y="2817.69" style="font-family:'Helvetica';font-size:112.56px;fill:#000000" text-anchor="middle">30</text>
	<line x1="2463.07" y1="2671.48" x2="2463.07" y2="2716.54" style="stroke:#000000;stroke-width:6.48"/>
	<text x="2463.07" y="2817.69" style="font-family:'Helvetica';font-size:112.56px;fill:#000000" text-anchor="middle">40</text>
	<line x1="2921.74" y1="2671.48" x2="2921.74" y2="2716.54" style="stroke:#000000;stroke-width:6.48"/>
	<text x="2921.74" y="2817.69" style="font-family:'Helvetica';font-size:112.56px;fill:#000000" text-anchor="middle">50</text>
	<line x1="3380.40" y1="2671.48" x2="3380.40" y2="2716.54" style="stroke:#000000;stroke-width:6.48"/>
	<text x="3380.40" y="2817.69" style="font-family:'Helvetica';font-size:112.56px;fill:#000000" text-anchor="middle">60</text>
	<line x1="3839.23" y1="2671.48" x2="3839.23" y2="2716.54" style="stroke:#000000;stroke-width:6.48"/>
	<text x="3839.23" y="2817.69" style="font-family:'Helvetica';font-size:112.56px;fill:#000000" text-anchor="middle">70</text>
	<line x1="4297.89" y1="2671.48" x2="4297.89" y2="2716.54" style="stroke:#000000;stroke-width:6.48"/>
	<text x="4297.89" y="2817.69" style="font-family:'Helvetica';font-size:112.56px;fill:#000000" text-anchor="middle">80</text>
	<line x1="4756.56" y1="2671.48" x2="4756.56" y2="2716.54" style="stroke:#000000;stroke-width:6.48"/>
	<text x="4756.56" y="2817.69" style="font-family:'Helvetica';font-size:112.56px;fill:#000000" text-anchor="middle">90</text>
	<line x1="5215.39" y1="2671.48" x2="5215.39" y2="2716.54" style="stroke:#000000;stroke-width:6.48"/>
	<text x="5215.39" y="2817.69" style="font-family:'Helvetica';font-size:112.56px;fill:#000000" text-anchor="middle">100</text>
	<text x="2921.74" y="2941.38" style="font-family:'Helvetica';font-size:112.56px;fill:#000000" text-anchor="middle">ICARS</text>
	<text x="576.28" y="3080.13" style="font-family:'Helvetica';font-size:89.94px;fill:#000000">Spearman: rho = 0,90; p&lt;0,01</text>
</svg>
