<svg width="528" height="384" viewBox="0 0 528 384" fill="none" xmlns="http://www.w3.org/2000/svg">
<path d="M528 0H0V384H528V0Z" fill="#F0F0F0"/>
<path d="M527.984 0H0V384H527.984V0Z" fill="#F5F5F5"/>
<path d="M527.6 0.383789H0.383789V383.616H527.6V0.383789Z" stroke="#F0F0F0" stroke-width="0.768"/>
<path d="M514.536 13.4478H52.1064V321.958H514.536V13.4478Z" fill="white"/>
<path d="M514.152 13.832H52.4907V321.575H514.152V13.832Z" stroke="white" stroke-width="0.768"/>
<path d="M171.929 133.885V115.305" stroke="#606060" stroke-width="1.152"/>
<path d="M168.993 115.305H174.867" stroke="#606060" stroke-width="1.152" stroke-linecap="round"/>
<path d="M168.993 133.885H174.867" stroke="#606060" stroke-width="1.152" stroke-linecap="round"/>
<path d="M394.713 76.4959V72.6025" stroke="#606060" stroke-width="1.152"/>
<path d="M391.776 72.6025H397.651" stroke="#606060" stroke-width="1.152" stroke-linecap="round"/>
<path d="M391.776 76.4961H397.651" stroke="#606060" stroke-width="1.152" stroke-linecap="round"/>
<path d="M168.993 124.596L171.929 121.659L174.867 124.596L171.929 127.532L168.993 124.596Z" stroke="#606060" stroke-width="1.152"/>
<path d="M181.052 119.92V127.672H180.113V120.904H180.067L178.175 122.161V121.207L180.113 119.92H181.052ZM183.099 126.082V125.31L186.506 119.92H187.066V121.116H186.688L184.114 125.189V125.249H188.701V126.082H183.099ZM186.748 127.672V125.847V125.488V119.92H187.641V127.672H186.748Z" fill="black"/>
<path d="M394.713 76.628C395.861 76.628 396.792 75.6974 396.792 74.5494C396.792 73.4013 395.861 72.4707 394.713 72.4707C393.565 72.4707 392.635 73.4013 392.635 74.5494C392.635 75.6974 393.565 76.628 394.713 76.628Z" stroke="#808080" stroke-width="1.152"/>
<path d="M403.834 69.8737V77.6255H402.896V70.8578H402.85L400.958 72.1145V71.1606L402.896 69.8737H403.834ZM406.306 77.6255L409.773 70.767V70.7064H405.776V69.8737H410.742V70.7519L407.29 77.6255H406.306Z" fill="black"/>
<path d="M52.1064 321.958V13.4478" stroke="black" stroke-width="0.768"/>
<path d="M52.1067 313.509H46.7773" stroke="black" stroke-width="0.768"/>
<path d="M39.8967 313.209C39.8967 313.923 39.7026 314.53 39.3144 315.032C38.923 315.534 38.3565 315.918 37.6148 316.183C36.8699 316.448 35.9703 316.58 34.9162 316.58C33.8683 316.58 32.9735 316.448 32.2318 316.183C31.4869 315.914 30.9188 315.529 30.5274 315.027C30.1329 314.522 29.9356 313.916 29.9356 313.209C29.9356 312.502 30.1329 311.898 30.5274 311.396C30.9188 310.891 31.4869 310.506 32.2318 310.241C32.9735 309.973 33.8683 309.839 34.9162 309.839C35.9703 309.839 36.8699 309.971 37.6148 310.236C38.3565 310.501 38.923 310.885 39.3144 311.387C39.7026 311.889 39.8967 312.496 39.8967 313.209ZM38.8552 313.209C38.8552 312.502 38.5143 311.953 37.8325 311.562C37.1508 311.171 36.1787 310.975 34.9162 310.975C34.0766 310.975 33.3617 311.065 32.7715 311.245C32.1813 311.421 31.7315 311.677 31.4222 312.012C31.1129 312.343 30.9582 312.742 30.9582 313.209C30.9582 313.91 31.3038 314.458 31.9951 314.852C32.6831 315.247 33.6568 315.444 34.9162 315.444C35.7557 315.444 36.469 315.356 37.0561 315.179C37.6432 315.002 38.0898 314.748 38.3959 314.417C38.7021 314.082 38.8552 313.68 38.8552 313.209Z" fill="black"/>
<path d="M52.1067 271.845H46.7773" stroke="black" stroke-width="0.768"/>
<path d="M39.8967 271.576C39.8967 272.201 39.7894 272.758 39.5748 273.248C39.3602 273.734 39.0619 274.12 38.68 274.407C38.2949 274.692 37.8483 274.846 37.3402 274.871V273.678C37.6526 273.653 37.9225 273.546 38.1497 273.356C38.3738 273.167 38.5474 272.919 38.6705 272.613C38.7936 272.307 38.8552 271.968 38.8552 271.595C38.8552 271.179 38.7826 270.809 38.6374 270.487C38.4922 270.165 38.2902 269.913 38.0314 269.73C37.7726 269.547 37.4727 269.455 37.1318 269.455C36.7752 269.455 36.4611 269.544 36.1897 269.72C35.9151 269.897 35.7005 270.156 35.5458 270.497C35.3912 270.838 35.3138 271.254 35.3138 271.747V272.523H34.2723V271.747C34.2723 271.362 34.2028 271.024 34.064 270.734C33.9251 270.44 33.7294 270.211 33.4769 270.047C33.2244 269.88 32.9277 269.796 32.5868 269.796C32.2586 269.796 31.973 269.869 31.7299 270.014C31.4869 270.159 31.2975 270.364 31.1618 270.629C31.0261 270.891 30.9582 271.201 30.9582 271.557C30.9582 271.892 31.0198 272.208 31.1429 272.504C31.2628 272.798 31.438 273.038 31.6684 273.224C31.8956 273.41 32.1702 273.511 32.4922 273.527V274.663C31.984 274.644 31.539 274.491 31.1571 274.204C30.772 273.917 30.4722 273.541 30.2575 273.077C30.0429 272.61 29.9356 272.097 29.9356 271.538C29.9356 270.939 30.0571 270.424 30.3001 269.995C30.54 269.566 30.8572 269.236 31.2518 269.006C31.6463 268.775 32.0724 268.66 32.53 268.66C33.0761 268.66 33.5416 268.804 33.9267 269.091C34.3117 269.375 34.5784 269.761 34.7268 270.251H34.8025C34.9035 269.638 35.1639 269.16 35.5837 268.816C36.0003 268.472 36.5164 268.3 37.1318 268.3C37.6589 268.3 38.1324 268.444 38.5522 268.731C38.9688 269.015 39.297 269.403 39.5369 269.896C39.7768 270.388 39.8967 270.948 39.8967 271.576Z" fill="black"/>
<path d="M52.1067 230.183H46.7773" stroke="black" stroke-width="0.768"/>
<path d="M39.8967 229.819C39.8904 230.217 39.8147 230.615 39.6695 231.013C39.5243 231.41 39.2797 231.773 38.9356 232.101C38.5885 232.43 38.1198 232.693 37.5295 232.892C36.9362 233.091 36.1913 233.19 35.2949 233.19C34.4364 233.19 33.6758 233.11 33.0129 232.949C32.347 232.788 31.7867 232.554 31.3322 232.248C30.8746 231.942 30.5274 231.573 30.2907 231.14C30.054 230.705 29.9356 230.214 29.9356 229.668C29.9356 229.125 30.0445 228.642 30.2623 228.219C30.4769 227.793 30.7767 227.446 31.1618 227.178C31.5469 226.909 31.9903 226.736 32.4922 226.657V227.812C32.0566 227.919 31.6952 228.128 31.408 228.437C31.1208 228.746 30.9772 229.157 30.9772 229.668C30.9772 230.419 31.3038 231.011 31.9572 231.443C32.6105 231.873 33.5274 232.089 34.7078 232.092V232.016C34.4396 231.839 34.2107 231.63 34.0214 231.387C33.8288 231.14 33.6805 230.869 33.5763 230.572C33.4722 230.276 33.4201 229.962 33.4201 229.63C33.4201 229.075 33.559 228.566 33.8367 228.106C34.1113 227.645 34.4916 227.276 34.9777 226.998C35.4606 226.72 36.0145 226.581 36.6395 226.581C37.2392 226.581 37.7883 226.715 38.287 226.984C38.7826 227.252 39.1771 227.629 39.4706 228.115C39.761 228.598 39.903 229.166 39.8967 229.819ZM38.8552 229.819C38.8552 229.422 38.7557 229.065 38.5569 228.75C38.3581 228.431 38.0913 228.18 37.7568 227.997C37.4222 227.811 37.0498 227.717 36.6395 227.717C36.2386 227.717 35.8741 227.807 35.5458 227.987C35.2144 228.164 34.9509 228.409 34.7552 228.721C34.5595 229.03 34.4617 229.384 34.4617 229.782C34.4617 230.081 34.5216 230.361 34.6416 230.62C34.7583 230.878 34.9193 231.106 35.1245 231.301C35.3296 231.494 35.5648 231.645 35.8299 231.756C36.0919 231.866 36.368 231.922 36.6584 231.922C37.0435 231.922 37.4033 231.832 37.7378 231.652C38.0724 231.469 38.3423 231.219 38.5474 230.904C38.7526 230.585 38.8552 230.223 38.8552 229.819Z" fill="black"/>
<path d="M52.1067 188.535H46.7773" stroke="black" stroke-width="0.768"/>
<path d="M29.9356 188.304C29.9388 187.906 30.0145 187.509 30.1628 187.111C30.3112 186.713 30.5574 186.35 30.9014 186.022C31.2423 185.694 31.7078 185.43 32.298 185.231C32.8883 185.033 33.6284 184.933 34.5185 184.933C35.3801 184.933 36.1455 185.015 36.8146 185.179C37.4806 185.34 38.0424 185.574 38.5001 185.88C38.9577 186.183 39.3049 186.552 39.5416 186.988C39.7784 187.42 39.8967 187.91 39.8967 188.456C39.8967 188.998 39.7894 189.483 39.5748 189.909C39.357 190.332 39.0556 190.679 38.6705 190.951C38.2823 191.219 37.8325 191.391 37.3212 191.467V190.311C37.7663 190.207 38.134 190.001 38.4243 189.691C38.7116 189.379 38.8552 188.967 38.8552 188.456C38.8552 187.708 38.5285 187.117 37.8751 186.685C37.2218 186.249 36.2986 186.032 35.1055 186.032V186.107C35.3707 186.284 35.5995 186.494 35.792 186.737C35.9846 186.98 36.1329 187.25 36.2371 187.547C36.3412 187.843 36.3933 188.159 36.3933 188.493C36.3933 189.049 36.256 189.559 35.9814 190.023C35.7036 190.483 35.3233 190.853 34.8404 191.131C34.3543 191.405 33.7988 191.542 33.1739 191.542C32.5805 191.542 32.0377 191.41 31.5453 191.145C31.0498 190.876 30.6552 190.501 30.3617 190.018C30.0682 189.532 29.9261 188.961 29.9356 188.304ZM30.9772 188.304C30.9772 188.702 31.0766 189.06 31.2754 189.379C31.4711 189.694 31.7362 189.945 32.0708 190.132C32.4022 190.315 32.7699 190.406 33.1739 190.406C33.5779 190.406 33.9456 190.318 34.277 190.141C34.6053 189.961 34.8672 189.717 35.0629 189.407C35.2555 189.095 35.3517 188.74 35.3517 188.342C35.3517 188.042 35.2933 187.763 35.1766 187.504C35.0566 187.245 34.8941 187.02 34.6889 186.827C34.4806 186.631 34.2455 186.478 33.9835 186.368C33.7184 186.257 33.4422 186.202 33.155 186.202C32.7762 186.202 32.4211 186.294 32.0897 186.477C31.7583 186.657 31.4901 186.906 31.2849 187.225C31.0797 187.54 30.9772 187.9 30.9772 188.304Z" fill="black"/>
<path d="M52.1067 146.871H46.7773" stroke="black" stroke-width="0.768"/>
<path d="M30.0682 149.293H39.7642V150.467H31.2991V150.524L32.8709 152.891H31.6778L30.0682 150.467V149.293ZM39.7642 146.505H38.912L35.4085 143.304C34.9982 142.928 34.6416 142.619 34.3386 142.376C34.0324 142.133 33.7452 141.953 33.4769 141.836C33.2055 141.716 32.9214 141.657 32.6247 141.657C32.2838 141.657 31.9887 141.739 31.7394 141.903C31.49 142.064 31.2975 142.285 31.1618 142.566C31.0261 142.846 30.9582 143.162 30.9582 143.512C30.9582 143.885 31.0356 144.21 31.1902 144.488C31.3417 144.762 31.5548 144.975 31.8293 145.127C32.1039 145.275 32.4259 145.349 32.7952 145.349V146.467C32.227 146.467 31.7283 146.336 31.2991 146.074C30.8698 145.812 30.5353 145.455 30.2954 145.004C30.0555 144.549 29.9356 144.039 29.9356 143.475C29.9356 142.906 30.0555 142.403 30.2954 141.964C30.5353 141.526 30.8588 141.182 31.266 140.932C31.6731 140.683 32.126 140.558 32.6247 140.558C32.9814 140.558 33.3301 140.623 33.671 140.752C34.0087 140.879 34.3859 141.099 34.8025 141.415C35.216 141.728 35.721 142.162 36.3175 142.717L38.6468 144.895H38.7226V140.388H39.7642V146.505Z" fill="black"/>
<path d="M52.1067 105.207H46.7773" stroke="black" stroke-width="0.768"/>
<path d="M30.0682 107.649H39.7642V108.823H31.2991V108.879L32.8709 111.247H31.6778L30.0682 108.823V107.649ZM39.8967 101.83C39.8967 102.385 39.7863 102.886 39.5653 103.331C39.3444 103.776 39.0414 104.132 38.6563 104.401C38.2713 104.669 37.8325 104.816 37.3402 104.841V103.705C37.7789 103.661 38.1418 103.462 38.4291 103.108C38.7131 102.752 38.8552 102.326 38.8552 101.83C38.8552 101.432 38.7621 101.079 38.5758 100.769C38.3896 100.457 38.134 100.212 37.8089 100.036C37.4806 99.8558 37.1098 99.7658 36.6963 99.7658C36.2733 99.7658 35.8962 99.8589 35.5648 100.045C35.2302 100.228 34.9667 100.481 34.7741 100.803C34.5816 101.125 34.4838 101.492 34.4806 101.906C34.4774 102.202 34.5232 102.507 34.6179 102.819C34.7094 103.132 34.8278 103.389 34.973 103.591L34.8404 104.69L30.0682 104.102V99.0651H31.1097V103.118L33.9693 103.459V103.402C33.8115 103.203 33.6805 102.954 33.5763 102.654C33.4722 102.354 33.4201 102.041 33.4201 101.716C33.4201 101.123 33.5621 100.594 33.8462 100.13C34.1271 99.6632 34.5122 99.2971 35.0014 99.032C35.4906 98.7637 36.0493 98.6295 36.6773 98.6295C37.296 98.6295 37.8483 98.7684 38.3344 99.0462C38.8173 99.3208 39.1992 99.6995 39.4801 100.182C39.7578 100.665 39.8967 101.215 39.8967 101.83Z" fill="black"/>
<path d="M52.1067 63.5439H46.7773" stroke="black" stroke-width="0.768"/>
<path d="M30.0682 66.1044H39.7642V67.2785H31.2991V67.3354L32.8709 69.7025H31.6778L30.0682 67.2785V66.1044ZM39.8967 60.2101C39.8967 60.8603 39.7815 61.4347 39.5511 61.9334C39.3176 62.429 38.9972 62.8156 38.59 63.0934C38.1797 63.3711 37.7126 63.5084 37.1887 63.5052C36.7783 63.5084 36.3996 63.4279 36.0524 63.2638C35.7021 63.0997 35.4101 62.8756 35.1766 62.5915C34.9398 62.3043 34.7899 61.9839 34.7268 61.6304H34.67C34.55 62.0944 34.2896 62.4637 33.8888 62.7383C33.4848 63.0129 33.0256 63.1486 32.5111 63.1454C32.0187 63.1486 31.5784 63.0239 31.1902 62.7714C30.802 62.5189 30.4958 62.1717 30.2717 61.7299C30.0476 61.2848 29.9356 60.7782 29.9356 60.2101C29.9356 59.6483 30.0476 59.1465 30.2717 58.7046C30.4958 58.2627 30.802 57.9155 31.1902 57.663C31.5784 57.4074 32.0187 57.278 32.5111 57.2748C33.0256 57.278 33.4848 57.4184 33.8888 57.6962C34.2896 57.9708 34.55 58.3353 34.67 58.7898H34.7268C34.7899 58.4395 34.9398 58.1238 35.1766 57.8429C35.4101 57.562 35.7021 57.3379 36.0524 57.1707C36.3996 57.0034 36.7783 56.9182 37.1887 56.915C37.7126 56.9182 38.1797 57.0602 38.59 57.3411C38.9972 57.6188 39.3176 58.0055 39.5511 58.501C39.7815 58.9934 39.8967 59.5631 39.8967 60.2101ZM38.8552 60.2101C38.8552 59.7714 38.7841 59.3927 38.6421 59.0739C38.5001 58.7551 38.2997 58.5089 38.0408 58.3353C37.782 58.1617 37.479 58.0733 37.1318 58.0702C36.7657 58.0733 36.4422 58.168 36.1613 58.3542C35.8804 58.5405 35.6595 58.7945 35.4985 59.1165C35.3375 59.4353 35.257 59.7998 35.257 60.2101C35.257 60.6236 35.3375 60.9929 35.4985 61.318C35.6595 61.6399 35.8804 61.894 36.1613 62.0802C36.4422 62.2633 36.7657 62.3532 37.1318 62.3501C37.479 62.3532 37.782 62.2696 38.0408 62.0991C38.2997 61.9255 38.5001 61.6778 38.6421 61.3558C38.7841 61.0339 38.8552 60.652 38.8552 60.2101ZM34.2533 60.2101C34.2533 59.8629 34.1839 59.5552 34.045 59.2869C33.9062 59.0155 33.7121 58.8024 33.4627 58.6478C33.2134 58.4931 32.9214 58.4142 32.5868 58.4111C32.2586 58.4142 31.973 58.4915 31.7299 58.643C31.4837 58.7945 31.2944 59.0044 31.1618 59.2727C31.0261 59.541 30.9582 59.8535 30.9582 60.2101C30.9582 60.5731 31.0261 60.8903 31.1618 61.1617C31.2944 61.4332 31.4837 61.6431 31.7299 61.7914C31.973 61.9397 32.2586 62.0123 32.5868 62.0092C32.9214 62.0123 33.2134 61.9382 33.4627 61.7867C33.7121 61.632 33.9062 61.419 34.045 61.1475C34.1839 60.8761 34.2533 60.5636 34.2533 60.2101Z" fill="black"/>
<path d="M52.1067 21.896H46.7773" stroke="black" stroke-width="0.768"/>
<path d="M39.7642 27.7272H38.912L35.4085 24.5268C34.9982 24.1512 34.6416 23.8419 34.3386 23.5988C34.0324 23.3558 33.7452 23.1759 33.4769 23.0591C33.2055 22.9392 32.9214 22.8792 32.6247 22.8792C32.2838 22.8792 31.9887 22.9613 31.7394 23.1254C31.49 23.2864 31.2975 23.5073 31.1618 23.7882C31.0261 24.0691 30.9582 24.3847 30.9582 24.7351C30.9582 25.1075 31.0356 25.4326 31.1902 25.7104C31.3417 25.985 31.5548 26.198 31.8293 26.3495C32.1039 26.4978 32.4259 26.572 32.7952 26.572V27.6893C32.227 27.6893 31.7283 27.5583 31.2991 27.2964C30.8698 27.0344 30.5353 26.6778 30.2954 26.2264C30.0555 25.7719 29.9356 25.2622 29.9356 24.6972C29.9356 24.1291 30.0555 23.6257 30.2954 23.1869C30.5353 22.7482 30.8588 22.4042 31.266 22.1548C31.6731 21.9055 32.126 21.7808 32.6247 21.7808C32.9814 21.7808 33.3301 21.8455 33.671 21.9749C34.0087 22.1012 34.3859 22.3221 34.8025 22.6378C35.216 22.9502 35.721 23.3842 36.3175 23.9397L38.6468 26.1175H38.7226V21.6104H39.7642V27.7272ZM30.0682 16.2463H39.7642V17.4205H31.2991V17.4773L32.8709 19.8445H31.6778L30.0682 17.4205V16.2463Z" fill="black"/>
<path d="M17.8242 225.113C17.3444 225.169 16.972 225.4 16.7069 225.804C16.4418 226.208 16.3092 226.703 16.3092 227.29C16.3092 227.72 16.3786 228.095 16.5175 228.417C16.6564 228.736 16.8473 228.985 17.0904 229.165C17.3334 229.342 17.6096 229.43 17.9189 229.43C18.1777 229.43 18.4002 229.369 18.5864 229.246C18.7695 229.119 18.9226 228.958 19.0457 228.763C19.1656 228.567 19.265 228.362 19.3439 228.147C19.4197 227.933 19.4812 227.735 19.5286 227.555L19.7937 226.571C19.86 226.318 19.9515 226.037 20.0683 225.728C20.1851 225.416 20.3445 225.117 20.5465 224.833C20.7453 224.546 21.001 224.309 21.3134 224.123C21.6259 223.937 22.0094 223.844 22.4639 223.844C22.9878 223.844 23.4613 223.981 23.8842 224.256C24.3071 224.527 24.6433 224.925 24.8926 225.449C25.142 225.969 25.2666 226.602 25.2666 227.347C25.2666 228.042 25.1546 228.643 24.9305 229.151C24.7064 229.656 24.3939 230.054 23.9931 230.344C23.5922 230.631 23.1267 230.794 22.5964 230.832V229.62C22.9626 229.588 23.2656 229.465 23.5054 229.25C23.7422 229.033 23.9189 228.758 24.0357 228.427C24.1493 228.092 24.2061 227.732 24.2061 227.347C24.2061 226.899 24.1335 226.497 23.9883 226.14C23.84 225.783 23.6348 225.501 23.3729 225.292C23.1078 225.084 22.7984 224.98 22.4449 224.98C22.123 224.98 21.861 225.07 21.659 225.25C21.457 225.43 21.2929 225.666 21.1667 225.96C21.0404 226.253 20.9299 226.571 20.8353 226.912L20.4944 228.105C20.2766 228.862 19.9657 229.462 19.5617 229.904C19.1577 230.346 18.629 230.567 17.9757 230.567C17.4328 230.567 16.9594 230.42 16.5554 230.126C16.1482 229.83 15.8326 229.432 15.6085 228.933C15.3813 228.431 15.2676 227.871 15.2676 227.252C15.2676 226.628 15.3797 226.072 15.6038 225.586C15.8247 225.1 16.1277 224.715 16.5128 224.431C16.8978 224.144 17.335 223.992 17.8242 223.976V225.113ZM25.2477 219.111C25.2477 219.792 25.0867 220.379 24.7648 220.872C24.4428 221.364 23.9994 221.743 23.4344 222.008C22.8695 222.273 22.224 222.406 21.4981 222.406C20.7595 222.406 20.1077 222.27 19.5428 221.998C18.9746 221.724 18.5312 221.342 18.2124 220.853C17.8905 220.36 17.7295 219.786 17.7295 219.129C17.7295 218.618 17.8242 218.157 18.0136 217.747C18.2029 217.337 18.4681 217.001 18.8089 216.739C19.1498 216.477 19.5475 216.314 20.002 216.251V217.368C19.6706 217.453 19.3771 217.643 19.1214 217.936C18.8626 218.227 18.7332 218.618 18.7332 219.111C18.7332 219.546 18.8468 219.928 19.0741 220.256C19.2982 220.581 19.6154 220.835 20.0257 221.018C20.4328 221.198 20.911 221.288 21.4602 221.288C22.022 221.288 22.5112 221.2 22.9278 221.023C23.3445 220.843 23.668 220.591 23.8984 220.266C24.1288 219.937 24.244 219.552 24.244 219.111C24.244 218.82 24.1935 218.557 24.0925 218.32C23.9915 218.083 23.8463 217.883 23.6569 217.719C23.4676 217.554 23.2403 217.438 22.9752 217.368V216.251C23.4044 216.314 23.7911 216.47 24.1351 216.72C24.476 216.966 24.7474 217.293 24.9494 217.7C25.1483 218.104 25.2477 218.574 25.2477 219.111ZM25.2477 211.663C25.2477 212.32 25.0915 212.896 24.779 213.391C24.4665 213.884 24.0294 214.269 23.4676 214.547C22.9058 214.821 22.2493 214.958 21.4981 214.958C20.7406 214.958 20.0793 214.821 19.5144 214.547C18.9494 214.269 18.5107 213.884 18.1982 213.391C17.8857 212.896 17.7295 212.32 17.7295 211.663C17.7295 211.007 17.8857 210.432 18.1982 209.94C18.5107 209.444 18.9494 209.059 19.5144 208.785C20.0793 208.507 20.7406 208.368 21.4981 208.368C22.2493 208.368 22.9058 208.507 23.4676 208.785C24.0294 209.059 24.4665 209.444 24.779 209.94C25.0915 210.432 25.2477 211.007 25.2477 211.663ZM24.244 211.663C24.244 211.165 24.1162 210.754 23.8605 210.432C23.6049 210.11 23.2687 209.872 22.8521 209.718C22.4355 209.563 21.9841 209.486 21.4981 209.486C21.012 209.486 20.5591 209.563 20.1393 209.718C19.7195 209.872 19.3802 210.11 19.1214 210.432C18.8626 210.754 18.7332 211.165 18.7332 211.663C18.7332 212.162 18.8626 212.572 19.1214 212.894C19.3802 213.216 19.7195 213.455 20.1393 213.609C20.5591 213.764 21.012 213.841 21.4981 213.841C21.9841 213.841 22.4355 213.764 22.8521 213.609C23.2687 213.455 23.6049 213.216 23.8605 212.894C24.1162 212.572 24.244 212.162 24.244 211.663ZM25.0962 206.663H17.8242V205.583H18.9226V205.507C18.5628 205.375 18.2708 205.135 18.0467 204.788C17.8226 204.441 17.7106 204.049 17.7106 203.614C17.7106 203.532 17.7121 203.429 17.7153 203.306C17.7185 203.183 17.7232 203.09 17.7295 203.027H18.8658C18.8563 203.065 18.8421 203.151 18.8231 203.287C18.8011 203.42 18.79 203.56 18.79 203.708C18.79 204.062 18.8642 204.378 19.0125 204.655C19.1577 204.93 19.3597 205.148 19.6185 205.309C19.8742 205.466 20.1661 205.545 20.4944 205.545H25.0962V206.663ZM25.2477 198.875C25.2477 199.575 25.093 200.18 24.7837 200.688C24.4713 201.193 24.0357 201.583 23.477 201.857C22.9152 202.129 22.2619 202.264 21.517 202.264C20.7721 202.264 20.1156 202.129 19.5475 201.857C18.9762 201.583 18.5312 201.201 18.2124 200.712C17.8905 200.219 17.7295 199.645 17.7295 198.988C17.7295 198.609 17.7926 198.235 17.9189 197.866C18.0451 197.497 18.2503 197.161 18.5343 196.858C18.8153 196.555 19.1877 196.313 19.6517 196.133C20.1156 195.953 20.6869 195.864 21.3655 195.864H21.8389V201.469H20.8731V197C20.4628 197 20.0967 197.082 19.7748 197.246C19.4528 197.407 19.1987 197.637 19.0125 197.937C18.8263 198.234 18.7332 198.584 18.7332 198.988C18.7332 199.433 18.8437 199.818 19.0646 200.143C19.2824 200.465 19.5664 200.713 19.9168 200.887C20.2671 201.06 20.6427 201.147 21.0436 201.147H21.6874C22.2366 201.147 22.7022 201.052 23.0841 200.863C23.4628 200.671 23.7516 200.404 23.9505 200.063C24.1462 199.722 24.244 199.326 24.244 198.875C24.244 198.581 24.203 198.316 24.1209 198.079C24.0357 197.839 23.9094 197.633 23.7422 197.459C23.5717 197.285 23.3603 197.151 23.1078 197.057L23.4108 195.977C23.7769 196.091 24.0988 196.282 24.3766 196.55C24.6512 196.818 24.8658 197.15 25.0204 197.544C25.1719 197.939 25.2477 198.382 25.2477 198.875ZM17.8242 187.176H18.7711V191.096H17.8242V187.176ZM25.0962 189.922H16.8205C16.4039 189.922 16.0567 189.824 15.7789 189.628C15.5012 189.433 15.2929 189.179 15.154 188.866C15.0151 188.554 14.9457 188.224 14.9457 187.877C14.9457 187.602 14.9678 187.378 15.012 187.204C15.0562 187.031 15.0972 186.901 15.1351 186.816L16.1009 187.138C16.0819 187.195 16.0583 187.274 16.0299 187.375C16.0015 187.473 15.9873 187.602 15.9873 187.763C15.9873 188.132 16.0804 188.399 16.2666 188.563C16.4528 188.724 16.7258 188.805 17.0856 188.805H25.0962V189.922ZM25.2477 182.955C25.2477 183.612 25.0915 184.188 24.779 184.683C24.4665 185.176 24.0294 185.561 23.4676 185.838C22.9058 186.113 22.2493 186.25 21.4981 186.25C20.7406 186.25 20.0793 186.113 19.5144 185.838C18.9494 185.561 18.5107 185.176 18.1982 184.683C17.8857 184.188 17.7295 183.612 17.7295 182.955C17.7295 182.299 17.8857 181.724 18.1982 181.232C18.5107 180.736 18.9494 180.351 19.5144 180.077C20.0793 179.799 20.7406 179.66 21.4981 179.66C22.2493 179.66 22.9058 179.799 23.4676 180.077C24.0294 180.351 24.4665 180.736 24.779 181.232C25.0915 181.724 25.2477 182.299 25.2477 182.955ZM24.244 182.955C24.244 182.457 24.1162 182.046 23.8605 181.724C23.6049 181.402 23.2687 181.164 22.8521 181.009C22.4355 180.855 21.9841 180.777 21.4981 180.777C21.012 180.777 20.5591 180.855 20.1393 181.009C19.7195 181.164 19.3802 181.402 19.1214 181.724C18.8626 182.046 18.7332 182.457 18.7332 182.955C18.7332 183.454 18.8626 183.864 19.1214 184.186C19.3802 184.508 19.7195 184.746 20.1393 184.901C20.5591 185.056 21.012 185.133 21.4981 185.133C21.9841 185.133 22.4355 185.056 22.8521 184.901C23.2687 184.746 23.6049 184.508 23.8605 184.186C24.1162 183.864 24.244 183.454 24.244 182.955ZM25.0962 177.955H17.8242V176.875H18.9226V176.799C18.5628 176.667 18.2708 176.427 18.0467 176.08C17.8226 175.733 17.7106 175.341 17.7106 174.906C17.7106 174.824 17.7121 174.721 17.7153 174.598C17.7185 174.475 17.7232 174.382 17.7295 174.319H18.8658C18.8563 174.356 18.8421 174.443 18.8231 174.579C18.8011 174.712 18.79 174.852 18.79 175C18.79 175.354 18.8642 175.669 19.0125 175.947C19.1577 176.222 19.3597 176.44 19.6185 176.601C19.8742 176.758 20.1661 176.837 20.4944 176.837H25.0962V177.955ZM25.2666 167.105C25.2666 167.565 25.1798 167.984 25.0062 168.359C24.8295 168.735 24.5754 169.033 24.244 169.254C23.9094 169.475 23.5054 169.585 23.032 169.585C22.6154 169.585 22.2777 169.503 22.0188 169.339C21.7569 169.175 21.5517 168.956 21.4034 168.681C21.255 168.407 21.1446 168.104 21.072 167.772C20.9962 167.438 20.9363 167.101 20.8921 166.764C20.8353 166.322 20.7926 165.964 20.7642 165.689C20.7327 165.411 20.6806 165.209 20.608 165.083C20.5354 164.954 20.4092 164.889 20.2293 164.889H20.1914C19.7243 164.889 19.3613 165.017 19.1025 165.272C18.8437 165.525 18.7143 165.908 18.7143 166.423C18.7143 166.956 18.831 167.374 19.0646 167.677C19.2982 167.98 19.5475 168.193 19.8126 168.317L19.4339 169.377C18.992 169.188 18.648 168.935 18.4018 168.62C18.1524 168.301 17.9788 167.954 17.881 167.578C17.78 167.199 17.7295 166.827 17.7295 166.461C17.7295 166.227 17.7579 165.959 17.8147 165.656C17.8684 165.35 17.9804 165.055 18.1509 164.771C18.3213 164.483 18.5785 164.245 18.9226 164.056C19.2666 163.866 19.7274 163.772 20.305 163.772H25.0962V164.889H24.1114V164.946C24.2693 165.021 24.4381 165.148 24.618 165.324C24.7979 165.501 24.951 165.736 25.0773 166.03C25.2035 166.323 25.2666 166.682 25.2666 167.105ZM24.2629 166.934C24.2629 166.492 24.1761 166.12 24.0026 165.817C23.829 165.511 23.6049 165.28 23.3303 165.126C23.0557 164.968 22.7669 164.889 22.4639 164.889H21.4413C21.4981 164.936 21.5501 165.04 21.5975 165.201C21.6417 165.359 21.6811 165.542 21.7158 165.751C21.7474 165.956 21.7758 166.156 21.8011 166.352C21.8232 166.544 21.8421 166.701 21.8579 166.821C21.8958 167.111 21.9573 167.382 22.0425 167.635C22.1246 167.884 22.2493 168.086 22.4165 168.241C22.5807 168.392 22.8048 168.468 23.0888 168.468C23.477 168.468 23.7706 168.324 23.9694 168.037C24.1651 167.747 24.2629 167.379 24.2629 166.934ZM25.2477 158.986C25.2477 159.592 25.0946 160.127 24.7885 160.591C24.4791 161.055 24.0436 161.418 23.4818 161.68C22.9168 161.942 22.2493 162.073 21.4791 162.073C20.7153 162.073 20.0525 161.942 19.4907 161.68C18.9289 161.418 18.4949 161.054 18.1887 160.587C17.8826 160.119 17.7295 159.58 17.7295 158.967C17.7295 158.494 17.8084 158.12 17.9662 157.845C18.1209 157.568 18.2976 157.356 18.4965 157.211C18.6922 157.063 18.8531 156.947 18.9794 156.865V156.771H15.4002L15.4002 155.653H25.0962V156.733H23.9789V156.865C24.1114 156.947 24.2787 157.064 24.4807 157.216C24.6796 157.367 24.8579 157.583 25.0157 157.864C25.1704 158.145 25.2477 158.519 25.2477 158.986ZM24.244 158.835C24.244 158.387 24.1272 158.008 23.8937 157.699C23.6569 157.389 23.3303 157.154 22.9136 156.993C22.4939 156.832 22.0094 156.752 21.4602 156.752C20.9173 156.752 20.4423 156.831 20.0351 156.988C19.6248 157.146 19.3061 157.38 19.0788 157.689C18.8484 157.998 18.7332 158.38 18.7332 158.835C18.7332 159.308 18.8547 159.703 19.0977 160.018C19.3376 160.331 19.6643 160.566 20.0778 160.724C20.4881 160.878 20.9489 160.956 21.4602 160.956C21.9778 160.956 22.4481 160.877 22.871 160.719C23.2908 160.558 23.6254 160.321 23.8747 160.009C24.1209 159.693 24.244 159.302 24.244 158.835ZM20.7216 152.335H25.0962V153.452H15.4002V152.335H18.9604V152.24C18.5848 152.069 18.2866 151.814 18.0656 151.473C17.8416 151.129 17.7295 150.671 17.7295 150.1C17.7295 149.604 17.8289 149.17 18.0278 148.798C18.2235 148.425 18.5249 148.137 18.932 147.932C19.336 147.723 19.8505 147.619 20.4754 147.619H25.0962V148.736H20.5512C19.9736 148.736 19.527 148.886 19.2114 149.186C18.8926 149.483 18.7332 149.895 18.7332 150.422C18.7332 150.788 18.8105 151.116 18.9652 151.407C19.1198 151.694 19.3455 151.921 19.6422 152.088C19.9389 152.252 20.2987 152.335 20.7216 152.335ZM25.2477 142.526C25.2477 143.227 25.093 143.831 24.7837 144.339C24.4713 144.844 24.0357 145.234 23.477 145.509C22.9152 145.78 22.2619 145.916 21.517 145.916C20.7721 145.916 20.1156 145.78 19.5475 145.509C18.9762 145.234 18.5312 144.852 18.2124 144.363C17.8905 143.871 17.7295 143.296 17.7295 142.64C17.7295 142.261 17.7926 141.887 17.9189 141.518C18.0451 141.148 18.2503 140.812 18.5343 140.509C18.8153 140.206 19.1877 139.965 19.6517 139.785C20.1156 139.605 20.6869 139.515 21.3655 139.515H21.8389V145.121H20.8731V140.651C20.4628 140.651 20.0967 140.733 19.7748 140.897C19.4528 141.058 19.1987 141.289 19.0125 141.589C18.8263 141.885 18.7332 142.236 18.7332 142.64C18.7332 143.085 18.8437 143.47 19.0646 143.795C19.2824 144.117 19.5664 144.365 19.9168 144.538C20.2671 144.712 20.6427 144.799 21.0436 144.799H21.6874C22.2366 144.799 22.7022 144.704 23.0841 144.515C23.4628 144.322 23.7516 144.055 23.9505 143.714C24.1462 143.374 24.244 142.977 24.244 142.526C24.244 142.233 24.203 141.967 24.1209 141.731C24.0357 141.491 23.9094 141.284 23.7422 141.11C23.5717 140.937 23.3603 140.803 23.1078 140.708L23.4108 139.629C23.7769 139.742 24.0988 139.933 24.3766 140.201C24.6512 140.47 24.8658 140.801 25.0204 141.196C25.1719 141.59 25.2477 142.034 25.2477 142.526ZM25.0962 137.815H17.8242V136.736H18.9226V136.66C18.5628 136.528 18.2708 136.288 18.0467 135.941C17.8226 135.593 17.7106 135.202 17.7106 134.766C17.7106 134.684 17.7121 134.582 17.7153 134.459C17.7185 134.336 17.7232 134.242 17.7295 134.179H18.8658C18.8563 134.217 18.8421 134.304 18.8231 134.44C18.8011 134.572 18.79 134.713 18.79 134.861C18.79 135.215 18.8642 135.53 19.0125 135.808C19.1577 136.083 19.3597 136.3 19.6185 136.461C19.8742 136.619 20.1661 136.698 20.4944 136.698H25.0962V137.815ZM25.2477 130.027C25.2477 130.728 25.093 131.332 24.7837 131.841C24.4713 132.346 24.0357 132.735 23.477 133.01C22.9152 133.281 22.2619 133.417 21.517 133.417C20.7721 133.417 20.1156 133.281 19.5475 133.01C18.9762 132.735 18.5312 132.353 18.2124 131.864C17.8905 131.372 17.7295 130.797 17.7295 130.141C17.7295 129.762 17.7926 129.388 17.9189 129.019C18.0451 128.65 18.2503 128.313 18.5343 128.01C18.8153 127.707 19.1877 127.466 19.6517 127.286C20.1156 127.106 20.6869 127.016 21.3655 127.016H21.8389V132.622H20.8731V128.153C20.4628 128.153 20.0967 128.235 19.7748 128.399C19.4528 128.56 19.1987 128.79 19.0125 129.09C18.8263 129.387 18.7332 129.737 18.7332 130.141C18.7332 130.586 18.8437 130.971 19.0646 131.296C19.2824 131.618 19.5664 131.866 19.9168 132.039C20.2671 132.213 20.6427 132.3 21.0436 132.3H21.6874C22.2366 132.3 22.7022 132.205 23.0841 132.016C23.4628 131.823 23.7516 131.557 23.9505 131.216C24.1462 130.875 24.244 130.479 24.244 130.027C24.244 129.734 24.203 129.469 24.1209 129.232C24.0357 128.992 23.9094 128.785 23.7422 128.612C23.5717 128.438 23.3603 128.304 23.1078 128.209L23.4108 127.13C23.7769 127.244 24.0988 127.434 24.3766 127.703C24.6512 127.971 24.8658 128.302 25.0204 128.697C25.1719 129.091 25.2477 129.535 25.2477 130.027ZM20.7216 124.199H25.0962V125.317H17.8242V124.237H18.9604V124.142C18.5912 123.972 18.2945 123.713 18.0704 123.366C17.8431 123.019 17.7295 122.571 17.7295 122.021C17.7295 121.529 17.8305 121.098 18.0325 120.729C18.2313 120.36 18.5343 120.073 18.9415 119.867C19.3455 119.662 19.8568 119.56 20.4754 119.56H25.0962V120.677H20.5512C19.9799 120.677 19.5349 120.825 19.2161 121.122C18.8942 121.419 18.7332 121.826 18.7332 122.343C18.7332 122.7 18.8105 123.019 18.9652 123.3C19.1198 123.578 19.3455 123.797 19.6422 123.958C19.9389 124.119 20.2987 124.199 20.7216 124.199ZM25.2477 114.564C25.2477 115.245 25.0867 115.832 24.7648 116.325C24.4428 116.817 23.9994 117.196 23.4344 117.461C22.8695 117.726 22.224 117.859 21.4981 117.859C20.7595 117.859 20.1077 117.723 19.5428 117.452C18.9746 117.177 18.5312 116.795 18.2124 116.306C17.8905 115.814 17.7295 115.239 17.7295 114.583C17.7295 114.071 17.8242 113.61 18.0136 113.2C18.2029 112.79 18.4681 112.454 18.8089 112.192C19.1498 111.93 19.5475 111.767 20.002 111.704V112.821C19.6706 112.907 19.3771 113.096 19.1214 113.39C18.8626 113.68 18.7332 114.071 18.7332 114.564C18.7332 114.999 18.8468 115.381 19.0741 115.709C19.2982 116.034 19.6154 116.289 20.0257 116.472C20.4328 116.652 20.911 116.741 21.4602 116.741C22.022 116.741 22.5112 116.653 22.9278 116.476C23.3445 116.296 23.668 116.044 23.8984 115.719C24.1288 115.391 24.244 115.006 24.244 114.564C24.244 114.273 24.1935 114.01 24.0925 113.773C23.9915 113.536 23.8463 113.336 23.6569 113.172C23.4676 113.008 23.2403 112.891 22.9752 112.821V111.704C23.4044 111.767 23.7911 111.923 24.1351 112.173C24.476 112.419 24.7474 112.746 24.9494 113.153C25.1483 113.557 25.2477 114.027 25.2477 114.564ZM25.2477 107.022C25.2477 107.722 25.093 108.327 24.7837 108.835C24.4713 109.34 24.0357 109.73 23.477 110.004C22.9152 110.276 22.2619 110.412 21.517 110.412C20.7721 110.412 20.1156 110.276 19.5475 110.004C18.9762 109.73 18.5312 109.348 18.2124 108.859C17.8905 108.366 17.7295 107.792 17.7295 107.135C17.7295 106.757 17.7926 106.383 17.9189 106.013C18.0451 105.644 18.2503 105.308 18.5343 105.005C18.8153 104.702 19.1877 104.461 19.6517 104.281C20.1156 104.101 20.6869 104.011 21.3655 104.011H21.8389V109.616H20.8731V105.147C20.4628 105.147 20.0967 105.229 19.7748 105.393C19.4528 105.554 19.1987 105.785 19.0125 106.084C18.8263 106.381 18.7332 106.731 18.7332 107.135C18.7332 107.58 18.8437 107.966 19.0646 108.291C19.2824 108.613 19.5664 108.86 19.9168 109.034C20.2671 109.208 20.6427 109.294 21.0436 109.294H21.6874C22.2366 109.294 22.7022 109.2 23.0841 109.01C23.4628 108.818 23.7516 108.551 23.9505 108.21C24.1462 107.869 24.244 107.473 24.244 107.022C24.244 106.728 24.203 106.463 24.1209 106.226C24.0357 105.987 23.9094 105.78 23.7422 105.606C23.5717 105.433 23.3603 105.298 23.1078 105.204L23.4108 104.124C23.7769 104.238 24.0988 104.429 24.3766 104.697C24.6512 104.966 24.8658 105.297 25.0204 105.691C25.1719 106.086 25.2477 106.529 25.2477 107.022Z" fill="black"/>
<path d="M52.1064 321.958H514.536" stroke="black" stroke-width="0.768"/>
<path d="M162.589 333.606V323.91H165.866C166.626 323.91 167.248 324.048 167.731 324.322C168.217 324.594 168.577 324.961 168.81 325.425C169.044 325.889 169.161 326.407 169.161 326.978C169.161 327.55 169.044 328.069 168.81 328.536C168.58 329.003 168.223 329.375 167.74 329.653C167.257 329.928 166.639 330.065 165.885 330.065H163.536V329.024H165.847C166.367 329.024 166.786 328.934 167.101 328.754C167.417 328.574 167.646 328.331 167.788 328.025C167.933 327.715 168.006 327.367 168.006 326.978C168.006 326.59 167.933 326.243 167.788 325.937C167.646 325.631 167.415 325.391 167.097 325.217C166.778 325.04 166.355 324.952 165.828 324.952H163.764V333.606H162.589ZM170.901 333.606V326.334H171.98V327.433H172.056C172.188 327.073 172.428 326.781 172.775 326.557C173.123 326.333 173.514 326.221 173.95 326.221C174.032 326.221 174.134 326.222 174.257 326.226C174.38 326.229 174.473 326.233 174.537 326.24V327.376C174.499 327.367 174.412 327.352 174.276 327.333C174.144 327.311 174.003 327.3 173.855 327.3C173.501 327.3 173.186 327.374 172.908 327.523C172.633 327.668 172.416 327.87 172.255 328.129C172.097 328.384 172.018 328.676 172.018 329.005V333.606H170.901ZM178.689 333.758C177.988 333.758 177.384 333.603 176.875 333.294C176.37 332.982 175.981 332.546 175.706 331.987C175.435 331.425 175.299 330.772 175.299 330.027C175.299 329.282 175.435 328.626 175.706 328.058C175.981 327.486 176.362 327.041 176.852 326.723C177.344 326.401 177.919 326.24 178.575 326.24C178.954 326.24 179.328 326.303 179.697 326.429C180.066 326.555 180.402 326.761 180.705 327.045C181.008 327.326 181.25 327.698 181.43 328.162C181.61 328.626 181.7 329.197 181.7 329.876V330.349H176.094V329.383H180.563C180.563 328.973 180.481 328.607 180.317 328.285C180.156 327.963 179.926 327.709 179.626 327.523C179.329 327.337 178.979 327.243 178.575 327.243C178.13 327.243 177.745 327.354 177.42 327.575C177.098 327.793 176.85 328.077 176.677 328.427C176.503 328.777 176.416 329.153 176.416 329.554V330.198C176.416 330.747 176.511 331.212 176.7 331.594C176.893 331.973 177.159 332.262 177.5 332.461C177.841 332.656 178.237 332.754 178.689 332.754C178.982 332.754 179.247 332.713 179.484 332.631C179.724 332.546 179.931 332.42 180.104 332.252C180.278 332.082 180.412 331.871 180.507 331.618L181.586 331.921C181.472 332.287 181.282 332.609 181.013 332.887C180.745 333.161 180.414 333.376 180.019 333.531C179.624 333.682 179.181 333.758 178.689 333.758Z" fill="black"/>
<path d="M381.647 333.606V323.91H384.923C385.684 323.91 386.306 324.048 386.788 324.322C387.274 324.594 387.634 324.961 387.868 325.425C388.101 325.889 388.218 326.407 388.218 326.978C388.218 327.55 388.101 328.069 387.868 328.536C387.637 329.003 387.281 329.375 386.798 329.653C386.315 329.928 385.696 330.065 384.942 330.065H382.594V329.024H384.904C385.425 329.024 385.843 328.934 386.159 328.754C386.474 328.574 386.703 328.331 386.845 328.025C386.99 327.715 387.063 327.367 387.063 326.978C387.063 326.59 386.99 326.243 386.845 325.937C386.703 325.631 386.473 325.391 386.154 325.217C385.835 325.04 385.412 324.952 384.885 324.952H382.821V333.606H381.647ZM392.834 333.758C392.178 333.758 391.602 333.602 391.106 333.289C390.614 332.977 390.229 332.54 389.951 331.978C389.676 331.416 389.539 330.76 389.539 330.008C389.539 329.251 389.676 328.59 389.951 328.025C390.229 327.46 390.614 327.021 391.106 326.708C391.602 326.396 392.178 326.24 392.834 326.24C393.491 326.24 394.065 326.396 394.558 326.708C395.053 327.021 395.438 327.46 395.713 328.025C395.99 328.59 396.129 329.251 396.129 330.008C396.129 330.76 395.99 331.416 395.713 331.978C395.438 332.54 395.053 332.977 394.558 333.289C394.065 333.602 393.491 333.758 392.834 333.758ZM392.834 332.754C393.333 332.754 393.743 332.626 394.065 332.371C394.387 332.115 394.625 331.779 394.78 331.362C394.935 330.946 395.012 330.494 395.012 330.008C395.012 329.522 394.935 329.069 394.78 328.65C394.625 328.23 394.387 327.89 394.065 327.632C393.743 327.373 393.333 327.243 392.834 327.243C392.336 327.243 391.925 327.373 391.603 327.632C391.281 327.89 391.043 328.23 390.888 328.65C390.734 329.069 390.656 329.522 390.656 330.008C390.656 330.494 390.734 330.946 390.888 331.362C391.043 331.779 391.281 332.115 391.603 332.371C391.925 332.626 392.336 332.754 392.834 332.754ZM402.986 327.963L401.982 328.247C401.919 328.08 401.826 327.917 401.703 327.759C401.583 327.599 401.419 327.466 401.211 327.362C401.002 327.258 400.735 327.206 400.41 327.206C399.965 327.206 399.595 327.308 399.298 327.513C399.004 327.715 398.858 327.973 398.858 328.285C398.858 328.563 398.959 328.782 399.161 328.943C399.363 329.104 399.678 329.238 400.107 329.346L401.187 329.611C401.837 329.768 402.322 330.01 402.64 330.335C402.959 330.657 403.118 331.072 403.118 331.58C403.118 331.997 402.999 332.369 402.759 332.697C402.522 333.026 402.191 333.285 401.764 333.474C401.338 333.663 400.843 333.758 400.278 333.758C399.536 333.758 398.922 333.597 398.436 333.275C397.95 332.953 397.642 332.483 397.513 331.864L398.573 331.599C398.674 331.99 398.865 332.284 399.146 332.48C399.43 332.675 399.801 332.773 400.259 332.773C400.78 332.773 401.193 332.663 401.499 332.442C401.809 332.218 401.963 331.949 401.963 331.637C401.963 331.384 401.875 331.173 401.698 331.003C401.521 330.829 401.25 330.7 400.884 330.614L399.672 330.33C399.006 330.172 398.517 329.928 398.204 329.596C397.895 329.262 397.74 328.844 397.74 328.342C397.74 327.932 397.855 327.569 398.086 327.253C398.319 326.937 398.637 326.69 399.037 326.51C399.441 326.33 399.899 326.24 400.41 326.24C401.13 326.24 401.695 326.398 402.105 326.713C402.519 327.029 402.812 327.445 402.986 327.963ZM407.963 326.334V327.281H404.194V326.334H407.963ZM405.293 324.592H406.41V331.523C406.41 331.839 406.456 332.076 406.547 332.233C406.642 332.388 406.762 332.492 406.907 332.546C407.055 332.596 407.212 332.622 407.376 332.622C407.499 332.622 407.6 332.615 407.679 332.603C407.758 332.587 407.821 332.574 407.868 332.565L408.095 333.569C408.02 333.597 407.914 333.625 407.778 333.654C407.643 333.685 407.471 333.701 407.262 333.701C406.947 333.701 406.637 333.633 406.334 333.498C406.034 333.362 405.785 333.155 405.586 332.877C405.391 332.6 405.293 332.249 405.293 331.826V324.592Z" fill="black"/>
<path d="M257.726 338.58H259.128L262.423 346.628H262.536L265.832 338.58H267.233V348.276H266.135V340.909H266.04L263.01 348.276H261.949L258.919 340.909H258.825V348.276H257.726V338.58ZM272.39 348.427C271.733 348.427 271.157 348.271 270.662 347.959C270.169 347.646 269.784 347.209 269.507 346.647C269.232 346.085 269.095 345.429 269.095 344.678C269.095 343.92 269.232 343.259 269.507 342.694C269.784 342.129 270.169 341.69 270.662 341.378C271.157 341.065 271.733 340.909 272.39 340.909C273.046 340.909 273.621 341.065 274.113 341.378C274.609 341.69 274.994 342.129 275.268 342.694C275.546 343.259 275.685 343.92 275.685 344.678C275.685 345.429 275.546 346.085 275.268 346.647C274.994 347.209 274.609 347.646 274.113 347.959C273.621 348.271 273.046 348.427 272.39 348.427ZM272.39 347.424C272.889 347.424 273.299 347.296 273.621 347.04C273.943 346.785 274.181 346.448 274.336 346.032C274.49 345.615 274.568 345.164 274.568 344.678C274.568 344.192 274.49 343.739 274.336 343.319C274.181 342.899 273.943 342.56 273.621 342.301C273.299 342.042 272.889 341.913 272.39 341.913C271.891 341.913 271.481 342.042 271.159 342.301C270.837 342.56 270.599 342.899 270.444 343.319C270.289 343.739 270.212 344.192 270.212 344.678C270.212 345.164 270.289 345.615 270.444 346.032C270.599 346.448 270.837 346.785 271.159 347.04C271.481 347.296 271.891 347.424 272.39 347.424ZM277.391 348.276V341.004H278.47V342.14H278.565C278.716 341.752 278.961 341.45 279.299 341.236C279.636 341.018 280.042 340.909 280.515 340.909C280.995 340.909 281.394 341.018 281.713 341.236C282.035 341.45 282.286 341.752 282.466 342.14H282.542C282.728 341.765 283.007 341.466 283.38 341.245C283.752 341.021 284.199 340.909 284.719 340.909C285.37 340.909 285.901 341.113 286.315 341.52C286.728 341.924 286.935 342.554 286.935 343.409V348.276H285.818V343.409C285.818 342.872 285.671 342.489 285.377 342.258C285.084 342.028 284.738 341.913 284.341 341.913C283.829 341.913 283.433 342.068 283.152 342.377C282.871 342.683 282.731 343.071 282.731 343.542V348.276H281.595V343.295C281.595 342.882 281.461 342.549 281.192 342.296C280.924 342.041 280.578 341.913 280.155 341.913C279.865 341.913 279.594 341.99 279.341 342.145C279.092 342.3 278.89 342.514 278.735 342.789C278.584 343.06 278.508 343.374 278.508 343.731V348.276H277.391ZM292.027 348.427C291.326 348.427 290.722 348.273 290.214 347.963C289.709 347.651 289.319 347.215 289.044 346.657C288.773 346.095 288.637 345.442 288.637 344.697C288.637 343.952 288.773 343.295 289.044 342.727C289.319 342.156 289.701 341.711 290.19 341.392C290.682 341.07 291.257 340.909 291.913 340.909C292.292 340.909 292.666 340.972 293.035 341.099C293.405 341.225 293.741 341.43 294.044 341.714C294.347 341.995 294.588 342.367 294.768 342.831C294.948 343.295 295.038 343.867 295.038 344.545V345.019H289.432V344.053H293.902C293.902 343.643 293.82 343.276 293.656 342.954C293.495 342.633 293.264 342.378 292.964 342.192C292.668 342.006 292.317 341.913 291.913 341.913C291.468 341.913 291.083 342.023 290.758 342.244C290.436 342.462 290.188 342.746 290.015 343.096C289.841 343.447 289.754 343.822 289.754 344.223V344.867C289.754 345.416 289.849 345.882 290.038 346.264C290.231 346.643 290.498 346.931 290.839 347.13C291.179 347.326 291.576 347.424 292.027 347.424C292.32 347.424 292.586 347.383 292.822 347.301C293.062 347.215 293.269 347.089 293.442 346.922C293.616 346.751 293.75 346.54 293.845 346.287L294.924 346.59C294.811 346.957 294.62 347.279 294.351 347.556C294.083 347.831 293.752 348.045 293.357 348.2C292.963 348.352 292.519 348.427 292.027 348.427ZM297.855 343.901V348.276H296.738V341.004H297.817V342.14H297.912C298.082 341.771 298.341 341.474 298.688 341.25C299.035 341.023 299.484 340.909 300.033 340.909C300.525 340.909 300.956 341.01 301.325 341.212C301.695 341.411 301.982 341.714 302.187 342.121C302.392 342.525 302.495 343.037 302.495 343.655V348.276H301.377V343.731C301.377 343.16 301.229 342.715 300.932 342.396C300.636 342.074 300.228 341.913 299.711 341.913C299.354 341.913 299.035 341.99 298.754 342.145C298.477 342.3 298.257 342.525 298.096 342.822C297.935 343.119 297.855 343.478 297.855 343.901ZM307.699 341.004V341.951H303.93V341.004H307.699ZM305.029 339.262H306.146V346.193C306.146 346.508 306.192 346.745 306.283 346.903C306.378 347.058 306.498 347.162 306.643 347.215C306.791 347.266 306.948 347.291 307.112 347.291C307.235 347.291 307.336 347.285 307.415 347.272C307.494 347.256 307.557 347.244 307.604 347.234L307.831 348.238C307.756 348.266 307.65 348.295 307.514 348.323C307.379 348.355 307.206 348.371 306.998 348.371C306.683 348.371 306.373 348.303 306.07 348.167C305.77 348.031 305.521 347.825 305.322 347.547C305.127 347.269 305.029 346.919 305.029 346.496V339.262Z" fill="black"/>
<path d="M56.7466 364.394L54.627 356.642H55.5808L57.2008 362.955H57.2765L58.9268 356.642H59.9866L61.6369 362.955H61.7126L63.3326 356.642H64.2864L62.1668 364.394H61.1978L59.487 358.216H59.4264L57.7156 364.394H56.7466ZM65.3349 364.394V358.58H66.2281V364.394H65.3349ZM65.7891 357.611C65.615 357.611 65.4648 357.551 65.3387 357.433C65.215 357.314 65.1532 357.172 65.1532 357.005C65.1532 356.839 65.215 356.696 65.3387 356.577C65.4648 356.459 65.615 356.4 65.7891 356.4C65.9632 356.4 66.1121 356.459 66.2357 356.577C66.3619 356.696 66.425 356.839 66.425 357.005C66.425 357.172 66.3619 357.314 66.2357 357.433C66.1121 357.551 65.9632 357.611 65.7891 357.611ZM68.7575 356.642V364.394H67.8642V356.642H68.7575ZM72.7554 364.515C72.2104 364.515 71.7411 364.386 71.3474 364.129C70.9538 363.871 70.651 363.517 70.439 363.065C70.227 362.613 70.1211 362.097 70.1211 361.517C70.1211 360.926 70.2296 360.405 70.4466 359.954C70.6661 359.5 70.9714 359.145 71.3626 358.89C71.7562 358.633 72.2154 358.504 72.7403 358.504C73.1491 358.504 73.5175 358.58 73.8455 358.731C74.1736 358.883 74.4423 359.095 74.6517 359.367C74.8612 359.64 74.9911 359.957 75.0416 360.321H74.1483C74.0802 360.056 73.9288 359.821 73.6941 359.617C73.462 359.41 73.1491 359.306 72.7554 359.306C72.4072 359.306 72.1019 359.397 71.8395 359.579C71.5796 359.758 71.3764 360.012 71.2301 360.34C71.0862 360.665 71.0143 361.048 71.0143 361.487C71.0143 361.936 71.085 362.327 71.2263 362.66C71.3701 362.993 71.572 363.252 71.8319 363.436C72.0943 363.62 72.4022 363.712 72.7554 363.712C72.9876 363.712 73.1983 363.672 73.3875 363.591C73.5768 363.51 73.737 363.394 73.8682 363.243C73.9995 363.092 74.0928 362.91 74.1483 362.698H75.0416C74.9911 363.041 74.8662 363.35 74.6669 363.625C74.4701 363.898 74.2089 364.115 73.8834 364.276C73.5604 364.435 73.1844 364.515 72.7554 364.515ZM78.7093 364.515C78.1845 364.515 77.7239 364.39 77.3278 364.14C76.9341 363.89 76.6263 363.541 76.4042 363.092C76.1847 362.642 76.0749 362.117 76.0749 361.517C76.0749 360.911 76.1847 360.383 76.4042 359.931C76.6263 359.479 76.9341 359.129 77.3278 358.879C77.7239 358.629 78.1845 358.504 78.7093 358.504C79.2342 358.504 79.6934 358.629 80.0871 358.879C80.4832 359.129 80.7911 359.479 81.0106 359.931C81.2327 360.383 81.3437 360.911 81.3437 361.517C81.3437 362.117 81.2327 362.642 81.0106 363.092C80.7911 363.541 80.4832 363.89 80.0871 364.14C79.6934 364.39 79.2342 364.515 78.7093 364.515ZM78.7093 363.712C79.108 363.712 79.436 363.61 79.6934 363.406C79.9508 363.201 80.1413 362.933 80.265 362.599C80.3886 362.266 80.4504 361.906 80.4504 361.517C80.4504 361.128 80.3886 360.766 80.265 360.431C80.1413 360.095 79.9508 359.824 79.6934 359.617C79.436 359.41 79.108 359.306 78.7093 359.306C78.3106 359.306 77.9826 359.41 77.7252 359.617C77.4678 359.824 77.2773 360.095 77.1537 360.431C77.03 360.766 76.9682 361.128 76.9682 361.517C76.9682 361.906 77.03 362.266 77.1537 362.599C77.2773 362.933 77.4678 363.201 77.7252 363.406C77.9826 363.61 78.3106 363.712 78.7093 363.712ZM83.134 358.58L84.5269 360.957L85.9198 358.58H86.9493L85.072 361.487L86.9493 364.394H85.9198L84.5269 362.138L83.134 364.394H82.1045L83.9516 361.487L82.1045 358.58H83.134ZM90.3464 364.515C89.8216 364.515 89.361 364.39 88.9649 364.14C88.5712 363.89 88.2634 363.541 88.0413 363.092C87.8218 362.642 87.712 362.117 87.712 361.517C87.712 360.911 87.8218 360.383 88.0413 359.931C88.2634 359.479 88.5712 359.129 88.9649 358.879C89.361 358.629 89.8216 358.504 90.3464 358.504C90.8713 358.504 91.3305 358.629 91.7242 358.879C92.1203 359.129 92.4282 359.479 92.6477 359.931C92.8698 360.383 92.9808 360.911 92.9808 361.517C92.9808 362.117 92.8698 362.642 92.6477 363.092C92.4282 363.541 92.1203 363.89 91.7242 364.14C91.3305 364.39 90.8713 364.515 90.3464 364.515ZM90.3464 363.712C90.7451 363.712 91.0731 363.61 91.3305 363.406C91.5879 363.201 91.7784 362.933 91.9021 362.599C92.0257 362.266 92.0875 361.906 92.0875 361.517C92.0875 361.128 92.0257 360.766 91.9021 360.431C91.7784 360.095 91.5879 359.824 91.3305 359.617C91.0731 359.41 90.7451 359.306 90.3464 359.306C89.9477 359.306 89.6197 359.41 89.3623 359.617C89.1049 359.824 88.9144 360.095 88.7908 360.431C88.6671 360.766 88.6053 361.128 88.6053 361.517C88.6053 361.906 88.6671 362.266 88.7908 362.599C88.9144 362.933 89.1049 363.201 89.3623 363.406C89.6197 363.61 89.9477 363.712 90.3464 363.712ZM95.2376 360.896V364.394H94.3444V358.58H95.2073V359.488H95.283C95.4193 359.193 95.6262 358.956 95.9038 358.777C96.1814 358.595 96.5397 358.504 96.9787 358.504C97.3724 358.504 97.7168 358.585 98.0121 358.746C98.3073 358.905 98.5369 359.147 98.7009 359.473C98.865 359.796 98.947 360.205 98.947 360.699V364.394H98.0537V360.76C98.0537 360.303 97.9351 359.947 97.6979 359.693C97.4607 359.435 97.1352 359.306 96.7214 359.306C96.4362 359.306 96.1814 359.368 95.9568 359.492C95.7347 359.616 95.5594 359.796 95.4307 360.033C95.302 360.27 95.2376 360.558 95.2376 360.896ZM101.912 363.334L101.851 363.743C101.808 364.03 101.743 364.338 101.654 364.666C101.568 364.994 101.479 365.303 101.385 365.593C101.292 365.884 101.215 366.114 101.155 366.286H100.473C100.506 366.125 100.549 365.911 100.602 365.646C100.655 365.381 100.708 365.085 100.761 364.757C100.816 364.431 100.862 364.098 100.897 363.758L100.943 363.334H101.912ZM106.564 366.574V358.58H107.427V359.503H107.533C107.599 359.402 107.69 359.274 107.806 359.117C107.924 358.958 108.094 358.817 108.313 358.693C108.535 358.567 108.835 358.504 109.214 358.504C109.703 358.504 110.135 358.626 110.508 358.871C110.882 359.116 111.173 359.463 111.383 359.912C111.592 360.361 111.697 360.891 111.697 361.502C111.697 362.117 111.592 362.651 111.383 363.103C111.173 363.552 110.883 363.9 110.512 364.148C110.141 364.392 109.714 364.515 109.229 364.515C108.856 364.515 108.557 364.453 108.332 364.329C108.107 364.203 107.935 364.06 107.813 363.901C107.692 363.74 107.599 363.606 107.533 363.5H107.458V366.574H106.564ZM107.442 361.487C107.442 361.926 107.507 362.313 107.636 362.649C107.764 362.982 107.952 363.243 108.199 363.432C108.447 363.619 108.75 363.712 109.108 363.712C109.481 363.712 109.793 363.614 110.043 363.417C110.295 363.218 110.484 362.95 110.611 362.615C110.739 362.276 110.804 361.9 110.804 361.487C110.804 361.078 110.741 360.709 110.614 360.381C110.491 360.051 110.303 359.79 110.05 359.598C109.801 359.404 109.486 359.306 109.108 359.306C108.745 359.306 108.439 359.399 108.192 359.583C107.945 359.764 107.758 360.019 107.632 360.347C107.506 360.673 107.442 361.053 107.442 361.487ZM113.423 360.654V359.836H118.086V360.654H113.423ZM113.423 362.895V362.077H118.086V362.895H113.423ZM120.343 361.668V361.063L125.218 358.58V359.549L121.478 361.35L121.509 361.29V361.441L121.478 361.381L125.218 363.182V364.151L120.343 361.668ZM129.625 364.5C129.054 364.5 128.569 364.344 128.167 364.034C127.766 363.721 127.46 363.268 127.248 362.675C127.036 362.08 126.93 361.36 126.93 360.518C126.93 359.68 127.036 358.965 127.248 358.372C127.462 357.776 127.77 357.322 128.171 357.009C128.575 356.694 129.059 356.536 129.625 356.536C130.19 356.536 130.673 356.694 131.074 357.009C131.478 357.322 131.786 357.776 131.998 358.372C132.212 358.965 132.32 359.68 132.32 360.518C132.32 361.36 132.214 362.08 132.002 362.675C131.79 363.268 131.483 363.721 131.082 364.034C130.681 364.344 130.195 364.5 129.625 364.5ZM129.625 363.667C130.19 363.667 130.629 363.394 130.942 362.849C131.255 362.304 131.411 361.527 131.411 360.518C131.411 359.846 131.339 359.275 131.195 358.803C131.054 358.331 130.85 357.972 130.582 357.724C130.317 357.477 129.998 357.353 129.625 357.353C129.065 357.353 128.627 357.63 128.311 358.182C127.996 358.732 127.838 359.511 127.838 360.518C127.838 361.189 127.909 361.759 128.05 362.229C128.191 362.698 128.395 363.055 128.66 363.3C128.927 363.544 129.249 363.667 129.625 363.667ZM134.153 364.454C133.967 364.454 133.807 364.387 133.673 364.254C133.539 364.12 133.472 363.96 133.472 363.773C133.472 363.586 133.539 363.426 133.673 363.292C133.807 363.158 133.967 363.092 134.153 363.092C134.34 363.092 134.5 363.158 134.634 363.292C134.768 363.426 134.835 363.586 134.835 363.773C134.835 363.896 134.803 364.01 134.74 364.113C134.68 364.217 134.598 364.3 134.494 364.363C134.393 364.424 134.28 364.454 134.153 364.454ZM138.68 364.5C138.11 364.5 137.624 364.344 137.223 364.034C136.822 363.721 136.515 363.268 136.303 362.675C136.091 362.08 135.985 361.36 135.985 360.518C135.985 359.68 136.091 358.965 136.303 358.372C136.518 357.776 136.826 357.322 137.227 357.009C137.631 356.694 138.115 356.536 138.68 356.536C139.246 356.536 139.729 356.694 140.13 357.009C140.534 357.322 140.842 357.776 141.054 358.372C141.268 358.965 141.375 359.68 141.375 360.518C141.375 361.36 141.269 362.08 141.057 362.675C140.845 363.268 140.539 363.721 140.138 364.034C139.736 364.344 139.251 364.5 138.68 364.5ZM138.68 363.667C139.246 363.667 139.685 363.394 139.998 362.849C140.31 362.304 140.467 361.527 140.467 360.518C140.467 359.846 140.395 359.275 140.251 358.803C140.11 358.331 139.905 357.972 139.638 357.724C139.373 357.477 139.054 357.353 138.68 357.353C138.12 357.353 137.682 357.63 137.367 358.182C137.052 358.732 136.894 359.511 136.894 360.518C136.894 361.189 136.965 361.759 137.106 362.229C137.247 362.698 137.45 363.055 137.715 363.3C137.983 363.544 138.304 363.667 138.68 363.667ZM145.342 364.5C144.772 364.5 144.286 364.344 143.885 364.034C143.484 363.721 143.177 363.268 142.965 362.675C142.753 362.08 142.647 361.36 142.647 360.518C142.647 359.68 142.753 358.965 142.965 358.372C143.18 357.776 143.487 357.322 143.889 357.009C144.292 356.694 144.777 356.536 145.342 356.536C145.907 356.536 146.391 356.694 146.792 357.009C147.195 357.322 147.503 357.776 147.715 358.372C147.93 358.965 148.037 359.68 148.037 360.518C148.037 361.36 147.931 362.08 147.719 362.675C147.507 363.268 147.201 363.721 146.799 364.034C146.398 364.344 145.912 364.5 145.342 364.5ZM145.342 363.667C145.907 363.667 146.346 363.394 146.659 362.849C146.972 362.304 147.129 361.527 147.129 360.518C147.129 359.846 147.057 359.275 146.913 358.803C146.772 358.331 146.567 357.972 146.3 357.724C146.035 357.477 145.716 357.353 145.342 357.353C144.782 357.353 144.344 357.63 144.029 358.182C143.713 358.732 143.556 359.511 143.556 360.518C143.556 361.189 143.626 361.759 143.767 362.229C143.909 362.698 144.112 363.055 144.377 363.3C144.644 363.544 144.966 363.667 145.342 363.667ZM152.201 356.642V364.394H151.262V357.626H151.216L149.324 358.883V357.929L151.262 356.642H152.201Z" fill="black"/>
</svg>
