<?xml version="1.0" encoding="UTF-8" standalone="no"?>
<!-- This is a Stata 18.0 generated SVG file (http://www.stata.com) -->

<svg version="1.1" width="7.500in" height="4.500in" viewBox="0 0 5400 3240" xmlns="http://www.w3.org/2000/svg" xmlns:xlink="http://www.w3.org/1999/xlink">
	<desc>Stata Graph - Graph</desc>
	<rect x="0" y="0" width="5400" height="3240" style="fill:#FFFFFF;stroke:none"/>
	<rect x="0.00" y="0.00" width="5400.00" height="3240.00" style="fill:#FFFFFF"/>
	<rect x="3.24" y="3.24" width="5393.52" height="3233.52" style="fill:none;stroke:#FFFFFF;stroke-width:6.48"/>
	<rect x="568.18" y="113.40" width="4718.42" height="2357.61" style="fill:#FFFFFF"/>
	<rect x="571.42" y="116.64" width="4711.94" height="2351.13" style="fill:none;stroke:#FFFFFF;stroke-width:6.48"/>
	<line x1="639.39" y1="2024.49" x2="639.39" y2="1888.99" style="stroke:#1A85FF;stroke-width:9.72"/>
	<line x1="622.52" y1="1888.99" x2="656.27" y2="1888.99" stroke-linecap="round" style="stroke:#1A85FF;stroke-width:9.72"/>
	<line x1="622.52" y1="2024.49" x2="656.27" y2="2024.49" stroke-linecap="round" style="stroke:#1A85FF;stroke-width:9.72"/>
	<line x1="1554.53" y1="1701.68" x2="1554.53" y2="1325.70" style="stroke:#1A85FF;stroke-width:9.72"/>
	<line x1="1537.65" y1="1325.70" x2="1571.40" y2="1325.70" stroke-linecap="round" style="stroke:#1A85FF;stroke-width:9.72"/>
	<line x1="1537.65" y1="1701.68" x2="1571.40" y2="1701.68" stroke-linecap="round" style="stroke:#1A85FF;stroke-width:9.72"/>
	<line x1="2469.82" y1="1602.45" x2="2469.82" y2="1425.09" style="stroke:#1A85FF;stroke-width:9.72"/>
	<line x1="2452.95" y1="1425.09" x2="2486.70" y2="1425.09" stroke-linecap="round" style="stroke:#1A85FF;stroke-width:9.72"/>
	<line x1="2452.95" y1="1602.45" x2="2486.70" y2="1602.45" stroke-linecap="round" style="stroke:#1A85FF;stroke-width:9.72"/>
	<line x1="3384.96" y1="1672.82" x2="3384.96" y2="468.62" style="stroke:#1A85FF;stroke-width:9.72"/>
	<line x1="3368.08" y1="468.62" x2="3401.83" y2="468.62" stroke-linecap="round" style="stroke:#1A85FF;stroke-width:9.72"/>
	<line x1="3368.08" y1="1672.82" x2="3401.83" y2="1672.82" stroke-linecap="round" style="stroke:#1A85FF;stroke-width:9.72"/>
	<line x1="4300.09" y1="1785.38" x2="4300.09" y2="356.06" style="stroke:#1A85FF;stroke-width:9.72"/>
	<line x1="4283.21" y1="356.06" x2="4316.96" y2="356.06" stroke-linecap="round" style="stroke:#1A85FF;stroke-width:9.72"/>
	<line x1="4283.21" y1="1785.38" x2="4316.96" y2="1785.38" stroke-linecap="round" style="stroke:#1A85FF;stroke-width:9.72"/>
	<line x1="5215.39" y1="2379.38" x2="5215.39" y2="648.17" style="stroke:#1A85FF;stroke-width:9.72"/>
	<line x1="5198.51" y1="648.17" x2="5232.26" y2="648.17" stroke-linecap="round" style="stroke:#1A85FF;stroke-width:9.72"/>
	<line x1="5198.51" y1="2379.38" x2="5232.26" y2="2379.38" stroke-linecap="round" style="stroke:#1A85FF;stroke-width:9.72"/>
	<path d=" M639.23 1956.83 L1554.53 1513.86 L2469.66 1513.86 L3384.79 1070.89 L4300.09 1070.89 L5215.22 1513.86" stroke-linejoin="round" style="fill:none;stroke:#1A85FF;stroke-width:9.72"/>
	<circle cx="639.23" cy="1956.83" r="21.74" style="fill:#1A85FF"/>
	<circle cx="639.23" cy="1956.83" r="16.88" style="fill:none;stroke:#1A85FF;stroke-width:9.72"/>
	<circle cx="1554.53" cy="1513.86" r="21.74" style="fill:#1A85FF"/>
	<circle cx="1554.53" cy="1513.86" r="16.88" style="fill:none;stroke:#1A85FF;stroke-width:9.72"/>
	<circle cx="2469.66" cy="1513.86" r="21.74" style="fill:#1A85FF"/>
	<circle cx="2469.66" cy="1513.86" r="16.88" style="fill:none;stroke:#1A85FF;stroke-width:9.72"/>
	<circle cx="3384.79" cy="1070.89" r="21.74" style="fill:#1A85FF"/>
	<circle cx="3384.79" cy="1070.89" r="16.88" style="fill:none;stroke:#1A85FF;stroke-width:9.72"/>
	<circle cx="4300.09" cy="1070.89" r="21.74" style="fill:#1A85FF"/>
	<circle cx="4300.09" cy="1070.89" r="16.88" style="fill:none;stroke:#1A85FF;stroke-width:9.72"/>
	<circle cx="5215.22" cy="1513.86" r="21.74" style="fill:#1A85FF"/>
	<circle cx="5215.22" cy="1513.86" r="16.88" style="fill:none;stroke:#1A85FF;stroke-width:9.72"/>
	<line x1="568.18" y1="2471.01" x2="568.18" y2="113.40" style="stroke:#000000;stroke-width:6.48"/>
	<line x1="568.18" y1="2399.79" x2="523.13" y2="2399.79" style="stroke:#000000;stroke-width:6.48"/>
	<text x="500.68" y="2439.23" style="font-family:'Helvetica';font-size:112.56px;fill:#000000" text-anchor="end">4.4</text>
	<line x1="568.18" y1="1956.83" x2="523.13" y2="1956.83" style="stroke:#000000;stroke-width:6.48"/>
	<text x="500.68" y="1996.26" style="font-family:'Helvetica';font-size:112.56px;fill:#000000" text-anchor="end">4.5</text>
	<line x1="568.18" y1="1513.69" x2="523.13" y2="1513.69" style="stroke:#000000;stroke-width:6.48"/>
	<text x="500.68" y="1553.12" style="font-family:'Helvetica';font-size:112.56px;fill:#000000" text-anchor="end">4.6</text>
	<line x1="568.18" y1="1070.72" x2="523.13" y2="1070.72" style="stroke:#000000;stroke-width:6.48"/>
	<text x="500.68" y="1110.16" style="font-family:'Helvetica';font-size:112.56px;fill:#000000" text-anchor="end">4.7</text>
	<line x1="568.18" y1="627.75" x2="523.13" y2="627.75" style="stroke:#000000;stroke-width:6.48"/>
	<text x="500.68" y="667.19" style="font-family:'Helvetica';font-size:112.56px;fill:#000000" text-anchor="end">4.8</text>
	<line x1="568.18" y1="184.61" x2="523.13" y2="184.61" style="stroke:#000000;stroke-width:6.48"/>
	<text x="500.68" y="224.05" style="font-family:'Helvetica';font-size:112.56px;fill:#000000" text-anchor="end">4.9</text>
	<text x="224.84" y="1292.29" style="font-family:'Helvetica';font-size:112.56px;fill:#000000" transform="rotate(-90 224.84,1292.29)" text-anchor="middle">TyG mediana (IC 95%)</text>
	<line x1="568.18" y1="2471.01" x2="5286.60" y2="2471.01" style="stroke:#000000;stroke-width:6.48"/>
	<line x1="639.39" y1="2471.01" x2="639.39" y2="2516.06" style="stroke:#000000;stroke-width:6.48"/>
	<text x="654.19" y="2566.34" style="font-family:'Helvetica';font-size:89.94px;fill:#000000" transform="rotate(-28 654.19,2566.34)" text-anchor="end">Ausência</text>
	<line x1="1554.53" y1="2471.01" x2="1554.53" y2="2516.06" style="stroke:#000000;stroke-width:6.48"/>
	<text x="1569.32" y="2566.34" style="font-family:'Helvetica';font-size:89.94px;fill:#000000" transform="rotate(-28 1569.32,2566.34)" text-anchor="end">Espessamento</text>
	<line x1="2469.82" y1="2471.01" x2="2469.82" y2="2516.06" style="stroke:#000000;stroke-width:6.48"/>
	<text x="2484.62" y="2566.34" style="font-family:'Helvetica';font-size:89.94px;fill:#000000" transform="rotate(-28 2484.62,2566.34)" text-anchor="end">Estenose &lt;50%</text>
	<line x1="3384.96" y1="2471.01" x2="3384.96" y2="2516.06" style="stroke:#000000;stroke-width:6.48"/>
	<text x="3399.76" y="2566.34" style="font-family:'Helvetica';font-size:89.94px;fill:#000000" transform="rotate(-28 3399.76,2566.34)" text-anchor="end">Estenose 50-69%</text>
	<line x1="4300.09" y1="2471.01" x2="4300.09" y2="2516.06" style="stroke:#000000;stroke-width:6.48"/>
	<text x="4314.89" y="2566.34" style="font-family:'Helvetica';font-size:89.94px;fill:#000000" transform="rotate(-28 4314.89,2566.34)" text-anchor="end">Estesone &gt;70%</text>
	<line x1="5215.39" y1="2471.01" x2="5215.39" y2="2516.06" style="stroke:#000000;stroke-width:6.48"/>
	<text x="5230.19" y="2566.34" style="font-family:'Helvetica';font-size:89.94px;fill:#000000" transform="rotate(-28 5230.19,2566.34)" text-anchor="end">Sub-oclusão</text>
	<text x="2927.31" y="3070.31" style="font-family:'Helvetica';font-size:112.56px;fill:#000000" text-anchor="middle">Estenose</text>
</svg>
