<?xml version="1.0" encoding="UTF-8" standalone="no"?>
<!-- This is a Stata 18.0 generated SVG file (http://www.stata.com) -->

<svg version="1.1" width="7.500in" height="4.500in" viewBox="0 0 5400 3240" xmlns="http://www.w3.org/2000/svg" xmlns:xlink="http://www.w3.org/1999/xlink">
	<desc>Stata Graph - corr_sara</desc>
	<rect x="0" y="0" width="5400" height="3240" style="fill:#FFFFFF;stroke:none"/>
	<rect x="0.00" y="0.00" width="5400.00" height="3240.00" style="fill:#FFFFFF"/>
	<rect x="3.24" y="3.24" width="5393.52" height="3233.52" style="fill:none;stroke:#FFFFFF;stroke-width:6.48"/>
	<rect x="71.21" y="71.21" width="2628.79" height="1548.79" style="fill:#FFFFFF"/>
	<rect x="73.64" y="73.64" width="2623.93" height="1543.93" style="fill:none;stroke:#FFFFFF;stroke-width:4.86"/>
	<rect x="538.82" y="156.26" width="2076.13" height="1011.99" style="fill:#FFFFFF"/>
	<rect x="541.25" y="158.69" width="2071.27" height="1007.13" style="fill:none;stroke:#FFFFFF;stroke-width:4.86"/>
	<circle cx="1561.61" cy="632.31" r="16.30" style="fill:#000000"/>
	<circle cx="1561.61" cy="632.31" r="12.66" style="fill:none;stroke:#000000;stroke-width:7.29"/>
	<circle cx="1410.24" cy="671.46" r="16.30" style="fill:#000000"/>
	<circle cx="1410.24" cy="671.46" r="12.66" style="fill:none;stroke:#000000;stroke-width:7.29"/>
	<circle cx="2076.64" cy="692.55" r="16.30" style="fill:#000000"/>
	<circle cx="2076.64" cy="692.55" r="12.66" style="fill:none;stroke:#000000;stroke-width:7.29"/>
	<circle cx="1773.73" cy="823.84" r="16.30" style="fill:#000000"/>
	<circle cx="1773.73" cy="823.84" r="12.66" style="fill:none;stroke:#000000;stroke-width:7.29"/>
	<circle cx="1803.94" cy="618.64" r="16.30" style="fill:#000000"/>
	<circle cx="1803.94" cy="618.64" r="12.66" style="fill:none;stroke:#000000;stroke-width:7.29"/>
	<circle cx="622.52" cy="494.94" r="16.30" style="fill:#000000"/>
	<circle cx="622.52" cy="494.94" r="12.66" style="fill:none;stroke:#000000;stroke-width:7.29"/>
	<circle cx="1349.66" cy="739.29" r="16.30" style="fill:#000000"/>
	<circle cx="1349.66" cy="739.29" r="12.66" style="fill:none;stroke:#000000;stroke-width:7.29"/>
	<circle cx="1319.29" cy="703.18" r="16.30" style="fill:#000000"/>
	<circle cx="1319.29" cy="703.18" r="12.66" style="fill:none;stroke:#000000;stroke-width:7.29"/>
	<circle cx="1985.85" cy="858.43" r="16.30" style="fill:#000000"/>
	<circle cx="1985.85" cy="858.43" r="12.66" style="fill:none;stroke:#000000;stroke-width:7.29"/>
	<circle cx="1561.61" cy="626.23" r="16.30" style="fill:#000000"/>
	<circle cx="1561.61" cy="626.23" r="12.66" style="fill:none;stroke:#000000;stroke-width:7.29"/>
	<circle cx="1470.83" cy="544.72" r="16.30" style="fill:#000000"/>
	<circle cx="1470.83" cy="544.72" r="12.66" style="fill:none;stroke:#000000;stroke-width:7.29"/>
	<circle cx="2107.01" cy="769.50" r="16.30" style="fill:#000000"/>
	<circle cx="2107.01" cy="769.50" r="12.66" style="fill:none;stroke:#000000;stroke-width:7.29"/>
	<circle cx="2561.46" cy="632.31" r="16.30" style="fill:#000000"/>
	<circle cx="2561.46" cy="632.31" r="12.66" style="fill:none;stroke:#000000;stroke-width:7.29"/>
	<line x1="538.82" y1="1168.26" x2="538.82" y2="156.26" style="stroke:#000000;stroke-width:4.86"/>
	<line x1="538.82" y1="1114.93" x2="505.07" y2="1114.93" style="stroke:#000000;stroke-width:4.86"/>
	<text x="488.19" y="1144.50" style="font-family:'Helvetica';font-size:84.38px;fill:#000000" text-anchor="end">0</text>
	<line x1="538.82" y1="964.07" x2="505.07" y2="964.07" style="stroke:#000000;stroke-width:4.86"/>
	<text x="488.19" y="993.64" style="font-family:'Helvetica';font-size:84.38px;fill:#000000" text-anchor="end">1</text>
	<line x1="538.82" y1="813.21" x2="505.07" y2="813.21" style="stroke:#000000;stroke-width:4.86"/>
	<text x="488.19" y="842.78" style="font-family:'Helvetica';font-size:84.38px;fill:#000000" text-anchor="end">2</text>
	<line x1="538.82" y1="662.34" x2="505.07" y2="662.34" style="stroke:#000000;stroke-width:4.86"/>
	<text x="488.19" y="691.92" style="font-family:'Helvetica';font-size:84.38px;fill:#000000" text-anchor="end">3</text>
	<line x1="538.82" y1="511.48" x2="505.07" y2="511.48" style="stroke:#000000;stroke-width:4.86"/>
	<text x="488.19" y="541.05" style="font-family:'Helvetica';font-size:84.38px;fill:#000000" text-anchor="end">4</text>
	<line x1="538.82" y1="360.62" x2="505.07" y2="360.62" style="stroke:#000000;stroke-width:4.86"/>
	<text x="488.19" y="390.19" style="font-family:'Helvetica';font-size:84.38px;fill:#000000" text-anchor="end">5</text>
	<line x1="538.82" y1="209.76" x2="505.07" y2="209.76" style="stroke:#000000;stroke-width:4.86"/>
	<text x="488.19" y="239.33" style="font-family:'Helvetica';font-size:84.38px;fill:#000000" text-anchor="end">6</text>
	<text x="232.12" y="662.34" style="font-family:'Helvetica';font-size:84.38px;fill:#000000" transform="rotate(-90 232.12,662.34)" text-anchor="middle">CVF(L)</text>
	<line x1="538.82" y1="1168.26" x2="2614.95" y2="1168.26" style="stroke:#000000;stroke-width:4.86"/>
	<line x1="592.31" y1="1168.26" x2="592.31" y2="1202.01" style="stroke:#000000;stroke-width:4.86"/>
	<text x="592.31" y="1277.86" style="font-family:'Helvetica';font-size:84.38px;fill:#000000" text-anchor="middle">0</text>
	<line x1="1198.13" y1="1168.26" x2="1198.13" y2="1202.01" style="stroke:#000000;stroke-width:4.86"/>
	<text x="1198.13" y="1277.86" style="font-family:'Helvetica';font-size:84.38px;fill:#000000" text-anchor="middle">10</text>
	<line x1="1804.11" y1="1168.26" x2="1804.11" y2="1202.01" style="stroke:#000000;stroke-width:4.86"/>
	<text x="1804.11" y="1277.86" style="font-family:'Helvetica';font-size:84.38px;fill:#000000" text-anchor="middle">20</text>
	<line x1="2410.09" y1="1168.26" x2="2410.09" y2="1202.01" style="stroke:#000000;stroke-width:4.86"/>
	<text x="2410.09" y="1277.86" style="font-family:'Helvetica';font-size:84.38px;fill:#000000" text-anchor="middle">30</text>
	<text x="1576.97" y="1395.98" style="font-family:'Helvetica';font-size:84.38px;fill:#000000" text-anchor="middle">SARA</text>
	<text x="553.33" y="1500.10" style="font-family:'Helvetica';font-size:67.50px;fill:#000000">Spearman's rho = -0,31; p=0,29</text>
	<rect x="2700.00" y="71.21" width="2628.79" height="1548.79" style="fill:#FFFFFF"/>
	<rect x="2702.43" y="73.64" width="2623.93" height="1543.93" style="fill:none;stroke:#FFFFFF;stroke-width:4.86"/>
	<rect x="3142.97" y="156.26" width="2100.77" height="1011.99" style="fill:#FFFFFF"/>
	<rect x="3145.40" y="158.69" width="2095.91" height="1007.13" style="fill:none;stroke:#FFFFFF;stroke-width:4.86"/>
	<circle cx="4177.91" cy="510.30" r="16.30" style="fill:#000000"/>
	<circle cx="4177.91" cy="510.30" r="12.66" style="fill:none;stroke:#000000;stroke-width:7.29"/>
	<circle cx="4024.52" cy="601.93" r="16.30" style="fill:#000000"/>
	<circle cx="4024.52" cy="601.93" r="12.66" style="fill:none;stroke:#000000;stroke-width:7.29"/>
	<circle cx="4699.35" cy="531.06" r="16.30" style="fill:#000000"/>
	<circle cx="4699.35" cy="531.06" r="12.66" style="fill:none;stroke:#000000;stroke-width:7.29"/>
	<circle cx="4392.56" cy="501.36" r="16.30" style="fill:#000000"/>
	<circle cx="4392.56" cy="501.36" r="12.66" style="fill:none;stroke:#000000;stroke-width:7.29"/>
	<circle cx="4423.27" cy="348.30" r="16.30" style="fill:#000000"/>
	<circle cx="4423.27" cy="348.30" r="12.66" style="fill:none;stroke:#000000;stroke-width:7.29"/>
	<circle cx="3227.01" cy="356.06" r="16.30" style="fill:#000000"/>
	<circle cx="3227.01" cy="356.06" r="12.66" style="fill:none;stroke:#000000;stroke-width:7.29"/>
	<circle cx="3963.09" cy="435.21" r="16.30" style="fill:#000000"/>
	<circle cx="3963.09" cy="435.21" r="12.66" style="fill:none;stroke:#000000;stroke-width:7.29"/>
	<circle cx="3932.55" cy="596.03" r="16.30" style="fill:#000000"/>
	<circle cx="3932.55" cy="596.03" r="12.66" style="fill:none;stroke:#000000;stroke-width:7.29"/>
	<circle cx="4607.38" cy="649.18" r="16.30" style="fill:#000000"/>
	<circle cx="4607.38" cy="649.18" r="12.66" style="fill:none;stroke:#000000;stroke-width:7.29"/>
	<circle cx="4177.91" cy="557.55" r="16.30" style="fill:#000000"/>
	<circle cx="4177.91" cy="557.55" r="12.66" style="fill:none;stroke:#000000;stroke-width:7.29"/>
	<circle cx="4085.78" cy="566.49" r="16.30" style="fill:#000000"/>
	<circle cx="4085.78" cy="566.49" r="12.66" style="fill:none;stroke:#000000;stroke-width:7.29"/>
	<circle cx="4730.06" cy="599.06" r="16.30" style="fill:#000000"/>
	<circle cx="4730.06" cy="599.06" r="12.66" style="fill:none;stroke:#000000;stroke-width:7.29"/>
	<circle cx="5190.08" cy="596.03" r="16.30" style="fill:#000000"/>
	<circle cx="5190.08" cy="596.03" r="12.66" style="fill:none;stroke:#000000;stroke-width:7.29"/>
	<line x1="3142.97" y1="1168.26" x2="3142.97" y2="156.26" style="stroke:#000000;stroke-width:4.86"/>
	<line x1="3142.97" y1="1114.93" x2="3109.22" y2="1114.93" style="stroke:#000000;stroke-width:4.86"/>
	<text x="3092.34" y="1144.50" style="font-family:'Helvetica';font-size:84.38px;fill:#000000" text-anchor="end">0</text>
	<line x1="3142.97" y1="964.07" x2="3109.22" y2="964.07" style="stroke:#000000;stroke-width:4.86"/>
	<text x="3092.34" y="993.64" style="font-family:'Helvetica';font-size:84.38px;fill:#000000" text-anchor="end">25</text>
	<line x1="3142.97" y1="813.21" x2="3109.22" y2="813.21" style="stroke:#000000;stroke-width:4.86"/>
	<text x="3092.34" y="842.78" style="font-family:'Helvetica';font-size:84.38px;fill:#000000" text-anchor="end">50</text>
	<line x1="3142.97" y1="662.34" x2="3109.22" y2="662.34" style="stroke:#000000;stroke-width:4.86"/>
	<text x="3092.34" y="691.92" style="font-family:'Helvetica';font-size:84.38px;fill:#000000" text-anchor="end">75</text>
	<line x1="3142.97" y1="511.48" x2="3109.22" y2="511.48" style="stroke:#000000;stroke-width:4.86"/>
	<text x="3092.34" y="541.05" style="font-family:'Helvetica';font-size:84.38px;fill:#000000" text-anchor="end">100</text>
	<line x1="3142.97" y1="360.62" x2="3109.22" y2="360.62" style="stroke:#000000;stroke-width:4.86"/>
	<text x="3092.34" y="390.19" style="font-family:'Helvetica';font-size:84.38px;fill:#000000" text-anchor="end">125</text>
	<line x1="3142.97" y1="209.76" x2="3109.22" y2="209.76" style="stroke:#000000;stroke-width:4.86"/>
	<text x="3092.34" y="239.33" style="font-family:'Helvetica';font-size:84.38px;fill:#000000" text-anchor="end">150</text>
	<text x="2860.90" y="662.34" style="font-family:'Helvetica';font-size:84.38px;fill:#000000" transform="rotate(-90 2860.90,662.34)" text-anchor="middle">Pi máx.</text>
	<line x1="3142.97" y1="1168.26" x2="5243.74" y2="1168.26" style="stroke:#000000;stroke-width:4.86"/>
	<line x1="3196.46" y1="1168.26" x2="3196.46" y2="1202.01" style="stroke:#000000;stroke-width:4.86"/>
	<text x="3196.46" y="1277.86" style="font-family:'Helvetica';font-size:84.38px;fill:#000000" text-anchor="middle">0</text>
	<line x1="3809.87" y1="1168.26" x2="3809.87" y2="1202.01" style="stroke:#000000;stroke-width:4.86"/>
	<text x="3809.87" y="1277.86" style="font-family:'Helvetica';font-size:84.38px;fill:#000000" text-anchor="middle">10</text>
	<line x1="4423.27" y1="1168.26" x2="4423.27" y2="1202.01" style="stroke:#000000;stroke-width:4.86"/>
	<text x="4423.27" y="1277.86" style="font-family:'Helvetica';font-size:84.38px;fill:#000000" text-anchor="middle">20</text>
	<line x1="5036.85" y1="1168.26" x2="5036.85" y2="1202.01" style="stroke:#000000;stroke-width:4.86"/>
	<text x="5036.85" y="1277.86" style="font-family:'Helvetica';font-size:84.38px;fill:#000000" text-anchor="middle">30</text>
	<text x="4193.27" y="1395.98" style="font-family:'Helvetica';font-size:84.38px;fill:#000000" text-anchor="middle">SARA</text>
	<text x="3157.48" y="1500.10" style="font-family:'Helvetica';font-size:67.50px;fill:#000000">Spearman's rho = -0,28; p=0,34</text>
	<rect x="71.21" y="1620.00" width="2628.79" height="1548.79" style="fill:#FFFFFF"/>
	<rect x="73.64" y="1622.43" width="2623.93" height="1543.93" style="fill:none;stroke:#FFFFFF;stroke-width:4.86"/>
	<rect x="514.18" y="1705.05" width="2100.77" height="1011.99" style="fill:#FFFFFF"/>
	<rect x="516.61" y="1707.48" width="2095.91" height="1007.13" style="fill:none;stroke:#FFFFFF;stroke-width:4.86"/>
	<circle cx="1549.13" cy="2470.50" r="16.30" style="fill:#000000"/>
	<circle cx="1549.13" cy="2470.50" r="12.66" style="fill:none;stroke:#000000;stroke-width:7.29"/>
	<circle cx="1395.73" cy="2036.14" r="16.30" style="fill:#000000"/>
	<circle cx="1395.73" cy="2036.14" r="12.66" style="fill:none;stroke:#000000;stroke-width:7.29"/>
	<circle cx="2070.56" cy="2313.73" r="16.30" style="fill:#000000"/>
	<circle cx="2070.56" cy="2313.73" r="12.66" style="fill:none;stroke:#000000;stroke-width:7.29"/>
	<circle cx="1763.94" cy="2482.65" r="16.30" style="fill:#000000"/>
	<circle cx="1763.94" cy="2482.65" r="12.66" style="fill:none;stroke:#000000;stroke-width:7.29"/>
	<circle cx="1794.49" cy="2217.21" r="16.30" style="fill:#000000"/>
	<circle cx="1794.49" cy="2217.21" r="12.66" style="fill:none;stroke:#000000;stroke-width:7.29"/>
	<circle cx="598.22" cy="1843.09" r="16.30" style="fill:#000000"/>
	<circle cx="598.22" cy="1843.09" r="12.66" style="fill:none;stroke:#000000;stroke-width:7.29"/>
	<circle cx="1334.48" cy="1879.20" r="16.30" style="fill:#000000"/>
	<circle cx="1334.48" cy="1879.20" r="12.66" style="fill:none;stroke:#000000;stroke-width:7.29"/>
	<circle cx="1303.76" cy="2180.93" r="16.30" style="fill:#000000"/>
	<circle cx="1303.76" cy="2180.93" r="12.66" style="fill:none;stroke:#000000;stroke-width:7.29"/>
	<circle cx="1978.59" cy="2398.11" r="16.30" style="fill:#000000"/>
	<circle cx="1978.59" cy="2398.11" r="12.66" style="fill:none;stroke:#000000;stroke-width:7.29"/>
	<circle cx="1549.13" cy="2368.07" r="16.30" style="fill:#000000"/>
	<circle cx="1549.13" cy="2368.07" r="12.66" style="fill:none;stroke:#000000;stroke-width:7.29"/>
	<circle cx="1457.16" cy="2464.59" r="16.30" style="fill:#000000"/>
	<circle cx="1457.16" cy="2464.59" r="12.66" style="fill:none;stroke:#000000;stroke-width:7.29"/>
	<circle cx="2101.28" cy="2319.81" r="16.30" style="fill:#000000"/>
	<circle cx="2101.28" cy="2319.81" r="12.66" style="fill:none;stroke:#000000;stroke-width:7.29"/>
	<circle cx="2561.46" cy="2331.79" r="16.30" style="fill:#000000"/>
	<circle cx="2561.46" cy="2331.79" r="12.66" style="fill:none;stroke:#000000;stroke-width:7.29"/>
	<line x1="514.18" y1="2717.04" x2="514.18" y2="1705.05" style="stroke:#000000;stroke-width:4.86"/>
	<line x1="514.18" y1="2663.55" x2="480.43" y2="2663.55" style="stroke:#000000;stroke-width:4.86"/>
	<text x="463.56" y="2693.12" style="font-family:'Helvetica';font-size:84.38px;fill:#000000" text-anchor="end">0</text>
	<line x1="514.18" y1="2512.69" x2="480.43" y2="2512.69" style="stroke:#000000;stroke-width:4.86"/>
	<text x="463.56" y="2542.26" style="font-family:'Helvetica';font-size:84.38px;fill:#000000" text-anchor="end">25</text>
	<line x1="514.18" y1="2361.82" x2="480.43" y2="2361.82" style="stroke:#000000;stroke-width:4.86"/>
	<text x="463.56" y="2391.40" style="font-family:'Helvetica';font-size:84.38px;fill:#000000" text-anchor="end">50</text>
	<line x1="514.18" y1="2210.96" x2="480.43" y2="2210.96" style="stroke:#000000;stroke-width:4.86"/>
	<text x="463.56" y="2240.54" style="font-family:'Helvetica';font-size:84.38px;fill:#000000" text-anchor="end">75</text>
	<line x1="514.18" y1="2060.27" x2="480.43" y2="2060.27" style="stroke:#000000;stroke-width:4.86"/>
	<text x="463.56" y="2089.84" style="font-family:'Helvetica';font-size:84.38px;fill:#000000" text-anchor="end">100</text>
	<line x1="514.18" y1="1909.41" x2="480.43" y2="1909.41" style="stroke:#000000;stroke-width:4.86"/>
	<text x="463.56" y="1938.98" style="font-family:'Helvetica';font-size:84.38px;fill:#000000" text-anchor="end">125</text>
	<line x1="514.18" y1="1758.54" x2="480.43" y2="1758.54" style="stroke:#000000;stroke-width:4.86"/>
	<text x="463.56" y="1788.12" style="font-family:'Helvetica';font-size:84.38px;fill:#000000" text-anchor="end">150</text>
	<text x="232.12" y="2210.96" style="font-family:'Helvetica';font-size:84.38px;fill:#000000" transform="rotate(-90 232.12,2210.96)" text-anchor="middle">SNIP</text>
	<line x1="514.18" y1="2717.04" x2="2614.95" y2="2717.04" style="stroke:#000000;stroke-width:4.86"/>
	<line x1="567.67" y1="2717.04" x2="567.67" y2="2750.79" style="stroke:#000000;stroke-width:4.86"/>
	<text x="567.67" y="2826.65" style="font-family:'Helvetica';font-size:84.38px;fill:#000000" text-anchor="middle">0</text>
	<line x1="1181.08" y1="2717.04" x2="1181.08" y2="2750.79" style="stroke:#000000;stroke-width:4.86"/>
	<text x="1181.08" y="2826.65" style="font-family:'Helvetica';font-size:84.38px;fill:#000000" text-anchor="middle">10</text>
	<line x1="1794.66" y1="2717.04" x2="1794.66" y2="2750.79" style="stroke:#000000;stroke-width:4.86"/>
	<text x="1794.66" y="2826.65" style="font-family:'Helvetica';font-size:84.38px;fill:#000000" text-anchor="middle">20</text>
	<line x1="2408.06" y1="2717.04" x2="2408.06" y2="2750.79" style="stroke:#000000;stroke-width:4.86"/>
	<text x="2408.06" y="2826.65" style="font-family:'Helvetica';font-size:84.38px;fill:#000000" text-anchor="middle">30</text>
	<text x="1564.65" y="2944.77" style="font-family:'Helvetica';font-size:84.38px;fill:#000000" text-anchor="middle">SARA</text>
	<text x="528.86" y="3048.72" style="font-family:'Helvetica';font-size:67.50px;fill:#000000">Spearman's rho = -0,46; p=0,10</text>
	<rect x="2700.00" y="1620.00" width="2628.79" height="1548.79" style="fill:#FFFFFF"/>
	<rect x="2702.43" y="1622.43" width="2623.93" height="1543.93" style="fill:none;stroke:#FFFFFF;stroke-width:4.86"/>
	<rect x="3044.42" y="1705.05" width="2199.32" height="1011.99" style="fill:#FFFFFF"/>
	<rect x="3046.85" y="1707.48" width="2194.46" height="1007.13" style="fill:none;stroke:#FFFFFF;stroke-width:4.86"/>
	<circle cx="4127.96" cy="2235.26" r="16.30" style="fill:#000000"/>
	<circle cx="4127.96" cy="2235.26" r="12.66" style="fill:none;stroke:#000000;stroke-width:7.29"/>
	<circle cx="3966.98" cy="2274.41" r="16.30" style="fill:#000000"/>
	<circle cx="3966.98" cy="2274.41" r="12.66" style="fill:none;stroke:#000000;stroke-width:7.29"/>
	<circle cx="4675.05" cy="2268.51" r="16.30" style="fill:#000000"/>
	<circle cx="4675.05" cy="2268.51" r="12.66" style="fill:none;stroke:#000000;stroke-width:7.29"/>
	<circle cx="4353.24" cy="2381.57" r="16.30" style="fill:#000000"/>
	<circle cx="4353.24" cy="2381.57" r="12.66" style="fill:none;stroke:#000000;stroke-width:7.29"/>
	<circle cx="4385.48" cy="2257.88" r="16.30" style="fill:#000000"/>
	<circle cx="4385.48" cy="2257.88" r="12.66" style="fill:none;stroke:#000000;stroke-width:7.29"/>
	<circle cx="3130.14" cy="2271.54" r="16.30" style="fill:#000000"/>
	<circle cx="3130.14" cy="2271.54" r="12.66" style="fill:none;stroke:#000000;stroke-width:7.29"/>
	<circle cx="3902.51" cy="2286.56" r="16.30" style="fill:#000000"/>
	<circle cx="3902.51" cy="2286.56" r="12.66" style="fill:none;stroke:#000000;stroke-width:7.29"/>
	<circle cx="3870.45" cy="2354.40" r="16.30" style="fill:#000000"/>
	<circle cx="3870.45" cy="2354.40" r="12.66" style="fill:none;stroke:#000000;stroke-width:7.29"/>
	<circle cx="4578.52" cy="2512.86" r="16.30" style="fill:#000000"/>
	<circle cx="4578.52" cy="2512.86" r="12.66" style="fill:none;stroke:#000000;stroke-width:7.29"/>
	<circle cx="4127.96" cy="2251.80" r="16.30" style="fill:#000000"/>
	<circle cx="4127.96" cy="2251.80" r="12.66" style="fill:none;stroke:#000000;stroke-width:7.29"/>
	<circle cx="4031.27" cy="2164.39" r="16.30" style="fill:#000000"/>
	<circle cx="4031.27" cy="2164.39" r="12.66" style="fill:none;stroke:#000000;stroke-width:7.29"/>
	<circle cx="4707.28" cy="2360.48" r="16.30" style="fill:#000000"/>
	<circle cx="4707.28" cy="2360.48" r="12.66" style="fill:none;stroke:#000000;stroke-width:7.29"/>
	<circle cx="5190.08" cy="2271.54" r="16.30" style="fill:#000000"/>
	<circle cx="5190.08" cy="2271.54" r="12.66" style="fill:none;stroke:#000000;stroke-width:7.29"/>
	<line x1="3044.42" y1="2717.04" x2="3044.42" y2="1705.05" style="stroke:#000000;stroke-width:4.86"/>
	<line x1="3044.42" y1="2663.55" x2="3010.67" y2="2663.55" style="stroke:#000000;stroke-width:4.86"/>
	<text x="2993.79" y="2693.12" style="font-family:'Helvetica';font-size:84.38px;fill:#000000" text-anchor="end">0</text>
	<line x1="3044.42" y1="2512.69" x2="3010.67" y2="2512.69" style="stroke:#000000;stroke-width:4.86"/>
	<text x="2993.79" y="2542.26" style="font-family:'Helvetica';font-size:84.38px;fill:#000000" text-anchor="end">1</text>
	<line x1="3044.42" y1="2361.82" x2="3010.67" y2="2361.82" style="stroke:#000000;stroke-width:4.86"/>
	<text x="2993.79" y="2391.40" style="font-family:'Helvetica';font-size:84.38px;fill:#000000" text-anchor="end">2</text>
	<line x1="3044.42" y1="2210.96" x2="3010.67" y2="2210.96" style="stroke:#000000;stroke-width:4.86"/>
	<text x="2993.79" y="2240.54" style="font-family:'Helvetica';font-size:84.38px;fill:#000000" text-anchor="end">3</text>
	<line x1="3044.42" y1="2060.27" x2="3010.67" y2="2060.27" style="stroke:#000000;stroke-width:4.86"/>
	<text x="2993.79" y="2089.84" style="font-family:'Helvetica';font-size:84.38px;fill:#000000" text-anchor="end">4</text>
	<line x1="3044.42" y1="1909.41" x2="3010.67" y2="1909.41" style="stroke:#000000;stroke-width:4.86"/>
	<text x="2993.79" y="1938.98" style="font-family:'Helvetica';font-size:84.38px;fill:#000000" text-anchor="end">5</text>
	<line x1="3044.42" y1="1758.54" x2="3010.67" y2="1758.54" style="stroke:#000000;stroke-width:4.86"/>
	<text x="2993.79" y="1788.12" style="font-family:'Helvetica';font-size:84.38px;fill:#000000" text-anchor="end">6</text>
	<text x="2860.90" y="2210.96" style="font-family:'Helvetica';font-size:84.38px;fill:#000000" transform="rotate(-90 2860.90,2210.96)" text-anchor="middle">VEF1 (L)</text>
	<line x1="3044.42" y1="2717.04" x2="5243.74" y2="2717.04" style="stroke:#000000;stroke-width:4.86"/>
	<line x1="3097.91" y1="2717.04" x2="3097.91" y2="2750.79" style="stroke:#000000;stroke-width:4.86"/>
	<text x="3097.91" y="2826.65" style="font-family:'Helvetica';font-size:84.38px;fill:#000000" text-anchor="middle">0</text>
	<line x1="3741.69" y1="2717.04" x2="3741.69" y2="2750.79" style="stroke:#000000;stroke-width:4.86"/>
	<text x="3741.69" y="2826.65" style="font-family:'Helvetica';font-size:84.38px;fill:#000000" text-anchor="middle">10</text>
	<line x1="4385.48" y1="2717.04" x2="4385.48" y2="2750.79" style="stroke:#000000;stroke-width:4.86"/>
	<text x="4385.48" y="2826.65" style="font-family:'Helvetica';font-size:84.38px;fill:#000000" text-anchor="middle">20</text>
	<line x1="5029.26" y1="2717.04" x2="5029.26" y2="2750.79" style="stroke:#000000;stroke-width:4.86"/>
	<text x="5029.26" y="2826.65" style="font-family:'Helvetica';font-size:84.38px;fill:#000000" text-anchor="middle">30</text>
	<text x="4144.16" y="2944.77" style="font-family:'Helvetica';font-size:84.38px;fill:#000000" text-anchor="middle">SARA</text>
	<text x="3059.10" y="3048.72" style="font-family:'Helvetica';font-size:67.50px;fill:#000000">Spearman's rho = -0,10; p=0,72</text>
</svg>
