<?xml version="1.0" encoding="UTF-8" standalone="no"?>
<!-- This is a Stata 18.0 generated SVG file (http://www.stata.com) -->

<svg version="1.1" width="7.500in" height="4.500in" viewBox="0 0 5400 3240" xmlns="http://www.w3.org/2000/svg" xmlns:xlink="http://www.w3.org/1999/xlink">
	<desc>Stata Graph - corr_icars</desc>
	<rect x="0" y="0" width="5400" height="3240" style="fill:#FFFFFF;stroke:none"/>
	<rect x="0.00" y="0.00" width="5400.00" height="3240.00" style="fill:#FFFFFF"/>
	<rect x="3.24" y="3.24" width="5393.52" height="3233.52" style="fill:none;stroke:#FFFFFF;stroke-width:6.48"/>
	<rect x="71.21" y="71.21" width="2628.79" height="1548.79" style="fill:#FFFFFF"/>
	<rect x="73.64" y="73.64" width="2623.93" height="1543.93" style="fill:none;stroke:#FFFFFF;stroke-width:4.86"/>
	<rect x="538.82" y="156.26" width="2076.13" height="1011.99" style="fill:#FFFFFF"/>
	<rect x="541.25" y="158.69" width="2071.27" height="1007.13" style="fill:none;stroke:#FFFFFF;stroke-width:4.86"/>
	<circle cx="1404.51" cy="632.31" r="16.30" style="fill:#000000"/>
	<circle cx="1404.51" cy="632.31" r="12.66" style="fill:none;stroke:#000000;stroke-width:7.29"/>
	<circle cx="1847.64" cy="671.46" r="16.30" style="fill:#000000"/>
	<circle cx="1847.64" cy="671.46" r="12.66" style="fill:none;stroke:#000000;stroke-width:7.29"/>
	<circle cx="2216.87" cy="692.55" r="16.30" style="fill:#000000"/>
	<circle cx="2216.87" cy="692.55" r="12.66" style="fill:none;stroke:#000000;stroke-width:7.29"/>
	<circle cx="1724.46" cy="823.84" r="16.30" style="fill:#000000"/>
	<circle cx="1724.46" cy="823.84" r="12.66" style="fill:none;stroke:#000000;stroke-width:7.29"/>
	<circle cx="1699.82" cy="618.64" r="16.30" style="fill:#000000"/>
	<circle cx="1699.82" cy="618.64" r="12.66" style="fill:none;stroke:#000000;stroke-width:7.29"/>
	<circle cx="592.14" cy="494.94" r="16.30" style="fill:#000000"/>
	<circle cx="592.14" cy="494.94" r="12.66" style="fill:none;stroke:#000000;stroke-width:7.29"/>
	<circle cx="1232.21" cy="739.29" r="16.30" style="fill:#000000"/>
	<circle cx="1232.21" cy="739.29" r="12.66" style="fill:none;stroke:#000000;stroke-width:7.29"/>
	<circle cx="1576.80" cy="703.18" r="16.30" style="fill:#000000"/>
	<circle cx="1576.80" cy="703.18" r="12.66" style="fill:none;stroke:#000000;stroke-width:7.29"/>
	<circle cx="2019.94" cy="858.43" r="16.30" style="fill:#000000"/>
	<circle cx="2019.94" cy="858.43" r="12.66" style="fill:none;stroke:#000000;stroke-width:7.29"/>
	<circle cx="1724.46" cy="626.23" r="16.30" style="fill:#000000"/>
	<circle cx="1724.46" cy="626.23" r="12.66" style="fill:none;stroke:#000000;stroke-width:7.29"/>
	<circle cx="1601.44" cy="544.72" r="16.30" style="fill:#000000"/>
	<circle cx="1601.44" cy="544.72" r="12.66" style="fill:none;stroke:#000000;stroke-width:7.29"/>
	<circle cx="1921.39" cy="769.50" r="16.30" style="fill:#000000"/>
	<circle cx="1921.39" cy="769.50" r="12.66" style="fill:none;stroke:#000000;stroke-width:7.29"/>
	<circle cx="2561.46" cy="632.31" r="16.30" style="fill:#000000"/>
	<circle cx="2561.46" cy="632.31" r="12.66" style="fill:none;stroke:#000000;stroke-width:7.29"/>
	<line x1="538.82" y1="1168.26" x2="538.82" y2="156.26" style="stroke:#000000;stroke-width:4.86"/>
	<line x1="538.82" y1="1114.93" x2="505.07" y2="1114.93" style="stroke:#000000;stroke-width:4.86"/>
	<text x="488.19" y="1144.50" style="font-family:'Helvetica';font-size:84.38px;fill:#000000" text-anchor="end">0</text>
	<line x1="538.82" y1="964.07" x2="505.07" y2="964.07" style="stroke:#000000;stroke-width:4.86"/>
	<text x="488.19" y="993.64" style="font-family:'Helvetica';font-size:84.38px;fill:#000000" text-anchor="end">1</text>
	<line x1="538.82" y1="813.21" x2="505.07" y2="813.21" style="stroke:#000000;stroke-width:4.86"/>
	<text x="488.19" y="842.78" style="font-family:'Helvetica';font-size:84.38px;fill:#000000" text-anchor="end">2</text>
	<line x1="538.82" y1="662.34" x2="505.07" y2="662.34" style="stroke:#000000;stroke-width:4.86"/>
	<text x="488.19" y="691.92" style="font-family:'Helvetica';font-size:84.38px;fill:#000000" text-anchor="end">3</text>
	<line x1="538.82" y1="511.48" x2="505.07" y2="511.48" style="stroke:#000000;stroke-width:4.86"/>
	<text x="488.19" y="541.05" style="font-family:'Helvetica';font-size:84.38px;fill:#000000" text-anchor="end">4</text>
	<line x1="538.82" y1="360.62" x2="505.07" y2="360.62" style="stroke:#000000;stroke-width:4.86"/>
	<text x="488.19" y="390.19" style="font-family:'Helvetica';font-size:84.38px;fill:#000000" text-anchor="end">5</text>
	<line x1="538.82" y1="209.76" x2="505.07" y2="209.76" style="stroke:#000000;stroke-width:4.86"/>
	<text x="488.19" y="239.33" style="font-family:'Helvetica';font-size:84.38px;fill:#000000" text-anchor="end">6</text>
	<text x="232.12" y="662.34" style="font-family:'Helvetica';font-size:84.38px;fill:#000000" transform="rotate(-90 232.12,662.34)" text-anchor="middle">CVF(L)</text>
	<line x1="538.82" y1="1168.26" x2="2614.95" y2="1168.26" style="stroke:#000000;stroke-width:4.86"/>
	<line x1="592.31" y1="1168.26" x2="592.31" y2="1202.01" style="stroke:#000000;stroke-width:4.86"/>
	<text x="592.31" y="1277.86" style="font-family:'Helvetica';font-size:84.38px;fill:#000000" text-anchor="middle">0</text>
	<line x1="1084.56" y1="1168.26" x2="1084.56" y2="1202.01" style="stroke:#000000;stroke-width:4.86"/>
	<text x="1084.56" y="1277.86" style="font-family:'Helvetica';font-size:84.38px;fill:#000000" text-anchor="middle">20</text>
	<line x1="1576.97" y1="1168.26" x2="1576.97" y2="1202.01" style="stroke:#000000;stroke-width:4.86"/>
	<text x="1576.97" y="1277.86" style="font-family:'Helvetica';font-size:84.38px;fill:#000000" text-anchor="middle">40</text>
	<line x1="2069.21" y1="1168.26" x2="2069.21" y2="1202.01" style="stroke:#000000;stroke-width:4.86"/>
	<text x="2069.21" y="1277.86" style="font-family:'Helvetica';font-size:84.38px;fill:#000000" text-anchor="middle">60</text>
	<line x1="2561.46" y1="1168.26" x2="2561.46" y2="1202.01" style="stroke:#000000;stroke-width:4.86"/>
	<text x="2561.46" y="1277.86" style="font-family:'Helvetica';font-size:84.38px;fill:#000000" text-anchor="middle">80</text>
	<text x="1576.97" y="1395.98" style="font-family:'Helvetica';font-size:84.38px;fill:#000000" text-anchor="middle">ICARS</text>
	<text x="553.33" y="1500.10" style="font-family:'Helvetica';font-size:67.50px;fill:#000000">Spearman's rho = -0,37; p=0,20</text>
	<rect x="2700.00" y="71.21" width="2628.79" height="1548.79" style="fill:#FFFFFF"/>
	<rect x="2702.43" y="73.64" width="2623.93" height="1543.93" style="fill:none;stroke:#FFFFFF;stroke-width:4.86"/>
	<rect x="3142.97" y="156.26" width="2100.77" height="1011.99" style="fill:#FFFFFF"/>
	<rect x="3145.40" y="158.69" width="2095.91" height="1007.13" style="fill:none;stroke:#FFFFFF;stroke-width:4.86"/>
	<circle cx="4018.78" cy="921.88" r="16.30" style="fill:#000000"/>
	<circle cx="4018.78" cy="921.88" r="12.66" style="fill:none;stroke:#000000;stroke-width:7.29"/>
	<circle cx="4467.32" cy="487.35" r="16.30" style="fill:#000000"/>
	<circle cx="4467.32" cy="487.35" r="12.66" style="fill:none;stroke:#000000;stroke-width:7.29"/>
	<circle cx="4841.27" cy="764.94" r="16.30" style="fill:#000000"/>
	<circle cx="4841.27" cy="764.94" r="12.66" style="fill:none;stroke:#000000;stroke-width:7.29"/>
	<circle cx="4342.78" cy="933.86" r="16.30" style="fill:#000000"/>
	<circle cx="4342.78" cy="933.86" r="12.66" style="fill:none;stroke:#000000;stroke-width:7.29"/>
	<circle cx="4317.81" cy="668.42" r="16.30" style="fill:#000000"/>
	<circle cx="4317.81" cy="668.42" r="12.66" style="fill:none;stroke:#000000;stroke-width:7.29"/>
	<circle cx="3196.29" cy="294.30" r="16.30" style="fill:#000000"/>
	<circle cx="3196.29" cy="294.30" r="12.66" style="fill:none;stroke:#000000;stroke-width:7.29"/>
	<circle cx="3844.29" cy="330.58" r="16.30" style="fill:#000000"/>
	<circle cx="3844.29" cy="330.58" r="12.66" style="fill:none;stroke:#000000;stroke-width:7.29"/>
	<circle cx="4193.27" cy="632.31" r="16.30" style="fill:#000000"/>
	<circle cx="4193.27" cy="632.31" r="12.66" style="fill:none;stroke:#000000;stroke-width:7.29"/>
	<circle cx="4641.81" cy="849.49" r="16.30" style="fill:#000000"/>
	<circle cx="4641.81" cy="849.49" r="12.66" style="fill:none;stroke:#000000;stroke-width:7.29"/>
	<circle cx="4342.78" cy="819.28" r="16.30" style="fill:#000000"/>
	<circle cx="4342.78" cy="819.28" r="12.66" style="fill:none;stroke:#000000;stroke-width:7.29"/>
	<circle cx="4218.08" cy="915.81" r="16.30" style="fill:#000000"/>
	<circle cx="4218.08" cy="915.81" r="12.66" style="fill:none;stroke:#000000;stroke-width:7.29"/>
	<circle cx="4542.08" cy="771.02" r="16.30" style="fill:#000000"/>
	<circle cx="4542.08" cy="771.02" r="12.66" style="fill:none;stroke:#000000;stroke-width:7.29"/>
	<circle cx="5190.08" cy="783.00" r="16.30" style="fill:#000000"/>
	<circle cx="5190.08" cy="783.00" r="12.66" style="fill:none;stroke:#000000;stroke-width:7.29"/>
	<line x1="3142.97" y1="1168.26" x2="3142.97" y2="156.26" style="stroke:#000000;stroke-width:4.86"/>
	<line x1="3142.97" y1="1114.93" x2="3109.22" y2="1114.93" style="stroke:#000000;stroke-width:4.86"/>
	<text x="3092.34" y="1144.50" style="font-family:'Helvetica';font-size:84.38px;fill:#000000" text-anchor="end">0</text>
	<line x1="3142.97" y1="964.07" x2="3109.22" y2="964.07" style="stroke:#000000;stroke-width:4.86"/>
	<text x="3092.34" y="993.64" style="font-family:'Helvetica';font-size:84.38px;fill:#000000" text-anchor="end">25</text>
	<line x1="3142.97" y1="813.21" x2="3109.22" y2="813.21" style="stroke:#000000;stroke-width:4.86"/>
	<text x="3092.34" y="842.78" style="font-family:'Helvetica';font-size:84.38px;fill:#000000" text-anchor="end">50</text>
	<line x1="3142.97" y1="662.34" x2="3109.22" y2="662.34" style="stroke:#000000;stroke-width:4.86"/>
	<text x="3092.34" y="691.92" style="font-family:'Helvetica';font-size:84.38px;fill:#000000" text-anchor="end">75</text>
	<line x1="3142.97" y1="511.48" x2="3109.22" y2="511.48" style="stroke:#000000;stroke-width:4.86"/>
	<text x="3092.34" y="541.05" style="font-family:'Helvetica';font-size:84.38px;fill:#000000" text-anchor="end">100</text>
	<line x1="3142.97" y1="360.62" x2="3109.22" y2="360.62" style="stroke:#000000;stroke-width:4.86"/>
	<text x="3092.34" y="390.19" style="font-family:'Helvetica';font-size:84.38px;fill:#000000" text-anchor="end">125</text>
	<line x1="3142.97" y1="209.76" x2="3109.22" y2="209.76" style="stroke:#000000;stroke-width:4.86"/>
	<text x="3092.34" y="239.33" style="font-family:'Helvetica';font-size:84.38px;fill:#000000" text-anchor="end">150</text>
	<text x="2860.90" y="662.34" style="font-family:'Helvetica';font-size:84.38px;fill:#000000" transform="rotate(-90 2860.90,662.34)" text-anchor="middle">SNIP</text>
	<line x1="3142.97" y1="1168.26" x2="5243.74" y2="1168.26" style="stroke:#000000;stroke-width:4.86"/>
	<line x1="3196.46" y1="1168.26" x2="3196.46" y2="1202.01" style="stroke:#000000;stroke-width:4.86"/>
	<text x="3196.46" y="1277.86" style="font-family:'Helvetica';font-size:84.38px;fill:#000000" text-anchor="middle">0</text>
	<line x1="3694.78" y1="1168.26" x2="3694.78" y2="1202.01" style="stroke:#000000;stroke-width:4.86"/>
	<text x="3694.78" y="1277.86" style="font-family:'Helvetica';font-size:84.38px;fill:#000000" text-anchor="middle">20</text>
	<line x1="4193.27" y1="1168.26" x2="4193.27" y2="1202.01" style="stroke:#000000;stroke-width:4.86"/>
	<text x="4193.27" y="1277.86" style="font-family:'Helvetica';font-size:84.38px;fill:#000000" text-anchor="middle">40</text>
	<line x1="4691.76" y1="1168.26" x2="4691.76" y2="1202.01" style="stroke:#000000;stroke-width:4.86"/>
	<text x="4691.76" y="1277.86" style="font-family:'Helvetica';font-size:84.38px;fill:#000000" text-anchor="middle">60</text>
	<line x1="5190.24" y1="1168.26" x2="5190.24" y2="1202.01" style="stroke:#000000;stroke-width:4.86"/>
	<text x="5190.24" y="1277.86" style="font-family:'Helvetica';font-size:84.38px;fill:#000000" text-anchor="middle">80</text>
	<text x="4193.27" y="1395.98" style="font-family:'Helvetica';font-size:84.38px;fill:#000000" text-anchor="middle">ICARS</text>
	<text x="3157.48" y="1500.10" style="font-family:'Helvetica';font-size:67.50px;fill:#000000">Spearman's rho = -0,29; p=0,32</text>
	<rect x="71.21" y="1620.00" width="2628.79" height="1548.79" style="fill:#FFFFFF"/>
	<rect x="73.64" y="1622.43" width="2623.93" height="1543.93" style="fill:none;stroke:#FFFFFF;stroke-width:4.86"/>
	<rect x="514.18" y="1705.05" width="2100.77" height="1011.99" style="fill:#FFFFFF"/>
	<rect x="516.61" y="1707.48" width="2095.91" height="1007.13" style="fill:none;stroke:#FFFFFF;stroke-width:4.86"/>
	<circle cx="1389.99" cy="2059.09" r="16.30" style="fill:#000000"/>
	<circle cx="1389.99" cy="2059.09" r="12.66" style="fill:none;stroke:#000000;stroke-width:7.29"/>
	<circle cx="1838.70" cy="2150.72" r="16.30" style="fill:#000000"/>
	<circle cx="1838.70" cy="2150.72" r="12.66" style="fill:none;stroke:#000000;stroke-width:7.29"/>
	<circle cx="2212.48" cy="2079.68" r="16.30" style="fill:#000000"/>
	<circle cx="2212.48" cy="2079.68" r="12.66" style="fill:none;stroke:#000000;stroke-width:7.29"/>
	<circle cx="1713.99" cy="2050.14" r="16.30" style="fill:#000000"/>
	<circle cx="1713.99" cy="2050.14" r="12.66" style="fill:none;stroke:#000000;stroke-width:7.29"/>
	<circle cx="1689.19" cy="1897.09" r="16.30" style="fill:#000000"/>
	<circle cx="1689.19" cy="1897.09" r="12.66" style="fill:none;stroke:#000000;stroke-width:7.29"/>
	<circle cx="567.51" cy="1904.68" r="16.30" style="fill:#000000"/>
	<circle cx="567.51" cy="1904.68" r="12.66" style="fill:none;stroke:#000000;stroke-width:7.29"/>
	<circle cx="1215.51" cy="1983.83" r="16.30" style="fill:#000000"/>
	<circle cx="1215.51" cy="1983.83" r="12.66" style="fill:none;stroke:#000000;stroke-width:7.29"/>
	<circle cx="1564.48" cy="2144.81" r="16.30" style="fill:#000000"/>
	<circle cx="1564.48" cy="2144.81" r="12.66" style="fill:none;stroke:#000000;stroke-width:7.29"/>
	<circle cx="2013.19" cy="2197.97" r="16.30" style="fill:#000000"/>
	<circle cx="2013.19" cy="2197.97" r="12.66" style="fill:none;stroke:#000000;stroke-width:7.29"/>
	<circle cx="1713.99" cy="2106.34" r="16.30" style="fill:#000000"/>
	<circle cx="1713.99" cy="2106.34" r="12.66" style="fill:none;stroke:#000000;stroke-width:7.29"/>
	<circle cx="1589.46" cy="2115.11" r="16.30" style="fill:#000000"/>
	<circle cx="1589.46" cy="2115.11" r="12.66" style="fill:none;stroke:#000000;stroke-width:7.29"/>
	<circle cx="1913.46" cy="2147.68" r="16.30" style="fill:#000000"/>
	<circle cx="1913.46" cy="2147.68" r="12.66" style="fill:none;stroke:#000000;stroke-width:7.29"/>
	<circle cx="2561.46" cy="2144.81" r="16.30" style="fill:#000000"/>
	<circle cx="2561.46" cy="2144.81" r="12.66" style="fill:none;stroke:#000000;stroke-width:7.29"/>
	<line x1="514.18" y1="2717.04" x2="514.18" y2="1705.05" style="stroke:#000000;stroke-width:4.86"/>
	<line x1="514.18" y1="2663.55" x2="480.43" y2="2663.55" style="stroke:#000000;stroke-width:4.86"/>
	<text x="463.56" y="2693.12" style="font-family:'Helvetica';font-size:84.38px;fill:#000000" text-anchor="end">0</text>
	<line x1="514.18" y1="2512.69" x2="480.43" y2="2512.69" style="stroke:#000000;stroke-width:4.86"/>
	<text x="463.56" y="2542.26" style="font-family:'Helvetica';font-size:84.38px;fill:#000000" text-anchor="end">25</text>
	<line x1="514.18" y1="2361.82" x2="480.43" y2="2361.82" style="stroke:#000000;stroke-width:4.86"/>
	<text x="463.56" y="2391.40" style="font-family:'Helvetica';font-size:84.38px;fill:#000000" text-anchor="end">50</text>
	<line x1="514.18" y1="2210.96" x2="480.43" y2="2210.96" style="stroke:#000000;stroke-width:4.86"/>
	<text x="463.56" y="2240.54" style="font-family:'Helvetica';font-size:84.38px;fill:#000000" text-anchor="end">75</text>
	<line x1="514.18" y1="2060.27" x2="480.43" y2="2060.27" style="stroke:#000000;stroke-width:4.86"/>
	<text x="463.56" y="2089.84" style="font-family:'Helvetica';font-size:84.38px;fill:#000000" text-anchor="end">100</text>
	<line x1="514.18" y1="1909.41" x2="480.43" y2="1909.41" style="stroke:#000000;stroke-width:4.86"/>
	<text x="463.56" y="1938.98" style="font-family:'Helvetica';font-size:84.38px;fill:#000000" text-anchor="end">125</text>
	<line x1="514.18" y1="1758.54" x2="480.43" y2="1758.54" style="stroke:#000000;stroke-width:4.86"/>
	<text x="463.56" y="1788.12" style="font-family:'Helvetica';font-size:84.38px;fill:#000000" text-anchor="end">150</text>
	<text x="232.12" y="2210.96" style="font-family:'Helvetica';font-size:84.38px;fill:#000000" transform="rotate(-90 232.12,2210.96)" text-anchor="middle">Pi máx.</text>
	<line x1="514.18" y1="2717.04" x2="2614.95" y2="2717.04" style="stroke:#000000;stroke-width:4.86"/>
	<line x1="567.67" y1="2717.04" x2="567.67" y2="2750.79" style="stroke:#000000;stroke-width:4.86"/>
	<text x="567.67" y="2826.65" style="font-family:'Helvetica';font-size:84.38px;fill:#000000" text-anchor="middle">0</text>
	<line x1="1066.16" y1="2717.04" x2="1066.16" y2="2750.79" style="stroke:#000000;stroke-width:4.86"/>
	<text x="1066.16" y="2826.65" style="font-family:'Helvetica';font-size:84.38px;fill:#000000" text-anchor="middle">20</text>
	<line x1="1564.65" y1="2717.04" x2="1564.65" y2="2750.79" style="stroke:#000000;stroke-width:4.86"/>
	<text x="1564.65" y="2826.65" style="font-family:'Helvetica';font-size:84.38px;fill:#000000" text-anchor="middle">40</text>
	<line x1="2062.97" y1="2717.04" x2="2062.97" y2="2750.79" style="stroke:#000000;stroke-width:4.86"/>
	<text x="2062.97" y="2826.65" style="font-family:'Helvetica';font-size:84.38px;fill:#000000" text-anchor="middle">60</text>
	<line x1="2561.46" y1="2717.04" x2="2561.46" y2="2750.79" style="stroke:#000000;stroke-width:4.86"/>
	<text x="2561.46" y="2826.65" style="font-family:'Helvetica';font-size:84.38px;fill:#000000" text-anchor="middle">80</text>
	<text x="1564.65" y="2944.77" style="font-family:'Helvetica';font-size:84.38px;fill:#000000" text-anchor="middle">ICARS</text>
	<text x="528.86" y="3048.72" style="font-family:'Helvetica';font-size:67.50px;fill:#000000">Spearman's rho = -0,60; p=0,03</text>
	<rect x="2700.00" y="1620.00" width="2628.79" height="1548.79" style="fill:#FFFFFF"/>
	<rect x="2702.43" y="1622.43" width="2623.93" height="1543.93" style="fill:none;stroke:#FFFFFF;stroke-width:4.86"/>
	<rect x="3044.42" y="1705.05" width="2199.32" height="1011.99" style="fill:#FFFFFF"/>
	<rect x="3046.85" y="1707.48" width="2194.46" height="1007.13" style="fill:none;stroke:#FFFFFF;stroke-width:4.86"/>
	<circle cx="3960.90" cy="2235.26" r="16.30" style="fill:#000000"/>
	<circle cx="3960.90" cy="2235.26" r="12.66" style="fill:none;stroke:#000000;stroke-width:7.29"/>
	<circle cx="4431.71" cy="2274.41" r="16.30" style="fill:#000000"/>
	<circle cx="4431.71" cy="2274.41" r="12.66" style="fill:none;stroke:#000000;stroke-width:7.29"/>
	<circle cx="4824.06" cy="2268.51" r="16.30" style="fill:#000000"/>
	<circle cx="4824.06" cy="2268.51" r="12.66" style="fill:none;stroke:#000000;stroke-width:7.29"/>
	<circle cx="4300.93" cy="2381.57" r="16.30" style="fill:#000000"/>
	<circle cx="4300.93" cy="2381.57" r="12.66" style="fill:none;stroke:#000000;stroke-width:7.29"/>
	<circle cx="4274.77" cy="2257.88" r="16.30" style="fill:#000000"/>
	<circle cx="4274.77" cy="2257.88" r="12.66" style="fill:none;stroke:#000000;stroke-width:7.29"/>
	<circle cx="3097.91" cy="2271.54" r="16.30" style="fill:#000000"/>
	<circle cx="3097.91" cy="2271.54" r="12.66" style="fill:none;stroke:#000000;stroke-width:7.29"/>
	<circle cx="3777.81" cy="2286.56" r="16.30" style="fill:#000000"/>
	<circle cx="3777.81" cy="2286.56" r="12.66" style="fill:none;stroke:#000000;stroke-width:7.29"/>
	<circle cx="4143.99" cy="2354.40" r="16.30" style="fill:#000000"/>
	<circle cx="4143.99" cy="2354.40" r="12.66" style="fill:none;stroke:#000000;stroke-width:7.29"/>
	<circle cx="4614.81" cy="2512.86" r="16.30" style="fill:#000000"/>
	<circle cx="4614.81" cy="2512.86" r="12.66" style="fill:none;stroke:#000000;stroke-width:7.29"/>
	<circle cx="4300.93" cy="2251.80" r="16.30" style="fill:#000000"/>
	<circle cx="4300.93" cy="2251.80" r="12.66" style="fill:none;stroke:#000000;stroke-width:7.29"/>
	<circle cx="4170.15" cy="2164.39" r="16.30" style="fill:#000000"/>
	<circle cx="4170.15" cy="2164.39" r="12.66" style="fill:none;stroke:#000000;stroke-width:7.29"/>
	<circle cx="4510.18" cy="2360.48" r="16.30" style="fill:#000000"/>
	<circle cx="4510.18" cy="2360.48" r="12.66" style="fill:none;stroke:#000000;stroke-width:7.29"/>
	<circle cx="5190.08" cy="2271.54" r="16.30" style="fill:#000000"/>
	<circle cx="5190.08" cy="2271.54" r="12.66" style="fill:none;stroke:#000000;stroke-width:7.29"/>
	<line x1="3044.42" y1="2717.04" x2="3044.42" y2="1705.05" style="stroke:#000000;stroke-width:4.86"/>
	<line x1="3044.42" y1="2663.55" x2="3010.67" y2="2663.55" style="stroke:#000000;stroke-width:4.86"/>
	<text x="2993.79" y="2693.12" style="font-family:'Helvetica';font-size:84.38px;fill:#000000" text-anchor="end">0</text>
	<line x1="3044.42" y1="2512.69" x2="3010.67" y2="2512.69" style="stroke:#000000;stroke-width:4.86"/>
	<text x="2993.79" y="2542.26" style="font-family:'Helvetica';font-size:84.38px;fill:#000000" text-anchor="end">1</text>
	<line x1="3044.42" y1="2361.82" x2="3010.67" y2="2361.82" style="stroke:#000000;stroke-width:4.86"/>
	<text x="2993.79" y="2391.40" style="font-family:'Helvetica';font-size:84.38px;fill:#000000" text-anchor="end">2</text>
	<line x1="3044.42" y1="2210.96" x2="3010.67" y2="2210.96" style="stroke:#000000;stroke-width:4.86"/>
	<text x="2993.79" y="2240.54" style="font-family:'Helvetica';font-size:84.38px;fill:#000000" text-anchor="end">3</text>
	<line x1="3044.42" y1="2060.27" x2="3010.67" y2="2060.27" style="stroke:#000000;stroke-width:4.86"/>
	<text x="2993.79" y="2089.84" style="font-family:'Helvetica';font-size:84.38px;fill:#000000" text-anchor="end">4</text>
	<line x1="3044.42" y1="1909.41" x2="3010.67" y2="1909.41" style="stroke:#000000;stroke-width:4.86"/>
	<text x="2993.79" y="1938.98" style="font-family:'Helvetica';font-size:84.38px;fill:#000000" text-anchor="end">5</text>
	<line x1="3044.42" y1="1758.54" x2="3010.67" y2="1758.54" style="stroke:#000000;stroke-width:4.86"/>
	<text x="2993.79" y="1788.12" style="font-family:'Helvetica';font-size:84.38px;fill:#000000" text-anchor="end">6</text>
	<text x="2860.90" y="2210.96" style="font-family:'Helvetica';font-size:84.38px;fill:#000000" transform="rotate(-90 2860.90,2210.96)" text-anchor="middle">VEF1 (L)</text>
	<line x1="3044.42" y1="2717.04" x2="5243.74" y2="2717.04" style="stroke:#000000;stroke-width:4.86"/>
	<line x1="3097.91" y1="2717.04" x2="3097.91" y2="2750.79" style="stroke:#000000;stroke-width:4.86"/>
	<text x="3097.91" y="2826.65" style="font-family:'Helvetica';font-size:84.38px;fill:#000000" text-anchor="middle">0</text>
	<line x1="3621.04" y1="2717.04" x2="3621.04" y2="2750.79" style="stroke:#000000;stroke-width:4.86"/>
	<text x="3621.04" y="2826.65" style="font-family:'Helvetica';font-size:84.38px;fill:#000000" text-anchor="middle">20</text>
	<line x1="4144.16" y1="2717.04" x2="4144.16" y2="2750.79" style="stroke:#000000;stroke-width:4.86"/>
	<text x="4144.16" y="2826.65" style="font-family:'Helvetica';font-size:84.38px;fill:#000000" text-anchor="middle">40</text>
	<line x1="4667.12" y1="2717.04" x2="4667.12" y2="2750.79" style="stroke:#000000;stroke-width:4.86"/>
	<text x="4667.12" y="2826.65" style="font-family:'Helvetica';font-size:84.38px;fill:#000000" text-anchor="middle">60</text>
	<line x1="5190.24" y1="2717.04" x2="5190.24" y2="2750.79" style="stroke:#000000;stroke-width:4.86"/>
	<text x="5190.24" y="2826.65" style="font-family:'Helvetica';font-size:84.38px;fill:#000000" text-anchor="middle">80</text>
	<text x="4144.16" y="2944.77" style="font-family:'Helvetica';font-size:84.38px;fill:#000000" text-anchor="middle">ICARS</text>
	<text x="3059.10" y="3048.72" style="font-family:'Helvetica';font-size:67.50px;fill:#000000">Spearman's rho = -0,224; p=0,41</text>
</svg>
