<?xml version="1.0" encoding="UTF-8" standalone="no"?>
<!-- This is a Stata 18.0 generated SVG file (http://www.stata.com) -->

<svg version="1.1" width="7.500in" height="4.500in" viewBox="0 0 5400 3240" xmlns="http://www.w3.org/2000/svg" xmlns:xlink="http://www.w3.org/1999/xlink">
	<desc>Stata Graph - Graph</desc>
	<rect x="0" y="0" width="5400" height="3240" style="fill:#FFFFFF;stroke:none"/>
	<rect x="0.00" y="0.00" width="5400.00" height="3240.00" style="fill:#FFFFFF"/>
	<rect x="3.24" y="3.24" width="5393.52" height="3233.52" style="fill:none;stroke:#FFFFFF;stroke-width:6.48"/>
	<rect x="524.98" y="113.40" width="4761.62" height="2524.33" style="fill:#FFFFFF"/>
	<rect x="528.22" y="116.64" width="4755.14" height="2517.85" style="fill:none;stroke:#FFFFFF;stroke-width:6.48"/>
	<line x1="524.98" y1="2566.52" x2="589.78" y2="2566.52" style="stroke:#F0F0F0;stroke-width:9.72"/>
	<line x1="622.18" y1="2566.52" x2="686.98" y2="2566.52" style="stroke:#F0F0F0;stroke-width:9.72"/>
	<line x1="719.38" y1="2566.52" x2="784.18" y2="2566.52" style="stroke:#F0F0F0;stroke-width:9.72"/>
	<line x1="816.58" y1="2566.52" x2="881.38" y2="2566.52" style="stroke:#F0F0F0;stroke-width:9.72"/>
	<line x1="913.78" y1="2566.52" x2="978.58" y2="2566.52" style="stroke:#F0F0F0;stroke-width:9.72"/>
	<line x1="1010.98" y1="2566.52" x2="1075.78" y2="2566.52" style="stroke:#F0F0F0;stroke-width:9.72"/>
	<line x1="1108.18" y1="2566.52" x2="1172.98" y2="2566.52" style="stroke:#F0F0F0;stroke-width:9.72"/>
	<line x1="1205.38" y1="2566.52" x2="1270.18" y2="2566.52" style="stroke:#F0F0F0;stroke-width:9.72"/>
	<line x1="1302.58" y1="2566.52" x2="1367.38" y2="2566.52" style="stroke:#F0F0F0;stroke-width:9.72"/>
	<line x1="1399.78" y1="2566.52" x2="1464.58" y2="2566.52" style="stroke:#F0F0F0;stroke-width:9.72"/>
	<line x1="1496.98" y1="2566.52" x2="1561.78" y2="2566.52" style="stroke:#F0F0F0;stroke-width:9.72"/>
	<line x1="1594.18" y1="2566.52" x2="1658.98" y2="2566.52" style="stroke:#F0F0F0;stroke-width:9.72"/>
	<line x1="1691.38" y1="2566.52" x2="1756.18" y2="2566.52" style="stroke:#F0F0F0;stroke-width:9.72"/>
	<line x1="1788.58" y1="2566.52" x2="1853.38" y2="2566.52" style="stroke:#F0F0F0;stroke-width:9.72"/>
	<line x1="1885.78" y1="2566.52" x2="1950.58" y2="2566.52" style="stroke:#F0F0F0;stroke-width:9.72"/>
	<line x1="1982.98" y1="2566.52" x2="2047.78" y2="2566.52" style="stroke:#F0F0F0;stroke-width:9.72"/>
	<line x1="2080.18" y1="2566.52" x2="2144.98" y2="2566.52" style="stroke:#F0F0F0;stroke-width:9.72"/>
	<line x1="2177.38" y1="2566.52" x2="2242.18" y2="2566.52" style="stroke:#F0F0F0;stroke-width:9.72"/>
	<line x1="2274.58" y1="2566.52" x2="2339.38" y2="2566.52" style="stroke:#F0F0F0;stroke-width:9.72"/>
	<line x1="2371.78" y1="2566.52" x2="2436.58" y2="2566.52" style="stroke:#F0F0F0;stroke-width:9.72"/>
	<line x1="2468.98" y1="2566.52" x2="2533.78" y2="2566.52" style="stroke:#F0F0F0;stroke-width:9.72"/>
	<line x1="2566.18" y1="2566.52" x2="2630.98" y2="2566.52" style="stroke:#F0F0F0;stroke-width:9.72"/>
	<line x1="2663.38" y1="2566.52" x2="2728.18" y2="2566.52" style="stroke:#F0F0F0;stroke-width:9.72"/>
	<line x1="2760.58" y1="2566.52" x2="2825.38" y2="2566.52" style="stroke:#F0F0F0;stroke-width:9.72"/>
	<line x1="2857.78" y1="2566.52" x2="2922.58" y2="2566.52" style="stroke:#F0F0F0;stroke-width:9.72"/>
	<line x1="2954.98" y1="2566.52" x2="3019.78" y2="2566.52" style="stroke:#F0F0F0;stroke-width:9.72"/>
	<line x1="3052.18" y1="2566.52" x2="3116.98" y2="2566.52" style="stroke:#F0F0F0;stroke-width:9.72"/>
	<line x1="3149.38" y1="2566.52" x2="3214.18" y2="2566.52" style="stroke:#F0F0F0;stroke-width:9.72"/>
	<line x1="3246.58" y1="2566.52" x2="3311.38" y2="2566.52" style="stroke:#F0F0F0;stroke-width:9.72"/>
	<line x1="3343.78" y1="2566.52" x2="3408.58" y2="2566.52" style="stroke:#F0F0F0;stroke-width:9.72"/>
	<line x1="3440.98" y1="2566.52" x2="3505.78" y2="2566.52" style="stroke:#F0F0F0;stroke-width:9.72"/>
	<line x1="3538.18" y1="2566.52" x2="3602.98" y2="2566.52" style="stroke:#F0F0F0;stroke-width:9.72"/>
	<line x1="3635.38" y1="2566.52" x2="3700.18" y2="2566.52" style="stroke:#F0F0F0;stroke-width:9.72"/>
	<line x1="3732.58" y1="2566.52" x2="3797.38" y2="2566.52" style="stroke:#F0F0F0;stroke-width:9.72"/>
	<line x1="3829.78" y1="2566.52" x2="3894.58" y2="2566.52" style="stroke:#F0F0F0;stroke-width:9.72"/>
	<line x1="3926.98" y1="2566.52" x2="3991.78" y2="2566.52" style="stroke:#F0F0F0;stroke-width:9.72"/>
	<line x1="4024.18" y1="2566.52" x2="4088.98" y2="2566.52" style="stroke:#F0F0F0;stroke-width:9.72"/>
	<line x1="4121.38" y1="2566.52" x2="4186.18" y2="2566.52" style="stroke:#F0F0F0;stroke-width:9.72"/>
	<line x1="4218.58" y1="2566.52" x2="4283.38" y2="2566.52" style="stroke:#F0F0F0;stroke-width:9.72"/>
	<line x1="4315.78" y1="2566.52" x2="4380.58" y2="2566.52" style="stroke:#F0F0F0;stroke-width:9.72"/>
	<line x1="4412.98" y1="2566.52" x2="4477.78" y2="2566.52" style="stroke:#F0F0F0;stroke-width:9.72"/>
	<line x1="4510.18" y1="2566.52" x2="4574.98" y2="2566.52" style="stroke:#F0F0F0;stroke-width:9.72"/>
	<line x1="4607.38" y1="2566.52" x2="4672.18" y2="2566.52" style="stroke:#F0F0F0;stroke-width:9.72"/>
	<line x1="4704.58" y1="2566.52" x2="4769.38" y2="2566.52" style="stroke:#F0F0F0;stroke-width:9.72"/>
	<line x1="4801.78" y1="2566.52" x2="4866.58" y2="2566.52" style="stroke:#F0F0F0;stroke-width:9.72"/>
	<line x1="4898.98" y1="2566.52" x2="4963.78" y2="2566.52" style="stroke:#F0F0F0;stroke-width:9.72"/>
	<line x1="4996.18" y1="2566.52" x2="5060.98" y2="2566.52" style="stroke:#F0F0F0;stroke-width:9.72"/>
	<line x1="5093.38" y1="2566.52" x2="5158.18" y2="2566.52" style="stroke:#F0F0F0;stroke-width:9.72"/>
	<line x1="5190.58" y1="2566.52" x2="5255.38" y2="2566.52" style="stroke:#F0F0F0;stroke-width:9.72"/>
	<line x1="524.98" y1="1833.64" x2="589.78" y2="1833.64" style="stroke:#F0F0F0;stroke-width:9.72"/>
	<line x1="622.18" y1="1833.64" x2="686.98" y2="1833.64" style="stroke:#F0F0F0;stroke-width:9.72"/>
	<line x1="719.38" y1="1833.64" x2="784.18" y2="1833.64" style="stroke:#F0F0F0;stroke-width:9.72"/>
	<line x1="816.58" y1="1833.64" x2="881.38" y2="1833.64" style="stroke:#F0F0F0;stroke-width:9.72"/>
	<line x1="913.78" y1="1833.64" x2="978.58" y2="1833.64" style="stroke:#F0F0F0;stroke-width:9.72"/>
	<line x1="1010.98" y1="1833.64" x2="1075.78" y2="1833.64" style="stroke:#F0F0F0;stroke-width:9.72"/>
	<line x1="1108.18" y1="1833.64" x2="1172.98" y2="1833.64" style="stroke:#F0F0F0;stroke-width:9.72"/>
	<line x1="1205.38" y1="1833.64" x2="1270.18" y2="1833.64" style="stroke:#F0F0F0;stroke-width:9.72"/>
	<line x1="1302.58" y1="1833.64" x2="1367.38" y2="1833.64" style="stroke:#F0F0F0;stroke-width:9.72"/>
	<line x1="1399.78" y1="1833.64" x2="1464.58" y2="1833.64" style="stroke:#F0F0F0;stroke-width:9.72"/>
	<line x1="1496.98" y1="1833.64" x2="1561.78" y2="1833.64" style="stroke:#F0F0F0;stroke-width:9.72"/>
	<line x1="1594.18" y1="1833.64" x2="1658.98" y2="1833.64" style="stroke:#F0F0F0;stroke-width:9.72"/>
	<line x1="1691.38" y1="1833.64" x2="1756.18" y2="1833.64" style="stroke:#F0F0F0;stroke-width:9.72"/>
	<line x1="1788.58" y1="1833.64" x2="1853.38" y2="1833.64" style="stroke:#F0F0F0;stroke-width:9.72"/>
	<line x1="1885.78" y1="1833.64" x2="1950.58" y2="1833.64" style="stroke:#F0F0F0;stroke-width:9.72"/>
	<line x1="1982.98" y1="1833.64" x2="2047.78" y2="1833.64" style="stroke:#F0F0F0;stroke-width:9.72"/>
	<line x1="2080.18" y1="1833.64" x2="2144.98" y2="1833.64" style="stroke:#F0F0F0;stroke-width:9.72"/>
	<line x1="2177.38" y1="1833.64" x2="2242.18" y2="1833.64" style="stroke:#F0F0F0;stroke-width:9.72"/>
	<line x1="2274.58" y1="1833.64" x2="2339.38" y2="1833.64" style="stroke:#F0F0F0;stroke-width:9.72"/>
	<line x1="2371.78" y1="1833.64" x2="2436.58" y2="1833.64" style="stroke:#F0F0F0;stroke-width:9.72"/>
	<line x1="2468.98" y1="1833.64" x2="2533.78" y2="1833.64" style="stroke:#F0F0F0;stroke-width:9.72"/>
	<line x1="2566.18" y1="1833.64" x2="2630.98" y2="1833.64" style="stroke:#F0F0F0;stroke-width:9.72"/>
	<line x1="2663.38" y1="1833.64" x2="2728.18" y2="1833.64" style="stroke:#F0F0F0;stroke-width:9.72"/>
	<line x1="2760.58" y1="1833.64" x2="2825.38" y2="1833.64" style="stroke:#F0F0F0;stroke-width:9.72"/>
	<line x1="2857.78" y1="1833.64" x2="2922.58" y2="1833.64" style="stroke:#F0F0F0;stroke-width:9.72"/>
	<line x1="2954.98" y1="1833.64" x2="3019.78" y2="1833.64" style="stroke:#F0F0F0;stroke-width:9.72"/>
	<line x1="3052.18" y1="1833.64" x2="3116.98" y2="1833.64" style="stroke:#F0F0F0;stroke-width:9.72"/>
	<line x1="3149.38" y1="1833.64" x2="3214.18" y2="1833.64" style="stroke:#F0F0F0;stroke-width:9.72"/>
	<line x1="3246.58" y1="1833.64" x2="3311.38" y2="1833.64" style="stroke:#F0F0F0;stroke-width:9.72"/>
	<line x1="3343.78" y1="1833.64" x2="3408.58" y2="1833.64" style="stroke:#F0F0F0;stroke-width:9.72"/>
	<line x1="3440.98" y1="1833.64" x2="3505.78" y2="1833.64" style="stroke:#F0F0F0;stroke-width:9.72"/>
	<line x1="3538.18" y1="1833.64" x2="3602.98" y2="1833.64" style="stroke:#F0F0F0;stroke-width:9.72"/>
	<line x1="3635.38" y1="1833.64" x2="3700.18" y2="1833.64" style="stroke:#F0F0F0;stroke-width:9.72"/>
	<line x1="3732.58" y1="1833.64" x2="3797.38" y2="1833.64" style="stroke:#F0F0F0;stroke-width:9.72"/>
	<line x1="3829.78" y1="1833.64" x2="3894.58" y2="1833.64" style="stroke:#F0F0F0;stroke-width:9.72"/>
	<line x1="3926.98" y1="1833.64" x2="3991.78" y2="1833.64" style="stroke:#F0F0F0;stroke-width:9.72"/>
	<line x1="4024.18" y1="1833.64" x2="4088.98" y2="1833.64" style="stroke:#F0F0F0;stroke-width:9.72"/>
	<line x1="4121.38" y1="1833.64" x2="4186.18" y2="1833.64" style="stroke:#F0F0F0;stroke-width:9.72"/>
	<line x1="4218.58" y1="1833.64" x2="4283.38" y2="1833.64" style="stroke:#F0F0F0;stroke-width:9.72"/>
	<line x1="4315.78" y1="1833.64" x2="4380.58" y2="1833.64" style="stroke:#F0F0F0;stroke-width:9.72"/>
	<line x1="4412.98" y1="1833.64" x2="4477.78" y2="1833.64" style="stroke:#F0F0F0;stroke-width:9.72"/>
	<line x1="4510.18" y1="1833.64" x2="4574.98" y2="1833.64" style="stroke:#F0F0F0;stroke-width:9.72"/>
	<line x1="4607.38" y1="1833.64" x2="4672.18" y2="1833.64" style="stroke:#F0F0F0;stroke-width:9.72"/>
	<line x1="4704.58" y1="1833.64" x2="4769.38" y2="1833.64" style="stroke:#F0F0F0;stroke-width:9.72"/>
	<line x1="4801.78" y1="1833.64" x2="4866.58" y2="1833.64" style="stroke:#F0F0F0;stroke-width:9.72"/>
	<line x1="4898.98" y1="1833.64" x2="4963.78" y2="1833.64" style="stroke:#F0F0F0;stroke-width:9.72"/>
	<line x1="4996.18" y1="1833.64" x2="5060.98" y2="1833.64" style="stroke:#F0F0F0;stroke-width:9.72"/>
	<line x1="5093.38" y1="1833.64" x2="5158.18" y2="1833.64" style="stroke:#F0F0F0;stroke-width:9.72"/>
	<line x1="5190.58" y1="1833.64" x2="5255.38" y2="1833.64" style="stroke:#F0F0F0;stroke-width:9.72"/>
	<line x1="524.98" y1="1100.76" x2="589.78" y2="1100.76" style="stroke:#F0F0F0;stroke-width:9.72"/>
	<line x1="622.18" y1="1100.76" x2="686.98" y2="1100.76" style="stroke:#F0F0F0;stroke-width:9.72"/>
	<line x1="719.38" y1="1100.76" x2="784.18" y2="1100.76" style="stroke:#F0F0F0;stroke-width:9.72"/>
	<line x1="816.58" y1="1100.76" x2="881.38" y2="1100.76" style="stroke:#F0F0F0;stroke-width:9.72"/>
	<line x1="913.78" y1="1100.76" x2="978.58" y2="1100.76" style="stroke:#F0F0F0;stroke-width:9.72"/>
	<line x1="1010.98" y1="1100.76" x2="1075.78" y2="1100.76" style="stroke:#F0F0F0;stroke-width:9.72"/>
	<line x1="1108.18" y1="1100.76" x2="1172.98" y2="1100.76" style="stroke:#F0F0F0;stroke-width:9.72"/>
	<line x1="1205.38" y1="1100.76" x2="1270.18" y2="1100.76" style="stroke:#F0F0F0;stroke-width:9.72"/>
	<line x1="1302.58" y1="1100.76" x2="1367.38" y2="1100.76" style="stroke:#F0F0F0;stroke-width:9.72"/>
	<line x1="1399.78" y1="1100.76" x2="1464.58" y2="1100.76" style="stroke:#F0F0F0;stroke-width:9.72"/>
	<line x1="1496.98" y1="1100.76" x2="1561.78" y2="1100.76" style="stroke:#F0F0F0;stroke-width:9.72"/>
	<line x1="1594.18" y1="1100.76" x2="1658.98" y2="1100.76" style="stroke:#F0F0F0;stroke-width:9.72"/>
	<line x1="1691.38" y1="1100.76" x2="1756.18" y2="1100.76" style="stroke:#F0F0F0;stroke-width:9.72"/>
	<line x1="1788.58" y1="1100.76" x2="1853.38" y2="1100.76" style="stroke:#F0F0F0;stroke-width:9.72"/>
	<line x1="1885.78" y1="1100.76" x2="1950.58" y2="1100.76" style="stroke:#F0F0F0;stroke-width:9.72"/>
	<line x1="1982.98" y1="1100.76" x2="2047.78" y2="1100.76" style="stroke:#F0F0F0;stroke-width:9.72"/>
	<line x1="2080.18" y1="1100.76" x2="2144.98" y2="1100.76" style="stroke:#F0F0F0;stroke-width:9.72"/>
	<line x1="2177.38" y1="1100.76" x2="2242.18" y2="1100.76" style="stroke:#F0F0F0;stroke-width:9.72"/>
	<line x1="2274.58" y1="1100.76" x2="2339.38" y2="1100.76" style="stroke:#F0F0F0;stroke-width:9.72"/>
	<line x1="2371.78" y1="1100.76" x2="2436.58" y2="1100.76" style="stroke:#F0F0F0;stroke-width:9.72"/>
	<line x1="2468.98" y1="1100.76" x2="2533.78" y2="1100.76" style="stroke:#F0F0F0;stroke-width:9.72"/>
	<line x1="2566.18" y1="1100.76" x2="2630.98" y2="1100.76" style="stroke:#F0F0F0;stroke-width:9.72"/>
	<line x1="2663.38" y1="1100.76" x2="2728.18" y2="1100.76" style="stroke:#F0F0F0;stroke-width:9.72"/>
	<line x1="2760.58" y1="1100.76" x2="2825.38" y2="1100.76" style="stroke:#F0F0F0;stroke-width:9.72"/>
	<line x1="2857.78" y1="1100.76" x2="2922.58" y2="1100.76" style="stroke:#F0F0F0;stroke-width:9.72"/>
	<line x1="2954.98" y1="1100.76" x2="3019.78" y2="1100.76" style="stroke:#F0F0F0;stroke-width:9.72"/>
	<line x1="3052.18" y1="1100.76" x2="3116.98" y2="1100.76" style="stroke:#F0F0F0;stroke-width:9.72"/>
	<line x1="3149.38" y1="1100.76" x2="3214.18" y2="1100.76" style="stroke:#F0F0F0;stroke-width:9.72"/>
	<line x1="3246.58" y1="1100.76" x2="3311.38" y2="1100.76" style="stroke:#F0F0F0;stroke-width:9.72"/>
	<line x1="3343.78" y1="1100.76" x2="3408.58" y2="1100.76" style="stroke:#F0F0F0;stroke-width:9.72"/>
	<line x1="3440.98" y1="1100.76" x2="3505.78" y2="1100.76" style="stroke:#F0F0F0;stroke-width:9.72"/>
	<line x1="3538.18" y1="1100.76" x2="3602.98" y2="1100.76" style="stroke:#F0F0F0;stroke-width:9.72"/>
	<line x1="3635.38" y1="1100.76" x2="3700.18" y2="1100.76" style="stroke:#F0F0F0;stroke-width:9.72"/>
	<line x1="3732.58" y1="1100.76" x2="3797.38" y2="1100.76" style="stroke:#F0F0F0;stroke-width:9.72"/>
	<line x1="3829.78" y1="1100.76" x2="3894.58" y2="1100.76" style="stroke:#F0F0F0;stroke-width:9.72"/>
	<line x1="3926.98" y1="1100.76" x2="3991.78" y2="1100.76" style="stroke:#F0F0F0;stroke-width:9.72"/>
	<line x1="4024.18" y1="1100.76" x2="4088.98" y2="1100.76" style="stroke:#F0F0F0;stroke-width:9.72"/>
	<line x1="4121.38" y1="1100.76" x2="4186.18" y2="1100.76" style="stroke:#F0F0F0;stroke-width:9.72"/>
	<line x1="4218.58" y1="1100.76" x2="4283.38" y2="1100.76" style="stroke:#F0F0F0;stroke-width:9.72"/>
	<line x1="4315.78" y1="1100.76" x2="4380.58" y2="1100.76" style="stroke:#F0F0F0;stroke-width:9.72"/>
	<line x1="4412.98" y1="1100.76" x2="4477.78" y2="1100.76" style="stroke:#F0F0F0;stroke-width:9.72"/>
	<line x1="4510.18" y1="1100.76" x2="4574.98" y2="1100.76" style="stroke:#F0F0F0;stroke-width:9.72"/>
	<line x1="4607.38" y1="1100.76" x2="4672.18" y2="1100.76" style="stroke:#F0F0F0;stroke-width:9.72"/>
	<line x1="4704.58" y1="1100.76" x2="4769.38" y2="1100.76" style="stroke:#F0F0F0;stroke-width:9.72"/>
	<line x1="4801.78" y1="1100.76" x2="4866.58" y2="1100.76" style="stroke:#F0F0F0;stroke-width:9.72"/>
	<line x1="4898.98" y1="1100.76" x2="4963.78" y2="1100.76" style="stroke:#F0F0F0;stroke-width:9.72"/>
	<line x1="4996.18" y1="1100.76" x2="5060.98" y2="1100.76" style="stroke:#F0F0F0;stroke-width:9.72"/>
	<line x1="5093.38" y1="1100.76" x2="5158.18" y2="1100.76" style="stroke:#F0F0F0;stroke-width:9.72"/>
	<line x1="5190.58" y1="1100.76" x2="5255.38" y2="1100.76" style="stroke:#F0F0F0;stroke-width:9.72"/>
	<line x1="524.98" y1="367.88" x2="589.78" y2="367.88" style="stroke:#F0F0F0;stroke-width:9.72"/>
	<line x1="622.18" y1="367.88" x2="686.98" y2="367.88" style="stroke:#F0F0F0;stroke-width:9.72"/>
	<line x1="719.38" y1="367.88" x2="784.18" y2="367.88" style="stroke:#F0F0F0;stroke-width:9.72"/>
	<line x1="816.58" y1="367.88" x2="881.38" y2="367.88" style="stroke:#F0F0F0;stroke-width:9.72"/>
	<line x1="913.78" y1="367.88" x2="978.58" y2="367.88" style="stroke:#F0F0F0;stroke-width:9.72"/>
	<line x1="1010.98" y1="367.88" x2="1075.78" y2="367.88" style="stroke:#F0F0F0;stroke-width:9.72"/>
	<line x1="1108.18" y1="367.88" x2="1172.98" y2="367.88" style="stroke:#F0F0F0;stroke-width:9.72"/>
	<line x1="1205.38" y1="367.88" x2="1270.18" y2="367.88" style="stroke:#F0F0F0;stroke-width:9.72"/>
	<line x1="1302.58" y1="367.88" x2="1367.38" y2="367.88" style="stroke:#F0F0F0;stroke-width:9.72"/>
	<line x1="1399.78" y1="367.88" x2="1464.58" y2="367.88" style="stroke:#F0F0F0;stroke-width:9.72"/>
	<line x1="1496.98" y1="367.88" x2="1561.78" y2="367.88" style="stroke:#F0F0F0;stroke-width:9.72"/>
	<line x1="1594.18" y1="367.88" x2="1658.98" y2="367.88" style="stroke:#F0F0F0;stroke-width:9.72"/>
	<line x1="1691.38" y1="367.88" x2="1756.18" y2="367.88" style="stroke:#F0F0F0;stroke-width:9.72"/>
	<line x1="1788.58" y1="367.88" x2="1853.38" y2="367.88" style="stroke:#F0F0F0;stroke-width:9.72"/>
	<line x1="1885.78" y1="367.88" x2="1950.58" y2="367.88" style="stroke:#F0F0F0;stroke-width:9.72"/>
	<line x1="1982.98" y1="367.88" x2="2047.78" y2="367.88" style="stroke:#F0F0F0;stroke-width:9.72"/>
	<line x1="2080.18" y1="367.88" x2="2144.98" y2="367.88" style="stroke:#F0F0F0;stroke-width:9.72"/>
	<line x1="2177.38" y1="367.88" x2="2242.18" y2="367.88" style="stroke:#F0F0F0;stroke-width:9.72"/>
	<line x1="2274.58" y1="367.88" x2="2339.38" y2="367.88" style="stroke:#F0F0F0;stroke-width:9.72"/>
	<line x1="2371.78" y1="367.88" x2="2436.58" y2="367.88" style="stroke:#F0F0F0;stroke-width:9.72"/>
	<line x1="2468.98" y1="367.88" x2="2533.78" y2="367.88" style="stroke:#F0F0F0;stroke-width:9.72"/>
	<line x1="2566.18" y1="367.88" x2="2630.98" y2="367.88" style="stroke:#F0F0F0;stroke-width:9.72"/>
	<line x1="2663.38" y1="367.88" x2="2728.18" y2="367.88" style="stroke:#F0F0F0;stroke-width:9.72"/>
	<line x1="2760.58" y1="367.88" x2="2825.38" y2="367.88" style="stroke:#F0F0F0;stroke-width:9.72"/>
	<line x1="2857.78" y1="367.88" x2="2922.58" y2="367.88" style="stroke:#F0F0F0;stroke-width:9.72"/>
	<line x1="2954.98" y1="367.88" x2="3019.78" y2="367.88" style="stroke:#F0F0F0;stroke-width:9.72"/>
	<line x1="3052.18" y1="367.88" x2="3116.98" y2="367.88" style="stroke:#F0F0F0;stroke-width:9.72"/>
	<line x1="3149.38" y1="367.88" x2="3214.18" y2="367.88" style="stroke:#F0F0F0;stroke-width:9.72"/>
	<line x1="3246.58" y1="367.88" x2="3311.38" y2="367.88" style="stroke:#F0F0F0;stroke-width:9.72"/>
	<line x1="3343.78" y1="367.88" x2="3408.58" y2="367.88" style="stroke:#F0F0F0;stroke-width:9.72"/>
	<line x1="3440.98" y1="367.88" x2="3505.78" y2="367.88" style="stroke:#F0F0F0;stroke-width:9.72"/>
	<line x1="3538.18" y1="367.88" x2="3602.98" y2="367.88" style="stroke:#F0F0F0;stroke-width:9.72"/>
	<line x1="3635.38" y1="367.88" x2="3700.18" y2="367.88" style="stroke:#F0F0F0;stroke-width:9.72"/>
	<line x1="3732.58" y1="367.88" x2="3797.38" y2="367.88" style="stroke:#F0F0F0;stroke-width:9.72"/>
	<line x1="3829.78" y1="367.88" x2="3894.58" y2="367.88" style="stroke:#F0F0F0;stroke-width:9.72"/>
	<line x1="3926.98" y1="367.88" x2="3991.78" y2="367.88" style="stroke:#F0F0F0;stroke-width:9.72"/>
	<line x1="4024.18" y1="367.88" x2="4088.98" y2="367.88" style="stroke:#F0F0F0;stroke-width:9.72"/>
	<line x1="4121.38" y1="367.88" x2="4186.18" y2="367.88" style="stroke:#F0F0F0;stroke-width:9.72"/>
	<line x1="4218.58" y1="367.88" x2="4283.38" y2="367.88" style="stroke:#F0F0F0;stroke-width:9.72"/>
	<line x1="4315.78" y1="367.88" x2="4380.58" y2="367.88" style="stroke:#F0F0F0;stroke-width:9.72"/>
	<line x1="4412.98" y1="367.88" x2="4477.78" y2="367.88" style="stroke:#F0F0F0;stroke-width:9.72"/>
	<line x1="4510.18" y1="367.88" x2="4574.98" y2="367.88" style="stroke:#F0F0F0;stroke-width:9.72"/>
	<line x1="4607.38" y1="367.88" x2="4672.18" y2="367.88" style="stroke:#F0F0F0;stroke-width:9.72"/>
	<line x1="4704.58" y1="367.88" x2="4769.38" y2="367.88" style="stroke:#F0F0F0;stroke-width:9.72"/>
	<line x1="4801.78" y1="367.88" x2="4866.58" y2="367.88" style="stroke:#F0F0F0;stroke-width:9.72"/>
	<line x1="4898.98" y1="367.88" x2="4963.78" y2="367.88" style="stroke:#F0F0F0;stroke-width:9.72"/>
	<line x1="4996.18" y1="367.88" x2="5060.98" y2="367.88" style="stroke:#F0F0F0;stroke-width:9.72"/>
	<line x1="5093.38" y1="367.88" x2="5158.18" y2="367.88" style="stroke:#F0F0F0;stroke-width:9.72"/>
	<line x1="5190.58" y1="367.88" x2="5255.38" y2="367.88" style="stroke:#F0F0F0;stroke-width:9.72"/>
	<line x1="596.19" y1="2637.73" x2="596.19" y2="2572.93" style="stroke:#F0F0F0;stroke-width:9.72"/>
	<line x1="596.19" y1="2540.53" x2="596.19" y2="2475.73" style="stroke:#F0F0F0;stroke-width:9.72"/>
	<line x1="596.19" y1="2443.33" x2="596.19" y2="2378.53" style="stroke:#F0F0F0;stroke-width:9.72"/>
	<line x1="596.19" y1="2346.13" x2="596.19" y2="2281.33" style="stroke:#F0F0F0;stroke-width:9.72"/>
	<line x1="596.19" y1="2248.93" x2="596.19" y2="2184.13" style="stroke:#F0F0F0;stroke-width:9.72"/>
	<line x1="596.19" y1="2151.73" x2="596.19" y2="2086.93" style="stroke:#F0F0F0;stroke-width:9.72"/>
	<line x1="596.19" y1="2054.53" x2="596.19" y2="1989.73" style="stroke:#F0F0F0;stroke-width:9.72"/>
	<line x1="596.19" y1="1957.33" x2="596.19" y2="1892.53" style="stroke:#F0F0F0;stroke-width:9.72"/>
	<line x1="596.19" y1="1860.13" x2="596.19" y2="1795.33" style="stroke:#F0F0F0;stroke-width:9.72"/>
	<line x1="596.19" y1="1762.93" x2="596.19" y2="1698.13" style="stroke:#F0F0F0;stroke-width:9.72"/>
	<line x1="596.19" y1="1665.73" x2="596.19" y2="1600.93" style="stroke:#F0F0F0;stroke-width:9.72"/>
	<line x1="596.19" y1="1568.53" x2="596.19" y2="1503.73" style="stroke:#F0F0F0;stroke-width:9.72"/>
	<line x1="596.19" y1="1471.33" x2="596.19" y2="1406.53" style="stroke:#F0F0F0;stroke-width:9.72"/>
	<line x1="596.19" y1="1374.13" x2="596.19" y2="1309.33" style="stroke:#F0F0F0;stroke-width:9.72"/>
	<line x1="596.19" y1="1276.93" x2="596.19" y2="1212.13" style="stroke:#F0F0F0;stroke-width:9.72"/>
	<line x1="596.19" y1="1179.73" x2="596.19" y2="1114.93" style="stroke:#F0F0F0;stroke-width:9.72"/>
	<line x1="596.19" y1="1082.53" x2="596.19" y2="1017.73" style="stroke:#F0F0F0;stroke-width:9.72"/>
	<line x1="596.19" y1="985.33" x2="596.19" y2="920.53" style="stroke:#F0F0F0;stroke-width:9.72"/>
	<line x1="596.19" y1="888.13" x2="596.19" y2="823.33" style="stroke:#F0F0F0;stroke-width:9.72"/>
	<line x1="596.19" y1="790.93" x2="596.19" y2="726.13" style="stroke:#F0F0F0;stroke-width:9.72"/>
	<line x1="596.19" y1="693.73" x2="596.19" y2="628.93" style="stroke:#F0F0F0;stroke-width:9.72"/>
	<line x1="596.19" y1="596.53" x2="596.19" y2="531.73" style="stroke:#F0F0F0;stroke-width:9.72"/>
	<line x1="596.19" y1="499.33" x2="596.19" y2="434.53" style="stroke:#F0F0F0;stroke-width:9.72"/>
	<line x1="596.19" y1="402.13" x2="596.19" y2="337.33" style="stroke:#F0F0F0;stroke-width:9.72"/>
	<line x1="596.19" y1="304.93" x2="596.19" y2="240.13" style="stroke:#F0F0F0;stroke-width:9.72"/>
	<line x1="596.19" y1="207.73" x2="596.19" y2="142.93" style="stroke:#F0F0F0;stroke-width:9.72"/>
	<line x1="1750.95" y1="2637.73" x2="1750.95" y2="2572.93" style="stroke:#F0F0F0;stroke-width:9.72"/>
	<line x1="1750.95" y1="2540.53" x2="1750.95" y2="2475.73" style="stroke:#F0F0F0;stroke-width:9.72"/>
	<line x1="1750.95" y1="2443.33" x2="1750.95" y2="2378.53" style="stroke:#F0F0F0;stroke-width:9.72"/>
	<line x1="1750.95" y1="2346.13" x2="1750.95" y2="2281.33" style="stroke:#F0F0F0;stroke-width:9.72"/>
	<line x1="1750.95" y1="2248.93" x2="1750.95" y2="2184.13" style="stroke:#F0F0F0;stroke-width:9.72"/>
	<line x1="1750.95" y1="2151.73" x2="1750.95" y2="2086.93" style="stroke:#F0F0F0;stroke-width:9.72"/>
	<line x1="1750.95" y1="2054.53" x2="1750.95" y2="1989.73" style="stroke:#F0F0F0;stroke-width:9.72"/>
	<line x1="1750.95" y1="1957.33" x2="1750.95" y2="1892.53" style="stroke:#F0F0F0;stroke-width:9.72"/>
	<line x1="1750.95" y1="1860.13" x2="1750.95" y2="1795.33" style="stroke:#F0F0F0;stroke-width:9.72"/>
	<line x1="1750.95" y1="1762.93" x2="1750.95" y2="1698.13" style="stroke:#F0F0F0;stroke-width:9.72"/>
	<line x1="1750.95" y1="1665.73" x2="1750.95" y2="1600.93" style="stroke:#F0F0F0;stroke-width:9.72"/>
	<line x1="1750.95" y1="1568.53" x2="1750.95" y2="1503.73" style="stroke:#F0F0F0;stroke-width:9.72"/>
	<line x1="1750.95" y1="1471.33" x2="1750.95" y2="1406.53" style="stroke:#F0F0F0;stroke-width:9.72"/>
	<line x1="1750.95" y1="1374.13" x2="1750.95" y2="1309.33" style="stroke:#F0F0F0;stroke-width:9.72"/>
	<line x1="1750.95" y1="1276.93" x2="1750.95" y2="1212.13" style="stroke:#F0F0F0;stroke-width:9.72"/>
	<line x1="1750.95" y1="1179.73" x2="1750.95" y2="1114.93" style="stroke:#F0F0F0;stroke-width:9.72"/>
	<line x1="1750.95" y1="1082.53" x2="1750.95" y2="1017.73" style="stroke:#F0F0F0;stroke-width:9.72"/>
	<line x1="1750.95" y1="985.33" x2="1750.95" y2="920.53" style="stroke:#F0F0F0;stroke-width:9.72"/>
	<line x1="1750.95" y1="888.13" x2="1750.95" y2="823.33" style="stroke:#F0F0F0;stroke-width:9.72"/>
	<line x1="1750.95" y1="790.93" x2="1750.95" y2="726.13" style="stroke:#F0F0F0;stroke-width:9.72"/>
	<line x1="1750.95" y1="693.73" x2="1750.95" y2="628.93" style="stroke:#F0F0F0;stroke-width:9.72"/>
	<line x1="1750.95" y1="596.53" x2="1750.95" y2="531.73" style="stroke:#F0F0F0;stroke-width:9.72"/>
	<line x1="1750.95" y1="499.33" x2="1750.95" y2="434.53" style="stroke:#F0F0F0;stroke-width:9.72"/>
	<line x1="1750.95" y1="402.13" x2="1750.95" y2="337.33" style="stroke:#F0F0F0;stroke-width:9.72"/>
	<line x1="1750.95" y1="304.93" x2="1750.95" y2="240.13" style="stroke:#F0F0F0;stroke-width:9.72"/>
	<line x1="1750.95" y1="207.73" x2="1750.95" y2="142.93" style="stroke:#F0F0F0;stroke-width:9.72"/>
	<line x1="2905.71" y1="2637.73" x2="2905.71" y2="2572.93" style="stroke:#F0F0F0;stroke-width:9.72"/>
	<line x1="2905.71" y1="2540.53" x2="2905.71" y2="2475.73" style="stroke:#F0F0F0;stroke-width:9.72"/>
	<line x1="2905.71" y1="2443.33" x2="2905.71" y2="2378.53" style="stroke:#F0F0F0;stroke-width:9.72"/>
	<line x1="2905.71" y1="2346.13" x2="2905.71" y2="2281.33" style="stroke:#F0F0F0;stroke-width:9.72"/>
	<line x1="2905.71" y1="2248.93" x2="2905.71" y2="2184.13" style="stroke:#F0F0F0;stroke-width:9.72"/>
	<line x1="2905.71" y1="2151.73" x2="2905.71" y2="2086.93" style="stroke:#F0F0F0;stroke-width:9.72"/>
	<line x1="2905.71" y1="2054.53" x2="2905.71" y2="1989.73" style="stroke:#F0F0F0;stroke-width:9.72"/>
	<line x1="2905.71" y1="1957.33" x2="2905.71" y2="1892.53" style="stroke:#F0F0F0;stroke-width:9.72"/>
	<line x1="2905.71" y1="1860.13" x2="2905.71" y2="1795.33" style="stroke:#F0F0F0;stroke-width:9.72"/>
	<line x1="2905.71" y1="1762.93" x2="2905.71" y2="1698.13" style="stroke:#F0F0F0;stroke-width:9.72"/>
	<line x1="2905.71" y1="1665.73" x2="2905.71" y2="1600.93" style="stroke:#F0F0F0;stroke-width:9.72"/>
	<line x1="2905.71" y1="1568.53" x2="2905.71" y2="1503.73" style="stroke:#F0F0F0;stroke-width:9.72"/>
	<line x1="2905.71" y1="1471.33" x2="2905.71" y2="1406.53" style="stroke:#F0F0F0;stroke-width:9.72"/>
	<line x1="2905.71" y1="1374.13" x2="2905.71" y2="1309.33" style="stroke:#F0F0F0;stroke-width:9.72"/>
	<line x1="2905.71" y1="1276.93" x2="2905.71" y2="1212.13" style="stroke:#F0F0F0;stroke-width:9.72"/>
	<line x1="2905.71" y1="1179.73" x2="2905.71" y2="1114.93" style="stroke:#F0F0F0;stroke-width:9.72"/>
	<line x1="2905.71" y1="1082.53" x2="2905.71" y2="1017.73" style="stroke:#F0F0F0;stroke-width:9.72"/>
	<line x1="2905.71" y1="985.33" x2="2905.71" y2="920.53" style="stroke:#F0F0F0;stroke-width:9.72"/>
	<line x1="2905.71" y1="888.13" x2="2905.71" y2="823.33" style="stroke:#F0F0F0;stroke-width:9.72"/>
	<line x1="2905.71" y1="790.93" x2="2905.71" y2="726.13" style="stroke:#F0F0F0;stroke-width:9.72"/>
	<line x1="2905.71" y1="693.73" x2="2905.71" y2="628.93" style="stroke:#F0F0F0;stroke-width:9.72"/>
	<line x1="2905.71" y1="596.53" x2="2905.71" y2="531.73" style="stroke:#F0F0F0;stroke-width:9.72"/>
	<line x1="2905.71" y1="499.33" x2="2905.71" y2="434.53" style="stroke:#F0F0F0;stroke-width:9.72"/>
	<line x1="2905.71" y1="402.13" x2="2905.71" y2="337.33" style="stroke:#F0F0F0;stroke-width:9.72"/>
	<line x1="2905.71" y1="304.93" x2="2905.71" y2="240.13" style="stroke:#F0F0F0;stroke-width:9.72"/>
	<line x1="2905.71" y1="207.73" x2="2905.71" y2="142.93" style="stroke:#F0F0F0;stroke-width:9.72"/>
	<line x1="4060.63" y1="2637.73" x2="4060.63" y2="2572.93" style="stroke:#F0F0F0;stroke-width:9.72"/>
	<line x1="4060.63" y1="2540.53" x2="4060.63" y2="2475.73" style="stroke:#F0F0F0;stroke-width:9.72"/>
	<line x1="4060.63" y1="2443.33" x2="4060.63" y2="2378.53" style="stroke:#F0F0F0;stroke-width:9.72"/>
	<line x1="4060.63" y1="2346.13" x2="4060.63" y2="2281.33" style="stroke:#F0F0F0;stroke-width:9.72"/>
	<line x1="4060.63" y1="2248.93" x2="4060.63" y2="2184.13" style="stroke:#F0F0F0;stroke-width:9.72"/>
	<line x1="4060.63" y1="2151.73" x2="4060.63" y2="2086.93" style="stroke:#F0F0F0;stroke-width:9.72"/>
	<line x1="4060.63" y1="2054.53" x2="4060.63" y2="1989.73" style="stroke:#F0F0F0;stroke-width:9.72"/>
	<line x1="4060.63" y1="1957.33" x2="4060.63" y2="1892.53" style="stroke:#F0F0F0;stroke-width:9.72"/>
	<line x1="4060.63" y1="1860.13" x2="4060.63" y2="1795.33" style="stroke:#F0F0F0;stroke-width:9.72"/>
	<line x1="4060.63" y1="1762.93" x2="4060.63" y2="1698.13" style="stroke:#F0F0F0;stroke-width:9.72"/>
	<line x1="4060.63" y1="1665.73" x2="4060.63" y2="1600.93" style="stroke:#F0F0F0;stroke-width:9.72"/>
	<line x1="4060.63" y1="1568.53" x2="4060.63" y2="1503.73" style="stroke:#F0F0F0;stroke-width:9.72"/>
	<line x1="4060.63" y1="1471.33" x2="4060.63" y2="1406.53" style="stroke:#F0F0F0;stroke-width:9.72"/>
	<line x1="4060.63" y1="1374.13" x2="4060.63" y2="1309.33" style="stroke:#F0F0F0;stroke-width:9.72"/>
	<line x1="4060.63" y1="1276.93" x2="4060.63" y2="1212.13" style="stroke:#F0F0F0;stroke-width:9.72"/>
	<line x1="4060.63" y1="1179.73" x2="4060.63" y2="1114.93" style="stroke:#F0F0F0;stroke-width:9.72"/>
	<line x1="4060.63" y1="1082.53" x2="4060.63" y2="1017.73" style="stroke:#F0F0F0;stroke-width:9.72"/>
	<line x1="4060.63" y1="985.33" x2="4060.63" y2="920.53" style="stroke:#F0F0F0;stroke-width:9.72"/>
	<line x1="4060.63" y1="888.13" x2="4060.63" y2="823.33" style="stroke:#F0F0F0;stroke-width:9.72"/>
	<line x1="4060.63" y1="790.93" x2="4060.63" y2="726.13" style="stroke:#F0F0F0;stroke-width:9.72"/>
	<line x1="4060.63" y1="693.73" x2="4060.63" y2="628.93" style="stroke:#F0F0F0;stroke-width:9.72"/>
	<line x1="4060.63" y1="596.53" x2="4060.63" y2="531.73" style="stroke:#F0F0F0;stroke-width:9.72"/>
	<line x1="4060.63" y1="499.33" x2="4060.63" y2="434.53" style="stroke:#F0F0F0;stroke-width:9.72"/>
	<line x1="4060.63" y1="402.13" x2="4060.63" y2="337.33" style="stroke:#F0F0F0;stroke-width:9.72"/>
	<line x1="4060.63" y1="304.93" x2="4060.63" y2="240.13" style="stroke:#F0F0F0;stroke-width:9.72"/>
	<line x1="4060.63" y1="207.73" x2="4060.63" y2="142.93" style="stroke:#F0F0F0;stroke-width:9.72"/>
	<line x1="5215.39" y1="2637.73" x2="5215.39" y2="2572.93" style="stroke:#F0F0F0;stroke-width:9.72"/>
	<line x1="5215.39" y1="2540.53" x2="5215.39" y2="2475.73" style="stroke:#F0F0F0;stroke-width:9.72"/>
	<line x1="5215.39" y1="2443.33" x2="5215.39" y2="2378.53" style="stroke:#F0F0F0;stroke-width:9.72"/>
	<line x1="5215.39" y1="2346.13" x2="5215.39" y2="2281.33" style="stroke:#F0F0F0;stroke-width:9.72"/>
	<line x1="5215.39" y1="2248.93" x2="5215.39" y2="2184.13" style="stroke:#F0F0F0;stroke-width:9.72"/>
	<line x1="5215.39" y1="2151.73" x2="5215.39" y2="2086.93" style="stroke:#F0F0F0;stroke-width:9.72"/>
	<line x1="5215.39" y1="2054.53" x2="5215.39" y2="1989.73" style="stroke:#F0F0F0;stroke-width:9.72"/>
	<line x1="5215.39" y1="1957.33" x2="5215.39" y2="1892.53" style="stroke:#F0F0F0;stroke-width:9.72"/>
	<line x1="5215.39" y1="1860.13" x2="5215.39" y2="1795.33" style="stroke:#F0F0F0;stroke-width:9.72"/>
	<line x1="5215.39" y1="1762.93" x2="5215.39" y2="1698.13" style="stroke:#F0F0F0;stroke-width:9.72"/>
	<line x1="5215.39" y1="1665.73" x2="5215.39" y2="1600.93" style="stroke:#F0F0F0;stroke-width:9.72"/>
	<line x1="5215.39" y1="1568.53" x2="5215.39" y2="1503.73" style="stroke:#F0F0F0;stroke-width:9.72"/>
	<line x1="5215.39" y1="1471.33" x2="5215.39" y2="1406.53" style="stroke:#F0F0F0;stroke-width:9.72"/>
	<line x1="5215.39" y1="1374.13" x2="5215.39" y2="1309.33" style="stroke:#F0F0F0;stroke-width:9.72"/>
	<line x1="5215.39" y1="1276.93" x2="5215.39" y2="1212.13" style="stroke:#F0F0F0;stroke-width:9.72"/>
	<line x1="5215.39" y1="1179.73" x2="5215.39" y2="1114.93" style="stroke:#F0F0F0;stroke-width:9.72"/>
	<line x1="5215.39" y1="1082.53" x2="5215.39" y2="1017.73" style="stroke:#F0F0F0;stroke-width:9.72"/>
	<line x1="5215.39" y1="985.33" x2="5215.39" y2="920.53" style="stroke:#F0F0F0;stroke-width:9.72"/>
	<line x1="5215.39" y1="888.13" x2="5215.39" y2="823.33" style="stroke:#F0F0F0;stroke-width:9.72"/>
	<line x1="5215.39" y1="790.93" x2="5215.39" y2="726.13" style="stroke:#F0F0F0;stroke-width:9.72"/>
	<line x1="5215.39" y1="693.73" x2="5215.39" y2="628.93" style="stroke:#F0F0F0;stroke-width:9.72"/>
	<line x1="5215.39" y1="596.53" x2="5215.39" y2="531.73" style="stroke:#F0F0F0;stroke-width:9.72"/>
	<line x1="5215.39" y1="499.33" x2="5215.39" y2="434.53" style="stroke:#F0F0F0;stroke-width:9.72"/>
	<line x1="5215.39" y1="402.13" x2="5215.39" y2="337.33" style="stroke:#F0F0F0;stroke-width:9.72"/>
	<line x1="5215.39" y1="304.93" x2="5215.39" y2="240.13" style="stroke:#F0F0F0;stroke-width:9.72"/>
	<line x1="5215.39" y1="207.73" x2="5215.39" y2="142.93" style="stroke:#F0F0F0;stroke-width:9.72"/>
	<circle cx="3194.44" cy="1100.76" r="21.74" style="fill:#000000"/>
	<circle cx="3194.44" cy="1100.76" r="16.88" style="fill:none;stroke:#000000;stroke-width:9.72"/>
	<circle cx="3252.15" cy="1394.04" r="21.74" style="fill:#000000"/>
	<circle cx="3252.15" cy="1394.04" r="16.88" style="fill:none;stroke:#000000;stroke-width:9.72"/>
	<circle cx="2097.39" cy="1650.54" r="21.74" style="fill:#000000"/>
	<circle cx="2097.39" cy="1650.54" r="16.88" style="fill:none;stroke:#000000;stroke-width:9.72"/>
	<circle cx="5215.22" cy="184.78" r="21.74" style="fill:#000000"/>
	<circle cx="5215.22" cy="184.78" r="16.88" style="fill:none;stroke:#000000;stroke-width:9.72"/>
	<circle cx="3714.02" cy="734.40" r="21.74" style="fill:#000000"/>
	<circle cx="3714.02" cy="734.40" r="16.88" style="fill:none;stroke:#000000;stroke-width:9.72"/>
	<circle cx="2905.71" cy="1687.16" r="21.74" style="fill:#000000"/>
	<circle cx="2905.71" cy="1687.16" r="16.88" style="fill:none;stroke:#000000;stroke-width:9.72"/>
	<circle cx="3540.88" cy="1577.14" r="21.74" style="fill:#000000"/>
	<circle cx="3540.88" cy="1577.14" r="16.88" style="fill:none;stroke:#000000;stroke-width:9.72"/>
	<circle cx="2501.55" cy="1394.04" r="21.74" style="fill:#000000"/>
	<circle cx="2501.55" cy="1394.04" r="16.88" style="fill:none;stroke:#000000;stroke-width:9.72"/>
	<circle cx="3252.15" cy="1137.54" r="21.74" style="fill:#000000"/>
	<circle cx="3252.15" cy="1137.54" r="16.88" style="fill:none;stroke:#000000;stroke-width:9.72"/>
	<circle cx="4406.91" cy="771.02" r="21.74" style="fill:#000000"/>
	<circle cx="4406.91" cy="771.02" r="16.88" style="fill:none;stroke:#000000;stroke-width:9.72"/>
	<circle cx="3945.04" cy="881.04" r="21.74" style="fill:#000000"/>
	<circle cx="3945.04" cy="881.04" r="16.88" style="fill:none;stroke:#000000;stroke-width:9.72"/>
	<circle cx="596.19" cy="2529.90" r="21.74" style="fill:#000000"/>
	<circle cx="596.19" cy="2529.90" r="16.88" style="fill:none;stroke:#000000;stroke-width:9.72"/>
	<circle cx="2963.42" cy="1503.90" r="21.74" style="fill:#000000"/>
	<circle cx="2963.42" cy="1503.90" r="16.88" style="fill:none;stroke:#000000;stroke-width:9.72"/>
	<line x1="524.98" y1="2637.73" x2="524.98" y2="113.40" style="stroke:#000000;stroke-width:6.48"/>
	<line x1="524.98" y1="2566.52" x2="479.93" y2="2566.52" style="stroke:#000000;stroke-width:6.48"/>
	<text x="457.48" y="2605.96" style="font-family:'Helvetica';font-size:112.56px;fill:#000000" text-anchor="end">0</text>
	<line x1="524.98" y1="1833.64" x2="479.93" y2="1833.64" style="stroke:#000000;stroke-width:6.48"/>
	<text x="457.48" y="1873.07" style="font-family:'Helvetica';font-size:112.56px;fill:#000000" text-anchor="end">10</text>
	<line x1="524.98" y1="1100.76" x2="479.93" y2="1100.76" style="stroke:#000000;stroke-width:6.48"/>
	<text x="457.48" y="1140.19" style="font-family:'Helvetica';font-size:112.56px;fill:#000000" text-anchor="end">20</text>
	<line x1="524.98" y1="367.88" x2="479.93" y2="367.88" style="stroke:#000000;stroke-width:6.48"/>
	<text x="457.48" y="407.31" style="font-family:'Helvetica';font-size:112.56px;fill:#000000" text-anchor="end">30</text>
	<text x="214.55" y="1375.65" style="font-family:'Helvetica';font-size:112.56px;fill:#000000" transform="rotate(-90 214.55,1375.65)" text-anchor="middle">SARA</text>
	<line x1="524.98" y1="2637.73" x2="5286.60" y2="2637.73" style="stroke:#000000;stroke-width:6.48"/>
	<line x1="596.19" y1="2637.73" x2="596.19" y2="2682.79" style="stroke:#000000;stroke-width:6.48"/>
	<text x="596.19" y="2783.94" style="font-family:'Helvetica';font-size:112.56px;fill:#000000" text-anchor="middle">0</text>
	<line x1="1750.95" y1="2637.73" x2="1750.95" y2="2682.79" style="stroke:#000000;stroke-width:6.48"/>
	<text x="1750.95" y="2783.94" style="font-family:'Helvetica';font-size:112.56px;fill:#000000" text-anchor="middle">20</text>
	<line x1="2905.71" y1="2637.73" x2="2905.71" y2="2682.79" style="stroke:#000000;stroke-width:6.48"/>
	<text x="2905.71" y="2783.94" style="font-family:'Helvetica';font-size:112.56px;fill:#000000" text-anchor="middle">40</text>
	<line x1="4060.63" y1="2637.73" x2="4060.63" y2="2682.79" style="stroke:#000000;stroke-width:6.48"/>
	<text x="4060.63" y="2783.94" style="font-family:'Helvetica';font-size:112.56px;fill:#000000" text-anchor="middle">60</text>
	<line x1="5215.39" y1="2637.73" x2="5215.39" y2="2682.79" style="stroke:#000000;stroke-width:6.48"/>
	<text x="5215.39" y="2783.94" style="font-family:'Helvetica';font-size:112.56px;fill:#000000" text-anchor="middle">80</text>
	<text x="2905.71" y="2941.38" style="font-family:'Helvetica';font-size:112.56px;fill:#000000" text-anchor="middle">ICARS</text>
	<text x="544.39" y="3080.13" style="font-family:'Helvetica';font-size:89.94px;fill:#000000">Spearman, rho=0,83; p&lt;0,01</text>
</svg>
