<?xml version="1.0" encoding="UTF-8" standalone="no"?>
<!-- This is a Stata 18.0 generated SVG file (http://www.stata.com) -->

<svg version="1.1" width="7.500in" height="4.500in" viewBox="0 0 5400 3240" xmlns="http://www.w3.org/2000/svg" xmlns:xlink="http://www.w3.org/1999/xlink">
	<desc>Stata Graph - Graph</desc>
	<rect x="0" y="0" width="5400" height="3240" style="fill:#FFFFFF;stroke:none"/>
	<rect x="0.00" y="0.00" width="5400.00" height="3240.00" style="fill:#FFFFFF"/>
	<rect x="3.24" y="3.24" width="5393.52" height="3233.52" style="fill:none;stroke:#FFFFFF;stroke-width:6.48"/>
	<rect x="590.63" y="113.40" width="4695.98" height="2524.33" style="fill:#FFFFFF"/>
	<rect x="593.87" y="116.64" width="4689.50" height="2517.85" style="fill:none;stroke:#FFFFFF;stroke-width:6.48"/>
	<circle cx="2540.03" cy="2058.41" r="21.74" style="fill:#1A85FF"/>
	<circle cx="2540.03" cy="2058.41" r="16.88" style="fill:none;stroke:#1A85FF;stroke-width:9.72"/>
	<circle cx="3564.68" cy="915.13" r="21.74" style="fill:#1A85FF"/>
	<circle cx="3564.68" cy="915.13" r="16.88" style="fill:none;stroke:#1A85FF;stroke-width:9.72"/>
	<circle cx="4418.38" cy="1645.65" r="21.74" style="fill:#1A85FF"/>
	<circle cx="4418.38" cy="1645.65" r="16.88" style="fill:none;stroke:#1A85FF;stroke-width:9.72"/>
	<circle cx="3279.99" cy="2090.14" r="21.74" style="fill:#1A85FF"/>
	<circle cx="3279.99" cy="2090.14" r="16.88" style="fill:none;stroke:#1A85FF;stroke-width:9.72"/>
	<circle cx="3223.13" cy="1391.51" r="21.74" style="fill:#1A85FF"/>
	<circle cx="3223.13" cy="1391.51" r="16.88" style="fill:none;stroke:#1A85FF;stroke-width:9.72"/>
	<circle cx="661.84" cy="407.03" r="21.74" style="fill:#1A85FF"/>
	<circle cx="661.84" cy="407.03" r="16.88" style="fill:none;stroke:#1A85FF;stroke-width:9.72"/>
	<circle cx="2141.61" cy="502.37" r="21.74" style="fill:#1A85FF"/>
	<circle cx="2141.61" cy="502.37" r="16.88" style="fill:none;stroke:#1A85FF;stroke-width:9.72"/>
	<circle cx="2938.44" cy="1296.34" r="21.74" style="fill:#1A85FF"/>
	<circle cx="2938.44" cy="1296.34" r="16.88" style="fill:none;stroke:#1A85FF;stroke-width:9.72"/>
	<circle cx="3963.09" cy="1867.89" r="21.74" style="fill:#1A85FF"/>
	<circle cx="3963.09" cy="1867.89" r="16.88" style="fill:none;stroke:#1A85FF;stroke-width:9.72"/>
	<circle cx="3279.99" cy="1788.58" r="21.74" style="fill:#1A85FF"/>
	<circle cx="3279.99" cy="1788.58" r="16.88" style="fill:none;stroke:#1A85FF;stroke-width:9.72"/>
	<circle cx="2995.48" cy="2042.55" r="21.74" style="fill:#1A85FF"/>
	<circle cx="2995.48" cy="2042.55" r="16.88" style="fill:none;stroke:#1A85FF;stroke-width:9.72"/>
	<circle cx="3735.28" cy="1661.51" r="21.74" style="fill:#1A85FF"/>
	<circle cx="3735.28" cy="1661.51" r="16.88" style="fill:none;stroke:#1A85FF;stroke-width:9.72"/>
	<circle cx="5215.22" cy="1693.24" r="21.74" style="fill:#1A85FF"/>
	<circle cx="5215.22" cy="1693.24" r="16.88" style="fill:none;stroke:#1A85FF;stroke-width:9.72"/>
	<line x1="590.63" y1="2637.73" x2="590.63" y2="113.40" style="stroke:#000000;stroke-width:6.48"/>
	<line x1="590.63" y1="2566.52" x2="545.57" y2="2566.52" style="stroke:#000000;stroke-width:6.48"/>
	<text x="523.13" y="2605.96" style="font-family:'Helvetica';font-size:112.56px;fill:#000000" text-anchor="end">0</text>
	<line x1="590.63" y1="2169.45" x2="545.57" y2="2169.45" style="stroke:#000000;stroke-width:6.48"/>
	<text x="523.13" y="2208.89" style="font-family:'Helvetica';font-size:112.56px;fill:#000000" text-anchor="end">25</text>
	<line x1="590.63" y1="1772.55" x2="545.57" y2="1772.55" style="stroke:#000000;stroke-width:6.48"/>
	<text x="523.13" y="1811.99" style="font-family:'Helvetica';font-size:112.56px;fill:#000000" text-anchor="end">50</text>
	<line x1="590.63" y1="1375.65" x2="545.57" y2="1375.65" style="stroke:#000000;stroke-width:6.48"/>
	<text x="523.13" y="1415.09" style="font-family:'Helvetica';font-size:112.56px;fill:#000000" text-anchor="end">75</text>
	<line x1="590.63" y1="978.58" x2="545.57" y2="978.58" style="stroke:#000000;stroke-width:6.48"/>
	<text x="523.13" y="1018.02" style="font-family:'Helvetica';font-size:112.56px;fill:#000000" text-anchor="end">100</text>
	<line x1="590.63" y1="581.68" x2="545.57" y2="581.68" style="stroke:#000000;stroke-width:6.48"/>
	<text x="523.13" y="621.12" style="font-family:'Helvetica';font-size:112.56px;fill:#000000" text-anchor="end">125</text>
	<line x1="590.63" y1="184.61" x2="545.57" y2="184.61" style="stroke:#000000;stroke-width:6.48"/>
	<text x="523.13" y="224.05" style="font-family:'Helvetica';font-size:112.56px;fill:#000000" text-anchor="end">150</text>
	<text x="214.55" y="1375.65" style="font-family:'Helvetica';font-size:112.56px;fill:#000000" transform="rotate(-90 214.55,1375.65)" text-anchor="middle">SNIP</text>
	<line x1="590.63" y1="2637.73" x2="5286.60" y2="2637.73" style="stroke:#000000;stroke-width:6.48"/>
	<line x1="661.84" y1="2637.73" x2="661.84" y2="2682.79" style="stroke:#000000;stroke-width:6.48"/>
	<text x="661.84" y="2783.94" style="font-family:'Helvetica';font-size:112.56px;fill:#000000" text-anchor="middle">0</text>
	<line x1="1800.23" y1="2637.73" x2="1800.23" y2="2682.79" style="stroke:#000000;stroke-width:6.48"/>
	<text x="1800.23" y="2783.94" style="font-family:'Helvetica';font-size:112.56px;fill:#000000" text-anchor="middle">20</text>
	<line x1="2938.61" y1="2637.73" x2="2938.61" y2="2682.79" style="stroke:#000000;stroke-width:6.48"/>
	<text x="2938.61" y="2783.94" style="font-family:'Helvetica';font-size:112.56px;fill:#000000" text-anchor="middle">40</text>
	<line x1="4077.00" y1="2637.73" x2="4077.00" y2="2682.79" style="stroke:#000000;stroke-width:6.48"/>
	<text x="4077.00" y="2783.94" style="font-family:'Helvetica';font-size:112.56px;fill:#000000" text-anchor="middle">60</text>
	<line x1="5215.39" y1="2637.73" x2="5215.39" y2="2682.79" style="stroke:#000000;stroke-width:6.48"/>
	<text x="5215.39" y="2783.94" style="font-family:'Helvetica';font-size:112.56px;fill:#000000" text-anchor="middle">80</text>
	<text x="2938.61" y="2941.38" style="font-family:'Helvetica';font-size:112.56px;fill:#000000" text-anchor="middle">ICARS</text>
	<text x="610.03" y="3080.13" style="font-family:'Helvetica';font-size:89.94px;fill:#000000">Spearman's rho = -0,29; p=0,32</text>
</svg>
