<?xml version="1.0" encoding="UTF-8" standalone="no"?>
<!-- This is a Stata 18.0 generated SVG file (http://www.stata.com) -->

<svg version="1.1" width="7.500in" height="4.500in" viewBox="0 0 5400 3240" xmlns="http://www.w3.org/2000/svg" xmlns:xlink="http://www.w3.org/1999/xlink">
	<desc>Stata Graph - Graph</desc>
	<rect x="0" y="0" width="5400" height="3240" style="fill:#FFFFFF;stroke:none"/>
	<rect x="0.00" y="0.00" width="5400.00" height="3240.00" style="fill:#FFFFFF"/>
	<rect x="3.24" y="3.24" width="5393.52" height="3233.52" style="fill:none;stroke:#FFFFFF;stroke-width:6.48"/>
	<rect x="590.63" y="113.40" width="4695.98" height="2524.33" style="fill:#FFFFFF"/>
	<rect x="593.87" y="116.64" width="4689.50" height="2517.85" style="fill:none;stroke:#FFFFFF;stroke-width:6.48"/>
	<circle cx="2903.51" cy="975.38" r="21.74" style="fill:#1A85FF"/>
	<circle cx="2903.51" cy="975.38" r="16.88" style="fill:none;stroke:#1A85FF;stroke-width:9.72"/>
	<circle cx="2553.19" cy="1216.52" r="21.74" style="fill:#1A85FF"/>
	<circle cx="2553.19" cy="1216.52" r="16.88" style="fill:none;stroke:#1A85FF;stroke-width:9.72"/>
	<circle cx="4094.38" cy="1029.88" r="21.74" style="fill:#1A85FF"/>
	<circle cx="4094.38" cy="1029.88" r="16.88" style="fill:none;stroke:#1A85FF;stroke-width:9.72"/>
	<circle cx="3393.90" cy="952.09" r="21.74" style="fill:#1A85FF"/>
	<circle cx="3393.90" cy="952.09" r="16.88" style="fill:none;stroke:#1A85FF;stroke-width:9.72"/>
	<circle cx="3463.93" cy="548.94" r="21.74" style="fill:#1A85FF"/>
	<circle cx="3463.93" cy="548.94" r="16.88" style="fill:none;stroke:#1A85FF;stroke-width:9.72"/>
	<circle cx="731.87" cy="569.36" r="21.74" style="fill:#1A85FF"/>
	<circle cx="731.87" cy="569.36" r="16.88" style="fill:none;stroke:#1A85FF;stroke-width:9.72"/>
	<circle cx="2413.13" cy="777.60" r="21.74" style="fill:#1A85FF"/>
	<circle cx="2413.13" cy="777.60" r="16.88" style="fill:none;stroke:#1A85FF;stroke-width:9.72"/>
	<circle cx="2343.09" cy="1200.99" r="21.74" style="fill:#1A85FF"/>
	<circle cx="2343.09" cy="1200.99" r="16.88" style="fill:none;stroke:#1A85FF;stroke-width:9.72"/>
	<circle cx="3884.29" cy="1341.06" r="21.74" style="fill:#1A85FF"/>
	<circle cx="3884.29" cy="1341.06" r="16.88" style="fill:none;stroke:#1A85FF;stroke-width:9.72"/>
	<circle cx="2903.51" cy="1099.91" r="21.74" style="fill:#1A85FF"/>
	<circle cx="2903.51" cy="1099.91" r="16.88" style="fill:none;stroke:#1A85FF;stroke-width:9.72"/>
	<circle cx="2693.25" cy="1123.20" r="21.74" style="fill:#1A85FF"/>
	<circle cx="2693.25" cy="1123.20" r="16.88" style="fill:none;stroke:#1A85FF;stroke-width:9.72"/>
	<circle cx="4164.41" cy="1208.76" r="21.74" style="fill:#1A85FF"/>
	<circle cx="4164.41" cy="1208.76" r="16.88" style="fill:none;stroke:#1A85FF;stroke-width:9.72"/>
	<circle cx="5215.22" cy="1200.99" r="21.74" style="fill:#1A85FF"/>
	<circle cx="5215.22" cy="1200.99" r="16.88" style="fill:none;stroke:#1A85FF;stroke-width:9.72"/>
	<line x1="590.63" y1="2637.73" x2="590.63" y2="113.40" style="stroke:#000000;stroke-width:6.48"/>
	<line x1="590.63" y1="2566.52" x2="545.57" y2="2566.52" style="stroke:#000000;stroke-width:6.48"/>
	<text x="523.13" y="2605.96" style="font-family:'Helvetica';font-size:112.56px;fill:#000000" text-anchor="end">0</text>
	<line x1="590.63" y1="2169.45" x2="545.57" y2="2169.45" style="stroke:#000000;stroke-width:6.48"/>
	<text x="523.13" y="2208.89" style="font-family:'Helvetica';font-size:112.56px;fill:#000000" text-anchor="end">25</text>
	<line x1="590.63" y1="1772.55" x2="545.57" y2="1772.55" style="stroke:#000000;stroke-width:6.48"/>
	<text x="523.13" y="1811.99" style="font-family:'Helvetica';font-size:112.56px;fill:#000000" text-anchor="end">50</text>
	<line x1="590.63" y1="1375.65" x2="545.57" y2="1375.65" style="stroke:#000000;stroke-width:6.48"/>
	<text x="523.13" y="1415.09" style="font-family:'Helvetica';font-size:112.56px;fill:#000000" text-anchor="end">75</text>
	<line x1="590.63" y1="978.58" x2="545.57" y2="978.58" style="stroke:#000000;stroke-width:6.48"/>
	<text x="523.13" y="1018.02" style="font-family:'Helvetica';font-size:112.56px;fill:#000000" text-anchor="end">100</text>
	<line x1="590.63" y1="581.68" x2="545.57" y2="581.68" style="stroke:#000000;stroke-width:6.48"/>
	<text x="523.13" y="621.12" style="font-family:'Helvetica';font-size:112.56px;fill:#000000" text-anchor="end">125</text>
	<line x1="590.63" y1="184.61" x2="545.57" y2="184.61" style="stroke:#000000;stroke-width:6.48"/>
	<text x="523.13" y="224.05" style="font-family:'Helvetica';font-size:112.56px;fill:#000000" text-anchor="end">150</text>
	<text x="214.55" y="1375.65" style="font-family:'Helvetica';font-size:112.56px;fill:#000000" transform="rotate(-90 214.55,1375.65)" text-anchor="middle">Pi máx.</text>
	<line x1="590.63" y1="2637.73" x2="5286.60" y2="2637.73" style="stroke:#000000;stroke-width:6.48"/>
	<line x1="661.84" y1="2637.73" x2="661.84" y2="2682.79" style="stroke:#000000;stroke-width:6.48"/>
	<text x="661.84" y="2783.94" style="font-family:'Helvetica';font-size:112.56px;fill:#000000" text-anchor="middle">0</text>
	<line x1="2062.97" y1="2637.73" x2="2062.97" y2="2682.79" style="stroke:#000000;stroke-width:6.48"/>
	<text x="2062.97" y="2783.94" style="font-family:'Helvetica';font-size:112.56px;fill:#000000" text-anchor="middle">10</text>
	<line x1="3463.93" y1="2637.73" x2="3463.93" y2="2682.79" style="stroke:#000000;stroke-width:6.48"/>
	<text x="3463.93" y="2783.94" style="font-family:'Helvetica';font-size:112.56px;fill:#000000" text-anchor="middle">20</text>
	<line x1="4865.06" y1="2637.73" x2="4865.06" y2="2682.79" style="stroke:#000000;stroke-width:6.48"/>
	<text x="4865.06" y="2783.94" style="font-family:'Helvetica';font-size:112.56px;fill:#000000" text-anchor="middle">30</text>
	<text x="2938.61" y="2941.38" style="font-family:'Helvetica';font-size:112.56px;fill:#000000" text-anchor="middle">SARA</text>
	<text x="610.03" y="3080.13" style="font-family:'Helvetica';font-size:89.94px;fill:#000000">Spearman's rho = -0,28; p=0,34</text>
</svg>
