<?xml version="1.0" encoding="UTF-8" standalone="no"?>
<!-- This is a Stata 18.0 generated SVG file (http://www.stata.com) -->

<svg version="1.1" width="7.500in" height="4.500in" viewBox="0 0 5400 3240" xmlns="http://www.w3.org/2000/svg" xmlns:xlink="http://www.w3.org/1999/xlink">
	<desc>Stata Graph - Graph</desc>
	<rect x="0" y="0" width="5400" height="3240" style="fill:#FFFFFF;stroke:none"/>
	<rect x="0.00" y="0.00" width="5400.00" height="3240.00" style="fill:#FFFFFF"/>
	<rect x="3.24" y="3.24" width="5393.52" height="3233.52" style="fill:none;stroke:#FFFFFF;stroke-width:6.48"/>
	<rect x="523.97" y="309.82" width="3582.73" height="2339.21" style="fill:#FFFFFF"/>
	<rect x="527.21" y="313.06" width="3576.25" height="2332.73" style="fill:none;stroke:#FFFFFF;stroke-width:6.48"/>
	<line x1="523.97" y1="381.04" x2="588.77" y2="381.04" style="stroke:#EAF2F3;stroke-width:9.72"/>
	<line x1="621.17" y1="381.04" x2="685.97" y2="381.04" style="stroke:#EAF2F3;stroke-width:9.72"/>
	<line x1="718.37" y1="381.04" x2="783.17" y2="381.04" style="stroke:#EAF2F3;stroke-width:9.72"/>
	<line x1="815.57" y1="381.04" x2="880.37" y2="381.04" style="stroke:#EAF2F3;stroke-width:9.72"/>
	<line x1="912.77" y1="381.04" x2="977.57" y2="381.04" style="stroke:#EAF2F3;stroke-width:9.72"/>
	<line x1="1009.97" y1="381.04" x2="1074.77" y2="381.04" style="stroke:#EAF2F3;stroke-width:9.72"/>
	<line x1="1107.17" y1="381.04" x2="1171.97" y2="381.04" style="stroke:#EAF2F3;stroke-width:9.72"/>
	<line x1="1204.37" y1="381.04" x2="1269.17" y2="381.04" style="stroke:#EAF2F3;stroke-width:9.72"/>
	<line x1="1301.57" y1="381.04" x2="1366.37" y2="381.04" style="stroke:#EAF2F3;stroke-width:9.72"/>
	<line x1="1398.77" y1="381.04" x2="1463.57" y2="381.04" style="stroke:#EAF2F3;stroke-width:9.72"/>
	<line x1="1495.97" y1="381.04" x2="1560.77" y2="381.04" style="stroke:#EAF2F3;stroke-width:9.72"/>
	<line x1="1593.17" y1="381.04" x2="1657.97" y2="381.04" style="stroke:#EAF2F3;stroke-width:9.72"/>
	<line x1="1690.37" y1="381.04" x2="1755.17" y2="381.04" style="stroke:#EAF2F3;stroke-width:9.72"/>
	<line x1="1787.57" y1="381.04" x2="1852.37" y2="381.04" style="stroke:#EAF2F3;stroke-width:9.72"/>
	<line x1="1884.77" y1="381.04" x2="1949.57" y2="381.04" style="stroke:#EAF2F3;stroke-width:9.72"/>
	<line x1="1981.97" y1="381.04" x2="2046.77" y2="381.04" style="stroke:#EAF2F3;stroke-width:9.72"/>
	<line x1="2079.17" y1="381.04" x2="2143.97" y2="381.04" style="stroke:#EAF2F3;stroke-width:9.72"/>
	<line x1="2176.37" y1="381.04" x2="2241.17" y2="381.04" style="stroke:#EAF2F3;stroke-width:9.72"/>
	<line x1="2273.57" y1="381.04" x2="2338.37" y2="381.04" style="stroke:#EAF2F3;stroke-width:9.72"/>
	<line x1="2370.77" y1="381.04" x2="2435.57" y2="381.04" style="stroke:#EAF2F3;stroke-width:9.72"/>
	<line x1="2467.97" y1="381.04" x2="2532.77" y2="381.04" style="stroke:#EAF2F3;stroke-width:9.72"/>
	<line x1="2565.17" y1="381.04" x2="2629.97" y2="381.04" style="stroke:#EAF2F3;stroke-width:9.72"/>
	<line x1="2662.37" y1="381.04" x2="2727.17" y2="381.04" style="stroke:#EAF2F3;stroke-width:9.72"/>
	<line x1="2759.57" y1="381.04" x2="2824.37" y2="381.04" style="stroke:#EAF2F3;stroke-width:9.72"/>
	<line x1="2856.77" y1="381.04" x2="2921.57" y2="381.04" style="stroke:#EAF2F3;stroke-width:9.72"/>
	<line x1="2953.97" y1="381.04" x2="3018.77" y2="381.04" style="stroke:#EAF2F3;stroke-width:9.72"/>
	<line x1="3051.17" y1="381.04" x2="3115.97" y2="381.04" style="stroke:#EAF2F3;stroke-width:9.72"/>
	<line x1="3148.37" y1="381.04" x2="3213.17" y2="381.04" style="stroke:#EAF2F3;stroke-width:9.72"/>
	<line x1="3245.57" y1="381.04" x2="3310.37" y2="381.04" style="stroke:#EAF2F3;stroke-width:9.72"/>
	<line x1="3342.77" y1="381.04" x2="3407.57" y2="381.04" style="stroke:#EAF2F3;stroke-width:9.72"/>
	<line x1="3439.97" y1="381.04" x2="3504.77" y2="381.04" style="stroke:#EAF2F3;stroke-width:9.72"/>
	<line x1="3537.17" y1="381.04" x2="3601.97" y2="381.04" style="stroke:#EAF2F3;stroke-width:9.72"/>
	<line x1="3634.37" y1="381.04" x2="3699.17" y2="381.04" style="stroke:#EAF2F3;stroke-width:9.72"/>
	<line x1="3731.57" y1="381.04" x2="3796.37" y2="381.04" style="stroke:#EAF2F3;stroke-width:9.72"/>
	<line x1="3828.77" y1="381.04" x2="3893.57" y2="381.04" style="stroke:#EAF2F3;stroke-width:9.72"/>
	<line x1="3925.97" y1="381.04" x2="3990.77" y2="381.04" style="stroke:#EAF2F3;stroke-width:9.72"/>
	<line x1="4023.17" y1="381.04" x2="4087.97" y2="381.04" style="stroke:#EAF2F3;stroke-width:9.72"/>
	<line x1="523.97" y1="1113.24" x2="588.77" y2="1113.24" style="stroke:#EAF2F3;stroke-width:9.72"/>
	<line x1="621.17" y1="1113.24" x2="685.97" y2="1113.24" style="stroke:#EAF2F3;stroke-width:9.72"/>
	<line x1="718.37" y1="1113.24" x2="783.17" y2="1113.24" style="stroke:#EAF2F3;stroke-width:9.72"/>
	<line x1="815.57" y1="1113.24" x2="880.37" y2="1113.24" style="stroke:#EAF2F3;stroke-width:9.72"/>
	<line x1="912.77" y1="1113.24" x2="977.57" y2="1113.24" style="stroke:#EAF2F3;stroke-width:9.72"/>
	<line x1="1009.97" y1="1113.24" x2="1074.77" y2="1113.24" style="stroke:#EAF2F3;stroke-width:9.72"/>
	<line x1="1107.17" y1="1113.24" x2="1171.97" y2="1113.24" style="stroke:#EAF2F3;stroke-width:9.72"/>
	<line x1="1204.37" y1="1113.24" x2="1269.17" y2="1113.24" style="stroke:#EAF2F3;stroke-width:9.72"/>
	<line x1="1301.57" y1="1113.24" x2="1366.37" y2="1113.24" style="stroke:#EAF2F3;stroke-width:9.72"/>
	<line x1="1398.77" y1="1113.24" x2="1463.57" y2="1113.24" style="stroke:#EAF2F3;stroke-width:9.72"/>
	<line x1="1495.97" y1="1113.24" x2="1560.77" y2="1113.24" style="stroke:#EAF2F3;stroke-width:9.72"/>
	<line x1="1593.17" y1="1113.24" x2="1657.97" y2="1113.24" style="stroke:#EAF2F3;stroke-width:9.72"/>
	<line x1="1690.37" y1="1113.24" x2="1755.17" y2="1113.24" style="stroke:#EAF2F3;stroke-width:9.72"/>
	<line x1="1787.57" y1="1113.24" x2="1852.37" y2="1113.24" style="stroke:#EAF2F3;stroke-width:9.72"/>
	<line x1="1884.77" y1="1113.24" x2="1949.57" y2="1113.24" style="stroke:#EAF2F3;stroke-width:9.72"/>
	<line x1="1981.97" y1="1113.24" x2="2046.77" y2="1113.24" style="stroke:#EAF2F3;stroke-width:9.72"/>
	<line x1="2079.17" y1="1113.24" x2="2143.97" y2="1113.24" style="stroke:#EAF2F3;stroke-width:9.72"/>
	<line x1="2176.37" y1="1113.24" x2="2241.17" y2="1113.24" style="stroke:#EAF2F3;stroke-width:9.72"/>
	<line x1="2273.57" y1="1113.24" x2="2338.37" y2="1113.24" style="stroke:#EAF2F3;stroke-width:9.72"/>
	<line x1="2370.77" y1="1113.24" x2="2435.57" y2="1113.24" style="stroke:#EAF2F3;stroke-width:9.72"/>
	<line x1="2467.97" y1="1113.24" x2="2532.77" y2="1113.24" style="stroke:#EAF2F3;stroke-width:9.72"/>
	<line x1="2565.17" y1="1113.24" x2="2629.97" y2="1113.24" style="stroke:#EAF2F3;stroke-width:9.72"/>
	<line x1="2662.37" y1="1113.24" x2="2727.17" y2="1113.24" style="stroke:#EAF2F3;stroke-width:9.72"/>
	<line x1="2759.57" y1="1113.24" x2="2824.37" y2="1113.24" style="stroke:#EAF2F3;stroke-width:9.72"/>
	<line x1="2856.77" y1="1113.24" x2="2921.57" y2="1113.24" style="stroke:#EAF2F3;stroke-width:9.72"/>
	<line x1="2953.97" y1="1113.24" x2="3018.77" y2="1113.24" style="stroke:#EAF2F3;stroke-width:9.72"/>
	<line x1="3051.17" y1="1113.24" x2="3115.97" y2="1113.24" style="stroke:#EAF2F3;stroke-width:9.72"/>
	<line x1="3148.37" y1="1113.24" x2="3213.17" y2="1113.24" style="stroke:#EAF2F3;stroke-width:9.72"/>
	<line x1="3245.57" y1="1113.24" x2="3310.37" y2="1113.24" style="stroke:#EAF2F3;stroke-width:9.72"/>
	<line x1="3342.77" y1="1113.24" x2="3407.57" y2="1113.24" style="stroke:#EAF2F3;stroke-width:9.72"/>
	<line x1="3439.97" y1="1113.24" x2="3504.77" y2="1113.24" style="stroke:#EAF2F3;stroke-width:9.72"/>
	<line x1="3537.17" y1="1113.24" x2="3601.97" y2="1113.24" style="stroke:#EAF2F3;stroke-width:9.72"/>
	<line x1="3634.37" y1="1113.24" x2="3699.17" y2="1113.24" style="stroke:#EAF2F3;stroke-width:9.72"/>
	<line x1="3731.57" y1="1113.24" x2="3796.37" y2="1113.24" style="stroke:#EAF2F3;stroke-width:9.72"/>
	<line x1="3828.77" y1="1113.24" x2="3893.57" y2="1113.24" style="stroke:#EAF2F3;stroke-width:9.72"/>
	<line x1="3925.97" y1="1113.24" x2="3990.77" y2="1113.24" style="stroke:#EAF2F3;stroke-width:9.72"/>
	<line x1="4023.17" y1="1113.24" x2="4087.97" y2="1113.24" style="stroke:#EAF2F3;stroke-width:9.72"/>
	<line x1="523.97" y1="1845.45" x2="588.77" y2="1845.45" style="stroke:#EAF2F3;stroke-width:9.72"/>
	<line x1="621.17" y1="1845.45" x2="685.97" y2="1845.45" style="stroke:#EAF2F3;stroke-width:9.72"/>
	<line x1="718.37" y1="1845.45" x2="783.17" y2="1845.45" style="stroke:#EAF2F3;stroke-width:9.72"/>
	<line x1="815.57" y1="1845.45" x2="880.37" y2="1845.45" style="stroke:#EAF2F3;stroke-width:9.72"/>
	<line x1="912.77" y1="1845.45" x2="977.57" y2="1845.45" style="stroke:#EAF2F3;stroke-width:9.72"/>
	<line x1="1009.97" y1="1845.45" x2="1074.77" y2="1845.45" style="stroke:#EAF2F3;stroke-width:9.72"/>
	<line x1="1107.17" y1="1845.45" x2="1171.97" y2="1845.45" style="stroke:#EAF2F3;stroke-width:9.72"/>
	<line x1="1204.37" y1="1845.45" x2="1269.17" y2="1845.45" style="stroke:#EAF2F3;stroke-width:9.72"/>
	<line x1="1301.57" y1="1845.45" x2="1366.37" y2="1845.45" style="stroke:#EAF2F3;stroke-width:9.72"/>
	<line x1="1398.77" y1="1845.45" x2="1463.57" y2="1845.45" style="stroke:#EAF2F3;stroke-width:9.72"/>
	<line x1="1495.97" y1="1845.45" x2="1560.77" y2="1845.45" style="stroke:#EAF2F3;stroke-width:9.72"/>
	<line x1="1593.17" y1="1845.45" x2="1657.97" y2="1845.45" style="stroke:#EAF2F3;stroke-width:9.72"/>
	<line x1="1690.37" y1="1845.45" x2="1755.17" y2="1845.45" style="stroke:#EAF2F3;stroke-width:9.72"/>
	<line x1="1787.57" y1="1845.45" x2="1852.37" y2="1845.45" style="stroke:#EAF2F3;stroke-width:9.72"/>
	<line x1="1884.77" y1="1845.45" x2="1949.57" y2="1845.45" style="stroke:#EAF2F3;stroke-width:9.72"/>
	<line x1="1981.97" y1="1845.45" x2="2046.77" y2="1845.45" style="stroke:#EAF2F3;stroke-width:9.72"/>
	<line x1="2079.17" y1="1845.45" x2="2143.97" y2="1845.45" style="stroke:#EAF2F3;stroke-width:9.72"/>
	<line x1="2176.37" y1="1845.45" x2="2241.17" y2="1845.45" style="stroke:#EAF2F3;stroke-width:9.72"/>
	<line x1="2273.57" y1="1845.45" x2="2338.37" y2="1845.45" style="stroke:#EAF2F3;stroke-width:9.72"/>
	<line x1="2370.77" y1="1845.45" x2="2435.57" y2="1845.45" style="stroke:#EAF2F3;stroke-width:9.72"/>
	<line x1="2467.97" y1="1845.45" x2="2532.77" y2="1845.45" style="stroke:#EAF2F3;stroke-width:9.72"/>
	<line x1="2565.17" y1="1845.45" x2="2629.97" y2="1845.45" style="stroke:#EAF2F3;stroke-width:9.72"/>
	<line x1="2662.37" y1="1845.45" x2="2727.17" y2="1845.45" style="stroke:#EAF2F3;stroke-width:9.72"/>
	<line x1="2759.57" y1="1845.45" x2="2824.37" y2="1845.45" style="stroke:#EAF2F3;stroke-width:9.72"/>
	<line x1="2856.77" y1="1845.45" x2="2921.57" y2="1845.45" style="stroke:#EAF2F3;stroke-width:9.72"/>
	<line x1="2953.97" y1="1845.45" x2="3018.77" y2="1845.45" style="stroke:#EAF2F3;stroke-width:9.72"/>
	<line x1="3051.17" y1="1845.45" x2="3115.97" y2="1845.45" style="stroke:#EAF2F3;stroke-width:9.72"/>
	<line x1="3148.37" y1="1845.45" x2="3213.17" y2="1845.45" style="stroke:#EAF2F3;stroke-width:9.72"/>
	<line x1="3245.57" y1="1845.45" x2="3310.37" y2="1845.45" style="stroke:#EAF2F3;stroke-width:9.72"/>
	<line x1="3342.77" y1="1845.45" x2="3407.57" y2="1845.45" style="stroke:#EAF2F3;stroke-width:9.72"/>
	<line x1="3439.97" y1="1845.45" x2="3504.77" y2="1845.45" style="stroke:#EAF2F3;stroke-width:9.72"/>
	<line x1="3537.17" y1="1845.45" x2="3601.97" y2="1845.45" style="stroke:#EAF2F3;stroke-width:9.72"/>
	<line x1="3634.37" y1="1845.45" x2="3699.17" y2="1845.45" style="stroke:#EAF2F3;stroke-width:9.72"/>
	<line x1="3731.57" y1="1845.45" x2="3796.37" y2="1845.45" style="stroke:#EAF2F3;stroke-width:9.72"/>
	<line x1="3828.77" y1="1845.45" x2="3893.57" y2="1845.45" style="stroke:#EAF2F3;stroke-width:9.72"/>
	<line x1="3925.97" y1="1845.45" x2="3990.77" y2="1845.45" style="stroke:#EAF2F3;stroke-width:9.72"/>
	<line x1="4023.17" y1="1845.45" x2="4087.97" y2="1845.45" style="stroke:#EAF2F3;stroke-width:9.72"/>
	<line x1="523.97" y1="2577.66" x2="588.77" y2="2577.66" style="stroke:#EAF2F3;stroke-width:9.72"/>
	<line x1="621.17" y1="2577.66" x2="685.97" y2="2577.66" style="stroke:#EAF2F3;stroke-width:9.72"/>
	<line x1="718.37" y1="2577.66" x2="783.17" y2="2577.66" style="stroke:#EAF2F3;stroke-width:9.72"/>
	<line x1="815.57" y1="2577.66" x2="880.37" y2="2577.66" style="stroke:#EAF2F3;stroke-width:9.72"/>
	<line x1="912.77" y1="2577.66" x2="977.57" y2="2577.66" style="stroke:#EAF2F3;stroke-width:9.72"/>
	<line x1="1009.97" y1="2577.66" x2="1074.77" y2="2577.66" style="stroke:#EAF2F3;stroke-width:9.72"/>
	<line x1="1107.17" y1="2577.66" x2="1171.97" y2="2577.66" style="stroke:#EAF2F3;stroke-width:9.72"/>
	<line x1="1204.37" y1="2577.66" x2="1269.17" y2="2577.66" style="stroke:#EAF2F3;stroke-width:9.72"/>
	<line x1="1301.57" y1="2577.66" x2="1366.37" y2="2577.66" style="stroke:#EAF2F3;stroke-width:9.72"/>
	<line x1="1398.77" y1="2577.66" x2="1463.57" y2="2577.66" style="stroke:#EAF2F3;stroke-width:9.72"/>
	<line x1="1495.97" y1="2577.66" x2="1560.77" y2="2577.66" style="stroke:#EAF2F3;stroke-width:9.72"/>
	<line x1="1593.17" y1="2577.66" x2="1657.97" y2="2577.66" style="stroke:#EAF2F3;stroke-width:9.72"/>
	<line x1="1690.37" y1="2577.66" x2="1755.17" y2="2577.66" style="stroke:#EAF2F3;stroke-width:9.72"/>
	<line x1="1787.57" y1="2577.66" x2="1852.37" y2="2577.66" style="stroke:#EAF2F3;stroke-width:9.72"/>
	<line x1="1884.77" y1="2577.66" x2="1949.57" y2="2577.66" style="stroke:#EAF2F3;stroke-width:9.72"/>
	<line x1="1981.97" y1="2577.66" x2="2046.77" y2="2577.66" style="stroke:#EAF2F3;stroke-width:9.72"/>
	<line x1="2079.17" y1="2577.66" x2="2143.97" y2="2577.66" style="stroke:#EAF2F3;stroke-width:9.72"/>
	<line x1="2176.37" y1="2577.66" x2="2241.17" y2="2577.66" style="stroke:#EAF2F3;stroke-width:9.72"/>
	<line x1="2273.57" y1="2577.66" x2="2338.37" y2="2577.66" style="stroke:#EAF2F3;stroke-width:9.72"/>
	<line x1="2370.77" y1="2577.66" x2="2435.57" y2="2577.66" style="stroke:#EAF2F3;stroke-width:9.72"/>
	<line x1="2467.97" y1="2577.66" x2="2532.77" y2="2577.66" style="stroke:#EAF2F3;stroke-width:9.72"/>
	<line x1="2565.17" y1="2577.66" x2="2629.97" y2="2577.66" style="stroke:#EAF2F3;stroke-width:9.72"/>
	<line x1="2662.37" y1="2577.66" x2="2727.17" y2="2577.66" style="stroke:#EAF2F3;stroke-width:9.72"/>
	<line x1="2759.57" y1="2577.66" x2="2824.37" y2="2577.66" style="stroke:#EAF2F3;stroke-width:9.72"/>
	<line x1="2856.77" y1="2577.66" x2="2921.57" y2="2577.66" style="stroke:#EAF2F3;stroke-width:9.72"/>
	<line x1="2953.97" y1="2577.66" x2="3018.77" y2="2577.66" style="stroke:#EAF2F3;stroke-width:9.72"/>
	<line x1="3051.17" y1="2577.66" x2="3115.97" y2="2577.66" style="stroke:#EAF2F3;stroke-width:9.72"/>
	<line x1="3148.37" y1="2577.66" x2="3213.17" y2="2577.66" style="stroke:#EAF2F3;stroke-width:9.72"/>
	<line x1="3245.57" y1="2577.66" x2="3310.37" y2="2577.66" style="stroke:#EAF2F3;stroke-width:9.72"/>
	<line x1="3342.77" y1="2577.66" x2="3407.57" y2="2577.66" style="stroke:#EAF2F3;stroke-width:9.72"/>
	<line x1="3439.97" y1="2577.66" x2="3504.77" y2="2577.66" style="stroke:#EAF2F3;stroke-width:9.72"/>
	<line x1="3537.17" y1="2577.66" x2="3601.97" y2="2577.66" style="stroke:#EAF2F3;stroke-width:9.72"/>
	<line x1="3634.37" y1="2577.66" x2="3699.17" y2="2577.66" style="stroke:#EAF2F3;stroke-width:9.72"/>
	<line x1="3731.57" y1="2577.66" x2="3796.37" y2="2577.66" style="stroke:#EAF2F3;stroke-width:9.72"/>
	<line x1="3828.77" y1="2577.66" x2="3893.57" y2="2577.66" style="stroke:#EAF2F3;stroke-width:9.72"/>
	<line x1="3925.97" y1="2577.66" x2="3990.77" y2="2577.66" style="stroke:#EAF2F3;stroke-width:9.72"/>
	<line x1="4023.17" y1="2577.66" x2="4087.97" y2="2577.66" style="stroke:#EAF2F3;stroke-width:9.72"/>
	<line x1="808.82" y1="2649.04" x2="808.82" y2="2584.24" style="stroke:#EAF2F3;stroke-width:9.72"/>
	<line x1="808.82" y1="2551.84" x2="808.82" y2="2487.04" style="stroke:#EAF2F3;stroke-width:9.72"/>
	<line x1="808.82" y1="2454.64" x2="808.82" y2="2389.84" style="stroke:#EAF2F3;stroke-width:9.72"/>
	<line x1="808.82" y1="2357.44" x2="808.82" y2="2292.64" style="stroke:#EAF2F3;stroke-width:9.72"/>
	<line x1="808.82" y1="2260.24" x2="808.82" y2="2195.44" style="stroke:#EAF2F3;stroke-width:9.72"/>
	<line x1="808.82" y1="2163.04" x2="808.82" y2="2098.24" style="stroke:#EAF2F3;stroke-width:9.72"/>
	<line x1="808.82" y1="2065.84" x2="808.82" y2="2001.04" style="stroke:#EAF2F3;stroke-width:9.72"/>
	<line x1="808.82" y1="1968.64" x2="808.82" y2="1903.84" style="stroke:#EAF2F3;stroke-width:9.72"/>
	<line x1="808.82" y1="1871.44" x2="808.82" y2="1806.64" style="stroke:#EAF2F3;stroke-width:9.72"/>
	<line x1="808.82" y1="1774.24" x2="808.82" y2="1709.44" style="stroke:#EAF2F3;stroke-width:9.72"/>
	<line x1="808.82" y1="1677.04" x2="808.82" y2="1612.24" style="stroke:#EAF2F3;stroke-width:9.72"/>
	<line x1="808.82" y1="1579.84" x2="808.82" y2="1515.04" style="stroke:#EAF2F3;stroke-width:9.72"/>
	<line x1="808.82" y1="1482.64" x2="808.82" y2="1417.84" style="stroke:#EAF2F3;stroke-width:9.72"/>
	<line x1="808.82" y1="1385.44" x2="808.82" y2="1320.64" style="stroke:#EAF2F3;stroke-width:9.72"/>
	<line x1="808.82" y1="1288.24" x2="808.82" y2="1223.44" style="stroke:#EAF2F3;stroke-width:9.72"/>
	<line x1="808.82" y1="1191.04" x2="808.82" y2="1126.24" style="stroke:#EAF2F3;stroke-width:9.72"/>
	<line x1="808.82" y1="1093.84" x2="808.82" y2="1029.04" style="stroke:#EAF2F3;stroke-width:9.72"/>
	<line x1="808.82" y1="996.64" x2="808.82" y2="931.84" style="stroke:#EAF2F3;stroke-width:9.72"/>
	<line x1="808.82" y1="899.44" x2="808.82" y2="834.64" style="stroke:#EAF2F3;stroke-width:9.72"/>
	<line x1="808.82" y1="802.24" x2="808.82" y2="737.44" style="stroke:#EAF2F3;stroke-width:9.72"/>
	<line x1="808.82" y1="705.04" x2="808.82" y2="640.24" style="stroke:#EAF2F3;stroke-width:9.72"/>
	<line x1="808.82" y1="607.84" x2="808.82" y2="543.04" style="stroke:#EAF2F3;stroke-width:9.72"/>
	<line x1="808.82" y1="510.64" x2="808.82" y2="445.84" style="stroke:#EAF2F3;stroke-width:9.72"/>
	<line x1="808.82" y1="413.44" x2="808.82" y2="348.64" style="stroke:#EAF2F3;stroke-width:9.72"/>
	<line x1="808.82" y1="316.24" x2="808.82" y2="309.82" style="stroke:#EAF2F3;stroke-width:9.72"/>
	<line x1="1615.44" y1="2649.04" x2="1615.44" y2="2584.24" style="stroke:#EAF2F3;stroke-width:9.72"/>
	<line x1="1615.44" y1="2551.84" x2="1615.44" y2="2487.04" style="stroke:#EAF2F3;stroke-width:9.72"/>
	<line x1="1615.44" y1="2454.64" x2="1615.44" y2="2389.84" style="stroke:#EAF2F3;stroke-width:9.72"/>
	<line x1="1615.44" y1="2357.44" x2="1615.44" y2="2292.64" style="stroke:#EAF2F3;stroke-width:9.72"/>
	<line x1="1615.44" y1="2260.24" x2="1615.44" y2="2195.44" style="stroke:#EAF2F3;stroke-width:9.72"/>
	<line x1="1615.44" y1="2163.04" x2="1615.44" y2="2098.24" style="stroke:#EAF2F3;stroke-width:9.72"/>
	<line x1="1615.44" y1="2065.84" x2="1615.44" y2="2001.04" style="stroke:#EAF2F3;stroke-width:9.72"/>
	<line x1="1615.44" y1="1968.64" x2="1615.44" y2="1903.84" style="stroke:#EAF2F3;stroke-width:9.72"/>
	<line x1="1615.44" y1="1871.44" x2="1615.44" y2="1806.64" style="stroke:#EAF2F3;stroke-width:9.72"/>
	<line x1="1615.44" y1="1774.24" x2="1615.44" y2="1709.44" style="stroke:#EAF2F3;stroke-width:9.72"/>
	<line x1="1615.44" y1="1677.04" x2="1615.44" y2="1612.24" style="stroke:#EAF2F3;stroke-width:9.72"/>
	<line x1="1615.44" y1="1579.84" x2="1615.44" y2="1515.04" style="stroke:#EAF2F3;stroke-width:9.72"/>
	<line x1="1615.44" y1="1482.64" x2="1615.44" y2="1417.84" style="stroke:#EAF2F3;stroke-width:9.72"/>
	<line x1="1615.44" y1="1385.44" x2="1615.44" y2="1320.64" style="stroke:#EAF2F3;stroke-width:9.72"/>
	<line x1="1615.44" y1="1288.24" x2="1615.44" y2="1223.44" style="stroke:#EAF2F3;stroke-width:9.72"/>
	<line x1="1615.44" y1="1191.04" x2="1615.44" y2="1126.24" style="stroke:#EAF2F3;stroke-width:9.72"/>
	<line x1="1615.44" y1="1093.84" x2="1615.44" y2="1029.04" style="stroke:#EAF2F3;stroke-width:9.72"/>
	<line x1="1615.44" y1="996.64" x2="1615.44" y2="931.84" style="stroke:#EAF2F3;stroke-width:9.72"/>
	<line x1="1615.44" y1="899.44" x2="1615.44" y2="834.64" style="stroke:#EAF2F3;stroke-width:9.72"/>
	<line x1="1615.44" y1="802.24" x2="1615.44" y2="737.44" style="stroke:#EAF2F3;stroke-width:9.72"/>
	<line x1="1615.44" y1="705.04" x2="1615.44" y2="640.24" style="stroke:#EAF2F3;stroke-width:9.72"/>
	<line x1="1615.44" y1="607.84" x2="1615.44" y2="543.04" style="stroke:#EAF2F3;stroke-width:9.72"/>
	<line x1="1615.44" y1="510.64" x2="1615.44" y2="445.84" style="stroke:#EAF2F3;stroke-width:9.72"/>
	<line x1="1615.44" y1="413.44" x2="1615.44" y2="348.64" style="stroke:#EAF2F3;stroke-width:9.72"/>
	<line x1="1615.44" y1="316.24" x2="1615.44" y2="309.82" style="stroke:#EAF2F3;stroke-width:9.72"/>
	<line x1="2422.07" y1="2649.04" x2="2422.07" y2="2584.24" style="stroke:#EAF2F3;stroke-width:9.72"/>
	<line x1="2422.07" y1="2551.84" x2="2422.07" y2="2487.04" style="stroke:#EAF2F3;stroke-width:9.72"/>
	<line x1="2422.07" y1="2454.64" x2="2422.07" y2="2389.84" style="stroke:#EAF2F3;stroke-width:9.72"/>
	<line x1="2422.07" y1="2357.44" x2="2422.07" y2="2292.64" style="stroke:#EAF2F3;stroke-width:9.72"/>
	<line x1="2422.07" y1="2260.24" x2="2422.07" y2="2195.44" style="stroke:#EAF2F3;stroke-width:9.72"/>
	<line x1="2422.07" y1="2163.04" x2="2422.07" y2="2098.24" style="stroke:#EAF2F3;stroke-width:9.72"/>
	<line x1="2422.07" y1="2065.84" x2="2422.07" y2="2001.04" style="stroke:#EAF2F3;stroke-width:9.72"/>
	<line x1="2422.07" y1="1968.64" x2="2422.07" y2="1903.84" style="stroke:#EAF2F3;stroke-width:9.72"/>
	<line x1="2422.07" y1="1871.44" x2="2422.07" y2="1806.64" style="stroke:#EAF2F3;stroke-width:9.72"/>
	<line x1="2422.07" y1="1774.24" x2="2422.07" y2="1709.44" style="stroke:#EAF2F3;stroke-width:9.72"/>
	<line x1="2422.07" y1="1677.04" x2="2422.07" y2="1612.24" style="stroke:#EAF2F3;stroke-width:9.72"/>
	<line x1="2422.07" y1="1579.84" x2="2422.07" y2="1515.04" style="stroke:#EAF2F3;stroke-width:9.72"/>
	<line x1="2422.07" y1="1482.64" x2="2422.07" y2="1417.84" style="stroke:#EAF2F3;stroke-width:9.72"/>
	<line x1="2422.07" y1="1385.44" x2="2422.07" y2="1320.64" style="stroke:#EAF2F3;stroke-width:9.72"/>
	<line x1="2422.07" y1="1288.24" x2="2422.07" y2="1223.44" style="stroke:#EAF2F3;stroke-width:9.72"/>
	<line x1="2422.07" y1="1191.04" x2="2422.07" y2="1126.24" style="stroke:#EAF2F3;stroke-width:9.72"/>
	<line x1="2422.07" y1="1093.84" x2="2422.07" y2="1029.04" style="stroke:#EAF2F3;stroke-width:9.72"/>
	<line x1="2422.07" y1="996.64" x2="2422.07" y2="931.84" style="stroke:#EAF2F3;stroke-width:9.72"/>
	<line x1="2422.07" y1="899.44" x2="2422.07" y2="834.64" style="stroke:#EAF2F3;stroke-width:9.72"/>
	<line x1="2422.07" y1="802.24" x2="2422.07" y2="737.44" style="stroke:#EAF2F3;stroke-width:9.72"/>
	<line x1="2422.07" y1="705.04" x2="2422.07" y2="640.24" style="stroke:#EAF2F3;stroke-width:9.72"/>
	<line x1="2422.07" y1="607.84" x2="2422.07" y2="543.04" style="stroke:#EAF2F3;stroke-width:9.72"/>
	<line x1="2422.07" y1="510.64" x2="2422.07" y2="445.84" style="stroke:#EAF2F3;stroke-width:9.72"/>
	<line x1="2422.07" y1="413.44" x2="2422.07" y2="348.64" style="stroke:#EAF2F3;stroke-width:9.72"/>
	<line x1="2422.07" y1="316.24" x2="2422.07" y2="309.82" style="stroke:#EAF2F3;stroke-width:9.72"/>
	<line x1="3228.69" y1="2649.04" x2="3228.69" y2="2584.24" style="stroke:#EAF2F3;stroke-width:9.72"/>
	<line x1="3228.69" y1="2551.84" x2="3228.69" y2="2487.04" style="stroke:#EAF2F3;stroke-width:9.72"/>
	<line x1="3228.69" y1="2454.64" x2="3228.69" y2="2389.84" style="stroke:#EAF2F3;stroke-width:9.72"/>
	<line x1="3228.69" y1="2357.44" x2="3228.69" y2="2292.64" style="stroke:#EAF2F3;stroke-width:9.72"/>
	<line x1="3228.69" y1="2260.24" x2="3228.69" y2="2195.44" style="stroke:#EAF2F3;stroke-width:9.72"/>
	<line x1="3228.69" y1="2163.04" x2="3228.69" y2="2098.24" style="stroke:#EAF2F3;stroke-width:9.72"/>
	<line x1="3228.69" y1="2065.84" x2="3228.69" y2="2001.04" style="stroke:#EAF2F3;stroke-width:9.72"/>
	<line x1="3228.69" y1="1968.64" x2="3228.69" y2="1903.84" style="stroke:#EAF2F3;stroke-width:9.72"/>
	<line x1="3228.69" y1="1871.44" x2="3228.69" y2="1806.64" style="stroke:#EAF2F3;stroke-width:9.72"/>
	<line x1="3228.69" y1="1774.24" x2="3228.69" y2="1709.44" style="stroke:#EAF2F3;stroke-width:9.72"/>
	<line x1="3228.69" y1="1677.04" x2="3228.69" y2="1612.24" style="stroke:#EAF2F3;stroke-width:9.72"/>
	<line x1="3228.69" y1="1579.84" x2="3228.69" y2="1515.04" style="stroke:#EAF2F3;stroke-width:9.72"/>
	<line x1="3228.69" y1="1482.64" x2="3228.69" y2="1417.84" style="stroke:#EAF2F3;stroke-width:9.72"/>
	<line x1="3228.69" y1="1385.44" x2="3228.69" y2="1320.64" style="stroke:#EAF2F3;stroke-width:9.72"/>
	<line x1="3228.69" y1="1288.24" x2="3228.69" y2="1223.44" style="stroke:#EAF2F3;stroke-width:9.72"/>
	<line x1="3228.69" y1="1191.04" x2="3228.69" y2="1126.24" style="stroke:#EAF2F3;stroke-width:9.72"/>
	<line x1="3228.69" y1="1093.84" x2="3228.69" y2="1029.04" style="stroke:#EAF2F3;stroke-width:9.72"/>
	<line x1="3228.69" y1="996.64" x2="3228.69" y2="931.84" style="stroke:#EAF2F3;stroke-width:9.72"/>
	<line x1="3228.69" y1="899.44" x2="3228.69" y2="834.64" style="stroke:#EAF2F3;stroke-width:9.72"/>
	<line x1="3228.69" y1="802.24" x2="3228.69" y2="737.44" style="stroke:#EAF2F3;stroke-width:9.72"/>
	<line x1="3228.69" y1="705.04" x2="3228.69" y2="640.24" style="stroke:#EAF2F3;stroke-width:9.72"/>
	<line x1="3228.69" y1="607.84" x2="3228.69" y2="543.04" style="stroke:#EAF2F3;stroke-width:9.72"/>
	<line x1="3228.69" y1="510.64" x2="3228.69" y2="445.84" style="stroke:#EAF2F3;stroke-width:9.72"/>
	<line x1="3228.69" y1="413.44" x2="3228.69" y2="348.64" style="stroke:#EAF2F3;stroke-width:9.72"/>
	<line x1="3228.69" y1="316.24" x2="3228.69" y2="309.82" style="stroke:#EAF2F3;stroke-width:9.72"/>
	<line x1="4035.32" y1="2649.04" x2="4035.32" y2="2584.24" style="stroke:#EAF2F3;stroke-width:9.72"/>
	<line x1="4035.32" y1="2551.84" x2="4035.32" y2="2487.04" style="stroke:#EAF2F3;stroke-width:9.72"/>
	<line x1="4035.32" y1="2454.64" x2="4035.32" y2="2389.84" style="stroke:#EAF2F3;stroke-width:9.72"/>
	<line x1="4035.32" y1="2357.44" x2="4035.32" y2="2292.64" style="stroke:#EAF2F3;stroke-width:9.72"/>
	<line x1="4035.32" y1="2260.24" x2="4035.32" y2="2195.44" style="stroke:#EAF2F3;stroke-width:9.72"/>
	<line x1="4035.32" y1="2163.04" x2="4035.32" y2="2098.24" style="stroke:#EAF2F3;stroke-width:9.72"/>
	<line x1="4035.32" y1="2065.84" x2="4035.32" y2="2001.04" style="stroke:#EAF2F3;stroke-width:9.72"/>
	<line x1="4035.32" y1="1968.64" x2="4035.32" y2="1903.84" style="stroke:#EAF2F3;stroke-width:9.72"/>
	<line x1="4035.32" y1="1871.44" x2="4035.32" y2="1806.64" style="stroke:#EAF2F3;stroke-width:9.72"/>
	<line x1="4035.32" y1="1774.24" x2="4035.32" y2="1709.44" style="stroke:#EAF2F3;stroke-width:9.72"/>
	<line x1="4035.32" y1="1677.04" x2="4035.32" y2="1612.24" style="stroke:#EAF2F3;stroke-width:9.72"/>
	<line x1="4035.32" y1="1579.84" x2="4035.32" y2="1515.04" style="stroke:#EAF2F3;stroke-width:9.72"/>
	<line x1="4035.32" y1="1482.64" x2="4035.32" y2="1417.84" style="stroke:#EAF2F3;stroke-width:9.72"/>
	<line x1="4035.32" y1="1385.44" x2="4035.32" y2="1320.64" style="stroke:#EAF2F3;stroke-width:9.72"/>
	<line x1="4035.32" y1="1288.24" x2="4035.32" y2="1223.44" style="stroke:#EAF2F3;stroke-width:9.72"/>
	<line x1="4035.32" y1="1191.04" x2="4035.32" y2="1126.24" style="stroke:#EAF2F3;stroke-width:9.72"/>
	<line x1="4035.32" y1="1093.84" x2="4035.32" y2="1029.04" style="stroke:#EAF2F3;stroke-width:9.72"/>
	<line x1="4035.32" y1="996.64" x2="4035.32" y2="931.84" style="stroke:#EAF2F3;stroke-width:9.72"/>
	<line x1="4035.32" y1="899.44" x2="4035.32" y2="834.64" style="stroke:#EAF2F3;stroke-width:9.72"/>
	<line x1="4035.32" y1="802.24" x2="4035.32" y2="737.44" style="stroke:#EAF2F3;stroke-width:9.72"/>
	<line x1="4035.32" y1="705.04" x2="4035.32" y2="640.24" style="stroke:#EAF2F3;stroke-width:9.72"/>
	<line x1="4035.32" y1="607.84" x2="4035.32" y2="543.04" style="stroke:#EAF2F3;stroke-width:9.72"/>
	<line x1="4035.32" y1="510.64" x2="4035.32" y2="445.84" style="stroke:#EAF2F3;stroke-width:9.72"/>
	<line x1="4035.32" y1="413.44" x2="4035.32" y2="348.64" style="stroke:#EAF2F3;stroke-width:9.72"/>
	<line x1="4035.32" y1="316.24" x2="4035.32" y2="309.82" style="stroke:#EAF2F3;stroke-width:9.72"/>
	<path d=" M1818.11 381.21 L2943.17 2465.27" stroke-linejoin="round" style="fill:none;stroke:#C0C0C0;stroke-width:9.72"/>
	<path d=" M1818.11 381.21 L693.06 2465.27" stroke-linejoin="round" style="fill:none;stroke:#C0C0C0;stroke-width:9.72"/>
	<circle cx="2306.81" cy="1606.16" r="21.74" style="fill:#1A476F;fill-opacity:0.20"/>
	<circle cx="2306.81" cy="1606.16" r="16.88" style="fill:none;stroke:#1A476F;stroke-opacity:0.20;stroke-width:9.72"/>
	<circle cx="1066.33" cy="1141.76" r="21.74" style="fill:#1A476F;fill-opacity:0.20"/>
	<circle cx="1066.33" cy="1141.76" r="16.88" style="fill:none;stroke:#1A476F;stroke-opacity:0.20;stroke-width:9.72"/>
	<circle cx="2973.88" cy="1235.25" r="21.74" style="fill:#1A476F;fill-opacity:0.20"/>
	<circle cx="2973.88" cy="1235.25" r="16.88" style="fill:none;stroke:#1A476F;stroke-opacity:0.20;stroke-width:9.72"/>
	<circle cx="1102.11" cy="1771.71" r="21.74" style="fill:#1A476F;fill-opacity:0.20"/>
	<circle cx="1102.11" cy="1771.71" r="16.88" style="fill:none;stroke:#1A476F;stroke-opacity:0.20;stroke-width:9.72"/>
	<circle cx="1730.53" cy="1750.78" r="21.74" style="fill:#1A476F;fill-opacity:0.20"/>
	<circle cx="1730.53" cy="1750.78" r="16.88" style="fill:none;stroke:#1A476F;stroke-opacity:0.20;stroke-width:9.72"/>
	<circle cx="1419.19" cy="1530.39" r="21.74" style="fill:#1A476F;fill-opacity:0.20"/>
	<circle cx="1419.19" cy="1530.39" r="16.88" style="fill:none;stroke:#1A476F;stroke-opacity:0.20;stroke-width:9.72"/>
	<circle cx="595.18" cy="1270.69" r="21.74" style="fill:#1A476F;fill-opacity:0.20"/>
	<circle cx="595.18" cy="1270.69" r="16.88" style="fill:none;stroke:#1A476F;stroke-opacity:0.20;stroke-width:9.72"/>
	<circle cx="1580.34" cy="1871.44" r="21.74" style="fill:#1A476F;fill-opacity:0.20"/>
	<circle cx="1580.34" cy="1871.44" r="16.88" style="fill:none;stroke:#1A476F;stroke-opacity:0.20;stroke-width:9.72"/>
	<circle cx="2354.74" cy="2465.27" r="21.74" style="fill:#1A476F;fill-opacity:0.20"/>
	<circle cx="2354.74" cy="2465.27" r="16.88" style="fill:none;stroke:#1A476F;stroke-opacity:0.20;stroke-width:9.72"/>
	<circle cx="3587.12" cy="1465.93" r="21.74" style="fill:#1A476F;fill-opacity:0.20"/>
	<circle cx="3587.12" cy="1465.93" r="16.88" style="fill:none;stroke:#1A476F;stroke-opacity:0.20;stroke-width:9.72"/>
	<circle cx="1236.77" cy="1062.96" r="21.74" style="fill:#1A476F;fill-opacity:0.20"/>
	<circle cx="1236.77" cy="1062.96" r="16.88" style="fill:none;stroke:#1A476F;stroke-opacity:0.20;stroke-width:9.72"/>
	<circle cx="2202.02" cy="1278.79" r="21.74" style="fill:#1A476F;fill-opacity:0.20"/>
	<circle cx="2202.02" cy="1278.79" r="16.88" style="fill:none;stroke:#1A476F;stroke-opacity:0.20;stroke-width:9.72"/>
	<circle cx="1580.34" cy="1126.24" r="21.74" style="fill:#1A476F;fill-opacity:0.20"/>
	<circle cx="1580.34" cy="1126.24" r="16.88" style="fill:none;stroke:#1A476F;stroke-opacity:0.20;stroke-width:9.72"/>
	<circle cx="1485.34" cy="681.75" r="21.74" style="fill:#1A476F;fill-opacity:0.20"/>
	<circle cx="1485.34" cy="681.75" r="16.88" style="fill:none;stroke:#1A476F;stroke-opacity:0.20;stroke-width:9.72"/>
	<circle cx="2614.44" cy="1126.91" r="21.74" style="fill:#1A476F;fill-opacity:0.20"/>
	<circle cx="2614.44" cy="1126.91" r="16.88" style="fill:none;stroke:#1A476F;stroke-opacity:0.20;stroke-width:9.72"/>
	<circle cx="2639.25" cy="1747.41" r="21.74" style="fill:#1A476F;fill-opacity:0.20"/>
	<circle cx="2639.25" cy="1747.41" r="16.88" style="fill:none;stroke:#1A476F;stroke-opacity:0.20;stroke-width:9.72"/>
	<circle cx="3783.21" cy="1634.34" r="21.74" style="fill:#1A476F;fill-opacity:0.20"/>
	<circle cx="3783.21" cy="1634.34" r="16.88" style="fill:none;stroke:#1A476F;stroke-opacity:0.20;stroke-width:9.72"/>
	<circle cx="3059.44" cy="1177.71" r="21.74" style="fill:#1A476F;fill-opacity:0.20"/>
	<circle cx="3059.44" cy="1177.71" r="16.88" style="fill:none;stroke:#1A476F;stroke-opacity:0.20;stroke-width:9.72"/>
	<circle cx="2690.89" cy="1410.24" r="21.74" style="fill:#1A476F;fill-opacity:0.20"/>
	<circle cx="2690.89" cy="1410.24" r="16.88" style="fill:none;stroke:#1A476F;stroke-opacity:0.20;stroke-width:9.72"/>
	<circle cx="1010.48" cy="1337.18" r="21.74" style="fill:#1A476F;fill-opacity:0.20"/>
	<circle cx="1010.48" cy="1337.18" r="16.88" style="fill:none;stroke:#1A476F;stroke-opacity:0.20;stroke-width:9.72"/>
	<path d=" M1818.11 381.21 L1818.11 2465.27" stroke-linejoin="round" style="fill:none;stroke:#C10534;stroke-width:9.72"/>
	<line x1="523.97" y1="2649.04" x2="523.97" y2="309.82" style="stroke:#000000;stroke-width:6.48"/>
	<line x1="523.97" y1="381.04" x2="479.08" y2="381.04" style="stroke:#000000;stroke-width:6.48"/>
	<text x="456.47" y="420.47" style="font-family:'Helvetica';font-size:112.56px;fill:#000000" text-anchor="end">0</text>
	<line x1="523.97" y1="1113.24" x2="479.08" y2="1113.24" style="stroke:#000000;stroke-width:6.48"/>
	<text x="456.47" y="1152.68" style="font-family:'Helvetica';font-size:112.56px;fill:#000000" text-anchor="end">.05</text>
	<line x1="523.97" y1="1845.45" x2="479.08" y2="1845.45" style="stroke:#000000;stroke-width:6.48"/>
	<text x="456.47" y="1884.89" style="font-family:'Helvetica';font-size:112.56px;fill:#000000" text-anchor="end">.1</text>
	<line x1="523.97" y1="2577.66" x2="479.08" y2="2577.66" style="stroke:#000000;stroke-width:6.48"/>
	<text x="456.47" y="2617.09" style="font-family:'Helvetica';font-size:112.56px;fill:#000000" text-anchor="end">.15</text>
	<text x="214.55" y="1479.43" style="font-family:'Helvetica';font-size:112.56px;fill:#000000" transform="rotate(-90 214.55,1479.43)" text-anchor="middle">Standard error</text>
	<line x1="523.97" y1="2649.04" x2="4106.70" y2="2649.04" style="stroke:#000000;stroke-width:6.48"/>
	<line x1="808.82" y1="2649.04" x2="808.82" y2="2693.93" style="stroke:#000000;stroke-width:6.48"/>
	<text x="808.82" y="2795.24" style="font-family:'Helvetica';font-size:112.56px;fill:#000000" text-anchor="middle">.2</text>
	<line x1="1615.44" y1="2649.04" x2="1615.44" y2="2693.93" style="stroke:#000000;stroke-width:6.48"/>
	<text x="1615.44" y="2795.24" style="font-family:'Helvetica';font-size:112.56px;fill:#000000" text-anchor="middle">.4</text>
	<line x1="2422.07" y1="2649.04" x2="2422.07" y2="2693.93" style="stroke:#000000;stroke-width:6.48"/>
	<text x="2422.07" y="2795.24" style="font-family:'Helvetica';font-size:112.56px;fill:#000000" text-anchor="middle">.6</text>
	<line x1="3228.69" y1="2649.04" x2="3228.69" y2="2693.93" style="stroke:#000000;stroke-width:6.48"/>
	<text x="3228.69" y="2795.24" style="font-family:'Helvetica';font-size:112.56px;fill:#000000" text-anchor="middle">.8</text>
	<line x1="4035.32" y1="2649.04" x2="4035.32" y2="2693.93" style="stroke:#000000;stroke-width:6.48"/>
	<text x="4035.32" y="2795.24" style="font-family:'Helvetica';font-size:112.56px;fill:#000000" text-anchor="middle">1</text>
	<text x="2315.25" y="2918.94" style="font-family:'Helvetica';font-size:112.56px;fill:#000000" text-anchor="middle">R ecurrence probability</text>
	<rect x="4145.51" y="1217.03" width="1102.28" height="524.64" style="fill:#FFFFFF"/>
	<rect x="4148.75" y="1220.27" width="1095.80" height="518.16" style="fill:none;stroke:#000000;stroke-width:6.48"/>
	<line x1="4194.11" y1="1321.82" x2="4317.81" y2="1321.82" style="stroke:#C0C0C0;stroke-width:9.72"/>
	<circle cx="4256.04" cy="1479.43" r="21.74" style="fill:#1A476F;fill-opacity:0.20"/>
	<circle cx="4256.04" cy="1479.43" r="16.88" style="fill:none;stroke:#1A476F;stroke-opacity:0.20;stroke-width:9.72"/>
	<line x1="4194.11" y1="1636.88" x2="4317.81" y2="1636.88" style="stroke:#C10534;stroke-width:9.72"/>
	<text x="4385.31" y="1361.26" style="font-family:'Helvetica';font-size:112.56px;fill:#000000">Pseudo 95% CI</text>
	<text x="4385.31" y="1518.87" style="font-family:'Helvetica';font-size:112.56px;fill:#000000">Studies</text>
	<text x="4385.31" y="1676.31" style="fill:#000000">
		<tspan style="font-family:'Helvetica';font-size:112.56px">Estimated θ</tspan>
		<tspan dy="16.08px" style="font-family:'Helvetica';font-size:65.62px">IV</tspan>
	</text>
	<text x="543.38" y="3073.34" style="font-family:'Helvetica';font-size:112.56px;fill:#000000">Egger test, p=0.45</text>
	<text x="2315.25" y="243.10" style="font-family:'Helvetica';font-size:157.44px;fill:#000000" text-anchor="middle">Funnel plot</text>
</svg>
